%TF.GenerationSoftware,KiCad,Pcbnew,(6.0.9)*%
%TF.CreationDate,2023-01-11T20:23:52+07:00*%
%TF.ProjectId,ESP12CORE_B_MULTI,45535031-3243-44f5-9245-5f425f4d554c,rev?*%
%TF.SameCoordinates,Original*%
%TF.FileFunction,Soldermask,Top*%
%TF.FilePolarity,Negative*%
%FSLAX46Y46*%
G04 Gerber Fmt 4.6, Leading zero omitted, Abs format (unit mm)*
G04 Created by KiCad (PCBNEW (6.0.9)) date 2023-01-11 20:23:52*
%MOMM*%
%LPD*%
G01*
G04 APERTURE LIST*
G04 Aperture macros list*
%AMRoundRect*
0 Rectangle with rounded corners*
0 $1 Rounding radius*
0 $2 $3 $4 $5 $6 $7 $8 $9 X,Y pos of 4 corners*
0 Add a 4 corners polygon primitive as box body*
4,1,4,$2,$3,$4,$5,$6,$7,$8,$9,$2,$3,0*
0 Add four circle primitives for the rounded corners*
1,1,$1+$1,$2,$3*
1,1,$1+$1,$4,$5*
1,1,$1+$1,$6,$7*
1,1,$1+$1,$8,$9*
0 Add four rect primitives between the rounded corners*
20,1,$1+$1,$2,$3,$4,$5,0*
20,1,$1+$1,$4,$5,$6,$7,0*
20,1,$1+$1,$6,$7,$8,$9,0*
20,1,$1+$1,$8,$9,$2,$3,0*%
G04 Aperture macros list end*
%ADD10RoundRect,0.300000X0.600000X0.600000X-0.600000X0.600000X-0.600000X-0.600000X0.600000X-0.600000X0*%
%ADD11C,1.800000*%
%ADD12C,0.900000*%
%ADD13RoundRect,0.050000X-0.850000X0.450000X-0.850000X-0.450000X0.850000X-0.450000X0.850000X0.450000X0*%
%ADD14RoundRect,0.050000X-0.600000X0.450000X-0.600000X-0.450000X0.600000X-0.450000X0.600000X0.450000X0*%
%ADD15C,6.500000*%
%ADD16RoundRect,0.200000X-0.150000X0.587500X-0.150000X-0.587500X0.150000X-0.587500X0.150000X0.587500X0*%
%ADD17RoundRect,0.300000X0.262500X0.450000X-0.262500X0.450000X-0.262500X-0.450000X0.262500X-0.450000X0*%
%ADD18C,1.500000*%
%ADD19RoundRect,0.050000X0.850000X0.850000X-0.850000X0.850000X-0.850000X-0.850000X0.850000X-0.850000X0*%
%ADD20O,1.800000X1.800000*%
%ADD21RoundRect,0.200000X-0.512500X-0.150000X0.512500X-0.150000X0.512500X0.150000X-0.512500X0.150000X0*%
%ADD22RoundRect,0.300000X-0.650000X0.325000X-0.650000X-0.325000X0.650000X-0.325000X0.650000X0.325000X0*%
%ADD23RoundRect,0.300000X0.450000X-0.262500X0.450000X0.262500X-0.450000X0.262500X-0.450000X-0.262500X0*%
%ADD24RoundRect,0.050000X0.600000X-0.450000X0.600000X0.450000X-0.600000X0.450000X-0.600000X-0.450000X0*%
%ADD25RoundRect,0.300000X-0.600000X-0.600000X0.600000X-0.600000X0.600000X0.600000X-0.600000X0.600000X0*%
%ADD26RoundRect,0.050000X-1.250000X-1.150000X1.250000X-1.150000X1.250000X1.150000X-1.250000X1.150000X0*%
%ADD27RoundRect,0.300000X-0.262500X-0.450000X0.262500X-0.450000X0.262500X0.450000X-0.262500X0.450000X0*%
%ADD28RoundRect,0.300000X-1.250000X-0.550000X1.250000X-0.550000X1.250000X0.550000X-1.250000X0.550000X0*%
%ADD29RoundRect,0.293750X-0.456250X0.243750X-0.456250X-0.243750X0.456250X-0.243750X0.456250X0.243750X0*%
%ADD30RoundRect,0.050000X-0.850000X0.850000X-0.850000X-0.850000X0.850000X-0.850000X0.850000X0.850000X0*%
%ADD31RoundRect,0.200000X-0.150000X0.512500X-0.150000X-0.512500X0.150000X-0.512500X0.150000X0.512500X0*%
%ADD32RoundRect,0.050000X-0.175000X0.250000X-0.175000X-0.250000X0.175000X-0.250000X0.175000X0.250000X0*%
%ADD33RoundRect,0.200000X-0.150000X0.825000X-0.150000X-0.825000X0.150000X-0.825000X0.150000X0.825000X0*%
%ADD34RoundRect,0.200000X-0.825000X-0.150000X0.825000X-0.150000X0.825000X0.150000X-0.825000X0.150000X0*%
%ADD35RoundRect,0.300000X0.475000X-0.250000X0.475000X0.250000X-0.475000X0.250000X-0.475000X-0.250000X0*%
%ADD36RoundRect,0.300000X-0.450000X0.262500X-0.450000X-0.262500X0.450000X-0.262500X0.450000X0.262500X0*%
%ADD37RoundRect,0.200000X-0.875000X-0.150000X0.875000X-0.150000X0.875000X0.150000X-0.875000X0.150000X0*%
%ADD38RoundRect,0.050000X-1.250000X-0.500000X1.250000X-0.500000X1.250000X0.500000X-1.250000X0.500000X0*%
%ADD39RoundRect,0.050000X-0.500000X-0.900000X0.500000X-0.900000X0.500000X0.900000X-0.500000X0.900000X0*%
%ADD40RoundRect,0.300000X-0.250000X-0.475000X0.250000X-0.475000X0.250000X0.475000X-0.250000X0.475000X0*%
%ADD41RoundRect,0.050000X-1.500000X-1.500000X1.500000X-1.500000X1.500000X1.500000X-1.500000X1.500000X0*%
%ADD42C,3.100000*%
%ADD43RoundRect,0.050000X0.200000X0.950000X-0.200000X0.950000X-0.200000X-0.950000X0.200000X-0.950000X0*%
%ADD44RoundRect,0.200000X0.150000X-0.587500X0.150000X0.587500X-0.150000X0.587500X-0.150000X-0.587500X0*%
%ADD45RoundRect,0.300000X0.375000X1.075000X-0.375000X1.075000X-0.375000X-1.075000X0.375000X-1.075000X0*%
%ADD46O,0.900000X0.900000*%
%ADD47RoundRect,0.050000X0.225000X0.650000X-0.225000X0.650000X-0.225000X-0.650000X0.225000X-0.650000X0*%
%ADD48O,1.550000X2.100000*%
%ADD49O,1.250000X1.900000*%
%ADD50RoundRect,0.293750X0.456250X-0.243750X0.456250X0.243750X-0.456250X0.243750X-0.456250X-0.243750X0*%
G04 APERTURE END LIST*
D10*
%TO.C,J1*%
X145843909Y-95758668D03*
D11*
X143303909Y-95758668D03*
X145843909Y-93218668D03*
X143303909Y-93218668D03*
X145843909Y-90678668D03*
X143303909Y-90678668D03*
X145843909Y-88138668D03*
X143303909Y-88138668D03*
X145843909Y-85598668D03*
X143303909Y-85598668D03*
%TD*%
D12*
%TO.C,SW1*%
X110200827Y-62587897D03*
D13*
X110200827Y-60887897D03*
X110200827Y-64287897D03*
%TD*%
D14*
%TO.C,D1*%
X130825000Y-93250000D03*
X130825000Y-96550000D03*
%TD*%
D12*
%TO.C,H4*%
X144352944Y-103302944D03*
X146050000Y-102600000D03*
D15*
X146050000Y-105000000D03*
D12*
X147747056Y-103302944D03*
X146050000Y-107400000D03*
X144352944Y-106697056D03*
X147747056Y-106697056D03*
X143650000Y-105000000D03*
X148450000Y-105000000D03*
%TD*%
D16*
%TO.C,Q2*%
X129973541Y-82670793D03*
X128073541Y-82670793D03*
X129023541Y-84545793D03*
%TD*%
D17*
%TO.C,R7*%
X131915699Y-80238384D03*
X130090699Y-80238384D03*
%TD*%
D18*
%TO.C,FID5*%
X108966000Y-102870000D03*
%TD*%
D19*
%TO.C,J6*%
X143606599Y-74422000D03*
D20*
X143606599Y-71882000D03*
X143606599Y-69342000D03*
%TD*%
D21*
%TO.C,U8*%
X121392500Y-94180000D03*
X121392500Y-95130000D03*
X121392500Y-96080000D03*
X123667500Y-96080000D03*
X123667500Y-94180000D03*
%TD*%
D22*
%TO.C,C14*%
X118480000Y-97075000D03*
X118480000Y-100025000D03*
%TD*%
D23*
%TO.C,R27*%
X122174000Y-92352500D03*
X122174000Y-90527500D03*
%TD*%
D24*
%TO.C,D4*%
X128350000Y-96525000D03*
X128350000Y-93225000D03*
%TD*%
D25*
%TO.C,J4*%
X105204868Y-72917125D03*
D11*
X107744868Y-72917125D03*
X105204868Y-75457125D03*
X107744868Y-75457125D03*
X105204868Y-77997125D03*
X107744868Y-77997125D03*
X105204868Y-80537125D03*
X107744868Y-80537125D03*
X105204868Y-83077125D03*
X107744868Y-83077125D03*
X105204868Y-85617125D03*
X107744868Y-85617125D03*
X105204868Y-88157125D03*
X107744868Y-88157125D03*
X105204868Y-90697125D03*
X107744868Y-90697125D03*
X105204868Y-93237125D03*
X107744868Y-93237125D03*
X105204868Y-95777125D03*
X107744868Y-95777125D03*
%TD*%
D26*
%TO.C,D5*%
X133622000Y-94488000D03*
X137922000Y-94488000D03*
%TD*%
D17*
%TO.C,R5*%
X132933550Y-72136000D03*
X131108550Y-72136000D03*
%TD*%
D14*
%TO.C,D3*%
X125852177Y-93199169D03*
X125852177Y-96499169D03*
%TD*%
D17*
%TO.C,R14*%
X126333864Y-83566000D03*
X124508864Y-83566000D03*
%TD*%
D12*
%TO.C,H1*%
X144352944Y-62052944D03*
X144352944Y-65447056D03*
X147747056Y-65447056D03*
X146050000Y-61350000D03*
X147747056Y-62052944D03*
X143650000Y-63750000D03*
X146050000Y-66150000D03*
D15*
X146050000Y-63750000D03*
D12*
X148450000Y-63750000D03*
%TD*%
D17*
%TO.C,R3*%
X132932840Y-68072000D03*
X131107840Y-68072000D03*
%TD*%
D27*
%TO.C,R24*%
X124510809Y-85598000D03*
X126335809Y-85598000D03*
%TD*%
D16*
%TO.C,Q4*%
X138663636Y-97959082D03*
X136763636Y-97959082D03*
X137713636Y-99834082D03*
%TD*%
D28*
%TO.C,C12*%
X133186648Y-83263189D03*
X137586648Y-83263189D03*
%TD*%
D17*
%TO.C,R12*%
X117752500Y-90170000D03*
X115927500Y-90170000D03*
%TD*%
D29*
%TO.C,D2*%
X124538237Y-89565000D03*
X124538237Y-91440000D03*
%TD*%
D16*
%TO.C,Q3*%
X114197348Y-90358224D03*
X112297348Y-90358224D03*
X113247348Y-92233224D03*
%TD*%
D28*
%TO.C,C7*%
X133182000Y-89154000D03*
X137582000Y-89154000D03*
%TD*%
D27*
%TO.C,R9*%
X131098906Y-74168000D03*
X132923906Y-74168000D03*
%TD*%
D30*
%TO.C,J2*%
X129480000Y-99133737D03*
D20*
X126940000Y-99133737D03*
X124400000Y-99133737D03*
X121860000Y-99133737D03*
%TD*%
D19*
%TO.C,J5*%
X147500856Y-76995980D03*
D20*
X147500856Y-74455980D03*
X147500856Y-71915980D03*
X147500856Y-69375980D03*
%TD*%
D27*
%TO.C,R4*%
X131105336Y-70104000D03*
X132930336Y-70104000D03*
%TD*%
D18*
%TO.C,FID6*%
X142240000Y-102616000D03*
%TD*%
D12*
%TO.C,H2*%
X105000000Y-66150000D03*
X103302944Y-62052944D03*
X102600000Y-63750000D03*
D15*
X105000000Y-63750000D03*
D12*
X107400000Y-63750000D03*
X106697056Y-65447056D03*
X103302944Y-65447056D03*
X106697056Y-62052944D03*
X105000000Y-61350000D03*
%TD*%
D31*
%TO.C,U6*%
X130490000Y-89032500D03*
X129540000Y-89032500D03*
X128590000Y-89032500D03*
X128590000Y-91307500D03*
X130490000Y-91307500D03*
%TD*%
D23*
%TO.C,R6*%
X128270000Y-80819000D03*
X128270000Y-78994000D03*
%TD*%
D32*
%TO.C,U2*%
X144572362Y-78726687D03*
X143922362Y-78726687D03*
X143272362Y-78726687D03*
X142622362Y-78726687D03*
X142622362Y-77126687D03*
X143272362Y-77126687D03*
X143922362Y-77126687D03*
X144572362Y-77126687D03*
%TD*%
D17*
%TO.C,R21*%
X126316594Y-79561634D03*
X124491594Y-79561634D03*
%TD*%
%TO.C,R13*%
X117752500Y-92235934D03*
X115927500Y-92235934D03*
%TD*%
D18*
%TO.C,FID7*%
X102616000Y-67818000D03*
%TD*%
D23*
%TO.C,R8*%
X131508320Y-66268384D03*
X131508320Y-64443384D03*
%TD*%
D17*
%TO.C,R28*%
X119588725Y-94234000D03*
X117763725Y-94234000D03*
%TD*%
D33*
%TO.C,U4*%
X116130000Y-94675000D03*
X114860000Y-94675000D03*
X113590000Y-94675000D03*
X112320000Y-94675000D03*
X112320000Y-99625000D03*
X113590000Y-99625000D03*
X114860000Y-99625000D03*
X116130000Y-99625000D03*
%TD*%
D34*
%TO.C,U5*%
X135203064Y-67647726D03*
X135203064Y-68917726D03*
X135203064Y-70187726D03*
X135203064Y-71457726D03*
X135203064Y-72727726D03*
X135203064Y-73997726D03*
X135203064Y-75267726D03*
X135203064Y-76537726D03*
X140153064Y-76537726D03*
X140153064Y-75267726D03*
X140153064Y-73997726D03*
X140153064Y-72727726D03*
X140153064Y-71457726D03*
X140153064Y-70187726D03*
X140153064Y-68917726D03*
X140153064Y-67647726D03*
%TD*%
D35*
%TO.C,C8*%
X126618095Y-91440000D03*
X126618095Y-89540000D03*
%TD*%
D27*
%TO.C,R23*%
X124476200Y-87630000D03*
X126301200Y-87630000D03*
%TD*%
D36*
%TO.C,R2*%
X131521512Y-61002915D03*
X131521512Y-62827915D03*
%TD*%
D37*
%TO.C,U3*%
X112825000Y-79230000D03*
X112825000Y-80500000D03*
X112825000Y-81770000D03*
X112825000Y-83040000D03*
X112825000Y-84310000D03*
X112825000Y-85580000D03*
X112825000Y-86850000D03*
X112825000Y-88120000D03*
X122125000Y-88120000D03*
X122125000Y-86850000D03*
X122125000Y-85580000D03*
X122125000Y-84310000D03*
X122125000Y-83040000D03*
X122125000Y-81770000D03*
X122125000Y-80500000D03*
X122125000Y-79230000D03*
%TD*%
D12*
%TO.C,H3*%
X105000000Y-107400000D03*
X106697056Y-106697056D03*
X102600000Y-105000000D03*
D15*
X105000000Y-105000000D03*
D12*
X105000000Y-102600000D03*
X103302944Y-103302944D03*
X107400000Y-105000000D03*
X103302944Y-106697056D03*
X106697056Y-103302944D03*
%TD*%
D17*
%TO.C,R20*%
X126342608Y-81564676D03*
X124517608Y-81564676D03*
%TD*%
D38*
%TO.C,U1*%
X113400000Y-61328000D03*
X113400000Y-63328000D03*
X113400000Y-65328000D03*
X113400000Y-67328000D03*
X113400000Y-69328000D03*
X113400000Y-71328000D03*
X113400000Y-73328000D03*
X113400000Y-75328000D03*
D39*
X116000000Y-76828000D03*
X118000000Y-76828000D03*
X120000000Y-76828000D03*
X122000000Y-76828000D03*
X124000000Y-76828000D03*
X126000000Y-76828000D03*
D38*
X128600000Y-75328000D03*
X128600000Y-73328000D03*
X128600000Y-71328000D03*
X128600000Y-69328000D03*
X128600000Y-67328000D03*
X128600000Y-65328000D03*
X128600000Y-63328000D03*
X128600000Y-61328000D03*
%TD*%
D40*
%TO.C,C10*%
X138938000Y-78740000D03*
X140838000Y-78740000D03*
%TD*%
D41*
%TO.C,J8*%
X112773429Y-105050688D03*
D42*
X117853429Y-105050688D03*
X122933429Y-105050688D03*
X128013429Y-105050688D03*
X133093429Y-105050688D03*
X138173429Y-105050688D03*
%TD*%
D17*
%TO.C,R25*%
X130452500Y-86868000D03*
X128627500Y-86868000D03*
%TD*%
D43*
%TO.C,Y1*%
X137090000Y-78994000D03*
X135890000Y-78994000D03*
X134690000Y-78994000D03*
%TD*%
D44*
%TO.C,Q1*%
X131063050Y-78153500D03*
X132963050Y-78153500D03*
X132013050Y-76278500D03*
%TD*%
D45*
%TO.C,F1*%
X135004000Y-99060000D03*
X132204000Y-99060000D03*
%TD*%
D46*
%TO.C,J7*%
X135041582Y-64190224D03*
X140041582Y-64190224D03*
D47*
X138841582Y-65290224D03*
X138191582Y-65290224D03*
X137541582Y-65290224D03*
X136891582Y-65290224D03*
X136241582Y-65290224D03*
D48*
X133816582Y-65240224D03*
D49*
X141416582Y-61440224D03*
D48*
X141266582Y-65240224D03*
D49*
X133666582Y-61440224D03*
%TD*%
D17*
%TO.C,R1*%
X110890107Y-66206359D03*
X109065107Y-66206359D03*
%TD*%
D50*
%TO.C,D6*%
X119888000Y-92377500D03*
X119888000Y-90502500D03*
%TD*%
G36*
X136505837Y-64607379D02*
G01*
X136511873Y-64611413D01*
X136570467Y-64627938D01*
X136621257Y-64611436D01*
X136627327Y-64607379D01*
X136629322Y-64607248D01*
X136630434Y-64608911D01*
X136630101Y-64610153D01*
X136622273Y-64621869D01*
X136618582Y-64640423D01*
X136618582Y-65940025D01*
X136622273Y-65958579D01*
X136630101Y-65970295D01*
X136630232Y-65972291D01*
X136628569Y-65973402D01*
X136627327Y-65973069D01*
X136621291Y-65969035D01*
X136562697Y-65952510D01*
X136511907Y-65969012D01*
X136505837Y-65973069D01*
X136503842Y-65973200D01*
X136502730Y-65971537D01*
X136503063Y-65970295D01*
X136510891Y-65958579D01*
X136514582Y-65940025D01*
X136514582Y-64640423D01*
X136510891Y-64621869D01*
X136503063Y-64610153D01*
X136502932Y-64608157D01*
X136504595Y-64607046D01*
X136505837Y-64607379D01*
G37*
G36*
X137155837Y-64607379D02*
G01*
X137161873Y-64611413D01*
X137220467Y-64627938D01*
X137271257Y-64611436D01*
X137277327Y-64607379D01*
X137279322Y-64607248D01*
X137280434Y-64608911D01*
X137280101Y-64610153D01*
X137272273Y-64621869D01*
X137268582Y-64640423D01*
X137268582Y-65940025D01*
X137272273Y-65958579D01*
X137280101Y-65970295D01*
X137280232Y-65972291D01*
X137278569Y-65973402D01*
X137277327Y-65973069D01*
X137271291Y-65969035D01*
X137212697Y-65952510D01*
X137161907Y-65969012D01*
X137155837Y-65973069D01*
X137153842Y-65973200D01*
X137152730Y-65971537D01*
X137153063Y-65970295D01*
X137160891Y-65958579D01*
X137164582Y-65940025D01*
X137164582Y-64640423D01*
X137160891Y-64621869D01*
X137153063Y-64610153D01*
X137152932Y-64608157D01*
X137154595Y-64607046D01*
X137155837Y-64607379D01*
G37*
G36*
X138455837Y-64607379D02*
G01*
X138461873Y-64611413D01*
X138520467Y-64627938D01*
X138571257Y-64611436D01*
X138577327Y-64607379D01*
X138579322Y-64607248D01*
X138580434Y-64608911D01*
X138580101Y-64610153D01*
X138572273Y-64621869D01*
X138568582Y-64640423D01*
X138568582Y-65940025D01*
X138572273Y-65958579D01*
X138580101Y-65970295D01*
X138580232Y-65972291D01*
X138578569Y-65973402D01*
X138577327Y-65973069D01*
X138571291Y-65969035D01*
X138512697Y-65952510D01*
X138461907Y-65969012D01*
X138455837Y-65973069D01*
X138453842Y-65973200D01*
X138452730Y-65971537D01*
X138453063Y-65970295D01*
X138460891Y-65958579D01*
X138464582Y-65940025D01*
X138464582Y-64640423D01*
X138460891Y-64621869D01*
X138453063Y-64610153D01*
X138452932Y-64608157D01*
X138454595Y-64607046D01*
X138455837Y-64607379D01*
G37*
G36*
X137805837Y-64607379D02*
G01*
X137811873Y-64611413D01*
X137870467Y-64627938D01*
X137921257Y-64611436D01*
X137927327Y-64607379D01*
X137929322Y-64607248D01*
X137930434Y-64608911D01*
X137930101Y-64610153D01*
X137922273Y-64621869D01*
X137918582Y-64640423D01*
X137918582Y-65940025D01*
X137922273Y-65958579D01*
X137930101Y-65970295D01*
X137930232Y-65972291D01*
X137928569Y-65973402D01*
X137927327Y-65973069D01*
X137921291Y-65969035D01*
X137862697Y-65952510D01*
X137811907Y-65969012D01*
X137805837Y-65973069D01*
X137803842Y-65973200D01*
X137802730Y-65971537D01*
X137803063Y-65970295D01*
X137810891Y-65958579D01*
X137814582Y-65940025D01*
X137814582Y-64640423D01*
X137810891Y-64621869D01*
X137803063Y-64610153D01*
X137802932Y-64608157D01*
X137804595Y-64607046D01*
X137805837Y-64607379D01*
G37*
M02*
