%TF.GenerationSoftware,KiCad,Pcbnew,(6.0.9)*%
%TF.CreationDate,2023-01-11T20:23:52+07:00*%
%TF.ProjectId,ESP12CORE_B_MULTI,45535031-3243-44f5-9245-5f425f4d554c,rev?*%
%TF.SameCoordinates,Original*%
%TF.FileFunction,Paste,Bot*%
%TF.FilePolarity,Positive*%
%FSLAX46Y46*%
G04 Gerber Fmt 4.6, Leading zero omitted, Abs format (unit mm)*
G04 Created by KiCad (PCBNEW (6.0.9)) date 2023-01-11 20:23:52*
%MOMM*%
%LPD*%
G01*
G04 APERTURE LIST*
G04 Aperture macros list*
%AMRoundRect*
0 Rectangle with rounded corners*
0 $1 Rounding radius*
0 $2 $3 $4 $5 $6 $7 $8 $9 X,Y pos of 4 corners*
0 Add a 4 corners polygon primitive as box body*
4,1,4,$2,$3,$4,$5,$6,$7,$8,$9,$2,$3,0*
0 Add four circle primitives for the rounded corners*
1,1,$1+$1,$2,$3*
1,1,$1+$1,$4,$5*
1,1,$1+$1,$6,$7*
1,1,$1+$1,$8,$9*
0 Add four rect primitives between the rounded corners*
20,1,$1+$1,$2,$3,$4,$5,0*
20,1,$1+$1,$4,$5,$6,$7,0*
20,1,$1+$1,$6,$7,$8,$9,0*
20,1,$1+$1,$8,$9,$2,$3,0*%
G04 Aperture macros list end*
%ADD10RoundRect,0.150000X0.587500X0.150000X-0.587500X0.150000X-0.587500X-0.150000X0.587500X-0.150000X0*%
%ADD11RoundRect,0.250000X0.475000X-0.250000X0.475000X0.250000X-0.475000X0.250000X-0.475000X-0.250000X0*%
%ADD12RoundRect,0.250000X-0.262500X-0.450000X0.262500X-0.450000X0.262500X0.450000X-0.262500X0.450000X0*%
%ADD13RoundRect,0.250000X-0.450000X0.262500X-0.450000X-0.262500X0.450000X-0.262500X0.450000X0.262500X0*%
%ADD14RoundRect,0.250000X0.450000X-0.262500X0.450000X0.262500X-0.450000X0.262500X-0.450000X-0.262500X0*%
%ADD15RoundRect,0.150000X-0.150000X0.587500X-0.150000X-0.587500X0.150000X-0.587500X0.150000X0.587500X0*%
%ADD16RoundRect,0.250000X-0.250000X-0.475000X0.250000X-0.475000X0.250000X0.475000X-0.250000X0.475000X0*%
%ADD17RoundRect,0.250000X-0.475000X0.250000X-0.475000X-0.250000X0.475000X-0.250000X0.475000X0.250000X0*%
%ADD18RoundRect,0.150000X0.512500X0.150000X-0.512500X0.150000X-0.512500X-0.150000X0.512500X-0.150000X0*%
%ADD19RoundRect,0.250000X0.262500X0.450000X-0.262500X0.450000X-0.262500X-0.450000X0.262500X-0.450000X0*%
%ADD20RoundRect,0.249999X1.450001X-0.450001X1.450001X0.450001X-1.450001X0.450001X-1.450001X-0.450001X0*%
G04 APERTURE END LIST*
D10*
%TO.C,Q6*%
X113987500Y-81450000D03*
X113987500Y-83350000D03*
X112112500Y-82400000D03*
%TD*%
D11*
%TO.C,C11*%
X126660000Y-91440000D03*
X126660000Y-89540000D03*
%TD*%
D12*
%TO.C,R15*%
X111577500Y-99530000D03*
X113402500Y-99530000D03*
%TD*%
D13*
%TO.C,R11*%
X142748000Y-81637500D03*
X142748000Y-83462500D03*
%TD*%
D14*
%TO.C,R31*%
X112925000Y-79587500D03*
X112925000Y-77762500D03*
%TD*%
D15*
%TO.C,Q5*%
X115020000Y-77682500D03*
X116920000Y-77682500D03*
X115970000Y-79557500D03*
%TD*%
D16*
%TO.C,C9*%
X123050000Y-96720000D03*
X124950000Y-96720000D03*
%TD*%
D12*
%TO.C,R16*%
X113357500Y-97380000D03*
X115182500Y-97380000D03*
%TD*%
%TO.C,R17*%
X115037500Y-99580000D03*
X116862500Y-99580000D03*
%TD*%
D13*
%TO.C,R18*%
X147574000Y-81637500D03*
X147574000Y-83462500D03*
%TD*%
D17*
%TO.C,C15*%
X113344075Y-63334212D03*
X113344075Y-65234212D03*
%TD*%
D13*
%TO.C,R19*%
X145288000Y-81637500D03*
X145288000Y-83462500D03*
%TD*%
D14*
%TO.C,R32*%
X110950000Y-79562500D03*
X110950000Y-77737500D03*
%TD*%
D18*
%TO.C,U7*%
X125347500Y-93100000D03*
X125347500Y-94050000D03*
X125347500Y-95000000D03*
X123072500Y-95000000D03*
X123072500Y-93100000D03*
%TD*%
D12*
%TO.C,R30*%
X115927500Y-62484000D03*
X117752500Y-62484000D03*
%TD*%
D13*
%TO.C,R26*%
X127670000Y-93107500D03*
X127670000Y-94932500D03*
%TD*%
D19*
%TO.C,R29*%
X117752500Y-64770000D03*
X115927500Y-64770000D03*
%TD*%
D20*
%TO.C,C13*%
X123060000Y-91330000D03*
X123060000Y-87230000D03*
%TD*%
D19*
%TO.C,R10*%
X116852500Y-75660000D03*
X115027500Y-75660000D03*
%TD*%
D14*
%TO.C,R22*%
X116100000Y-83287500D03*
X116100000Y-81462500D03*
%TD*%
M02*
