M48
; DRILL file {KiCad (6.0.9)} date Wed Jan 11 20:23:48 2023
; FORMAT={-:-/ absolute / inch / decimal}
; #@! TF.CreationDate,2023-01-11T20:23:48+07:00
; #@! TF.GenerationSoftware,Kicad,Pcbnew,(6.0.9)
; #@! TF.FileFunction,Plated,1,2,PTH
FMAT,2
INCH
; #@! TA.AperFunction,Plated,PTH,ViaDrill
T1C0.0079
; #@! TA.AperFunction,Plated,PTH,ComponentDrill
T2C0.0197
; #@! TA.AperFunction,Plated,PTH,ComponentDrill
T3C0.0217
; #@! TA.AperFunction,Plated,PTH,ComponentDrill
T4C0.0335
; #@! TA.AperFunction,Plated,PTH,ComponentDrill
T5C0.0394
; #@! TA.AperFunction,Plated,PTH,ComponentDrill
T6C0.0598
; #@! TA.AperFunction,Plated,PTH,ComponentDrill
T7C0.1260
%
G90
G05
T1
X4.3691Y-3.0615
X4.4635Y-2.4943
X4.4713Y-3.9764
X4.522Y-3.9764
X4.5413Y-2.9248
X4.57Y-2.65
X4.5709Y-3.279
X4.572Y-4.0276
X4.5929Y-3.8055
X4.62Y-2.65
X4.6291Y-3.1469
X4.6359Y-3.6313
X4.6551Y-3.1913
X4.661Y-3.2484
X4.6646Y-3.8219
X4.6713Y-3.3783
X4.6717Y-3.41
X4.6721Y-3.3036
X4.6722Y-3.44
X4.6722Y-3.4695
X4.6823Y-3.2083
X4.7551Y-2.9508
X4.7579Y-2.5709
X4.7799Y-2.8869
X4.8114Y-3.5165
X4.9Y-3.13
X4.9023Y-3.2112
X4.9311Y-2.6949
X4.9429Y-2.7854
X4.9734Y-3.2677
X4.9734Y-3.2894
X4.9764Y-2.7283
X4.9793Y-2.6507
X4.9803Y-2.8051
X4.9823Y-2.5699
X4.9854Y-3.526
X5.0305Y-3.3268
X5.05Y-3.18
X5.052Y-3.7996
X5.0699Y-2.8907
X5.07Y-2.73
X5.0886Y-3.8362
X5.0972Y-4.0276
X5.1504Y-3.8012
X5.1526Y-3.6713
X5.1688Y-3.8012
X5.173Y-3.595
X5.1773Y-2.4732
X5.1775Y-2.5371
X5.1782Y-2.6094
X5.1939Y-3.1574
X5.2113Y-3.2784
X5.216Y-3.433
X5.2335Y-2.76
X5.2336Y-2.84
X5.24Y-2.99
X5.2436Y-3.2781
X5.26Y-3.7196
X5.27Y-2.79
X5.3012Y-3.8988
X5.3146Y-3.8988
X5.3688Y-3.8012
X5.3858Y-3.8012
X5.45Y-2.69
X5.45Y-2.77
X5.45Y-2.82
X5.47Y-2.62
X5.48Y-2.61
X5.4906Y-4.0492
X5.5079Y-3.8465
X5.5207Y-3.2093
X5.5319Y-3.2205
X5.56Y-3.5364
X5.62Y-3.0
X5.6538Y-3.0062
T2
X4.0394Y-2.5098
X4.0394Y-4.1339
X4.067Y-2.443
X4.067Y-2.5767
X4.067Y-4.067
X4.067Y-4.2007
X4.1339Y-2.4154
X4.1339Y-2.6043
X4.1339Y-4.0394
X4.1339Y-4.2283
X4.2007Y-2.443
X4.2007Y-2.5767
X4.2007Y-4.067
X4.2007Y-4.2007
X4.2283Y-2.5098
X4.2283Y-4.1339
X5.6555Y-2.5098
X5.6555Y-4.1339
X5.6832Y-2.443
X5.6832Y-2.5767
X5.6832Y-4.067
X5.6832Y-4.2007
X5.75Y-2.4154
X5.75Y-2.6043
X5.75Y-4.0394
X5.75Y-4.2283
X5.8168Y-2.443
X5.8168Y-2.5767
X5.8168Y-4.067
X5.8168Y-4.2007
X5.8445Y-2.5098
X5.8445Y-4.1339
T5
X4.1419Y-2.8708
X4.1419Y-2.9708
X4.1419Y-3.0708
X4.1419Y-3.1708
X4.1419Y-3.2708
X4.1419Y-3.3708
X4.1419Y-3.4708
X4.1419Y-3.5708
X4.1419Y-3.6708
X4.1419Y-3.7708
X4.2419Y-2.8708
X4.2419Y-2.9708
X4.2419Y-3.0708
X4.2419Y-3.1708
X4.2419Y-3.2708
X4.2419Y-3.3708
X4.2419Y-3.4708
X4.2419Y-3.5708
X4.2419Y-3.6708
X4.2419Y-3.7708
X4.7976Y-3.9029
X4.8976Y-3.9029
X4.9976Y-3.9029
X5.0976Y-3.9029
X5.6419Y-3.37
X5.6419Y-3.47
X5.6419Y-3.57
X5.6419Y-3.67
X5.6419Y-3.77
X5.6538Y-2.73
X5.6538Y-2.83
X5.6538Y-2.93
X5.7419Y-3.37
X5.7419Y-3.47
X5.7419Y-3.57
X5.7419Y-3.67
X5.7419Y-3.77
X5.8071Y-2.7313
X5.8071Y-2.8313
X5.8071Y-2.9313
X5.8071Y-3.0313
T6
X4.4399Y-4.1359
X4.6399Y-4.1359
X4.8399Y-4.1359
X5.0399Y-4.1359
X5.2399Y-4.1359
X5.4399Y-4.1359
T7
X4.1339Y-2.5098
X4.1339Y-4.1339
X5.75Y-2.5098
X5.75Y-4.1339
T3
G00X5.2625Y-2.4317
M15
G01X5.2625Y-2.4061
M16
G05
G00X5.5676Y-2.4317
M15
G01X5.5676Y-2.4061
M16
G05
T4
G00X5.2684Y-2.5793
M15
G01X5.2684Y-2.5577
M16
G05
G00X5.5617Y-2.5793
M15
G01X5.5617Y-2.5577
M16
G05
T0
M30
