%TF.GenerationSoftware,KiCad,Pcbnew,(6.0.9)*%
%TF.CreationDate,2023-01-11T20:23:52+07:00*%
%TF.ProjectId,ESP12CORE_B_MULTI,45535031-3243-44f5-9245-5f425f4d554c,rev?*%
%TF.SameCoordinates,Original*%
%TF.FileFunction,Soldermask,Bot*%
%TF.FilePolarity,Negative*%
%FSLAX46Y46*%
G04 Gerber Fmt 4.6, Leading zero omitted, Abs format (unit mm)*
G04 Created by KiCad (PCBNEW (6.0.9)) date 2023-01-11 20:23:52*
%MOMM*%
%LPD*%
G01*
G04 APERTURE LIST*
G04 Aperture macros list*
%AMRoundRect*
4,1,4,2,3,4,5,6,7,8,9,2,3,0*
1,1,$1,$2,$3*
1,1,$1,$2,$3*
1,1,$1,$2,$3*
1,1,$1,$2,$3*
20,1,$1,$2,$3,$4,$5,0*
20,1,$1,$2,$3,$4,$5,0*
20,1,$1,$2,$3,$4,$5,0*
20,1,$1,$2,$3,$4,$5,0*%
%AMFreePoly0*
4,1,37,0.535355,0.785355,0.55,0.75,0.55,-0.75,0.535355,-0.785355,0.5,-0.8,0,-0.8,-0.012524,-0.794812,-0.080857,-0.79356,-0.094851,-0.791293,-0.230166,-0.749018,-0.242962,-0.742915,-0.360972,-0.66436,-0.37154,-0.654911,-0.46276,-0.546392,-0.470252,-0.534356,-0.527347,-0.404597,-0.531159,-0.390943,-0.548742,-0.256483,-0.547388,-0.256306,-0.55,-0.25,-0.55,0.25,-0.549522,0.251153,-0.549368,0.263802,-0.527557,0.403879,-0.523412,0.417435,-0.463164,0.54576,-0.455381,0.557609,-0.361537,0.663867,-0.350741,0.673055,-0.230846,0.748703,-0.217905,0.754492,-0.081598,0.793449,-0.067552,0.795373,-0.011991,0.795033,0,0.8,0.5,0.8,0.535355,0.785355,0.535355,0.785355,0*%
%AMFreePoly1*
4,1,37,0.01235,0.794884,0.07421,0.794507,0.088231,0.792412,0.224052,0.751793,0.236921,0.745846,0.355883,0.668739,0.366566,0.65942,0.459104,0.552023,0.466742,0.54008,0.525419,0.411028,0.529398,0.397421,0.549495,0.257088,0.55,0.25,0.55,-0.25,0.549996,-0.25061,0.549847,-0.262826,0.549158,-0.270511,0.525638,-0.410312,0.521328,-0.423818,0.459516,-0.551397,0.451589,-0.56315,0.356454,-0.668254,0.345546,-0.677309,0.224736,-0.751486,0.211726,-0.757116,0.074953,-0.794405,0.060885,-0.796158,0.011462,-0.795252,0,-0.8,-0.5,-0.8,-0.535355,-0.785355,-0.55,-0.75,-0.55,0.75,-0.535355,0.785355,-0.5,0.8,0,0.8,0.01235,0.794884,0.01235,0.794884,0*%
%AMFreePoly2*
4,1,37,0.585355,0.785355,0.6,0.75,0.6,-0.75,0.585355,-0.785355,0.55,-0.8,0,-0.8,-0.012524,-0.794812,-0.080857,-0.79356,-0.094851,-0.791293,-0.230166,-0.749018,-0.242962,-0.742915,-0.360972,-0.66436,-0.37154,-0.654911,-0.46276,-0.546392,-0.470252,-0.534356,-0.527347,-0.404597,-0.531159,-0.390943,-0.548742,-0.256483,-0.547388,-0.256306,-0.55,-0.25,-0.55,0.25,-0.549522,0.251153,-0.549368,0.263802,-0.527557,0.403879,-0.523412,0.417435,-0.463164,0.54576,-0.455381,0.557609,-0.361537,0.663867,-0.350741,0.673055,-0.230846,0.748703,-0.217905,0.754492,-0.081598,0.793449,-0.067552,0.795373,-0.011991,0.795033,0,0.8,0.55,0.8,0.585355,0.785355,0.585355,0.785355,0*%
%AMFreePoly3*
4,1,37,0.01235,0.794884,0.07421,0.794507,0.088231,0.792412,0.224052,0.751793,0.236921,0.745846,0.355883,0.668739,0.366566,0.65942,0.459104,0.552023,0.466742,0.54008,0.525419,0.411028,0.529398,0.397421,0.549495,0.257088,0.55,0.25,0.55,-0.25,0.549996,-0.25061,0.549847,-0.262826,0.549158,-0.270511,0.525638,-0.410312,0.521328,-0.423818,0.459516,-0.551397,0.451589,-0.56315,0.356454,-0.668254,0.345546,-0.677309,0.224736,-0.751486,0.211726,-0.757116,0.074953,-0.794405,0.060885,-0.796158,0.011462,-0.795252,0,-0.8,-0.55,-0.8,-0.585355,-0.785355,-0.6,-0.75,-0.6,0.75,-0.585355,0.785355,-0.55,0.8,0,0.8,0.01235,0.794884,0.01235,0.794884,0*%
G04 Aperture macros list end*
%AMCOMP20*
4,1,3,
0.6,0.6,
-0.6,0.6,
-0.6,-0.6,
0.6,-0.6,
0*
4,1,19,
0.6,0.89999999999999991,
0.69270509831248417,0.885316954888546,
0.77633557568774192,0.84270509831248419,
0.84270509831248419,0.77633557568774192,
0.885316954888546,0.69270509831248417,
0.89999999999999991,0.6,
0.885316954888546,0.50729490168751579,
0.84270509831248419,0.42366442431225804,
0.77633557568774192,0.35729490168751576,
0.69270509831248428,0.31468304511145395,
0.6,0.3,
0.50729490168751568,0.31468304511145395,
0.42366442431225804,0.35729490168751571,
0.35729490168751576,0.42366442431225804,
0.31468304511145395,0.50729490168751568,
0.3,0.6,
0.3146830451114539,0.69270509831248417,
0.35729490168751571,0.77633557568774181,
0.423664424312258,0.84270509831248419,
0.50729490168751568,0.885316954888546,
0*
4,1,19,
-0.6,0.89999999999999991,
-0.50729490168751579,0.885316954888546,
-0.42366442431225804,0.84270509831248419,
-0.35729490168751576,0.77633557568774192,
-0.31468304511145395,0.69270509831248417,
-0.3,0.6,
-0.3146830451114539,0.50729490168751579,
-0.35729490168751576,0.42366442431225804,
-0.42366442431225804,0.35729490168751576,
-0.50729490168751568,0.31468304511145395,
-0.6,0.3,
-0.69270509831248428,0.31468304511145395,
-0.77633557568774192,0.35729490168751571,
-0.84270509831248419,0.42366442431225804,
-0.885316954888546,0.50729490168751568,
-0.89999999999999991,0.6,
-0.885316954888546,0.69270509831248417,
-0.84270509831248419,0.77633557568774181,
-0.77633557568774192,0.84270509831248419,
-0.69270509831248428,0.885316954888546,
0*
4,1,19,
-0.6,-0.3,
-0.50729490168751579,-0.31468304511145395,
-0.42366442431225804,-0.35729490168751576,
-0.35729490168751576,-0.42366442431225804,
-0.31468304511145395,-0.50729490168751579,
-0.3,-0.6,
-0.3146830451114539,-0.69270509831248417,
-0.35729490168751576,-0.77633557568774192,
-0.42366442431225804,-0.84270509831248419,
-0.50729490168751568,-0.885316954888546,
-0.6,-0.89999999999999991,
-0.69270509831248428,-0.885316954888546,
-0.77633557568774192,-0.84270509831248419,
-0.84270509831248419,-0.77633557568774192,
-0.885316954888546,-0.69270509831248428,
-0.89999999999999991,-0.6,
-0.885316954888546,-0.50729490168751579,
-0.84270509831248419,-0.42366442431225815,
-0.77633557568774192,-0.35729490168751576,
-0.69270509831248428,-0.31468304511145395,
0*
4,1,19,
0.6,-0.3,
0.69270509831248417,-0.31468304511145395,
0.77633557568774192,-0.35729490168751576,
0.84270509831248419,-0.42366442431225804,
0.885316954888546,-0.50729490168751579,
0.89999999999999991,-0.6,
0.885316954888546,-0.69270509831248417,
0.84270509831248419,-0.77633557568774192,
0.77633557568774192,-0.84270509831248419,
0.69270509831248428,-0.885316954888546,
0.6,-0.89999999999999991,
0.50729490168751568,-0.885316954888546,
0.42366442431225804,-0.84270509831248419,
0.35729490168751576,-0.77633557568774192,
0.31468304511145395,-0.69270509831248428,
0.3,-0.6,
0.3146830451114539,-0.50729490168751579,
0.35729490168751571,-0.42366442431225815,
0.423664424312258,-0.35729490168751576,
0.50729490168751568,-0.31468304511145395,
0*
4,1,3,
0.6,0.89999999999999991,
0.6,0.3,
-0.6,0.3,
-0.6,0.89999999999999991,
0*
4,1,3,
-0.89999999999999991,0.6,
-0.3,0.6,
-0.3,-0.6,
-0.89999999999999991,-0.6,
0*
4,1,3,
-0.6,-0.89999999999999991,
-0.6,-0.3,
0.6,-0.3,
0.6,-0.89999999999999991,
0*
4,1,3,
0.89999999999999991,-0.6,
0.3,-0.6,
0.3,0.6,
0.89999999999999991,0.6,
0*%
%ADD10COMP20,0.3X0.6X0.6X-0.6X0.6X-0.6X-0.6X0.6X-0.6X0*%
%ADD11C,1.8*%
%ADD12C,0.9*%
%ADD13C,6.5*%
%AMCOMP21*
4,1,3,
0.85,0.85,
-0.85,0.85,
-0.85,-0.85,
0.85,-0.85,
0*
4,1,19,
0.85,0.9,
0.86545084971874731,0.8975528258147577,
0.87938926261462358,0.89045084971874733,
0.89045084971874733,0.87938926261462358,
0.8975528258147577,0.86545084971874731,
0.9,0.85,
0.8975528258147577,0.83454915028125265,
0.89045084971874733,0.82061073738537638,
0.87938926261462369,0.80954915028125263,
0.86545084971874731,0.80244717418524225,
0.85,0.79999999999999993,
0.83454915028125254,0.80244717418524225,
0.82061073738537638,0.80954915028125263,
0.80954915028125263,0.82061073738537627,
0.80244717418524225,0.83454915028125265,
0.79999999999999993,0.85,
0.80244717418524225,0.86545084971874731,
0.80954915028125263,0.87938926261462358,
0.82061073738537627,0.89045084971874733,
0.83454915028125265,0.8975528258147577,
0*
4,1,19,
-0.85,0.9,
-0.83454915028125265,0.8975528258147577,
-0.82061073738537638,0.89045084971874733,
-0.80954915028125263,0.87938926261462358,
-0.80244717418524225,0.86545084971874731,
-0.79999999999999993,0.85,
-0.80244717418524225,0.83454915028125265,
-0.80954915028125263,0.82061073738537638,
-0.82061073738537627,0.80954915028125263,
-0.83454915028125265,0.80244717418524225,
-0.85,0.79999999999999993,
-0.86545084971874742,0.80244717418524225,
-0.87938926261462358,0.80954915028125263,
-0.89045084971874733,0.82061073738537627,
-0.8975528258147577,0.83454915028125265,
-0.9,0.85,
-0.8975528258147577,0.86545084971874731,
-0.89045084971874733,0.87938926261462358,
-0.87938926261462369,0.89045084971874733,
-0.86545084971874731,0.8975528258147577,
0*
4,1,19,
-0.85,-0.79999999999999993,
-0.83454915028125265,-0.80244717418524225,
-0.82061073738537638,-0.80954915028125263,
-0.80954915028125263,-0.82061073738537638,
-0.80244717418524225,-0.83454915028125265,
-0.79999999999999993,-0.85,
-0.80244717418524225,-0.86545084971874731,
-0.80954915028125263,-0.87938926261462358,
-0.82061073738537627,-0.89045084971874733,
-0.83454915028125265,-0.8975528258147577,
-0.85,-0.9,
-0.86545084971874742,-0.8975528258147577,
-0.87938926261462358,-0.89045084971874733,
-0.89045084971874733,-0.87938926261462369,
-0.8975528258147577,-0.86545084971874731,
-0.9,-0.85,
-0.8975528258147577,-0.83454915028125265,
-0.89045084971874733,-0.82061073738537638,
-0.87938926261462369,-0.80954915028125263,
-0.86545084971874731,-0.80244717418524225,
0*
4,1,19,
0.85,-0.79999999999999993,
0.86545084971874731,-0.80244717418524225,
0.87938926261462358,-0.80954915028125263,
0.89045084971874733,-0.82061073738537638,
0.8975528258147577,-0.83454915028125265,
0.9,-0.85,
0.8975528258147577,-0.86545084971874731,
0.89045084971874733,-0.87938926261462358,
0.87938926261462369,-0.89045084971874733,
0.86545084971874731,-0.8975528258147577,
0.85,-0.9,
0.83454915028125254,-0.8975528258147577,
0.82061073738537638,-0.89045084971874733,
0.80954915028125263,-0.87938926261462369,
0.80244717418524225,-0.86545084971874731,
0.79999999999999993,-0.85,
0.80244717418524225,-0.83454915028125265,
0.80954915028125263,-0.82061073738537638,
0.82061073738537627,-0.80954915028125263,
0.83454915028125265,-0.80244717418524225,
0*
4,1,3,
0.85,0.9,
0.85,0.79999999999999993,
-0.85,0.79999999999999993,
-0.85,0.9,
0*
4,1,3,
-0.9,0.85,
-0.79999999999999993,0.85,
-0.79999999999999993,-0.85,
-0.9,-0.85,
0*
4,1,3,
-0.85,-0.9,
-0.85,-0.79999999999999993,
0.85,-0.79999999999999993,
0.85,-0.9,
0*
4,1,3,
0.9,-0.85,
0.79999999999999993,-0.85,
0.79999999999999993,0.85,
0.9,0.85,
0*%
%ADD14COMP21,0.05X0.85X0.85X-0.85X0.85X-0.85X-0.85X0.85X-0.85X0*%
%ADD15O,1.8X1.8*%
%AMCOMP22*
4,1,3,
-0.6,-0.6,
0.6,-0.6,
0.6,0.6,
-0.6,0.6,
0*
4,1,19,
-0.6,-0.3,
-0.50729490168751579,-0.31468304511145395,
-0.42366442431225804,-0.35729490168751576,
-0.35729490168751576,-0.42366442431225804,
-0.31468304511145395,-0.50729490168751579,
-0.3,-0.6,
-0.3146830451114539,-0.69270509831248417,
-0.35729490168751576,-0.77633557568774192,
-0.42366442431225804,-0.84270509831248419,
-0.50729490168751568,-0.885316954888546,
-0.6,-0.89999999999999991,
-0.69270509831248428,-0.885316954888546,
-0.77633557568774192,-0.84270509831248419,
-0.84270509831248419,-0.77633557568774192,
-0.885316954888546,-0.69270509831248428,
-0.89999999999999991,-0.6,
-0.885316954888546,-0.50729490168751579,
-0.84270509831248419,-0.42366442431225815,
-0.77633557568774192,-0.35729490168751576,
-0.69270509831248428,-0.31468304511145395,
0*
4,1,19,
0.6,-0.3,
0.69270509831248417,-0.31468304511145395,
0.77633557568774192,-0.35729490168751576,
0.84270509831248419,-0.42366442431225804,
0.885316954888546,-0.50729490168751579,
0.89999999999999991,-0.6,
0.885316954888546,-0.69270509831248417,
0.84270509831248419,-0.77633557568774192,
0.77633557568774192,-0.84270509831248419,
0.69270509831248428,-0.885316954888546,
0.6,-0.89999999999999991,
0.50729490168751568,-0.885316954888546,
0.42366442431225804,-0.84270509831248419,
0.35729490168751576,-0.77633557568774192,
0.31468304511145395,-0.69270509831248428,
0.3,-0.6,
0.3146830451114539,-0.50729490168751579,
0.35729490168751571,-0.42366442431225815,
0.423664424312258,-0.35729490168751576,
0.50729490168751568,-0.31468304511145395,
0*
4,1,19,
0.6,0.89999999999999991,
0.69270509831248417,0.885316954888546,
0.77633557568774192,0.84270509831248419,
0.84270509831248419,0.77633557568774192,
0.885316954888546,0.69270509831248417,
0.89999999999999991,0.6,
0.885316954888546,0.50729490168751579,
0.84270509831248419,0.42366442431225804,
0.77633557568774192,0.35729490168751576,
0.69270509831248428,0.31468304511145395,
0.6,0.3,
0.50729490168751568,0.31468304511145395,
0.42366442431225804,0.35729490168751571,
0.35729490168751576,0.42366442431225804,
0.31468304511145395,0.50729490168751568,
0.3,0.6,
0.3146830451114539,0.69270509831248417,
0.35729490168751571,0.77633557568774181,
0.423664424312258,0.84270509831248419,
0.50729490168751568,0.885316954888546,
0*
4,1,19,
-0.6,0.89999999999999991,
-0.50729490168751579,0.885316954888546,
-0.42366442431225804,0.84270509831248419,
-0.35729490168751576,0.77633557568774192,
-0.31468304511145395,0.69270509831248417,
-0.3,0.6,
-0.3146830451114539,0.50729490168751579,
-0.35729490168751576,0.42366442431225804,
-0.42366442431225804,0.35729490168751576,
-0.50729490168751568,0.31468304511145395,
-0.6,0.3,
-0.69270509831248428,0.31468304511145395,
-0.77633557568774192,0.35729490168751571,
-0.84270509831248419,0.42366442431225804,
-0.885316954888546,0.50729490168751568,
-0.89999999999999991,0.6,
-0.885316954888546,0.69270509831248417,
-0.84270509831248419,0.77633557568774181,
-0.77633557568774192,0.84270509831248419,
-0.69270509831248428,0.885316954888546,
0*
4,1,3,
-0.6,-0.89999999999999991,
-0.6,-0.3,
0.6,-0.3,
0.6,-0.89999999999999991,
0*
4,1,3,
0.89999999999999991,-0.6,
0.3,-0.6,
0.3,0.6,
0.89999999999999991,0.6,
0*
4,1,3,
0.6,0.89999999999999991,
0.6,0.3,
-0.6,0.3,
-0.6,0.89999999999999991,
0*
4,1,3,
-0.89999999999999991,0.6,
-0.3,0.6,
-0.3,-0.6,
-0.89999999999999991,-0.6,
0*%
%ADD16COMP22,0.3X-0.6X-0.6X0.6X-0.6X0.6X0.6X-0.6X0.6X0*%
%AMCOMP23*
4,1,3,
-0.85,0.85,
-0.85,-0.85,
0.85,-0.85,
0.85,0.85,
0*
4,1,19,
-0.85,0.9,
-0.83454915028125265,0.8975528258147577,
-0.82061073738537638,0.89045084971874733,
-0.80954915028125263,0.87938926261462358,
-0.80244717418524225,0.86545084971874731,
-0.79999999999999993,0.85,
-0.80244717418524225,0.83454915028125265,
-0.80954915028125263,0.82061073738537638,
-0.82061073738537627,0.80954915028125263,
-0.83454915028125265,0.80244717418524225,
-0.85,0.79999999999999993,
-0.86545084971874742,0.80244717418524225,
-0.87938926261462358,0.80954915028125263,
-0.89045084971874733,0.82061073738537627,
-0.8975528258147577,0.83454915028125265,
-0.9,0.85,
-0.8975528258147577,0.86545084971874731,
-0.89045084971874733,0.87938926261462358,
-0.87938926261462369,0.89045084971874733,
-0.86545084971874731,0.8975528258147577,
0*
4,1,19,
-0.85,-0.79999999999999993,
-0.83454915028125265,-0.80244717418524225,
-0.82061073738537638,-0.80954915028125263,
-0.80954915028125263,-0.82061073738537638,
-0.80244717418524225,-0.83454915028125265,
-0.79999999999999993,-0.85,
-0.80244717418524225,-0.86545084971874731,
-0.80954915028125263,-0.87938926261462358,
-0.82061073738537627,-0.89045084971874733,
-0.83454915028125265,-0.8975528258147577,
-0.85,-0.9,
-0.86545084971874742,-0.8975528258147577,
-0.87938926261462358,-0.89045084971874733,
-0.89045084971874733,-0.87938926261462369,
-0.8975528258147577,-0.86545084971874731,
-0.9,-0.85,
-0.8975528258147577,-0.83454915028125265,
-0.89045084971874733,-0.82061073738537638,
-0.87938926261462369,-0.80954915028125263,
-0.86545084971874731,-0.80244717418524225,
0*
4,1,19,
0.85,-0.79999999999999993,
0.86545084971874731,-0.80244717418524225,
0.87938926261462358,-0.80954915028125263,
0.89045084971874733,-0.82061073738537638,
0.8975528258147577,-0.83454915028125265,
0.9,-0.85,
0.8975528258147577,-0.86545084971874731,
0.89045084971874733,-0.87938926261462358,
0.87938926261462369,-0.89045084971874733,
0.86545084971874731,-0.8975528258147577,
0.85,-0.9,
0.83454915028125254,-0.8975528258147577,
0.82061073738537638,-0.89045084971874733,
0.80954915028125263,-0.87938926261462369,
0.80244717418524225,-0.86545084971874731,
0.79999999999999993,-0.85,
0.80244717418524225,-0.83454915028125265,
0.80954915028125263,-0.82061073738537638,
0.82061073738537627,-0.80954915028125263,
0.83454915028125265,-0.80244717418524225,
0*
4,1,19,
0.85,0.9,
0.86545084971874731,0.8975528258147577,
0.87938926261462358,0.89045084971874733,
0.89045084971874733,0.87938926261462358,
0.8975528258147577,0.86545084971874731,
0.9,0.85,
0.8975528258147577,0.83454915028125265,
0.89045084971874733,0.82061073738537638,
0.87938926261462369,0.80954915028125263,
0.86545084971874731,0.80244717418524225,
0.85,0.79999999999999993,
0.83454915028125254,0.80244717418524225,
0.82061073738537638,0.80954915028125263,
0.80954915028125263,0.82061073738537627,
0.80244717418524225,0.83454915028125265,
0.79999999999999993,0.85,
0.80244717418524225,0.86545084971874731,
0.80954915028125263,0.87938926261462358,
0.82061073738537627,0.89045084971874733,
0.83454915028125265,0.8975528258147577,
0*
4,1,3,
-0.9,0.85,
-0.79999999999999993,0.85,
-0.79999999999999993,-0.85,
-0.9,-0.85,
0*
4,1,3,
-0.85,-0.9,
-0.85,-0.79999999999999993,
0.85,-0.79999999999999993,
0.85,-0.9,
0*
4,1,3,
0.9,-0.85,
0.79999999999999993,-0.85,
0.79999999999999993,0.85,
0.9,0.85,
0*
4,1,3,
0.85,0.9,
0.85,0.79999999999999993,
-0.85,0.79999999999999993,
-0.85,0.9,
0*%
%ADD17COMP23,0.05X-0.85X0.85X-0.85X-0.85X0.85X-0.85X0.85X0.85X0*%
%AMCOMP24*
4,1,3,
-1.5,-1.5,
1.5,-1.5,
1.5,1.5,
-1.5,1.5,
0*
4,1,19,
-1.5,-1.45,
-1.4845491502812527,-1.4524471741852423,
-1.4706107373853763,-1.4595491502812525,
-1.4595491502812525,-1.4706107373853763,
-1.4524471741852423,-1.4845491502812527,
-1.45,-1.5,
-1.4524471741852423,-1.5154508497187473,
-1.4595491502812525,-1.5293892626146237,
-1.4706107373853763,-1.5404508497187475,
-1.4845491502812527,-1.5475528258147577,
-1.5,-1.55,
-1.5154508497187473,-1.5475528258147577,
-1.5293892626146237,-1.5404508497187475,
-1.5404508497187475,-1.5293892626146237,
-1.5475528258147577,-1.5154508497187473,
-1.55,-1.5,
-1.5475528258147577,-1.4845491502812527,
-1.5404508497187475,-1.4706107373853763,
-1.5293892626146237,-1.4595491502812525,
-1.5154508497187473,-1.4524471741852423,
0*
4,1,19,
1.5,-1.45,
1.5154508497187473,-1.4524471741852423,
1.5293892626146237,-1.4595491502812525,
1.5404508497187475,-1.4706107373853763,
1.5475528258147577,-1.4845491502812527,
1.55,-1.5,
1.5475528258147577,-1.5154508497187473,
1.5404508497187475,-1.5293892626146237,
1.5293892626146237,-1.5404508497187475,
1.5154508497187473,-1.5475528258147577,
1.5,-1.55,
1.4845491502812527,-1.5475528258147577,
1.4706107373853763,-1.5404508497187475,
1.4595491502812525,-1.5293892626146237,
1.4524471741852423,-1.5154508497187473,
1.45,-1.5,
1.4524471741852423,-1.4845491502812527,
1.4595491502812525,-1.4706107373853763,
1.4706107373853763,-1.4595491502812525,
1.4845491502812527,-1.4524471741852423,
0*
4,1,19,
1.5,1.55,
1.5154508497187473,1.5475528258147577,
1.5293892626146237,1.5404508497187475,
1.5404508497187475,1.5293892626146237,
1.5475528258147577,1.5154508497187473,
1.55,1.5,
1.5475528258147577,1.4845491502812527,
1.5404508497187475,1.4706107373853763,
1.5293892626146237,1.4595491502812525,
1.5154508497187473,1.4524471741852423,
1.5,1.45,
1.4845491502812527,1.4524471741852423,
1.4706107373853763,1.4595491502812525,
1.4595491502812525,1.4706107373853763,
1.4524471741852423,1.4845491502812527,
1.45,1.5,
1.4524471741852423,1.5154508497187473,
1.4595491502812525,1.5293892626146237,
1.4706107373853763,1.5404508497187475,
1.4845491502812527,1.5475528258147577,
0*
4,1,19,
-1.5,1.55,
-1.4845491502812527,1.5475528258147577,
-1.4706107373853763,1.5404508497187475,
-1.4595491502812525,1.5293892626146237,
-1.4524471741852423,1.5154508497187473,
-1.45,1.5,
-1.4524471741852423,1.4845491502812527,
-1.4595491502812525,1.4706107373853763,
-1.4706107373853763,1.4595491502812525,
-1.4845491502812527,1.4524471741852423,
-1.5,1.45,
-1.5154508497187473,1.4524471741852423,
-1.5293892626146237,1.4595491502812525,
-1.5404508497187475,1.4706107373853763,
-1.5475528258147577,1.4845491502812527,
-1.55,1.5,
-1.5475528258147577,1.5154508497187473,
-1.5404508497187475,1.5293892626146237,
-1.5293892626146237,1.5404508497187475,
-1.5154508497187473,1.5475528258147577,
0*
4,1,3,
-1.5,-1.55,
-1.5,-1.45,
1.5,-1.45,
1.5,-1.55,
0*
4,1,3,
1.55,-1.5,
1.45,-1.5,
1.45,1.5,
1.55,1.5,
0*
4,1,3,
1.5,1.55,
1.5,1.45,
-1.5,1.45,
-1.5,1.55,
0*
4,1,3,
-1.55,1.5,
-1.45,1.5,
-1.45,-1.5,
-1.55,-1.5,
0*%
%ADD18COMP24,0.05X-1.5X-1.5X1.5X-1.5X1.5X1.5X-1.5X1.5X0*%
%ADD19C,3.1*%
%ADD20O,0.9X0.9*%
%ADD21O,1.55X2.1*%
%ADD22O,1.25X1.9*%
%AMCOMP25*
4,1,3,
0.5875,0.15,
-0.5875,0.15,
-0.5875,-0.15,
0.5875,-0.15,
0*
4,1,19,
0.5875,0.35,
0.64930339887498945,0.34021130325903071,
0.70505705045849465,0.31180339887498953,
0.74930339887498953,0.26755705045849465,
0.77771130325903071,0.2118033988749895,
0.78750000000000009,0.15,
0.77771130325903082,0.088196601125010515,
0.74930339887498953,0.032442949541505381,
0.70505705045849465,-0.01180339887498949,
0.64930339887498956,-0.040211303259030717,
0.5875,-0.050000000000000017,
0.52569660112501049,-0.040211303259030717,
0.46994294954150539,-0.011803398874989518,
0.42569660112501051,0.032442949541505339,
0.39728869674096934,0.088196601125010488,
0.3875,0.14999999999999997,
0.39728869674096928,0.21180339887498945,
0.42569660112501051,0.26755705045849459,
0.46994294954150534,0.31180339887498948,
0.52569660112501049,0.34021130325903071,
0*
4,1,19,
-0.5875,0.35,
-0.5256966011250106,0.34021130325903071,
-0.46994294954150539,0.31180339887498953,
-0.42569660112501051,0.26755705045849465,
-0.39728869674096934,0.2118033988749895,
-0.3875,0.15,
-0.39728869674096928,0.088196601125010515,
-0.42569660112501051,0.032442949541505381,
-0.46994294954150539,-0.01180339887498949,
-0.52569660112501049,-0.040211303259030717,
-0.5875,-0.050000000000000017,
-0.64930339887498956,-0.040211303259030717,
-0.70505705045849465,-0.011803398874989518,
-0.74930339887498953,0.032442949541505339,
-0.77771130325903071,0.088196601125010488,
-0.78750000000000009,0.14999999999999997,
-0.77771130325903082,0.21180339887498945,
-0.74930339887498953,0.26755705045849459,
-0.70505705045849476,0.31180339887498948,
-0.64930339887498956,0.34021130325903071,
0*
4,1,19,
-0.5875,0.050000000000000017,
-0.5256966011250106,0.040211303259030717,
-0.46994294954150539,0.011803398874989518,
-0.42569660112501051,-0.032442949541505367,
-0.39728869674096934,-0.0881966011250105,
-0.3875,-0.15,
-0.39728869674096928,-0.21180339887498947,
-0.42569660112501051,-0.26755705045849459,
-0.46994294954150539,-0.31180339887498948,
-0.52569660112501049,-0.34021130325903071,
-0.5875,-0.35,
-0.64930339887498956,-0.34021130325903071,
-0.70505705045849465,-0.31180339887498953,
-0.74930339887498953,-0.26755705045849465,
-0.77771130325903071,-0.2118033988749895,
-0.78750000000000009,-0.15000000000000002,
-0.77771130325903082,-0.088196601125010543,
-0.74930339887498953,-0.032442949541505409,
-0.70505705045849476,0.01180339887498949,
-0.64930339887498956,0.040211303259030717,
0*
4,1,19,
0.5875,0.050000000000000017,
0.64930339887498945,0.040211303259030717,
0.70505705045849465,0.011803398874989518,
0.74930339887498953,-0.032442949541505367,
0.77771130325903071,-0.0881966011250105,
0.78750000000000009,-0.15,
0.77771130325903082,-0.21180339887498947,
0.74930339887498953,-0.26755705045849459,
0.70505705045849465,-0.31180339887498948,
0.64930339887498956,-0.34021130325903071,
0.5875,-0.35,
0.52569660112501049,-0.34021130325903071,
0.46994294954150539,-0.31180339887498953,
0.42569660112501051,-0.26755705045849465,
0.39728869674096934,-0.2118033988749895,
0.3875,-0.15000000000000002,
0.39728869674096928,-0.088196601125010543,
0.42569660112501051,-0.032442949541505409,
0.46994294954150534,0.01180339887498949,
0.52569660112501049,0.040211303259030717,
0*
4,1,3,
0.5875,0.35,
0.5875,-0.050000000000000017,
-0.5875,-0.050000000000000017,
-0.5875,0.35,
0*
4,1,3,
-0.78750000000000009,0.15,
-0.3875,0.15,
-0.3875,-0.15,
-0.78750000000000009,-0.15,
0*
4,1,3,
-0.5875,-0.35,
-0.5875,0.050000000000000017,
0.5875,0.050000000000000017,
0.5875,-0.35,
0*
4,1,3,
0.78750000000000009,-0.15,
0.3875,-0.15,
0.3875,0.15,
0.78750000000000009,0.15,
0*%
%ADD23COMP25,0.2X0.5875X0.15X-0.5875X0.15X-0.5875X-0.15X0.5875X-0.15X0*%
%AMCOMP26*
4,1,36,
0.535355,0.785355,
0.55,0.75,
0.55,-0.75,
0.535355,-0.785355,
0.5,-0.8,
0,-0.8,
-0.012524,-0.794812,
-0.080857,-0.79356,
-0.094851,-0.791293,
-0.230166,-0.749018,
-0.242962,-0.742915,
-0.360972,-0.66436,
-0.37154,-0.654911,
-0.46276,-0.546392,
-0.470252,-0.534356,
-0.527347,-0.404597,
-0.531159,-0.390943,
-0.548742,-0.256483,
-0.547388,-0.256306,
-0.55,-0.25,
-0.55,0.25,
-0.549522,0.251153,
-0.549368,0.263802,
-0.527557,0.403879,
-0.523412,0.417435,
-0.463164,0.54576,
-0.455381,0.557609,
-0.361537,0.663867,
-0.350741,0.673055,
-0.230846,0.748703,
-0.217905,0.754492,
-0.081598,0.793449,
-0.067552,0.795373,
-0.011991,0.795033,
0,0.8,
0.5,0.8,
0.535355,0.785355,
0*%
%ADD24COMP26,270*%
%AMCOMP27*
4,1,36,
0.01235,0.794884,
0.07421,0.794507,
0.088231,0.792412,
0.224052,0.751793,
0.236921,0.745846,
0.355883,0.668739,
0.366566,0.65942,
0.459104,0.552023,
0.466742,0.54008,
0.525419,0.411028,
0.529398,0.397421,
0.549495,0.257088,
0.55,0.25,
0.55,-0.25,
0.549996,-0.25061,
0.549847,-0.262826,
0.549158,-0.270511,
0.525638,-0.410312,
0.521328,-0.423818,
0.459516,-0.551397,
0.451589,-0.56315,
0.356454,-0.668254,
0.345546,-0.677309,
0.224736,-0.751486,
0.211726,-0.757116,
0.074953,-0.794405,
0.060885,-0.796158,
0.011462,-0.795252,
0,-0.8,
-0.5,-0.8,
-0.535355,-0.785355,
-0.55,-0.75,
-0.55,0.75,
-0.535355,0.785355,
-0.5,0.8,
0,0.8,
0.01235,0.794884,
0*%
%ADD25COMP27,270*%
%AMCOMP28*
4,1,3,
0.475,-0.25,
0.475,0.25,
-0.475,0.25,
-0.475,-0.25,
0*
4,1,19,
0.475,0.049999999999999989,
0.56770509831248417,0.035316954888546026,
0.65133557568774192,-0.0072949016875157868,
0.71770509831248419,-0.073664424312258059,
0.760316954888546,-0.15729490168751575,
0.77499999999999991,-0.24999999999999997,
0.760316954888546,-0.34270509831248419,
0.71770509831248419,-0.42633557568774194,
0.65133557568774192,-0.49270509831248421,
0.56770509831248428,-0.535316954888546,
0.47500000000000003,-0.55,
0.38229490168751568,-0.535316954888546,
0.29866442431225804,-0.49270509831248427,
0.23229490168751579,-0.42633557568774194,
0.18968304511145395,-0.34270509831248425,
0.175,-0.25000000000000006,
0.1896830451114539,-0.15729490168751584,
0.23229490168751571,-0.073664424312258142,
0.298664424312258,-0.0072949016875158146,
0.38229490168751568,0.035316954888546026,
0*
4,1,19,
0.475,0.55,
0.56770509831248417,0.535316954888546,
0.65133557568774192,0.49270509831248421,
0.71770509831248419,0.42633557568774194,
0.760316954888546,0.34270509831248425,
0.77499999999999991,0.25,
0.760316954888546,0.15729490168751581,
0.71770509831248419,0.073664424312258087,
0.65133557568774192,0.0072949016875158146,
0.56770509831248428,-0.035316954888546026,
0.47500000000000003,-0.049999999999999989,
0.38229490168751568,-0.035316954888546026,
0.29866442431225804,0.0072949016875157313,
0.23229490168751579,0.073664424312258031,
0.18968304511145395,0.15729490168751575,
0.175,0.24999999999999994,
0.1896830451114539,0.34270509831248419,
0.23229490168751571,0.42633557568774183,
0.298664424312258,0.49270509831248421,
0.38229490168751568,0.535316954888546,
0*
4,1,19,
-0.475,0.55,
-0.38229490168751579,0.535316954888546,
-0.29866442431225804,0.49270509831248421,
-0.23229490168751576,0.42633557568774194,
-0.18968304511145395,0.34270509831248425,
-0.175,0.25,
-0.1896830451114539,0.15729490168751581,
-0.23229490168751576,0.073664424312258087,
-0.29866442431225804,0.0072949016875158146,
-0.38229490168751573,-0.035316954888546026,
-0.47499999999999992,-0.049999999999999989,
-0.56770509831248428,-0.035316954888546026,
-0.65133557568774192,0.0072949016875157313,
-0.71770509831248419,0.073664424312258031,
-0.760316954888546,0.15729490168751575,
-0.77499999999999991,0.24999999999999994,
-0.760316954888546,0.34270509831248419,
-0.71770509831248419,0.42633557568774183,
-0.65133557568774192,0.49270509831248421,
-0.56770509831248428,0.535316954888546,
0*
4,1,19,
-0.475,0.049999999999999989,
-0.38229490168751579,0.035316954888546026,
-0.29866442431225804,-0.0072949016875157868,
-0.23229490168751576,-0.073664424312258059,
-0.18968304511145395,-0.15729490168751575,
-0.175,-0.24999999999999997,
-0.1896830451114539,-0.34270509831248419,
-0.23229490168751576,-0.42633557568774194,
-0.29866442431225804,-0.49270509831248421,
-0.38229490168751573,-0.535316954888546,
-0.47499999999999992,-0.55,
-0.56770509831248428,-0.535316954888546,
-0.65133557568774192,-0.49270509831248427,
-0.71770509831248419,-0.42633557568774194,
-0.760316954888546,-0.34270509831248425,
-0.77499999999999991,-0.25000000000000006,
-0.760316954888546,-0.15729490168751584,
-0.71770509831248419,-0.073664424312258142,
-0.65133557568774192,-0.0072949016875158146,
-0.56770509831248428,0.035316954888546026,
0*
4,1,3,
0.77499999999999991,-0.25,
0.175,-0.24999999999999997,
0.175,0.25,
0.77499999999999991,0.24999999999999997,
0*
4,1,3,
0.475,0.55,
0.475,-0.049999999999999989,
-0.475,-0.049999999999999989,
-0.475,0.55,
0*
4,1,3,
-0.77499999999999991,0.25,
-0.175,0.24999999999999997,
-0.175,-0.25,
-0.77499999999999991,-0.24999999999999997,
0*
4,1,3,
-0.475,-0.55,
-0.475,0.049999999999999989,
0.475,0.049999999999999989,
0.475,-0.55,
0*%
%ADD26COMP28,0.3X0.475X-0.25X0.475X0.25X-0.475X0.25X-0.475X-0.25X0*%
%AMCOMP29*
4,1,36,
0.585355,0.785355,
0.6,0.75,
0.6,-0.75,
0.585355,-0.785355,
0.55,-0.8,
0,-0.8,
-0.012524,-0.794812,
-0.080857,-0.79356,
-0.094851,-0.791293,
-0.230166,-0.749018,
-0.242962,-0.742915,
-0.360972,-0.66436,
-0.37154,-0.654911,
-0.46276,-0.546392,
-0.470252,-0.534356,
-0.527347,-0.404597,
-0.531159,-0.390943,
-0.548742,-0.256483,
-0.547388,-0.256306,
-0.55,-0.25,
-0.55,0.25,
-0.549522,0.251153,
-0.549368,0.263802,
-0.527557,0.403879,
-0.523412,0.417435,
-0.463164,0.54576,
-0.455381,0.557609,
-0.361537,0.663867,
-0.350741,0.673055,
-0.230846,0.748703,
-0.217905,0.754492,
-0.081598,0.793449,
-0.067552,0.795373,
-0.011991,0.795033,
0,0.8,
0.55,0.8,
0.585355,0.785355,
0*%
%ADD27COMP29,0*%
%AMCOMP30*
4,1,3,
-0.5,-0.75,
0.5,-0.75,
0.5,0.75,
-0.5,0.75,
0*
4,1,19,
-0.5,-0.7,
-0.48454915028125262,-0.70244717418524227,
-0.47061073738537634,-0.70954915028125265,
-0.45954915028125265,-0.72061073738537629,
-0.45244717418524233,-0.73454915028125267,
-0.45,-0.75,
-0.45244717418524233,-0.76545084971874733,
-0.45954915028125265,-0.7793892626146236,
-0.47061073738537634,-0.79045084971874735,
-0.48454915028125262,-0.79755282581475773,
-0.5,-0.8,
-0.51545084971874744,-0.79755282581475773,
-0.5293892626146236,-0.79045084971874735,
-0.54045084971874735,-0.77938926261462371,
-0.54755282581475773,-0.76545084971874733,
-0.55,-0.75,
-0.54755282581475773,-0.73454915028125267,
-0.54045084971874735,-0.7206107373853764,
-0.52938926261462371,-0.70954915028125265,
-0.51545084971874733,-0.70244717418524227,
0*
4,1,19,
0.5,-0.7,
0.51545084971874733,-0.70244717418524227,
0.52938926261462371,-0.70954915028125265,
0.54045084971874735,-0.72061073738537629,
0.54755282581475773,-0.73454915028125267,
0.55,-0.75,
0.54755282581475773,-0.76545084971874733,
0.54045084971874735,-0.7793892626146236,
0.52938926261462371,-0.79045084971874735,
0.51545084971874733,-0.79755282581475773,
0.5,-0.8,
0.48454915028125262,-0.79755282581475773,
0.47061073738537634,-0.79045084971874735,
0.45954915028125265,-0.77938926261462371,
0.45244717418524233,-0.76545084971874733,
0.45,-0.75,
0.45244717418524233,-0.73454915028125267,
0.45954915028125265,-0.7206107373853764,
0.47061073738537634,-0.70954915028125265,
0.48454915028125262,-0.70244717418524227,
0*
4,1,19,
0.5,0.8,
0.51545084971874733,0.79755282581475773,
0.52938926261462371,0.79045084971874735,
0.54045084971874735,0.77938926261462371,
0.54755282581475773,0.76545084971874733,
0.55,0.75,
0.54755282581475773,0.73454915028125267,
0.54045084971874735,0.7206107373853764,
0.52938926261462371,0.70954915028125265,
0.51545084971874733,0.70244717418524227,
0.5,0.7,
0.48454915028125262,0.70244717418524227,
0.47061073738537634,0.70954915028125265,
0.45954915028125265,0.72061073738537629,
0.45244717418524233,0.73454915028125267,
0.45,0.75,
0.45244717418524233,0.76545084971874733,
0.45954915028125265,0.7793892626146236,
0.47061073738537634,0.79045084971874735,
0.48454915028125262,0.79755282581475773,
0*
4,1,19,
-0.5,0.8,
-0.48454915028125262,0.79755282581475773,
-0.47061073738537634,0.79045084971874735,
-0.45954915028125265,0.77938926261462371,
-0.45244717418524233,0.76545084971874733,
-0.45,0.75,
-0.45244717418524233,0.73454915028125267,
-0.45954915028125265,0.7206107373853764,
-0.47061073738537634,0.70954915028125265,
-0.48454915028125262,0.70244717418524227,
-0.5,0.7,
-0.51545084971874744,0.70244717418524227,
-0.5293892626146236,0.70954915028125265,
-0.54045084971874735,0.72061073738537629,
-0.54755282581475773,0.73454915028125267,
-0.55,0.75,
-0.54755282581475773,0.76545084971874733,
-0.54045084971874735,0.7793892626146236,
-0.52938926261462371,0.79045084971874735,
-0.51545084971874733,0.79755282581475773,
0*
4,1,3,
-0.5,-0.8,
-0.5,-0.7,
0.5,-0.7,
0.5,-0.8,
0*
4,1,3,
0.55,-0.75,
0.45,-0.75,
0.45,0.75,
0.55,0.75,
0*
4,1,3,
0.5,0.8,
0.5,0.7,
-0.5,0.7,
-0.5,0.8,
0*
4,1,3,
-0.55,0.75,
-0.45,0.75,
-0.45,-0.75,
-0.55,-0.75,
0*%
%ADD28COMP30,0.05X-0.5X-0.75X0.5X-0.75X0.5X0.75X-0.5X0.75X0*%
%AMCOMP31*
4,1,36,
0.01235,0.794884,
0.07421,0.794507,
0.088231,0.792412,
0.224052,0.751793,
0.236921,0.745846,
0.355883,0.668739,
0.366566,0.65942,
0.459104,0.552023,
0.466742,0.54008,
0.525419,0.411028,
0.529398,0.397421,
0.549495,0.257088,
0.55,0.25,
0.55,-0.25,
0.549996,-0.25061,
0.549847,-0.262826,
0.549158,-0.270511,
0.525638,-0.410312,
0.521328,-0.423818,
0.459516,-0.551397,
0.451589,-0.56315,
0.356454,-0.668254,
0.345546,-0.677309,
0.224736,-0.751486,
0.211726,-0.757116,
0.074953,-0.794405,
0.060885,-0.796158,
0.011462,-0.795252,
0,-0.8,
-0.55,-0.8,
-0.585355,-0.785355,
-0.6,-0.75,
-0.6,0.75,
-0.585355,0.785355,
-0.55,0.8,
0,0.8,
0.01235,0.794884,
0*%
%ADD29COMP31,0*%
%AMCOMP32*
4,1,3,
-0.2625,-0.45,
0.2625,-0.45,
0.2625,0.45,
-0.2625,0.45,
0*
4,1,19,
-0.2625,-0.15000000000000002,
-0.16979490168751579,-0.16468304511145399,
-0.08616442431225807,-0.2072949016875158,
-0.019794901687515798,-0.27366442431225807,
0.022816954888546015,-0.35729490168751576,
0.037499999999999978,-0.45,
0.02281695488854607,-0.54270509831248426,
-0.019794901687515798,-0.6263355756877419,
-0.086164424312258042,-0.69270509831248417,
-0.16979490168751576,-0.73531695488854609,
-0.26249999999999996,-0.75,
-0.35520509831248431,-0.73531695488854609,
-0.4388355756877419,-0.69270509831248428,
-0.50520509831248417,-0.626335575687742,
-0.54781695488854609,-0.54270509831248426,
-0.5625,-0.45000000000000007,
-0.54781695488854609,-0.35729490168751588,
-0.50520509831248428,-0.27366442431225813,
-0.438835575687742,-0.20729490168751583,
-0.35520509831248431,-0.16468304511145399,
0*
4,1,19,
0.2625,-0.15000000000000002,
0.35520509831248426,-0.16468304511145399,
0.43883557568774195,-0.2072949016875158,
0.50520509831248428,-0.27366442431225807,
0.54781695488854609,-0.35729490168751576,
0.5625,-0.45,
0.54781695488854609,-0.54270509831248426,
0.50520509831248428,-0.6263355756877419,
0.438835575687742,-0.69270509831248417,
0.35520509831248426,-0.73531695488854609,
0.26250000000000007,-0.75,
0.16979490168751571,-0.73531695488854609,
0.0861644243122581,-0.69270509831248428,
0.019794901687515826,-0.626335575687742,
-0.022816954888546015,-0.54270509831248426,
-0.037499999999999978,-0.45000000000000007,
-0.02281695488854607,-0.35729490168751588,
0.019794901687515742,-0.27366442431225813,
0.086164424312258014,-0.20729490168751583,
0.16979490168751571,-0.16468304511145399,
0*
4,1,19,
0.2625,0.75,
0.35520509831248426,0.73531695488854609,
0.43883557568774195,0.69270509831248428,
0.50520509831248428,0.626335575687742,
0.54781695488854609,0.54270509831248426,
0.5625,0.45,
0.54781695488854609,0.35729490168751582,
0.50520509831248428,0.27366442431225813,
0.438835575687742,0.20729490168751583,
0.35520509831248426,0.16468304511145399,
0.26250000000000007,0.15000000000000002,
0.16979490168751571,0.16468304511145399,
0.0861644243122581,0.20729490168751574,
0.019794901687515826,0.273664424312258,
-0.022816954888546015,0.35729490168751576,
-0.037499999999999978,0.44999999999999996,
-0.02281695488854607,0.54270509831248415,
0.019794901687515742,0.6263355756877419,
0.086164424312258014,0.69270509831248417,
0.16979490168751571,0.73531695488854609,
0*
4,1,19,
-0.2625,0.75,
-0.16979490168751579,0.73531695488854609,
-0.08616442431225807,0.69270509831248428,
-0.019794901687515798,0.626335575687742,
0.022816954888546015,0.54270509831248426,
0.037499999999999978,0.45,
0.02281695488854607,0.35729490168751582,
-0.019794901687515798,0.27366442431225813,
-0.086164424312258042,0.20729490168751583,
-0.16979490168751576,0.16468304511145399,
-0.26249999999999996,0.15000000000000002,
-0.35520509831248431,0.16468304511145399,
-0.4388355756877419,0.20729490168751574,
-0.50520509831248417,0.273664424312258,
-0.54781695488854609,0.35729490168751576,
-0.5625,0.44999999999999996,
-0.54781695488854609,0.54270509831248415,
-0.50520509831248428,0.6263355756877419,
-0.438835575687742,0.69270509831248417,
-0.35520509831248431,0.73531695488854609,
0*
4,1,3,
-0.2625,-0.75,
-0.2625,-0.15000000000000002,
0.2625,-0.15000000000000002,
0.2625,-0.75,
0*
4,1,3,
0.5625,-0.45,
-0.037499999999999978,-0.45,
-0.037499999999999978,0.45,
0.5625,0.45,
0*
4,1,3,
0.2625,0.75,
0.2625,0.15000000000000002,
-0.2625,0.15000000000000002,
-0.2625,0.75,
0*
4,1,3,
-0.5625,0.45,
0.037499999999999978,0.45,
0.037499999999999978,-0.45,
-0.5625,-0.45,
0*%
%ADD30COMP32,0.3X-0.2625X-0.45X0.2625X-0.45X0.2625X0.45X-0.2625X0.45X0*%
%AMCOMP33*
4,1,3,
-0.45,0.2625,
-0.45,-0.2625,
0.45,-0.2625,
0.45,0.2625,
0*
4,1,19,
-0.45,0.5625,
-0.35729490168751576,0.54781695488854609,
-0.27366442431225807,0.50520509831248428,
-0.2072949016875158,0.43883557568774195,
-0.16468304511145399,0.35520509831248426,
-0.15000000000000002,0.2625,
-0.16468304511145393,0.16979490168751582,
-0.2072949016875158,0.0861644243122581,
-0.273664424312258,0.019794901687515826,
-0.35729490168751576,-0.022816954888546015,
-0.44999999999999996,-0.037499999999999978,
-0.54270509831248437,-0.022816954888546015,
-0.6263355756877419,0.019794901687515742,
-0.69270509831248417,0.086164424312258042,
-0.73531695488854609,0.16979490168751576,
-0.75,0.26249999999999996,
-0.73531695488854609,0.35520509831248415,
-0.69270509831248428,0.4388355756877419,
-0.626335575687742,0.50520509831248417,
-0.54270509831248426,0.54781695488854609,
0*
4,1,19,
-0.45,0.037499999999999978,
-0.35729490168751576,0.022816954888546015,
-0.27366442431225807,-0.019794901687515798,
-0.2072949016875158,-0.08616442431225807,
-0.16468304511145399,-0.16979490168751576,
-0.15000000000000002,-0.2625,
-0.16468304511145393,-0.3552050983124842,
-0.2072949016875158,-0.4388355756877419,
-0.273664424312258,-0.50520509831248417,
-0.35729490168751576,-0.54781695488854609,
-0.44999999999999996,-0.5625,
-0.54270509831248437,-0.54781695488854609,
-0.6263355756877419,-0.50520509831248428,
-0.69270509831248417,-0.438835575687742,
-0.73531695488854609,-0.35520509831248426,
-0.75,-0.26250000000000007,
-0.73531695488854609,-0.16979490168751585,
-0.69270509831248428,-0.086164424312258153,
-0.626335575687742,-0.019794901687515826,
-0.54270509831248426,0.022816954888546015,
0*
4,1,19,
0.45,0.037499999999999978,
0.54270509831248426,0.022816954888546015,
0.626335575687742,-0.019794901687515798,
0.69270509831248428,-0.08616442431225807,
0.73531695488854609,-0.16979490168751576,
0.75,-0.2625,
0.73531695488854609,-0.3552050983124842,
0.69270509831248428,-0.4388355756877419,
0.626335575687742,-0.50520509831248417,
0.54270509831248426,-0.54781695488854609,
0.45000000000000007,-0.5625,
0.35729490168751571,-0.54781695488854609,
0.27366442431225813,-0.50520509831248428,
0.20729490168751583,-0.438835575687742,
0.16468304511145399,-0.35520509831248426,
0.15000000000000002,-0.26250000000000007,
0.16468304511145393,-0.16979490168751585,
0.20729490168751574,-0.086164424312258153,
0.273664424312258,-0.019794901687515826,
0.35729490168751571,0.022816954888546015,
0*
4,1,19,
0.45,0.5625,
0.54270509831248426,0.54781695488854609,
0.626335575687742,0.50520509831248428,
0.69270509831248428,0.43883557568774195,
0.73531695488854609,0.35520509831248426,
0.75,0.2625,
0.73531695488854609,0.16979490168751582,
0.69270509831248428,0.0861644243122581,
0.626335575687742,0.019794901687515826,
0.54270509831248426,-0.022816954888546015,
0.45000000000000007,-0.037499999999999978,
0.35729490168751571,-0.022816954888546015,
0.27366442431225813,0.019794901687515742,
0.20729490168751583,0.086164424312258042,
0.16468304511145399,0.16979490168751576,
0.15000000000000002,0.26249999999999996,
0.16468304511145393,0.35520509831248415,
0.20729490168751574,0.4388355756877419,
0.273664424312258,0.50520509831248417,
0.35729490168751571,0.54781695488854609,
0*
4,1,3,
-0.75,0.2625,
-0.15000000000000002,0.2625,
-0.15000000000000002,-0.2625,
-0.75,-0.2625,
0*
4,1,3,
-0.45,-0.5625,
-0.45,0.037499999999999978,
0.45,0.037499999999999978,
0.45,-0.5625,
0*
4,1,3,
0.75,-0.2625,
0.15000000000000002,-0.2625,
0.15000000000000002,0.2625,
0.75,0.2625,
0*
4,1,3,
0.45,0.5625,
0.45,-0.037499999999999978,
-0.45,-0.037499999999999978,
-0.45,0.5625,
0*%
%ADD31COMP33,0.3X-0.45X0.2625X-0.45X-0.2625X0.45X-0.2625X0.45X0.2625X0*%
%AMCOMP34*
4,1,3,
0.45,-0.2625,
0.45,0.2625,
-0.45,0.2625,
-0.45,-0.2625,
0*
4,1,19,
0.45,0.037499999999999978,
0.54270509831248426,0.022816954888546015,
0.626335575687742,-0.019794901687515798,
0.69270509831248428,-0.08616442431225807,
0.73531695488854609,-0.16979490168751576,
0.75,-0.2625,
0.73531695488854609,-0.3552050983124842,
0.69270509831248428,-0.4388355756877419,
0.626335575687742,-0.50520509831248417,
0.54270509831248426,-0.54781695488854609,
0.45000000000000007,-0.5625,
0.35729490168751571,-0.54781695488854609,
0.27366442431225813,-0.50520509831248428,
0.20729490168751583,-0.438835575687742,
0.16468304511145399,-0.35520509831248426,
0.15000000000000002,-0.26250000000000007,
0.16468304511145393,-0.16979490168751585,
0.20729490168751574,-0.086164424312258153,
0.273664424312258,-0.019794901687515826,
0.35729490168751571,0.022816954888546015,
0*
4,1,19,
0.45,0.5625,
0.54270509831248426,0.54781695488854609,
0.626335575687742,0.50520509831248428,
0.69270509831248428,0.43883557568774195,
0.73531695488854609,0.35520509831248426,
0.75,0.2625,
0.73531695488854609,0.16979490168751582,
0.69270509831248428,0.0861644243122581,
0.626335575687742,0.019794901687515826,
0.54270509831248426,-0.022816954888546015,
0.45000000000000007,-0.037499999999999978,
0.35729490168751571,-0.022816954888546015,
0.27366442431225813,0.019794901687515742,
0.20729490168751583,0.086164424312258042,
0.16468304511145399,0.16979490168751576,
0.15000000000000002,0.26249999999999996,
0.16468304511145393,0.35520509831248415,
0.20729490168751574,0.4388355756877419,
0.273664424312258,0.50520509831248417,
0.35729490168751571,0.54781695488854609,
0*
4,1,19,
-0.45,0.5625,
-0.35729490168751576,0.54781695488854609,
-0.27366442431225807,0.50520509831248428,
-0.2072949016875158,0.43883557568774195,
-0.16468304511145399,0.35520509831248426,
-0.15000000000000002,0.2625,
-0.16468304511145393,0.16979490168751582,
-0.2072949016875158,0.0861644243122581,
-0.273664424312258,0.019794901687515826,
-0.35729490168751576,-0.022816954888546015,
-0.44999999999999996,-0.037499999999999978,
-0.54270509831248437,-0.022816954888546015,
-0.6263355756877419,0.019794901687515742,
-0.69270509831248417,0.086164424312258042,
-0.73531695488854609,0.16979490168751576,
-0.75,0.26249999999999996,
-0.73531695488854609,0.35520509831248415,
-0.69270509831248428,0.4388355756877419,
-0.626335575687742,0.50520509831248417,
-0.54270509831248426,0.54781695488854609,
0*
4,1,19,
-0.45,0.037499999999999978,
-0.35729490168751576,0.022816954888546015,
-0.27366442431225807,-0.019794901687515798,
-0.2072949016875158,-0.08616442431225807,
-0.16468304511145399,-0.16979490168751576,
-0.15000000000000002,-0.2625,
-0.16468304511145393,-0.3552050983124842,
-0.2072949016875158,-0.4388355756877419,
-0.273664424312258,-0.50520509831248417,
-0.35729490168751576,-0.54781695488854609,
-0.44999999999999996,-0.5625,
-0.54270509831248437,-0.54781695488854609,
-0.6263355756877419,-0.50520509831248428,
-0.69270509831248417,-0.438835575687742,
-0.73531695488854609,-0.35520509831248426,
-0.75,-0.26250000000000007,
-0.73531695488854609,-0.16979490168751585,
-0.69270509831248428,-0.086164424312258153,
-0.626335575687742,-0.019794901687515826,
-0.54270509831248426,0.022816954888546015,
0*
4,1,3,
0.75,-0.2625,
0.15000000000000002,-0.2625,
0.15000000000000002,0.2625,
0.75,0.2625,
0*
4,1,3,
0.45,0.5625,
0.45,-0.037499999999999978,
-0.45,-0.037499999999999978,
-0.45,0.5625,
0*
4,1,3,
-0.75,0.2625,
-0.15000000000000002,0.2625,
-0.15000000000000002,-0.2625,
-0.75,-0.2625,
0*
4,1,3,
-0.45,-0.5625,
-0.45,0.037499999999999978,
0.45,0.037499999999999978,
0.45,-0.5625,
0*%
%ADD32COMP34,0.3X0.45X-0.2625X0.45X0.2625X-0.45X0.2625X-0.45X-0.2625X0*%
%AMCOMP35*
4,1,3,
-0.15,0.5875,
-0.15,-0.5875,
0.15,-0.5875,
0.15,0.5875,
0*
4,1,19,
-0.15,0.78750000000000009,
-0.088196601125010515,0.77771130325903071,
-0.032442949541505367,0.74930339887498953,
0.011803398874989518,0.70505705045849465,
0.040211303259030717,0.64930339887498956,
0.050000000000000017,0.5875,
0.040211303259030745,0.5256966011250106,
0.011803398874989518,0.46994294954150539,
-0.032442949541505339,0.42569660112501051,
-0.088196601125010488,0.39728869674096934,
-0.14999999999999997,0.3875,
-0.21180339887498956,0.39728869674096934,
-0.26755705045849459,0.42569660112501051,
-0.31180339887498948,0.46994294954150539,
-0.34021130325903071,0.52569660112501049,
-0.35,0.5875,
-0.34021130325903071,0.64930339887498945,
-0.31180339887498953,0.70505705045849465,
-0.26755705045849465,0.74930339887498953,
-0.21180339887498953,0.77771130325903071,
0*
4,1,19,
-0.15,-0.3875,
-0.088196601125010515,-0.39728869674096934,
-0.032442949541505367,-0.42569660112501051,
0.011803398874989518,-0.46994294954150539,
0.040211303259030717,-0.52569660112501049,
0.050000000000000017,-0.5875,
0.040211303259030745,-0.64930339887498945,
0.011803398874989518,-0.70505705045849465,
-0.032442949541505339,-0.74930339887498953,
-0.088196601125010488,-0.77771130325903071,
-0.14999999999999997,-0.78750000000000009,
-0.21180339887498956,-0.77771130325903071,
-0.26755705045849459,-0.74930339887498953,
-0.31180339887498948,-0.70505705045849465,
-0.34021130325903071,-0.64930339887498956,
-0.35,-0.5875,
-0.34021130325903071,-0.5256966011250106,
-0.31180339887498953,-0.46994294954150545,
-0.26755705045849465,-0.42569660112501051,
-0.21180339887498953,-0.39728869674096934,
0*
4,1,19,
0.15,-0.3875,
0.21180339887498947,-0.39728869674096934,
0.26755705045849465,-0.42569660112501051,
0.31180339887498953,-0.46994294954150539,
0.34021130325903071,-0.52569660112501049,
0.35,-0.5875,
0.34021130325903071,-0.64930339887498945,
0.31180339887498953,-0.70505705045849465,
0.26755705045849465,-0.74930339887498953,
0.2118033988749895,-0.77771130325903071,
0.15000000000000002,-0.78750000000000009,
0.088196601125010446,-0.77771130325903071,
0.032442949541505381,-0.74930339887498953,
-0.01180339887498949,-0.70505705045849465,
-0.040211303259030717,-0.64930339887498956,
-0.050000000000000017,-0.5875,
-0.040211303259030745,-0.5256966011250106,
-0.011803398874989518,-0.46994294954150545,
0.032442949541505312,-0.42569660112501051,
0.08819660112501046,-0.39728869674096934,
0*
4,1,19,
0.15,0.78750000000000009,
0.21180339887498947,0.77771130325903071,
0.26755705045849465,0.74930339887498953,
0.31180339887498953,0.70505705045849465,
0.34021130325903071,0.64930339887498956,
0.35,0.5875,
0.34021130325903071,0.5256966011250106,
0.31180339887498953,0.46994294954150539,
0.26755705045849465,0.42569660112501051,
0.2118033988749895,0.39728869674096934,
0.15000000000000002,0.3875,
0.088196601125010446,0.39728869674096934,
0.032442949541505381,0.42569660112501051,
-0.01180339887498949,0.46994294954150539,
-0.040211303259030717,0.52569660112501049,
-0.050000000000000017,0.5875,
-0.040211303259030745,0.64930339887498945,
-0.011803398874989518,0.70505705045849465,
0.032442949541505312,0.74930339887498953,
0.08819660112501046,0.77771130325903071,
0*
4,1,3,
-0.35,0.5875,
0.050000000000000017,0.5875,
0.050000000000000017,-0.5875,
-0.35,-0.5875,
0*
4,1,3,
-0.15,-0.78750000000000009,
-0.15,-0.3875,
0.15,-0.3875,
0.15,-0.78750000000000009,
0*
4,1,3,
0.35,-0.5875,
-0.050000000000000017,-0.5875,
-0.050000000000000017,0.5875,
0.35,0.5875,
0*
4,1,3,
0.15,0.78750000000000009,
0.15,0.3875,
-0.15,0.3875,
-0.15,0.78750000000000009,
0*%
%ADD33COMP35,0.2X-0.15X0.5875X-0.15X-0.5875X0.15X-0.5875X0.15X0.5875X0*%
%AMCOMP36*
4,1,3,
-0.25,-0.475,
0.25,-0.475,
0.25,0.475,
-0.25,0.475,
0*
4,1,19,
-0.25,-0.175,
-0.15729490168751578,-0.18968304511145395,
-0.073664424312258059,-0.23229490168751576,
-0.0072949016875157868,-0.29866442431225804,
0.035316954888546026,-0.38229490168751573,
0.049999999999999989,-0.475,
0.035316954888546082,-0.56770509831248417,
-0.0072949016875157868,-0.65133557568774192,
-0.073664424312258031,-0.71770509831248419,
-0.15729490168751575,-0.760316954888546,
-0.24999999999999997,-0.77499999999999991,
-0.3427050983124843,-0.760316954888546,
-0.42633557568774194,-0.71770509831248419,
-0.49270509831248421,-0.65133557568774192,
-0.535316954888546,-0.56770509831248428,
-0.55,-0.47500000000000003,
-0.53531695488854614,-0.38229490168751579,
-0.49270509831248427,-0.29866442431225815,
-0.426335575687742,-0.23229490168751579,
-0.3427050983124843,-0.18968304511145395,
0*
4,1,19,
0.25,-0.175,
0.34270509831248419,-0.18968304511145395,
0.42633557568774194,-0.23229490168751576,
0.49270509831248421,-0.29866442431225804,
0.535316954888546,-0.38229490168751573,
0.55,-0.475,
0.53531695488854614,-0.56770509831248417,
0.49270509831248421,-0.65133557568774192,
0.42633557568774194,-0.71770509831248419,
0.34270509831248425,-0.760316954888546,
0.25000000000000006,-0.77499999999999991,
0.1572949016875157,-0.760316954888546,
0.073664424312258087,-0.71770509831248419,
0.0072949016875158146,-0.65133557568774192,
-0.035316954888546026,-0.56770509831248428,
-0.049999999999999989,-0.47500000000000003,
-0.035316954888546082,-0.38229490168751579,
0.0072949016875157313,-0.29866442431225815,
0.073664424312258,-0.23229490168751579,
0.1572949016875157,-0.18968304511145395,
0*
4,1,19,
0.25,0.77499999999999991,
0.34270509831248419,0.760316954888546,
0.42633557568774194,0.71770509831248419,
0.49270509831248421,0.65133557568774192,
0.535316954888546,0.56770509831248417,
0.55,0.475,
0.53531695488854614,0.38229490168751579,
0.49270509831248421,0.29866442431225804,
0.42633557568774194,0.23229490168751579,
0.34270509831248425,0.18968304511145395,
0.25000000000000006,0.175,
0.1572949016875157,0.18968304511145395,
0.073664424312258087,0.23229490168751571,
0.0072949016875158146,0.29866442431225804,
-0.035316954888546026,0.38229490168751573,
-0.049999999999999989,0.47499999999999992,
-0.035316954888546082,0.56770509831248417,
0.0072949016875157313,0.65133557568774181,
0.073664424312258,0.71770509831248419,
0.1572949016875157,0.760316954888546,
0*
4,1,19,
-0.25,0.77499999999999991,
-0.15729490168751578,0.760316954888546,
-0.073664424312258059,0.71770509831248419,
-0.0072949016875157868,0.65133557568774192,
0.035316954888546026,0.56770509831248417,
0.049999999999999989,0.475,
0.035316954888546082,0.38229490168751579,
-0.0072949016875157868,0.29866442431225804,
-0.073664424312258031,0.23229490168751579,
-0.15729490168751575,0.18968304511145395,
-0.24999999999999997,0.175,
-0.3427050983124843,0.18968304511145395,
-0.42633557568774194,0.23229490168751571,
-0.49270509831248421,0.29866442431225804,
-0.535316954888546,0.38229490168751573,
-0.55,0.47499999999999992,
-0.53531695488854614,0.56770509831248417,
-0.49270509831248427,0.65133557568774181,
-0.426335575687742,0.71770509831248419,
-0.3427050983124843,0.760316954888546,
0*
4,1,3,
-0.25,-0.77499999999999991,
-0.24999999999999997,-0.175,
0.25,-0.175,
0.24999999999999997,-0.77499999999999991,
0*
4,1,3,
0.55,-0.475,
-0.049999999999999989,-0.475,
-0.049999999999999989,0.475,
0.55,0.475,
0*
4,1,3,
0.25,0.77499999999999991,
0.24999999999999997,0.175,
-0.25,0.175,
-0.24999999999999997,0.77499999999999991,
0*
4,1,3,
-0.55,0.475,
0.049999999999999989,0.475,
0.049999999999999989,-0.475,
-0.55,-0.475,
0*%
%ADD34COMP36,0.3X-0.25X-0.475X0.25X-0.475X0.25X0.475X-0.25X0.475X0*%
%AMCOMP37*
4,1,36,
0.535355,0.785355,
0.55,0.75,
0.55,-0.75,
0.535355,-0.785355,
0.5,-0.8,
0,-0.8,
-0.012524,-0.794812,
-0.080857,-0.79356,
-0.094851,-0.791293,
-0.230166,-0.749018,
-0.242962,-0.742915,
-0.360972,-0.66436,
-0.37154,-0.654911,
-0.46276,-0.546392,
-0.470252,-0.534356,
-0.527347,-0.404597,
-0.531159,-0.390943,
-0.548742,-0.256483,
-0.547388,-0.256306,
-0.55,-0.25,
-0.55,0.25,
-0.549522,0.251153,
-0.549368,0.263802,
-0.527557,0.403879,
-0.523412,0.417435,
-0.463164,0.54576,
-0.455381,0.557609,
-0.361537,0.663867,
-0.350741,0.673055,
-0.230846,0.748703,
-0.217905,0.754492,
-0.081598,0.793449,
-0.067552,0.795373,
-0.011991,0.795033,
0,0.8,
0.5,0.8,
0.535355,0.785355,
0*%
%ADD35COMP37,180*%
%AMCOMP38*
4,1,36,
0.01235,0.794884,
0.07421,0.794507,
0.088231,0.792412,
0.224052,0.751793,
0.236921,0.745846,
0.355883,0.668739,
0.366566,0.65942,
0.459104,0.552023,
0.466742,0.54008,
0.525419,0.411028,
0.529398,0.397421,
0.549495,0.257088,
0.55,0.25,
0.55,-0.25,
0.549996,-0.25061,
0.549847,-0.262826,
0.549158,-0.270511,
0.525638,-0.410312,
0.521328,-0.423818,
0.459516,-0.551397,
0.451589,-0.56315,
0.356454,-0.668254,
0.345546,-0.677309,
0.224736,-0.751486,
0.211726,-0.757116,
0.074953,-0.794405,
0.060885,-0.796158,
0.011462,-0.795252,
0,-0.8,
-0.5,-0.8,
-0.535355,-0.785355,
-0.55,-0.75,
-0.55,0.75,
-0.535355,0.785355,
-0.5,0.8,
0,0.8,
0.01235,0.794884,
0*%
%ADD36COMP38,180*%
%AMCOMP39*
4,1,3,
-0.475,0.25,
-0.475,-0.25,
0.475,-0.25,
0.475,0.25,
0*
4,1,19,
-0.475,0.55,
-0.38229490168751579,0.535316954888546,
-0.29866442431225804,0.49270509831248421,
-0.23229490168751576,0.42633557568774194,
-0.18968304511145395,0.34270509831248425,
-0.175,0.25,
-0.1896830451114539,0.15729490168751581,
-0.23229490168751576,0.073664424312258087,
-0.29866442431225804,0.0072949016875158146,
-0.38229490168751573,-0.035316954888546026,
-0.47499999999999992,-0.049999999999999989,
-0.56770509831248428,-0.035316954888546026,
-0.65133557568774192,0.0072949016875157313,
-0.71770509831248419,0.073664424312258031,
-0.760316954888546,0.15729490168751575,
-0.77499999999999991,0.24999999999999994,
-0.760316954888546,0.34270509831248419,
-0.71770509831248419,0.42633557568774183,
-0.65133557568774192,0.49270509831248421,
-0.56770509831248428,0.535316954888546,
0*
4,1,19,
-0.475,0.049999999999999989,
-0.38229490168751579,0.035316954888546026,
-0.29866442431225804,-0.0072949016875157868,
-0.23229490168751576,-0.073664424312258059,
-0.18968304511145395,-0.15729490168751575,
-0.175,-0.24999999999999997,
-0.1896830451114539,-0.34270509831248419,
-0.23229490168751576,-0.42633557568774194,
-0.29866442431225804,-0.49270509831248421,
-0.38229490168751573,-0.535316954888546,
-0.47499999999999992,-0.55,
-0.56770509831248428,-0.535316954888546,
-0.65133557568774192,-0.49270509831248427,
-0.71770509831248419,-0.42633557568774194,
-0.760316954888546,-0.34270509831248425,
-0.77499999999999991,-0.25000000000000006,
-0.760316954888546,-0.15729490168751584,
-0.71770509831248419,-0.073664424312258142,
-0.65133557568774192,-0.0072949016875158146,
-0.56770509831248428,0.035316954888546026,
0*
4,1,19,
0.475,0.049999999999999989,
0.56770509831248417,0.035316954888546026,
0.65133557568774192,-0.0072949016875157868,
0.71770509831248419,-0.073664424312258059,
0.760316954888546,-0.15729490168751575,
0.77499999999999991,-0.24999999999999997,
0.760316954888546,-0.34270509831248419,
0.71770509831248419,-0.42633557568774194,
0.65133557568774192,-0.49270509831248421,
0.56770509831248428,-0.535316954888546,
0.47500000000000003,-0.55,
0.38229490168751568,-0.535316954888546,
0.29866442431225804,-0.49270509831248427,
0.23229490168751579,-0.42633557568774194,
0.18968304511145395,-0.34270509831248425,
0.175,-0.25000000000000006,
0.1896830451114539,-0.15729490168751584,
0.23229490168751571,-0.073664424312258142,
0.298664424312258,-0.0072949016875158146,
0.38229490168751568,0.035316954888546026,
0*
4,1,19,
0.475,0.55,
0.56770509831248417,0.535316954888546,
0.65133557568774192,0.49270509831248421,
0.71770509831248419,0.42633557568774194,
0.760316954888546,0.34270509831248425,
0.77499999999999991,0.25,
0.760316954888546,0.15729490168751581,
0.71770509831248419,0.073664424312258087,
0.65133557568774192,0.0072949016875158146,
0.56770509831248428,-0.035316954888546026,
0.47500000000000003,-0.049999999999999989,
0.38229490168751568,-0.035316954888546026,
0.29866442431225804,0.0072949016875157313,
0.23229490168751579,0.073664424312258031,
0.18968304511145395,0.15729490168751575,
0.175,0.24999999999999994,
0.1896830451114539,0.34270509831248419,
0.23229490168751571,0.42633557568774183,
0.298664424312258,0.49270509831248421,
0.38229490168751568,0.535316954888546,
0*
4,1,3,
-0.77499999999999991,0.25,
-0.175,0.24999999999999997,
-0.175,-0.25,
-0.77499999999999991,-0.24999999999999997,
0*
4,1,3,
-0.475,-0.55,
-0.475,0.049999999999999989,
0.475,0.049999999999999989,
0.475,-0.55,
0*
4,1,3,
0.77499999999999991,-0.25,
0.175,-0.24999999999999997,
0.175,0.25,
0.77499999999999991,0.24999999999999997,
0*
4,1,3,
0.475,0.55,
0.475,-0.049999999999999989,
-0.475,-0.049999999999999989,
-0.475,0.55,
0*%
%ADD37COMP39,0.3X-0.475X0.25X-0.475X-0.25X0.475X-0.25X0.475X0.25X0*%
%AMCOMP40*
4,1,3,
0.5125,0.15,
-0.5125,0.15,
-0.5125,-0.15,
0.5125,-0.15,
0*
4,1,19,
0.5125,0.35,
0.57430339887498949,0.34021130325903071,
0.63005705045849458,0.31180339887498953,
0.67430339887498947,0.26755705045849465,
0.70271130325903064,0.2118033988749895,
0.71249999999999991,0.15,
0.70271130325903064,0.088196601125010515,
0.67430339887498947,0.032442949541505381,
0.63005705045849458,-0.01180339887498949,
0.57430339887498949,-0.040211303259030717,
0.5125,-0.050000000000000017,
0.45069660112501042,-0.040211303259030717,
0.39494294954150533,-0.011803398874989518,
0.35069660112501044,0.032442949541505339,
0.32228869674096927,0.088196601125010488,
0.31249999999999994,0.14999999999999997,
0.32228869674096922,0.21180339887498945,
0.35069660112501044,0.26755705045849459,
0.39494294954150527,0.31180339887498948,
0.45069660112501042,0.34021130325903071,
0*
4,1,19,
-0.5125,0.35,
-0.45069660112501048,0.34021130325903071,
-0.39494294954150533,0.31180339887498953,
-0.35069660112501044,0.26755705045849465,
-0.32228869674096927,0.2118033988749895,
-0.31249999999999994,0.15,
-0.32228869674096922,0.088196601125010515,
-0.35069660112501044,0.032442949541505381,
-0.39494294954150533,-0.01180339887498949,
-0.45069660112501042,-0.040211303259030717,
-0.5125,-0.050000000000000017,
-0.57430339887498949,-0.040211303259030717,
-0.63005705045849458,-0.011803398874989518,
-0.67430339887498947,0.032442949541505339,
-0.70271130325903064,0.088196601125010488,
-0.71249999999999991,0.14999999999999997,
-0.70271130325903064,0.21180339887498945,
-0.67430339887498947,0.26755705045849459,
-0.63005705045849458,0.31180339887498948,
-0.57430339887498949,0.34021130325903071,
0*
4,1,19,
-0.5125,0.050000000000000017,
-0.45069660112501048,0.040211303259030717,
-0.39494294954150533,0.011803398874989518,
-0.35069660112501044,-0.032442949541505367,
-0.32228869674096927,-0.0881966011250105,
-0.31249999999999994,-0.15,
-0.32228869674096922,-0.21180339887498947,
-0.35069660112501044,-0.26755705045849459,
-0.39494294954150533,-0.31180339887498948,
-0.45069660112501042,-0.34021130325903071,
-0.5125,-0.35,
-0.57430339887498949,-0.34021130325903071,
-0.63005705045849458,-0.31180339887498953,
-0.67430339887498947,-0.26755705045849465,
-0.70271130325903064,-0.2118033988749895,
-0.71249999999999991,-0.15000000000000002,
-0.70271130325903064,-0.088196601125010543,
-0.67430339887498947,-0.032442949541505409,
-0.63005705045849458,0.01180339887498949,
-0.57430339887498949,0.040211303259030717,
0*
4,1,19,
0.5125,0.050000000000000017,
0.57430339887498949,0.040211303259030717,
0.63005705045849458,0.011803398874989518,
0.67430339887498947,-0.032442949541505367,
0.70271130325903064,-0.0881966011250105,
0.71249999999999991,-0.15,
0.70271130325903064,-0.21180339887498947,
0.67430339887498947,-0.26755705045849459,
0.63005705045849458,-0.31180339887498948,
0.57430339887498949,-0.34021130325903071,
0.5125,-0.35,
0.45069660112501042,-0.34021130325903071,
0.39494294954150533,-0.31180339887498953,
0.35069660112501044,-0.26755705045849465,
0.32228869674096927,-0.2118033988749895,
0.31249999999999994,-0.15000000000000002,
0.32228869674096922,-0.088196601125010543,
0.35069660112501044,-0.032442949541505409,
0.39494294954150527,0.01180339887498949,
0.45069660112501042,0.040211303259030717,
0*
4,1,3,
0.5125,0.35,
0.5125,-0.050000000000000017,
-0.5125,-0.050000000000000017,
-0.5125,0.35,
0*
4,1,3,
-0.71249999999999991,0.15,
-0.31249999999999994,0.15,
-0.31249999999999994,-0.15,
-0.71249999999999991,-0.15,
0*
4,1,3,
-0.5125,-0.35,
-0.5125,0.050000000000000017,
0.5125,0.050000000000000017,
0.5125,-0.35,
0*
4,1,3,
0.71249999999999991,-0.15,
0.31249999999999994,-0.15,
0.31249999999999994,0.15,
0.71249999999999991,0.15,
0*%
%ADD38COMP40,0.2X0.5125X0.15X-0.5125X0.15X-0.5125X-0.15X0.5125X-0.15X0*%
%AMCOMP41*
4,1,3,
0.2625,0.45,
-0.2625,0.45,
-0.2625,-0.45,
0.2625,-0.45,
0*
4,1,19,
0.2625,0.75,
0.35520509831248426,0.73531695488854609,
0.43883557568774195,0.69270509831248428,
0.50520509831248428,0.626335575687742,
0.54781695488854609,0.54270509831248426,
0.5625,0.45,
0.54781695488854609,0.35729490168751582,
0.50520509831248428,0.27366442431225813,
0.438835575687742,0.20729490168751583,
0.35520509831248426,0.16468304511145399,
0.26250000000000007,0.15000000000000002,
0.16979490168751571,0.16468304511145399,
0.0861644243122581,0.20729490168751574,
0.019794901687515826,0.273664424312258,
-0.022816954888546015,0.35729490168751576,
-0.037499999999999978,0.44999999999999996,
-0.02281695488854607,0.54270509831248415,
0.019794901687515742,0.6263355756877419,
0.086164424312258014,0.69270509831248417,
0.16979490168751571,0.73531695488854609,
0*
4,1,19,
-0.2625,0.75,
-0.16979490168751579,0.73531695488854609,
-0.08616442431225807,0.69270509831248428,
-0.019794901687515798,0.626335575687742,
0.022816954888546015,0.54270509831248426,
0.037499999999999978,0.45,
0.02281695488854607,0.35729490168751582,
-0.019794901687515798,0.27366442431225813,
-0.086164424312258042,0.20729490168751583,
-0.16979490168751576,0.16468304511145399,
-0.26249999999999996,0.15000000000000002,
-0.35520509831248431,0.16468304511145399,
-0.4388355756877419,0.20729490168751574,
-0.50520509831248417,0.273664424312258,
-0.54781695488854609,0.35729490168751576,
-0.5625,0.44999999999999996,
-0.54781695488854609,0.54270509831248415,
-0.50520509831248428,0.6263355756877419,
-0.438835575687742,0.69270509831248417,
-0.35520509831248431,0.73531695488854609,
0*
4,1,19,
-0.2625,-0.15000000000000002,
-0.16979490168751579,-0.16468304511145399,
-0.08616442431225807,-0.2072949016875158,
-0.019794901687515798,-0.27366442431225807,
0.022816954888546015,-0.35729490168751576,
0.037499999999999978,-0.45,
0.02281695488854607,-0.54270509831248426,
-0.019794901687515798,-0.6263355756877419,
-0.086164424312258042,-0.69270509831248417,
-0.16979490168751576,-0.73531695488854609,
-0.26249999999999996,-0.75,
-0.35520509831248431,-0.73531695488854609,
-0.4388355756877419,-0.69270509831248428,
-0.50520509831248417,-0.626335575687742,
-0.54781695488854609,-0.54270509831248426,
-0.5625,-0.45000000000000007,
-0.54781695488854609,-0.35729490168751588,
-0.50520509831248428,-0.27366442431225813,
-0.438835575687742,-0.20729490168751583,
-0.35520509831248431,-0.16468304511145399,
0*
4,1,19,
0.2625,-0.15000000000000002,
0.35520509831248426,-0.16468304511145399,
0.43883557568774195,-0.2072949016875158,
0.50520509831248428,-0.27366442431225807,
0.54781695488854609,-0.35729490168751576,
0.5625,-0.45,
0.54781695488854609,-0.54270509831248426,
0.50520509831248428,-0.6263355756877419,
0.438835575687742,-0.69270509831248417,
0.35520509831248426,-0.73531695488854609,
0.26250000000000007,-0.75,
0.16979490168751571,-0.73531695488854609,
0.0861644243122581,-0.69270509831248428,
0.019794901687515826,-0.626335575687742,
-0.022816954888546015,-0.54270509831248426,
-0.037499999999999978,-0.45000000000000007,
-0.02281695488854607,-0.35729490168751588,
0.019794901687515742,-0.27366442431225813,
0.086164424312258014,-0.20729490168751583,
0.16979490168751571,-0.16468304511145399,
0*
4,1,3,
0.2625,0.75,
0.2625,0.15000000000000002,
-0.2625,0.15000000000000002,
-0.2625,0.75,
0*
4,1,3,
-0.5625,0.45,
0.037499999999999978,0.45,
0.037499999999999978,-0.45,
-0.5625,-0.45,
0*
4,1,3,
-0.2625,-0.75,
-0.2625,-0.15000000000000002,
0.2625,-0.15000000000000002,
0.2625,-0.75,
0*
4,1,3,
0.5625,-0.45,
-0.037499999999999978,-0.45,
-0.037499999999999978,0.45,
0.5625,0.45,
0*%
%ADD39COMP41,0.3X0.2625X0.45X-0.2625X0.45X-0.2625X-0.45X0.2625X-0.45X0*%
%AMCOMP42*
4,1,3,
1.450001,-0.450001,
1.450001,0.450001,
-1.450001,0.450001,
-1.450001,-0.450001,
0*
4,1,19,
1.450001,-0.15000199999999997,
1.5427057892954898,-0.16468499616797022,
1.6263359879024897,-0.20729671070451011,
1.69270528929549,-0.27366601209751029,
1.7353170038320298,-0.35729621070451012,
1.75,-0.450001,
1.73531700383203,-0.54270578929548985,
1.69270528929549,-0.62633598790248968,
1.6263359879024897,-0.6927052892954898,
1.54270578929549,-0.7353170038320298,
1.450001,-0.75,
1.3572962107045101,-0.7353170038320298,
1.2736660120975105,-0.69270528929548991,
1.2072967107045103,-0.62633598790248968,
1.1646849961679704,-0.54270578929548985,
1.1500020000000002,-0.45000100000000004,
1.1646849961679702,-0.35729621070451018,
1.2072967107045103,-0.2736660120975104,
1.2736660120975103,-0.20729671070451014,
1.3572962107045101,-0.16468499616797022,
0*
4,1,19,
1.450001,0.75,
1.5427057892954898,0.7353170038320298,
1.6263359879024897,0.69270528929548991,
1.69270528929549,0.62633598790248968,
1.7353170038320298,0.54270578929548985,
1.75,0.450001,
1.73531700383203,0.35729621070451012,
1.69270528929549,0.27366601209751035,
1.6263359879024897,0.20729671070451014,
1.54270578929549,0.16468499616797022,
1.450001,0.15000199999999997,
1.3572962107045101,0.16468499616797022,
1.2736660120975105,0.20729671070451008,
1.2072967107045103,0.27366601209751029,
1.1646849961679704,0.35729621070451012,
1.1500020000000002,0.45000099999999993,
1.1646849961679702,0.54270578929548974,
1.2072967107045103,0.62633598790248957,
1.2736660120975103,0.6927052892954898,
1.3572962107045101,0.7353170038320298,
0*
4,1,19,
-1.450001,0.75,
-1.3572962107045103,0.7353170038320298,
-1.2736660120975105,0.69270528929548991,
-1.2072967107045103,0.62633598790248968,
-1.1646849961679704,0.54270578929548985,
-1.1500020000000002,0.450001,
-1.1646849961679702,0.35729621070451012,
-1.2072967107045103,0.27366601209751035,
-1.2736660120975105,0.20729671070451014,
-1.3572962107045101,0.16468499616797022,
-1.450001,0.15000199999999997,
-1.54270578929549,0.16468499616797022,
-1.6263359879024897,0.20729671070451008,
-1.69270528929549,0.27366601209751029,
-1.7353170038320298,0.35729621070451012,
-1.75,0.45000099999999993,
-1.73531700383203,0.54270578929548974,
-1.69270528929549,0.62633598790248957,
-1.62633598790249,0.6927052892954898,
-1.54270578929549,0.7353170038320298,
0*
4,1,19,
-1.450001,-0.15000199999999997,
-1.3572962107045103,-0.16468499616797022,
-1.2736660120975105,-0.20729671070451011,
-1.2072967107045103,-0.27366601209751029,
-1.1646849961679704,-0.35729621070451012,
-1.1500020000000002,-0.450001,
-1.1646849961679702,-0.54270578929548985,
-1.2072967107045103,-0.62633598790248968,
-1.2736660120975105,-0.6927052892954898,
-1.3572962107045101,-0.7353170038320298,
-1.450001,-0.75,
-1.54270578929549,-0.7353170038320298,
-1.6263359879024897,-0.69270528929548991,
-1.69270528929549,-0.62633598790248968,
-1.7353170038320298,-0.54270578929548985,
-1.75,-0.45000100000000004,
-1.73531700383203,-0.35729621070451018,
-1.69270528929549,-0.2736660120975104,
-1.62633598790249,-0.20729671070451014,
-1.54270578929549,-0.16468499616797022,
0*
4,1,3,
1.75,-0.450001,
1.1500020000000002,-0.450001,
1.1500020000000002,0.450001,
1.75,0.450001,
0*
4,1,3,
1.450001,0.75,
1.450001,0.15000199999999997,
-1.450001,0.15000199999999997,
-1.450001,0.75,
0*
4,1,3,
-1.75,0.450001,
-1.1500020000000002,0.450001,
-1.1500020000000002,-0.450001,
-1.75,-0.450001,
0*
4,1,3,
-1.450001,-0.75,
-1.450001,-0.15000199999999997,
1.450001,-0.15000199999999997,
1.450001,-0.75,
0*%
%ADD40COMP42,0.299999X1.450001X-0.450001X1.450001X0.450001X-1.450001X0.450001X-1.450001X-0.450001X0*%
G04 APERTURE END LIST*
D10*
%TO.C,J1*%
X-0101000000Y0109000000D02*
X0044843909Y0013241332D03*
D11*
X0042303909Y0013241332D03*
X0044843909Y0015781332D03*
X0042303909Y0015781332D03*
X0044843909Y0018321332D03*
X0042303909Y0018321332D03*
X0044843909Y0020861332D03*
X0042303909Y0020861332D03*
X0044843909Y0023401331D03*
X0042303909Y0023401331D03*
%TD*%
D12*
%TO.C,SW1*%
X0009200827Y0046412103D03*
%TD*%
%TO.C,H4*%
X0043352944Y0005697056D03*
X0045050000Y0006400000D03*
D13*
X0045050000Y0004000000D03*
D12*
X0046747055Y0005697056D03*
X0045050000Y0001599999D03*
X0043352944Y0002302943D03*
X0046747055Y0002302943D03*
X0042650000Y0004000000D03*
X0047449999Y0004000000D03*
%TD*%
D14*
%TO.C,J6*%
X0042606598Y0034578000D03*
D15*
X0042606598Y0037117999D03*
X0042606598Y0039658000D03*
%TD*%
D16*
%TO.C,J4*%
X0004204868Y0036082875D03*
D11*
X0006744867Y0036082875D03*
X0004204868Y0033542874D03*
X0006744867Y0033542874D03*
X0004204868Y0031002875D03*
X0006744867Y0031002875D03*
X0004204868Y0028462874D03*
X0006744867Y0028462874D03*
X0004204868Y0025922875D03*
X0006744867Y0025922875D03*
X0004204868Y0023382875D03*
X0006744867Y0023382875D03*
X0004204868Y0020842875D03*
X0006744867Y0020842875D03*
X0004204868Y0018302875D03*
X0006744867Y0018302875D03*
X0004204868Y0015762874D03*
X0006744867Y0015762874D03*
X0004204868Y0013222875D03*
X0006744867Y0013222875D03*
%TD*%
D12*
%TO.C,H1*%
X0043352944Y0046947056D03*
X0043352944Y0043552944D03*
X0046747055Y0043552944D03*
X0045050000Y0047650000D03*
X0046747055Y0046947056D03*
X0042650000Y0045250000D03*
X0045050000Y0042849999D03*
D13*
X0045050000Y0045250000D03*
D12*
X0047449999Y0045250000D03*
%TD*%
D17*
%TO.C,J2*%
X0028479999Y0009866263D03*
D15*
X0025939999Y0009866263D03*
X0023400000Y0009866263D03*
X0020860000Y0009866263D03*
%TD*%
D14*
%TO.C,J5*%
X0046500856Y0032004019D03*
D15*
X0046500856Y0034544020D03*
X0046500856Y0037084019D03*
X0046500856Y0039624020D03*
%TD*%
D12*
%TO.C,H2*%
X0004000000Y0042849999D03*
X0002302943Y0046947056D03*
X0001599999Y0045250000D03*
D13*
X0004000000Y0045250000D03*
D12*
X0006400000Y0045250000D03*
X0005697056Y0043552944D03*
X0002302943Y0043552944D03*
X0005697056Y0046947056D03*
X0004000000Y0047650000D03*
%TD*%
%TO.C,H3*%
X0004000000Y0001599999D03*
X0005697056Y0002302943D03*
X0001599999Y0004000000D03*
D13*
X0004000000Y0004000000D03*
D12*
X0004000000Y0006400000D03*
X0002302943Y0005697056D03*
X0006400000Y0004000000D03*
X0002302943Y0002302943D03*
X0005697056Y0005697056D03*
%TD*%
D18*
%TO.C,J8*%
X0011773428Y0003949312D03*
D19*
X0016853429Y0003949312D03*
X0021933429Y0003949312D03*
X0027013429Y0003949312D03*
X0032093428Y0003949312D03*
X0037173429Y0003949312D03*
%TD*%
D20*
%TO.C,J7*%
X0034041582Y0044809776D03*
X0039041582Y0044809776D03*
D21*
X0032816582Y0043759776D03*
D22*
X0040416582Y0047559776D03*
D21*
X0040266582Y0043759776D03*
D22*
X0032666582Y0047559776D03*
%TD*%
D23*
%TO.C,Q6*%
X0012987499Y0027549999D03*
X0012987499Y0025650000D03*
X0011112499Y0026599999D03*
%TD*%
D24*
%TO.C,JP3*%
X0013290000Y0039170000D03*
D25*
X0013290000Y0037870000D03*
%TD*%
D24*
%TO.C,JP4*%
X0016019999Y0039180000D03*
D25*
X0016019999Y0037879999D03*
%TD*%
D26*
%TO.C,C11*%
X0025659999Y0017560000D03*
X0025659999Y0019459999D03*
%TD*%
D27*
%TO.C,JP2*%
X0039940000Y0030260000D03*
D28*
X0041240000Y0030260000D03*
D29*
X0042539999Y0030260000D03*
%TD*%
D30*
%TO.C,R15*%
X0010577500Y0009469999D03*
X0012402500Y0009469999D03*
%TD*%
D31*
%TO.C,R11*%
X0041747999Y0027362499D03*
X0041747999Y0025537499D03*
%TD*%
D32*
%TO.C,R31*%
X0011924999Y0029412499D03*
X0011924999Y0031237499D03*
%TD*%
D33*
%TO.C,Q5*%
X0014019999Y0031317499D03*
X0015920000Y0031317499D03*
X0014969999Y0029442499D03*
%TD*%
D34*
%TO.C,C9*%
X0022049999Y0012280000D03*
X0023950000Y0012280000D03*
%TD*%
D30*
%TO.C,R16*%
X0012357500Y0011620000D03*
X0014182500Y0011620000D03*
%TD*%
%TO.C,R17*%
X0014037499Y0009420000D03*
X0015862499Y0009420000D03*
%TD*%
D31*
%TO.C,R18*%
X0046574000Y0027362499D03*
X0046574000Y0025537499D03*
%TD*%
D35*
%TO.C,JP1*%
X0016489999Y0041690000D03*
D36*
X0015189999Y0041690000D03*
%TD*%
D24*
%TO.C,JP5*%
X0018720000Y0039209999D03*
D25*
X0018720000Y0037910000D03*
%TD*%
D37*
%TO.C,C15*%
X0012344075Y0045665788D03*
X0012344075Y0043765788D03*
%TD*%
D31*
%TO.C,R19*%
X0044288000Y0027362499D03*
X0044288000Y0025537499D03*
%TD*%
D35*
%TO.C,JP6*%
X0030333000Y0019439600D03*
D36*
X0029032999Y0019439600D03*
%TD*%
D32*
%TO.C,R32*%
X0009950000Y0029437500D03*
X0009950000Y0031262500D03*
%TD*%
D38*
%TO.C,U7*%
X0024347499Y0015900000D03*
X0024347499Y0014950000D03*
X0024347499Y0014000000D03*
X0022072500Y0014000000D03*
X0022072500Y0015900000D03*
%TD*%
D30*
%TO.C,R30*%
X0014927499Y0046516000D03*
X0016752499Y0046516000D03*
%TD*%
D31*
%TO.C,R26*%
X0026670000Y0015892499D03*
X0026670000Y0014067499D03*
%TD*%
D39*
%TO.C,R29*%
X0016752499Y0044230000D03*
X0014927499Y0044230000D03*
%TD*%
D40*
%TO.C,C13*%
X0022060000Y0017670000D03*
X0022060000Y0021769999D03*
%TD*%
D39*
%TO.C,R10*%
X0015852500Y0033340000D03*
X0014027500Y0033340000D03*
%TD*%
D32*
%TO.C,R22*%
X0015099999Y0025712500D03*
X0015099999Y0027537499D03*
%TD*%
G36*
X0023503867Y0016921001D02*
G01*
X0023503867Y0016919000D01*
X0023502465Y0016918028D01*
X0023502459Y0016918026D01*
X0023502129Y0016918000D01*
X0020617869Y0016918000D01*
X0020616138Y0016918999D01*
X0020616138Y0016921000D01*
X0020617869Y0016921999D01*
X0023502135Y0016922000D01*
X0023503867Y0016921001D01*
G37*
G36*
X0023503861Y0018421000D02*
G01*
X0023503861Y0018418999D01*
X0023502129Y0018418000D01*
X0020617863Y0018417998D01*
X0020616131Y0018418999D01*
X0020616131Y0018420998D01*
X0020617535Y0018421971D01*
X0020617541Y0018421972D01*
X0020617869Y0018421999D01*
X0023502129Y0018421999D01*
X0023503861Y0018421000D01*
G37*
G36*
X0023503867Y0021021001D02*
G01*
X0023503867Y0021019001D01*
X0023502465Y0021018028D01*
X0023502459Y0021018027D01*
X0023502129Y0021018000D01*
X0020617869Y0021018000D01*
X0020616138Y0021019000D01*
X0020616138Y0021021000D01*
X0020617869Y0021022000D01*
X0023502135Y0021022001D01*
X0023503867Y0021021001D01*
G37*
G36*
X0023503861Y0022521000D02*
G01*
X0023503861Y0022519000D01*
X0023502129Y0022518000D01*
X0020617863Y0022517999D01*
X0020616131Y0022518998D01*
X0020616131Y0022520999D01*
X0020617535Y0022521972D01*
X0020617541Y0022521973D01*
X0020617869Y0022522000D01*
X0023502129Y0022522000D01*
X0023503861Y0022521000D01*
G37*
G36*
X0040537522Y0031030248D02*
G01*
X0040581118Y0030995880D01*
X0040641572Y0030993506D01*
X0040691977Y0031027186D01*
X0040693973Y0031027316D01*
X0040695084Y0031025654D01*
X0040695050Y0031025132D01*
X0040692000Y0031009800D01*
X0040692000Y0029510199D01*
X0040695676Y0029491713D01*
X0040695033Y0029489818D01*
X0040693072Y0029489429D01*
X0040692477Y0029489751D01*
X0040648881Y0029524119D01*
X0040588426Y0029526493D01*
X0040538023Y0029492813D01*
X0040536026Y0029492683D01*
X0040534916Y0029494345D01*
X0040534950Y0029494867D01*
X0040538000Y0029510199D01*
X0040538000Y0031009800D01*
X0040534323Y0031028287D01*
X0040534966Y0031030181D01*
X0040536927Y0031030570D01*
X0040537522Y0031030248D01*
G37*
G36*
X0041787522Y0031030248D02*
G01*
X0041831118Y0030995880D01*
X0041891572Y0030993506D01*
X0041941977Y0031027186D01*
X0041943973Y0031027316D01*
X0041945084Y0031025654D01*
X0041945050Y0031025132D01*
X0041942000Y0031009800D01*
X0041942000Y0029510199D01*
X0041945676Y0029491713D01*
X0041945033Y0029489818D01*
X0041943072Y0029489429D01*
X0041942477Y0029489751D01*
X0041898881Y0029524119D01*
X0041838426Y0029526493D01*
X0041788023Y0029492813D01*
X0041786026Y0029492683D01*
X0041784916Y0029494345D01*
X0041784950Y0029494867D01*
X0041788000Y0029510199D01*
X0041788000Y0031009800D01*
X0041784323Y0031028287D01*
X0041784966Y0031030181D01*
X0041786927Y0031030570D01*
X0041787522Y0031030248D01*
G37*
M02*