%TF.GenerationSoftware,KiCad,Pcbnew,(6.0.9)*%
%TF.CreationDate,2023-01-11T20:23:52+07:00*%
%TF.ProjectId,ESP12CORE_B_MULTI,45535031-3243-44f5-9245-5f425f4d554c,rev?*%
%TF.SameCoordinates,Original*%
%TF.FileFunction,Paste,Bot*%
%TF.FilePolarity,Positive*%
%FSLAX46Y46*%
G04 Gerber Fmt 4.6, Leading zero omitted, Abs format (unit mm)*
G04 Created by KiCad (PCBNEW (6.0.9)) date 2023-01-11 20:23:52*
%MOMM*%
%LPD*%
G01*
G04 APERTURE LIST*
G04 Aperture macros list*
%AMRoundRect*
4,1,4,2,3,4,5,6,7,8,9,2,3,0*
1,1,$1,$2,$3*
1,1,$1,$2,$3*
1,1,$1,$2,$3*
1,1,$1,$2,$3*
20,1,$1,$2,$3,$4,$5,0*
20,1,$1,$2,$3,$4,$5,0*
20,1,$1,$2,$3,$4,$5,0*
20,1,$1,$2,$3,$4,$5,0*%
G04 Aperture macros list end*
%AMCOMP43*
4,1,3,
0.5875,0.15,
-0.5875,0.15,
-0.5875,-0.15,
0.5875,-0.15,
0*
4,1,19,
0.5875,0.3,
0.63385254915624212,0.292658477444273,
0.675667787843871,0.27135254915624207,
0.70885254915624207,0.23816778784387097,
0.73015847744427309,0.19635254915624212,
0.7375,0.15,
0.73015847744427309,0.1036474508437579,
0.70885254915624207,0.061832212156129038,
0.675667787843871,0.0286474508437579,
0.63385254915624212,0.0073415225557269814,
0.5875,0,
0.54114745084375782,0.0073415225557269814,
0.49933221215612905,0.02864745084375786,
0.46614745084375792,0.06183221215612901,
0.444841522555727,0.10364745084375787,
0.4375,0.14999999999999997,
0.44484152255572695,0.19635254915624206,
0.46614745084375786,0.23816778784387094,
0.499332212156129,0.27135254915624207,
0.54114745084375793,0.292658477444273,
0*
4,1,19,
-0.5875,0.3,
-0.54114745084375793,0.292658477444273,
-0.49933221215612905,0.27135254915624207,
-0.46614745084375792,0.23816778784387097,
-0.444841522555727,0.19635254915624212,
-0.4375,0.15,
-0.44484152255572695,0.1036474508437579,
-0.46614745084375792,0.061832212156129038,
-0.49933221215612905,0.0286474508437579,
-0.54114745084375793,0.0073415225557269814,
-0.5875,0,
-0.63385254915624223,0.0073415225557269814,
-0.67566778784387094,0.02864745084375786,
-0.70885254915624207,0.06183221215612901,
-0.73015847744427309,0.10364745084375787,
-0.7375,0.14999999999999997,
-0.73015847744427309,0.19635254915624206,
-0.70885254915624218,0.23816778784387094,
-0.675667787843871,0.27135254915624207,
-0.63385254915624212,0.292658477444273,
0*
4,1,19,
-0.5875,0,
-0.54114745084375793,-0.0073415225557269814,
-0.49933221215612905,-0.028647450843757888,
-0.46614745084375792,-0.061832212156129024,
-0.444841522555727,-0.10364745084375787,
-0.4375,-0.15,
-0.44484152255572695,-0.19635254915624209,
-0.46614745084375792,-0.23816778784387094,
-0.49933221215612905,-0.27135254915624207,
-0.54114745084375793,-0.292658477444273,
-0.5875,-0.3,
-0.63385254915624223,-0.292658477444273,
-0.67566778784387094,-0.27135254915624213,
-0.70885254915624207,-0.238167787843871,
-0.73015847744427309,-0.19635254915624212,
-0.7375,-0.15000000000000002,
-0.73015847744427309,-0.10364745084375791,
-0.70885254915624218,-0.061832212156129066,
-0.675667787843871,-0.0286474508437579,
-0.63385254915624212,-0.0073415225557269814,
0*
4,1,19,
0.5875,0,
0.63385254915624212,-0.0073415225557269814,
0.675667787843871,-0.028647450843757888,
0.70885254915624207,-0.061832212156129024,
0.73015847744427309,-0.10364745084375787,
0.7375,-0.15,
0.73015847744427309,-0.19635254915624209,
0.70885254915624207,-0.23816778784387094,
0.675667787843871,-0.27135254915624207,
0.63385254915624212,-0.292658477444273,
0.5875,-0.3,
0.54114745084375782,-0.292658477444273,
0.49933221215612905,-0.27135254915624213,
0.46614745084375792,-0.238167787843871,
0.444841522555727,-0.19635254915624212,
0.4375,-0.15000000000000002,
0.44484152255572695,-0.10364745084375791,
0.46614745084375786,-0.061832212156129066,
0.499332212156129,-0.0286474508437579,
0.54114745084375793,-0.0073415225557269814,
0*
4,1,3,
0.5875,0.3,
0.5875,0,
-0.5875,0,
-0.5875,0.3,
0*
4,1,3,
-0.7375,0.15,
-0.4375,0.15,
-0.4375,-0.15,
-0.7375,-0.15,
0*
4,1,3,
-0.5875,-0.3,
-0.5875,0,
0.5875,0,
0.5875,-0.3,
0*
4,1,3,
0.7375,-0.15,
0.4375,-0.15,
0.4375,0.15,
0.7375,0.15,
0*%
%ADD10COMP43,0.15X0.5875X0.15X-0.5875X0.15X-0.5875X-0.15X0.5875X-0.15X0*%
%AMCOMP44*
4,1,3,
0.475,-0.25,
0.475,0.25,
-0.475,0.25,
-0.475,-0.25,
0*
4,1,19,
0.475,0,
0.55225424859373684,-0.012235870926211617,
0.62194631307311821,-0.047745751406263137,
0.67725424859373684,-0.10305368692688172,
0.71276412907378839,-0.17274575140626314,
0.725,-0.24999999999999997,
0.71276412907378839,-0.32725424859373686,
0.67725424859373684,-0.39694631307311823,
0.62194631307311832,-0.45225424859373686,
0.55225424859373684,-0.48776412907378841,
0.47500000000000003,-0.5,
0.39774575140626306,-0.48776412907378841,
0.32805368692688175,-0.45225424859373686,
0.27274575140626311,-0.39694631307311834,
0.2372358709262116,-0.32725424859373686,
0.22499999999999998,-0.25000000000000006,
0.23723587092621157,-0.17274575140626319,
0.27274575140626311,-0.10305368692688177,
0.32805368692688164,-0.047745751406263165,
0.39774575140626306,-0.012235870926211617,
0*
4,1,19,
0.475,0.5,
0.55225424859373684,0.48776412907378841,
0.62194631307311821,0.45225424859373686,
0.67725424859373684,0.39694631307311828,
0.71276412907378839,0.32725424859373686,
0.725,0.25,
0.71276412907378839,0.17274575140626316,
0.67725424859373684,0.10305368692688174,
0.62194631307311832,0.047745751406263165,
0.55225424859373684,0.012235870926211617,
0.47500000000000003,0,
0.39774575140626306,0.012235870926211617,
0.32805368692688175,0.047745751406263109,
0.27274575140626311,0.10305368692688169,
0.2372358709262116,0.17274575140626311,
0.22499999999999998,0.24999999999999994,
0.23723587092621157,0.32725424859373681,
0.27274575140626311,0.39694631307311823,
0.32805368692688164,0.45225424859373686,
0.39774575140626306,0.48776412907378841,
0*
4,1,19,
-0.475,0.5,
-0.39774575140626311,0.48776412907378841,
-0.32805368692688169,0.45225424859373686,
-0.27274575140626311,0.39694631307311828,
-0.2372358709262116,0.32725424859373686,
-0.22499999999999998,0.25,
-0.23723587092621157,0.17274575140626316,
-0.27274575140626311,0.10305368692688174,
-0.32805368692688164,0.047745751406263165,
-0.39774575140626311,0.012235870926211617,
-0.47499999999999992,0,
-0.552254248593737,0.012235870926211617,
-0.62194631307311821,0.047745751406263109,
-0.67725424859373684,0.10305368692688169,
-0.71276412907378839,0.17274575140626311,
-0.725,0.24999999999999994,
-0.71276412907378839,0.32725424859373681,
-0.67725424859373684,0.39694631307311823,
-0.62194631307311832,0.45225424859373686,
-0.55225424859373684,0.48776412907378841,
0*
4,1,19,
-0.475,0,
-0.39774575140626311,-0.012235870926211617,
-0.32805368692688169,-0.047745751406263137,
-0.27274575140626311,-0.10305368692688172,
-0.2372358709262116,-0.17274575140626314,
-0.22499999999999998,-0.24999999999999997,
-0.23723587092621157,-0.32725424859373686,
-0.27274575140626311,-0.39694631307311823,
-0.32805368692688164,-0.45225424859373686,
-0.39774575140626311,-0.48776412907378841,
-0.47499999999999992,-0.5,
-0.552254248593737,-0.48776412907378841,
-0.62194631307311821,-0.45225424859373686,
-0.67725424859373684,-0.39694631307311834,
-0.71276412907378839,-0.32725424859373686,
-0.725,-0.25000000000000006,
-0.71276412907378839,-0.17274575140626319,
-0.67725424859373684,-0.10305368692688177,
-0.62194631307311832,-0.047745751406263165,
-0.55225424859373684,-0.012235870926211617,
0*
4,1,3,
0.725,-0.25,
0.22499999999999998,-0.24999999999999997,
0.22499999999999998,0.25,
0.725,0.24999999999999997,
0*
4,1,3,
0.475,0.5,
0.475,0,
-0.475,0,
-0.475,0.5,
0*
4,1,3,
-0.725,0.25,
-0.22499999999999998,0.24999999999999997,
-0.22499999999999998,-0.25,
-0.725,-0.24999999999999997,
0*
4,1,3,
-0.475,-0.5,
-0.475,0,
0.475,0,
0.475,-0.5,
0*%
%ADD11COMP44,0.25X0.475X-0.25X0.475X0.25X-0.475X0.25X-0.475X-0.25X0*%
%AMCOMP45*
4,1,3,
-0.2625,-0.45,
0.2625,-0.45,
0.2625,0.45,
-0.2625,0.45,
0*
4,1,19,
-0.2625,-0.2,
-0.18524575140626315,-0.21223587092621163,
-0.11555368692688173,-0.24774575140626315,
-0.060245751406263148,-0.30305368692688173,
-0.024735870926211628,-0.37274575140626315,
-0.012500000000000011,-0.45,
-0.0247358709262116,-0.52725424859373682,
-0.060245751406263148,-0.5969463130731183,
-0.1155536869268817,-0.65225424859373682,
-0.18524575140626315,-0.68776412907378837,
-0.26249999999999996,-0.7,
-0.33975424859373693,-0.68776412907378837,
-0.4094463130731183,-0.65225424859373693,
-0.46475424859373682,-0.5969463130731183,
-0.50026412907378837,-0.52725424859373693,
-0.5125,-0.45000000000000007,
-0.50026412907378837,-0.3727457514062632,
-0.46475424859373693,-0.30305368692688178,
-0.40944631307311835,-0.24774575140626318,
-0.33975424859373693,-0.21223587092621163,
0*
4,1,19,
0.2625,-0.2,
0.33975424859373687,-0.21223587092621163,
0.4094463130731183,-0.24774575140626315,
0.46475424859373687,-0.30305368692688173,
0.50026412907378837,-0.37274575140626315,
0.5125,-0.45,
0.50026412907378837,-0.52725424859373682,
0.46475424859373687,-0.5969463130731183,
0.4094463130731183,-0.65225424859373682,
0.33975424859373687,-0.68776412907378837,
0.26250000000000007,-0.7,
0.18524575140626309,-0.68776412907378837,
0.11555368692688175,-0.65225424859373693,
0.060245751406263176,-0.5969463130731183,
0.024735870926211628,-0.52725424859373693,
0.012500000000000011,-0.45000000000000007,
0.0247358709262116,-0.3727457514062632,
0.060245751406263121,-0.30305368692688178,
0.11555368692688167,-0.24774575140626318,
0.18524575140626309,-0.21223587092621163,
0*
4,1,19,
0.2625,0.7,
0.33975424859373687,0.68776412907378837,
0.4094463130731183,0.65225424859373682,
0.46475424859373687,0.5969463130731183,
0.50026412907378837,0.52725424859373682,
0.5125,0.45,
0.50026412907378837,0.3727457514062632,
0.46475424859373687,0.30305368692688173,
0.4094463130731183,0.24774575140626318,
0.33975424859373687,0.21223587092621163,
0.26250000000000007,0.2,
0.18524575140626309,0.21223587092621163,
0.11555368692688175,0.24774575140626312,
0.060245751406263176,0.30305368692688173,
0.024735870926211628,0.37274575140626309,
0.012500000000000011,0.44999999999999996,
0.0247358709262116,0.52725424859373682,
0.060245751406263121,0.5969463130731183,
0.11555368692688167,0.65225424859373682,
0.18524575140626309,0.68776412907378837,
0*
4,1,19,
-0.2625,0.7,
-0.18524575140626315,0.68776412907378837,
-0.11555368692688173,0.65225424859373682,
-0.060245751406263148,0.5969463130731183,
-0.024735870926211628,0.52725424859373682,
-0.012500000000000011,0.45,
-0.0247358709262116,0.3727457514062632,
-0.060245751406263148,0.30305368692688173,
-0.1155536869268817,0.24774575140626318,
-0.18524575140626315,0.21223587092621163,
-0.26249999999999996,0.2,
-0.33975424859373693,0.21223587092621163,
-0.4094463130731183,0.24774575140626312,
-0.46475424859373682,0.30305368692688173,
-0.50026412907378837,0.37274575140626309,
-0.5125,0.44999999999999996,
-0.50026412907378837,0.52725424859373682,
-0.46475424859373693,0.5969463130731183,
-0.40944631307311835,0.65225424859373682,
-0.33975424859373693,0.68776412907378837,
0*
4,1,3,
-0.2625,-0.7,
-0.2625,-0.2,
0.2625,-0.2,
0.2625,-0.7,
0*
4,1,3,
0.5125,-0.45,
0.012500000000000011,-0.45,
0.012500000000000011,0.45,
0.5125,0.45,
0*
4,1,3,
0.2625,0.7,
0.2625,0.2,
-0.2625,0.2,
-0.2625,0.7,
0*
4,1,3,
-0.5125,0.45,
-0.012500000000000011,0.45,
-0.012500000000000011,-0.45,
-0.5125,-0.45,
0*%
%ADD12COMP45,0.25X-0.2625X-0.45X0.2625X-0.45X0.2625X0.45X-0.2625X0.45X0*%
%AMCOMP46*
4,1,3,
-0.45,0.2625,
-0.45,-0.2625,
0.45,-0.2625,
0.45,0.2625,
0*
4,1,19,
-0.45,0.5125,
-0.37274575140626315,0.50026412907378837,
-0.30305368692688173,0.46475424859373687,
-0.24774575140626315,0.4094463130731183,
-0.21223587092621163,0.33975424859373687,
-0.2,0.2625,
-0.2122358709262116,0.18524575140626318,
-0.24774575140626315,0.11555368692688175,
-0.30305368692688173,0.060245751406263176,
-0.37274575140626315,0.024735870926211628,
-0.44999999999999996,0.012500000000000011,
-0.52725424859373693,0.024735870926211628,
-0.5969463130731183,0.060245751406263121,
-0.65225424859373682,0.1155536869268817,
-0.68776412907378837,0.18524575140626312,
-0.7,0.26249999999999996,
-0.68776412907378837,0.33975424859373682,
-0.65225424859373693,0.40944631307311824,
-0.5969463130731183,0.46475424859373682,
-0.52725424859373693,0.50026412907378837,
0*
4,1,19,
-0.45,-0.012500000000000011,
-0.37274575140626315,-0.024735870926211628,
-0.30305368692688173,-0.060245751406263148,
-0.24774575140626315,-0.11555368692688173,
-0.21223587092621163,-0.18524575140626315,
-0.2,-0.2625,
-0.2122358709262116,-0.33975424859373682,
-0.24774575140626315,-0.4094463130731183,
-0.30305368692688173,-0.46475424859373682,
-0.37274575140626315,-0.50026412907378837,
-0.44999999999999996,-0.5125,
-0.52725424859373693,-0.50026412907378837,
-0.5969463130731183,-0.46475424859373693,
-0.65225424859373682,-0.4094463130731183,
-0.68776412907378837,-0.33975424859373693,
-0.7,-0.26250000000000007,
-0.68776412907378837,-0.1852457514062632,
-0.65225424859373693,-0.11555368692688178,
-0.5969463130731183,-0.060245751406263176,
-0.52725424859373693,-0.024735870926211628,
0*
4,1,19,
0.45,-0.012500000000000011,
0.52725424859373682,-0.024735870926211628,
0.5969463130731183,-0.060245751406263148,
0.65225424859373682,-0.11555368692688173,
0.68776412907378837,-0.18524575140626315,
0.7,-0.2625,
0.68776412907378837,-0.33975424859373682,
0.65225424859373682,-0.4094463130731183,
0.5969463130731183,-0.46475424859373682,
0.52725424859373693,-0.50026412907378837,
0.45000000000000007,-0.5125,
0.37274575140626309,-0.50026412907378837,
0.30305368692688173,-0.46475424859373693,
0.24774575140626318,-0.4094463130731183,
0.21223587092621163,-0.33975424859373693,
0.2,-0.26250000000000007,
0.2122358709262116,-0.1852457514062632,
0.24774575140626312,-0.11555368692688178,
0.30305368692688167,-0.060245751406263176,
0.37274575140626309,-0.024735870926211628,
0*
4,1,19,
0.45,0.5125,
0.52725424859373682,0.50026412907378837,
0.5969463130731183,0.46475424859373687,
0.65225424859373682,0.4094463130731183,
0.68776412907378837,0.33975424859373687,
0.7,0.2625,
0.68776412907378837,0.18524575140626318,
0.65225424859373682,0.11555368692688175,
0.5969463130731183,0.060245751406263176,
0.52725424859373693,0.024735870926211628,
0.45000000000000007,0.012500000000000011,
0.37274575140626309,0.024735870926211628,
0.30305368692688173,0.060245751406263121,
0.24774575140626318,0.1155536869268817,
0.21223587092621163,0.18524575140626312,
0.2,0.26249999999999996,
0.2122358709262116,0.33975424859373682,
0.24774575140626312,0.40944631307311824,
0.30305368692688167,0.46475424859373682,
0.37274575140626309,0.50026412907378837,
0*
4,1,3,
-0.7,0.2625,
-0.2,0.2625,
-0.2,-0.2625,
-0.7,-0.2625,
0*
4,1,3,
-0.45,-0.5125,
-0.45,-0.012500000000000011,
0.45,-0.012500000000000011,
0.45,-0.5125,
0*
4,1,3,
0.7,-0.2625,
0.2,-0.2625,
0.2,0.2625,
0.7,0.2625,
0*
4,1,3,
0.45,0.5125,
0.45,0.012500000000000011,
-0.45,0.012500000000000011,
-0.45,0.5125,
0*%
%ADD13COMP46,0.25X-0.45X0.2625X-0.45X-0.2625X0.45X-0.2625X0.45X0.2625X0*%
%AMCOMP47*
4,1,3,
0.45,-0.2625,
0.45,0.2625,
-0.45,0.2625,
-0.45,-0.2625,
0*
4,1,19,
0.45,-0.012500000000000011,
0.52725424859373682,-0.024735870926211628,
0.5969463130731183,-0.060245751406263148,
0.65225424859373682,-0.11555368692688173,
0.68776412907378837,-0.18524575140626315,
0.7,-0.2625,
0.68776412907378837,-0.33975424859373682,
0.65225424859373682,-0.4094463130731183,
0.5969463130731183,-0.46475424859373682,
0.52725424859373693,-0.50026412907378837,
0.45000000000000007,-0.5125,
0.37274575140626309,-0.50026412907378837,
0.30305368692688173,-0.46475424859373693,
0.24774575140626318,-0.4094463130731183,
0.21223587092621163,-0.33975424859373693,
0.2,-0.26250000000000007,
0.2122358709262116,-0.1852457514062632,
0.24774575140626312,-0.11555368692688178,
0.30305368692688167,-0.060245751406263176,
0.37274575140626309,-0.024735870926211628,
0*
4,1,19,
0.45,0.5125,
0.52725424859373682,0.50026412907378837,
0.5969463130731183,0.46475424859373687,
0.65225424859373682,0.4094463130731183,
0.68776412907378837,0.33975424859373687,
0.7,0.2625,
0.68776412907378837,0.18524575140626318,
0.65225424859373682,0.11555368692688175,
0.5969463130731183,0.060245751406263176,
0.52725424859373693,0.024735870926211628,
0.45000000000000007,0.012500000000000011,
0.37274575140626309,0.024735870926211628,
0.30305368692688173,0.060245751406263121,
0.24774575140626318,0.1155536869268817,
0.21223587092621163,0.18524575140626312,
0.2,0.26249999999999996,
0.2122358709262116,0.33975424859373682,
0.24774575140626312,0.40944631307311824,
0.30305368692688167,0.46475424859373682,
0.37274575140626309,0.50026412907378837,
0*
4,1,19,
-0.45,0.5125,
-0.37274575140626315,0.50026412907378837,
-0.30305368692688173,0.46475424859373687,
-0.24774575140626315,0.4094463130731183,
-0.21223587092621163,0.33975424859373687,
-0.2,0.2625,
-0.2122358709262116,0.18524575140626318,
-0.24774575140626315,0.11555368692688175,
-0.30305368692688173,0.060245751406263176,
-0.37274575140626315,0.024735870926211628,
-0.44999999999999996,0.012500000000000011,
-0.52725424859373693,0.024735870926211628,
-0.5969463130731183,0.060245751406263121,
-0.65225424859373682,0.1155536869268817,
-0.68776412907378837,0.18524575140626312,
-0.7,0.26249999999999996,
-0.68776412907378837,0.33975424859373682,
-0.65225424859373693,0.40944631307311824,
-0.5969463130731183,0.46475424859373682,
-0.52725424859373693,0.50026412907378837,
0*
4,1,19,
-0.45,-0.012500000000000011,
-0.37274575140626315,-0.024735870926211628,
-0.30305368692688173,-0.060245751406263148,
-0.24774575140626315,-0.11555368692688173,
-0.21223587092621163,-0.18524575140626315,
-0.2,-0.2625,
-0.2122358709262116,-0.33975424859373682,
-0.24774575140626315,-0.4094463130731183,
-0.30305368692688173,-0.46475424859373682,
-0.37274575140626315,-0.50026412907378837,
-0.44999999999999996,-0.5125,
-0.52725424859373693,-0.50026412907378837,
-0.5969463130731183,-0.46475424859373693,
-0.65225424859373682,-0.4094463130731183,
-0.68776412907378837,-0.33975424859373693,
-0.7,-0.26250000000000007,
-0.68776412907378837,-0.1852457514062632,
-0.65225424859373693,-0.11555368692688178,
-0.5969463130731183,-0.060245751406263176,
-0.52725424859373693,-0.024735870926211628,
0*
4,1,3,
0.7,-0.2625,
0.2,-0.2625,
0.2,0.2625,
0.7,0.2625,
0*
4,1,3,
0.45,0.5125,
0.45,0.012500000000000011,
-0.45,0.012500000000000011,
-0.45,0.5125,
0*
4,1,3,
-0.7,0.2625,
-0.2,0.2625,
-0.2,-0.2625,
-0.7,-0.2625,
0*
4,1,3,
-0.45,-0.5125,
-0.45,-0.012500000000000011,
0.45,-0.012500000000000011,
0.45,-0.5125,
0*%
%ADD14COMP47,0.25X0.45X-0.2625X0.45X0.2625X-0.45X0.2625X-0.45X-0.2625X0*%
%AMCOMP48*
4,1,3,
-0.15,0.5875,
-0.15,-0.5875,
0.15,-0.5875,
0.15,0.5875,
0*
4,1,19,
-0.15,0.7375,
-0.10364745084375789,0.73015847744427309,
-0.061832212156129024,0.70885254915624207,
-0.028647450843757888,0.675667787843871,
-0.0073415225557269814,0.63385254915624212,
0,0.5875,
-0.0073415225557269537,0.54114745084375793,
-0.028647450843757888,0.49933221215612905,
-0.06183221215612901,0.46614745084375792,
-0.10364745084375787,0.444841522555727,
-0.14999999999999997,0.4375,
-0.19635254915624215,0.444841522555727,
-0.23816778784387094,0.46614745084375786,
-0.27135254915624207,0.49933221215612905,
-0.292658477444273,0.54114745084375793,
-0.3,0.5875,
-0.29265847744427304,0.63385254915624212,
-0.27135254915624213,0.67566778784387094,
-0.238167787843871,0.70885254915624207,
-0.19635254915624215,0.73015847744427309,
0*
4,1,19,
-0.15,-0.4375,
-0.10364745084375789,-0.444841522555727,
-0.061832212156129024,-0.46614745084375792,
-0.028647450843757888,-0.49933221215612905,
-0.0073415225557269814,-0.54114745084375793,
0,-0.5875,
-0.0073415225557269537,-0.63385254915624212,
-0.028647450843757888,-0.67566778784387094,
-0.06183221215612901,-0.70885254915624207,
-0.10364745084375787,-0.73015847744427309,
-0.14999999999999997,-0.7375,
-0.19635254915624215,-0.73015847744427309,
-0.23816778784387094,-0.70885254915624218,
-0.27135254915624207,-0.675667787843871,
-0.292658477444273,-0.63385254915624212,
-0.3,-0.5875,
-0.29265847744427304,-0.54114745084375793,
-0.27135254915624213,-0.49933221215612911,
-0.238167787843871,-0.46614745084375792,
-0.19635254915624215,-0.444841522555727,
0*
4,1,19,
0.15,-0.4375,
0.19635254915624212,-0.444841522555727,
0.23816778784387097,-0.46614745084375792,
0.27135254915624207,-0.49933221215612905,
0.292658477444273,-0.54114745084375793,
0.3,-0.5875,
0.29265847744427304,-0.63385254915624212,
0.27135254915624207,-0.67566778784387094,
0.238167787843871,-0.70885254915624207,
0.19635254915624212,-0.73015847744427309,
0.15000000000000002,-0.7375,
0.10364745084375784,-0.73015847744427309,
0.061832212156129038,-0.70885254915624218,
0.0286474508437579,-0.675667787843871,
0.0073415225557269814,-0.63385254915624212,
0,-0.5875,
0.0073415225557269537,-0.54114745084375793,
0.02864745084375786,-0.49933221215612911,
0.061832212156128996,-0.46614745084375792,
0.10364745084375784,-0.444841522555727,
0*
4,1,19,
0.15,0.7375,
0.19635254915624212,0.73015847744427309,
0.23816778784387097,0.70885254915624207,
0.27135254915624207,0.675667787843871,
0.292658477444273,0.63385254915624212,
0.3,0.5875,
0.29265847744427304,0.54114745084375793,
0.27135254915624207,0.49933221215612905,
0.238167787843871,0.46614745084375792,
0.19635254915624212,0.444841522555727,
0.15000000000000002,0.4375,
0.10364745084375784,0.444841522555727,
0.061832212156129038,0.46614745084375786,
0.0286474508437579,0.49933221215612905,
0.0073415225557269814,0.54114745084375793,
0,0.5875,
0.0073415225557269537,0.63385254915624212,
0.02864745084375786,0.67566778784387094,
0.061832212156128996,0.70885254915624207,
0.10364745084375784,0.73015847744427309,
0*
4,1,3,
-0.3,0.5875,
0,0.5875,
0,-0.5875,
-0.3,-0.5875,
0*
4,1,3,
-0.15,-0.7375,
-0.15,-0.4375,
0.15,-0.4375,
0.15,-0.7375,
0*
4,1,3,
0.3,-0.5875,
0,-0.5875,
0,0.5875,
0.3,0.5875,
0*
4,1,3,
0.15,0.7375,
0.15,0.4375,
-0.15,0.4375,
-0.15,0.7375,
0*%
%ADD15COMP48,0.15X-0.15X0.5875X-0.15X-0.5875X0.15X-0.5875X0.15X0.5875X0*%
%AMCOMP49*
4,1,3,
-0.25,-0.475,
0.25,-0.475,
0.25,0.475,
-0.25,0.475,
0*
4,1,19,
-0.25,-0.22499999999999998,
-0.17274575140626314,-0.2372358709262116,
-0.10305368692688172,-0.27274575140626311,
-0.047745751406263137,-0.32805368692688169,
-0.012235870926211617,-0.39774575140626311,
0,-0.475,
-0.012235870926211589,-0.55225424859373684,
-0.047745751406263137,-0.62194631307311821,
-0.10305368692688169,-0.67725424859373684,
-0.17274575140626314,-0.71276412907378839,
-0.24999999999999997,-0.725,
-0.32725424859373692,-0.71276412907378839,
-0.39694631307311823,-0.67725424859373684,
-0.45225424859373686,-0.62194631307311832,
-0.48776412907378841,-0.55225424859373684,
-0.5,-0.47500000000000003,
-0.48776412907378841,-0.39774575140626317,
-0.45225424859373686,-0.32805368692688175,
-0.39694631307311834,-0.27274575140626311,
-0.32725424859373692,-0.2372358709262116,
0*
4,1,19,
0.25,-0.22499999999999998,
0.32725424859373686,-0.2372358709262116,
0.39694631307311828,-0.27274575140626311,
0.45225424859373686,-0.32805368692688169,
0.48776412907378841,-0.39774575140626311,
0.5,-0.475,
0.48776412907378841,-0.55225424859373684,
0.45225424859373686,-0.62194631307311821,
0.39694631307311834,-0.67725424859373684,
0.32725424859373686,-0.71276412907378839,
0.25000000000000006,-0.725,
0.17274575140626308,-0.71276412907378839,
0.10305368692688174,-0.67725424859373684,
0.047745751406263165,-0.62194631307311832,
0.012235870926211617,-0.55225424859373684,
0,-0.47500000000000003,
0.012235870926211589,-0.39774575140626317,
0.047745751406263109,-0.32805368692688175,
0.10305368692688166,-0.27274575140626311,
0.17274575140626308,-0.2372358709262116,
0*
4,1,19,
0.25,0.725,
0.32725424859373686,0.71276412907378839,
0.39694631307311828,0.67725424859373684,
0.45225424859373686,0.62194631307311821,
0.48776412907378841,0.55225424859373684,
0.5,0.475,
0.48776412907378841,0.39774575140626311,
0.45225424859373686,0.32805368692688175,
0.39694631307311834,0.27274575140626311,
0.32725424859373686,0.2372358709262116,
0.25000000000000006,0.22499999999999998,
0.17274575140626308,0.2372358709262116,
0.10305368692688174,0.27274575140626311,
0.047745751406263165,0.32805368692688164,
0.012235870926211617,0.39774575140626311,
0,0.47499999999999992,
0.012235870926211589,0.55225424859373673,
0.047745751406263109,0.62194631307311821,
0.10305368692688166,0.67725424859373684,
0.17274575140626308,0.71276412907378839,
0*
4,1,19,
-0.25,0.725,
-0.17274575140626314,0.71276412907378839,
-0.10305368692688172,0.67725424859373684,
-0.047745751406263137,0.62194631307311821,
-0.012235870926211617,0.55225424859373684,
0,0.475,
-0.012235870926211589,0.39774575140626311,
-0.047745751406263137,0.32805368692688175,
-0.10305368692688169,0.27274575140626311,
-0.17274575140626314,0.2372358709262116,
-0.24999999999999997,0.22499999999999998,
-0.32725424859373692,0.2372358709262116,
-0.39694631307311823,0.27274575140626311,
-0.45225424859373686,0.32805368692688164,
-0.48776412907378841,0.39774575140626311,
-0.5,0.47499999999999992,
-0.48776412907378841,0.55225424859373673,
-0.45225424859373686,0.62194631307311821,
-0.39694631307311834,0.67725424859373684,
-0.32725424859373692,0.71276412907378839,
0*
4,1,3,
-0.25,-0.725,
-0.24999999999999997,-0.22499999999999998,
0.25,-0.22499999999999998,
0.24999999999999997,-0.725,
0*
4,1,3,
0.5,-0.475,
0,-0.475,
0,0.475,
0.5,0.475,
0*
4,1,3,
0.25,0.725,
0.24999999999999997,0.22499999999999998,
-0.25,0.22499999999999998,
-0.24999999999999997,0.725,
0*
4,1,3,
-0.5,0.475,
0,0.475,
0,-0.475,
-0.5,-0.475,
0*%
%ADD16COMP49,0.25X-0.25X-0.475X0.25X-0.475X0.25X0.475X-0.25X0.475X0*%
%AMCOMP50*
4,1,3,
-0.475,0.25,
-0.475,-0.25,
0.475,-0.25,
0.475,0.25,
0*
4,1,19,
-0.475,0.5,
-0.39774575140626311,0.48776412907378841,
-0.32805368692688169,0.45225424859373686,
-0.27274575140626311,0.39694631307311828,
-0.2372358709262116,0.32725424859373686,
-0.22499999999999998,0.25,
-0.23723587092621157,0.17274575140626316,
-0.27274575140626311,0.10305368692688174,
-0.32805368692688164,0.047745751406263165,
-0.39774575140626311,0.012235870926211617,
-0.47499999999999992,0,
-0.552254248593737,0.012235870926211617,
-0.62194631307311821,0.047745751406263109,
-0.67725424859373684,0.10305368692688169,
-0.71276412907378839,0.17274575140626311,
-0.725,0.24999999999999994,
-0.71276412907378839,0.32725424859373681,
-0.67725424859373684,0.39694631307311823,
-0.62194631307311832,0.45225424859373686,
-0.55225424859373684,0.48776412907378841,
0*
4,1,19,
-0.475,0,
-0.39774575140626311,-0.012235870926211617,
-0.32805368692688169,-0.047745751406263137,
-0.27274575140626311,-0.10305368692688172,
-0.2372358709262116,-0.17274575140626314,
-0.22499999999999998,-0.24999999999999997,
-0.23723587092621157,-0.32725424859373686,
-0.27274575140626311,-0.39694631307311823,
-0.32805368692688164,-0.45225424859373686,
-0.39774575140626311,-0.48776412907378841,
-0.47499999999999992,-0.5,
-0.552254248593737,-0.48776412907378841,
-0.62194631307311821,-0.45225424859373686,
-0.67725424859373684,-0.39694631307311834,
-0.71276412907378839,-0.32725424859373686,
-0.725,-0.25000000000000006,
-0.71276412907378839,-0.17274575140626319,
-0.67725424859373684,-0.10305368692688177,
-0.62194631307311832,-0.047745751406263165,
-0.55225424859373684,-0.012235870926211617,
0*
4,1,19,
0.475,0,
0.55225424859373684,-0.012235870926211617,
0.62194631307311821,-0.047745751406263137,
0.67725424859373684,-0.10305368692688172,
0.71276412907378839,-0.17274575140626314,
0.725,-0.24999999999999997,
0.71276412907378839,-0.32725424859373686,
0.67725424859373684,-0.39694631307311823,
0.62194631307311832,-0.45225424859373686,
0.55225424859373684,-0.48776412907378841,
0.47500000000000003,-0.5,
0.39774575140626306,-0.48776412907378841,
0.32805368692688175,-0.45225424859373686,
0.27274575140626311,-0.39694631307311834,
0.2372358709262116,-0.32725424859373686,
0.22499999999999998,-0.25000000000000006,
0.23723587092621157,-0.17274575140626319,
0.27274575140626311,-0.10305368692688177,
0.32805368692688164,-0.047745751406263165,
0.39774575140626306,-0.012235870926211617,
0*
4,1,19,
0.475,0.5,
0.55225424859373684,0.48776412907378841,
0.62194631307311821,0.45225424859373686,
0.67725424859373684,0.39694631307311828,
0.71276412907378839,0.32725424859373686,
0.725,0.25,
0.71276412907378839,0.17274575140626316,
0.67725424859373684,0.10305368692688174,
0.62194631307311832,0.047745751406263165,
0.55225424859373684,0.012235870926211617,
0.47500000000000003,0,
0.39774575140626306,0.012235870926211617,
0.32805368692688175,0.047745751406263109,
0.27274575140626311,0.10305368692688169,
0.2372358709262116,0.17274575140626311,
0.22499999999999998,0.24999999999999994,
0.23723587092621157,0.32725424859373681,
0.27274575140626311,0.39694631307311823,
0.32805368692688164,0.45225424859373686,
0.39774575140626306,0.48776412907378841,
0*
4,1,3,
-0.725,0.25,
-0.22499999999999998,0.24999999999999997,
-0.22499999999999998,-0.25,
-0.725,-0.24999999999999997,
0*
4,1,3,
-0.475,-0.5,
-0.475,0,
0.475,0,
0.475,-0.5,
0*
4,1,3,
0.725,-0.25,
0.22499999999999998,-0.24999999999999997,
0.22499999999999998,0.25,
0.725,0.24999999999999997,
0*
4,1,3,
0.475,0.5,
0.475,0,
-0.475,0,
-0.475,0.5,
0*%
%ADD17COMP50,0.25X-0.475X0.25X-0.475X-0.25X0.475X-0.25X0.475X0.25X0*%
%AMCOMP51*
4,1,3,
0.5125,0.15,
-0.5125,0.15,
-0.5125,-0.15,
0.5125,-0.15,
0*
4,1,19,
0.5125,0.3,
0.558852549156242,0.292658477444273,
0.60066778784387087,0.27135254915624207,
0.63385254915624212,0.23816778784387097,
0.65515847744427291,0.19635254915624212,
0.6625,0.15,
0.655158477444273,0.1036474508437579,
0.63385254915624212,0.061832212156129038,
0.600667787843871,0.0286474508437579,
0.558852549156242,0.0073415225557269814,
0.5125,0,
0.4661474508437578,0.0073415225557269814,
0.424332212156129,0.02864745084375786,
0.39114745084375785,0.06183221215612901,
0.36984152255572694,0.10364745084375787,
0.36249999999999993,0.14999999999999997,
0.36984152255572689,0.19635254915624206,
0.39114745084375779,0.23816778784387094,
0.42433221215612893,0.27135254915624207,
0.4661474508437578,0.292658477444273,
0*
4,1,19,
-0.5125,0.3,
-0.46614745084375786,0.292658477444273,
-0.424332212156129,0.27135254915624207,
-0.39114745084375785,0.23816778784387097,
-0.36984152255572694,0.19635254915624212,
-0.36249999999999993,0.15,
-0.36984152255572689,0.1036474508437579,
-0.39114745084375785,0.061832212156129038,
-0.424332212156129,0.0286474508437579,
-0.46614745084375786,0.0073415225557269814,
-0.5125,0,
-0.55885254915624216,0.0073415225557269814,
-0.60066778784387087,0.02864745084375786,
-0.633852549156242,0.06183221215612901,
-0.65515847744427291,0.10364745084375787,
-0.6625,0.14999999999999997,
-0.655158477444273,0.19635254915624206,
-0.63385254915624212,0.23816778784387094,
-0.600667787843871,0.27135254915624207,
-0.558852549156242,0.292658477444273,
0*
4,1,19,
-0.5125,0,
-0.46614745084375786,-0.0073415225557269814,
-0.424332212156129,-0.028647450843757888,
-0.39114745084375785,-0.061832212156129024,
-0.36984152255572694,-0.10364745084375787,
-0.36249999999999993,-0.15,
-0.36984152255572689,-0.19635254915624209,
-0.39114745084375785,-0.23816778784387094,
-0.424332212156129,-0.27135254915624207,
-0.46614745084375786,-0.292658477444273,
-0.5125,-0.3,
-0.55885254915624216,-0.292658477444273,
-0.60066778784387087,-0.27135254915624213,
-0.633852549156242,-0.238167787843871,
-0.65515847744427291,-0.19635254915624212,
-0.6625,-0.15000000000000002,
-0.655158477444273,-0.10364745084375791,
-0.63385254915624212,-0.061832212156129066,
-0.600667787843871,-0.0286474508437579,
-0.558852549156242,-0.0073415225557269814,
0*
4,1,19,
0.5125,0,
0.558852549156242,-0.0073415225557269814,
0.60066778784387087,-0.028647450843757888,
0.63385254915624212,-0.061832212156129024,
0.65515847744427291,-0.10364745084375787,
0.6625,-0.15,
0.655158477444273,-0.19635254915624209,
0.63385254915624212,-0.23816778784387094,
0.600667787843871,-0.27135254915624207,
0.558852549156242,-0.292658477444273,
0.5125,-0.3,
0.4661474508437578,-0.292658477444273,
0.424332212156129,-0.27135254915624213,
0.39114745084375785,-0.238167787843871,
0.36984152255572694,-0.19635254915624212,
0.36249999999999993,-0.15000000000000002,
0.36984152255572689,-0.10364745084375791,
0.39114745084375779,-0.061832212156129066,
0.42433221215612893,-0.0286474508437579,
0.4661474508437578,-0.0073415225557269814,
0*
4,1,3,
0.5125,0.3,
0.5125,0,
-0.5125,0,
-0.5125,0.3,
0*
4,1,3,
-0.6625,0.15,
-0.36249999999999993,0.15,
-0.36249999999999993,-0.15,
-0.6625,-0.15,
0*
4,1,3,
-0.5125,-0.3,
-0.5125,0,
0.5125,0,
0.5125,-0.3,
0*
4,1,3,
0.6625,-0.15,
0.36249999999999993,-0.15,
0.36249999999999993,0.15,
0.6625,0.15,
0*%
%ADD18COMP51,0.15X0.5125X0.15X-0.5125X0.15X-0.5125X-0.15X0.5125X-0.15X0*%
%AMCOMP52*
4,1,3,
0.2625,0.45,
-0.2625,0.45,
-0.2625,-0.45,
0.2625,-0.45,
0*
4,1,19,
0.2625,0.7,
0.33975424859373687,0.68776412907378837,
0.4094463130731183,0.65225424859373682,
0.46475424859373687,0.5969463130731183,
0.50026412907378837,0.52725424859373682,
0.5125,0.45,
0.50026412907378837,0.3727457514062632,
0.46475424859373687,0.30305368692688173,
0.4094463130731183,0.24774575140626318,
0.33975424859373687,0.21223587092621163,
0.26250000000000007,0.2,
0.18524575140626309,0.21223587092621163,
0.11555368692688175,0.24774575140626312,
0.060245751406263176,0.30305368692688173,
0.024735870926211628,0.37274575140626309,
0.012500000000000011,0.44999999999999996,
0.0247358709262116,0.52725424859373682,
0.060245751406263121,0.5969463130731183,
0.11555368692688167,0.65225424859373682,
0.18524575140626309,0.68776412907378837,
0*
4,1,19,
-0.2625,0.7,
-0.18524575140626315,0.68776412907378837,
-0.11555368692688173,0.65225424859373682,
-0.060245751406263148,0.5969463130731183,
-0.024735870926211628,0.52725424859373682,
-0.012500000000000011,0.45,
-0.0247358709262116,0.3727457514062632,
-0.060245751406263148,0.30305368692688173,
-0.1155536869268817,0.24774575140626318,
-0.18524575140626315,0.21223587092621163,
-0.26249999999999996,0.2,
-0.33975424859373693,0.21223587092621163,
-0.4094463130731183,0.24774575140626312,
-0.46475424859373682,0.30305368692688173,
-0.50026412907378837,0.37274575140626309,
-0.5125,0.44999999999999996,
-0.50026412907378837,0.52725424859373682,
-0.46475424859373693,0.5969463130731183,
-0.40944631307311835,0.65225424859373682,
-0.33975424859373693,0.68776412907378837,
0*
4,1,19,
-0.2625,-0.2,
-0.18524575140626315,-0.21223587092621163,
-0.11555368692688173,-0.24774575140626315,
-0.060245751406263148,-0.30305368692688173,
-0.024735870926211628,-0.37274575140626315,
-0.012500000000000011,-0.45,
-0.0247358709262116,-0.52725424859373682,
-0.060245751406263148,-0.5969463130731183,
-0.1155536869268817,-0.65225424859373682,
-0.18524575140626315,-0.68776412907378837,
-0.26249999999999996,-0.7,
-0.33975424859373693,-0.68776412907378837,
-0.4094463130731183,-0.65225424859373693,
-0.46475424859373682,-0.5969463130731183,
-0.50026412907378837,-0.52725424859373693,
-0.5125,-0.45000000000000007,
-0.50026412907378837,-0.3727457514062632,
-0.46475424859373693,-0.30305368692688178,
-0.40944631307311835,-0.24774575140626318,
-0.33975424859373693,-0.21223587092621163,
0*
4,1,19,
0.2625,-0.2,
0.33975424859373687,-0.21223587092621163,
0.4094463130731183,-0.24774575140626315,
0.46475424859373687,-0.30305368692688173,
0.50026412907378837,-0.37274575140626315,
0.5125,-0.45,
0.50026412907378837,-0.52725424859373682,
0.46475424859373687,-0.5969463130731183,
0.4094463130731183,-0.65225424859373682,
0.33975424859373687,-0.68776412907378837,
0.26250000000000007,-0.7,
0.18524575140626309,-0.68776412907378837,
0.11555368692688175,-0.65225424859373693,
0.060245751406263176,-0.5969463130731183,
0.024735870926211628,-0.52725424859373693,
0.012500000000000011,-0.45000000000000007,
0.0247358709262116,-0.3727457514062632,
0.060245751406263121,-0.30305368692688178,
0.11555368692688167,-0.24774575140626318,
0.18524575140626309,-0.21223587092621163,
0*
4,1,3,
0.2625,0.7,
0.2625,0.2,
-0.2625,0.2,
-0.2625,0.7,
0*
4,1,3,
-0.5125,0.45,
-0.012500000000000011,0.45,
-0.012500000000000011,-0.45,
-0.5125,-0.45,
0*
4,1,3,
-0.2625,-0.7,
-0.2625,-0.2,
0.2625,-0.2,
0.2625,-0.7,
0*
4,1,3,
0.5125,-0.45,
0.012500000000000011,-0.45,
0.012500000000000011,0.45,
0.5125,0.45,
0*%
%ADD19COMP52,0.25X0.2625X0.45X-0.2625X0.45X-0.2625X-0.45X0.2625X-0.45X0*%
%AMCOMP53*
4,1,3,
1.450001,-0.450001,
1.450001,0.450001,
-1.450001,0.450001,
-1.450001,-0.450001,
0*
4,1,19,
1.450001,-0.20000199999999999,
1.5272549395767425,-0.21223782198272789,
1.5969467252878662,-0.24774756042325749,
1.6522544395767427,-0.303055274712134,
1.6877641780172721,-0.3727470604232575,
1.7000000000000002,-0.450001,
1.6877641780172723,-0.52725493957674241,
1.6522544395767427,-0.596946725287866,
1.5969467252878662,-0.65225443957674245,
1.5272549395767425,-0.68776417801727208,
1.450001,-0.7,
1.3727470604232574,-0.68776417801727208,
1.3030552747121342,-0.65225443957674245,
1.2477475604232575,-0.596946725287866,
1.2122378219827281,-0.52725493957674252,
1.200002,-0.45000100000000004,
1.2122378219827279,-0.37274706042325756,
1.2477475604232575,-0.30305527471213406,
1.303055274712134,-0.24774756042325752,
1.3727470604232577,-0.21223782198272789,
0*
4,1,19,
1.450001,0.7,
1.5272549395767425,0.68776417801727208,
1.5969467252878662,0.65225443957674245,
1.6522544395767427,0.596946725287866,
1.6877641780172721,0.52725493957674252,
1.7000000000000002,0.450001,
1.6877641780172723,0.37274706042325756,
1.6522544395767427,0.303055274712134,
1.5969467252878662,0.24774756042325752,
1.5272549395767425,0.21223782198272789,
1.450001,0.20000199999999999,
1.3727470604232574,0.21223782198272789,
1.3030552747121342,0.24774756042325746,
1.2477475604232575,0.303055274712134,
1.2122378219827281,0.37274706042325745,
1.200002,0.45000099999999993,
1.2122378219827279,0.52725493957674241,
1.2477475604232575,0.596946725287866,
1.303055274712134,0.65225443957674245,
1.3727470604232577,0.68776417801727208,
0*
4,1,19,
-1.450001,0.7,
-1.3727470604232577,0.68776417801727208,
-1.303055274712134,0.65225443957674245,
-1.2477475604232575,0.596946725287866,
-1.2122378219827281,0.52725493957674252,
-1.200002,0.450001,
-1.2122378219827279,0.37274706042325756,
-1.2477475604232575,0.303055274712134,
-1.303055274712134,0.24774756042325752,
-1.3727470604232577,0.21223782198272789,
-1.450001,0.20000199999999999,
-1.5272549395767427,0.21223782198272789,
-1.596946725287866,0.24774756042325746,
-1.6522544395767427,0.303055274712134,
-1.6877641780172721,0.37274706042325745,
-1.7000000000000002,0.45000099999999993,
-1.6877641780172723,0.52725493957674241,
-1.6522544395767427,0.596946725287866,
-1.5969467252878662,0.65225443957674245,
-1.5272549395767425,0.68776417801727208,
0*
4,1,19,
-1.450001,-0.20000199999999999,
-1.3727470604232577,-0.21223782198272789,
-1.303055274712134,-0.24774756042325749,
-1.2477475604232575,-0.303055274712134,
-1.2122378219827281,-0.3727470604232575,
-1.200002,-0.450001,
-1.2122378219827279,-0.52725493957674241,
-1.2477475604232575,-0.596946725287866,
-1.303055274712134,-0.65225443957674245,
-1.3727470604232577,-0.68776417801727208,
-1.450001,-0.7,
-1.5272549395767427,-0.68776417801727208,
-1.596946725287866,-0.65225443957674245,
-1.6522544395767427,-0.596946725287866,
-1.6877641780172721,-0.52725493957674252,
-1.7000000000000002,-0.45000100000000004,
-1.6877641780172723,-0.37274706042325756,
-1.6522544395767427,-0.30305527471213406,
-1.5969467252878662,-0.24774756042325752,
-1.5272549395767425,-0.21223782198272789,
0*
4,1,3,
1.7000000000000002,-0.450001,
1.200002,-0.450001,
1.200002,0.450001,
1.7000000000000002,0.450001,
0*
4,1,3,
1.450001,0.7,
1.450001,0.20000199999999999,
-1.450001,0.20000199999999999,
-1.450001,0.7,
0*
4,1,3,
-1.7000000000000002,0.450001,
-1.200002,0.450001,
-1.200002,-0.450001,
-1.7000000000000002,-0.450001,
0*
4,1,3,
-1.450001,-0.7,
-1.450001,-0.20000199999999999,
1.450001,-0.20000199999999999,
1.450001,-0.7,
0*%
%ADD20COMP53,0.249999X1.450001X-0.450001X1.450001X0.450001X-1.450001X0.450001X-1.450001X-0.450001X0*%
G04 APERTURE END LIST*
D10*
%TO.C,Q6*%
X-0101000000Y0109000000D02*
X0012987499Y0027549999D03*
X0012987499Y0025650000D03*
X0011112499Y0026599999D03*
%TD*%
D11*
%TO.C,C11*%
X0025659999Y0017560000D03*
X0025659999Y0019459999D03*
%TD*%
D12*
%TO.C,R15*%
X0010577500Y0009469999D03*
X0012402500Y0009469999D03*
%TD*%
D13*
%TO.C,R11*%
X0041747999Y0027362499D03*
X0041747999Y0025537499D03*
%TD*%
D14*
%TO.C,R31*%
X0011924999Y0029412499D03*
X0011924999Y0031237499D03*
%TD*%
D15*
%TO.C,Q5*%
X0014019999Y0031317499D03*
X0015920000Y0031317499D03*
X0014969999Y0029442499D03*
%TD*%
D16*
%TO.C,C9*%
X0022049999Y0012280000D03*
X0023950000Y0012280000D03*
%TD*%
D12*
%TO.C,R16*%
X0012357500Y0011620000D03*
X0014182500Y0011620000D03*
%TD*%
%TO.C,R17*%
X0014037499Y0009420000D03*
X0015862499Y0009420000D03*
%TD*%
D13*
%TO.C,R18*%
X0046574000Y0027362499D03*
X0046574000Y0025537499D03*
%TD*%
D17*
%TO.C,C15*%
X0012344075Y0045665788D03*
X0012344075Y0043765788D03*
%TD*%
D13*
%TO.C,R19*%
X0044288000Y0027362499D03*
X0044288000Y0025537499D03*
%TD*%
D14*
%TO.C,R32*%
X0009950000Y0029437500D03*
X0009950000Y0031262500D03*
%TD*%
D18*
%TO.C,U7*%
X0024347499Y0015900000D03*
X0024347499Y0014950000D03*
X0024347499Y0014000000D03*
X0022072500Y0014000000D03*
X0022072500Y0015900000D03*
%TD*%
D12*
%TO.C,R30*%
X0014927499Y0046516000D03*
X0016752499Y0046516000D03*
%TD*%
D13*
%TO.C,R26*%
X0026670000Y0015892499D03*
X0026670000Y0014067499D03*
%TD*%
D19*
%TO.C,R29*%
X0016752499Y0044230000D03*
X0014927499Y0044230000D03*
%TD*%
D20*
%TO.C,C13*%
X0022060000Y0017670000D03*
X0022060000Y0021769999D03*
%TD*%
D19*
%TO.C,R10*%
X0015852500Y0033340000D03*
X0014027500Y0033340000D03*
%TD*%
D14*
%TO.C,R22*%
X0015099999Y0025712500D03*
X0015099999Y0027537499D03*
%TD*%
M02*