%TF.GenerationSoftware,KiCad,Pcbnew,(6.0.9)*%
%TF.CreationDate,2023-01-11T20:23:52+07:00*%
%TF.ProjectId,ESP12CORE_B_MULTI,45535031-3243-44f5-9245-5f425f4d554c,rev?*%
%TF.SameCoordinates,Original*%
%TF.FileFunction,Legend,Bot*%
%TF.FilePolarity,Positive*%
%FSLAX46Y46*%
G04 Gerber Fmt 4.6, Leading zero omitted, Abs format (unit mm)*
G04 Created by KiCad (PCBNEW (6.0.9)) date 2023-01-11 20:23:52*
%MOMM*%
%LPD*%
G01*
G04 APERTURE LIST*
%ADD10C,0.2*%
%ADD11C,0.152*%
%ADD12C,0.3*%
%ADD13C,0.15*%
%ADD14C,0.375*%
%ADD15C,0.12*%
G04 APERTURE END LIST*
D10*
X0030367415Y0045867093D02*
X0029415034Y0046367093D01*
X0030367415Y0046724236D02*
X0028367415Y0046724236D01*
X0028367415Y0046152807D01*
X0028462655Y0046009950D01*
X0028557893Y0045938521D01*
X0028748368Y0045867093D01*
X0029034083Y0045867093D01*
X0029224559Y0045938521D01*
X0029319796Y0046009950D01*
X0029415034Y0046152807D01*
X0029415034Y0046724236D01*
X0028367415Y0044795664D02*
X0029795987Y0044795664D01*
X0030081702Y0044867093D01*
X0030272177Y0045009950D01*
X0030367415Y0045224236D01*
X0030367415Y0045367093D01*
X0030367415Y0043367093D02*
X0030367415Y0044081378D01*
X0028367415Y0044081378D01*
X0030367415Y0042224236D02*
X0029319796Y0042224236D01*
X0029129321Y0042295664D01*
X0029034083Y0042438520D01*
X0029034083Y0042724236D01*
X0029129321Y0042867093D01*
X0030272177Y0042224236D02*
X0030367415Y0042367093D01*
X0030367415Y0042724236D01*
X0030272177Y0042867093D01*
X0030081702Y0042938520D01*
X0029891225Y0042938520D01*
X0029700750Y0042867093D01*
X0029605512Y0042724236D01*
X0029605512Y0042367093D01*
X0029510274Y0042224236D01*
X0030367415Y0041509950D02*
X0028367415Y0041509950D01*
X0029129321Y0041509950D02*
X0029034083Y0041367093D01*
X0029034083Y0041081378D01*
X0029129321Y0040938520D01*
X0029224559Y0040867093D01*
X0029415034Y0040795664D01*
X0029986464Y0040795664D01*
X0030176940Y0040867093D01*
X0030272177Y0040938520D01*
X0030367415Y0041081378D01*
X0030367415Y0041367093D01*
X0030272177Y0041509950D01*
X0030272177Y0040224236D02*
X0030367415Y0040081378D01*
X0030367415Y0039795664D01*
X0030272177Y0039652806D01*
X0030081702Y0039581378D01*
X0029986464Y0039581378D01*
X0029795987Y0039652806D01*
X0029700750Y0039795664D01*
X0029700750Y0040009950D01*
X0029605512Y0040152806D01*
X0029415034Y0040224236D01*
X0029319796Y0040224236D01*
X0029129321Y0040152806D01*
X0029034083Y0040009950D01*
X0029034083Y0039795664D01*
X0029129321Y0039652806D01*
X0030367415Y0037795664D02*
X0028367415Y0037795664D01*
X0029034083Y0037081378D02*
X0030367415Y0037081378D01*
X0029224559Y0037081378D02*
X0029129321Y0037009950D01*
X0029034083Y0036867093D01*
X0029034083Y0036652806D01*
X0029129321Y0036509950D01*
X0029319796Y0036438520D01*
X0030367415Y0036438520D01*
X0029034083Y0035724236D02*
X0030367415Y0035724236D01*
X0029224559Y0035724236D02*
X0029129321Y0035652806D01*
X0029034083Y0035509950D01*
X0029034083Y0035295664D01*
X0029129321Y0035152806D01*
X0029319796Y0035081378D01*
X0030367415Y0035081378D01*
X0030367415Y0034152806D02*
X0030272177Y0034295664D01*
X0030176940Y0034367093D01*
X0029986464Y0034438520D01*
X0029415034Y0034438520D01*
X0029224559Y0034367093D01*
X0029129321Y0034295664D01*
X0029034083Y0034152806D01*
X0029034083Y0033938520D01*
X0029129321Y0033795664D01*
X0029224559Y0033724236D01*
X0029415034Y0033652806D01*
X0029986464Y0033652806D01*
X0030176940Y0033724236D01*
X0030272177Y0033795664D01*
X0030367415Y0033938520D01*
X0030367415Y0034152806D01*
X0029034083Y0033152806D02*
X0030367415Y0032795664D01*
X0029034083Y0032438520D01*
X0030367415Y0031224236D02*
X0029319796Y0031224236D01*
X0029129321Y0031295664D01*
X0029034083Y0031438520D01*
X0029034083Y0031724236D01*
X0029129321Y0031867092D01*
X0030272177Y0031224236D02*
X0030367415Y0031367092D01*
X0030367415Y0031724236D01*
X0030272177Y0031867092D01*
X0030081702Y0031938520D01*
X0029891225Y0031938520D01*
X0029700750Y0031867092D01*
X0029605512Y0031724236D01*
X0029605512Y0031367092D01*
X0029510274Y0031224236D01*
X0029034083Y0030724236D02*
X0029034083Y0030152806D01*
X0028367415Y0030509950D02*
X0030081702Y0030509950D01*
X0030272177Y0030438520D01*
X0030367415Y0030295664D01*
X0030367415Y0030152806D01*
X0030367415Y0029652806D02*
X0029034083Y0029652806D01*
X0028367415Y0029652806D02*
X0028462655Y0029724236D01*
X0028557893Y0029652806D01*
X0028462655Y0029581378D01*
X0028367415Y0029652806D01*
X0028557893Y0029652806D01*
X0030367415Y0028724236D02*
X0030272177Y0028867092D01*
X0030176940Y0028938520D01*
X0029986464Y0029009950D01*
X0029415034Y0029009950D01*
X0029224559Y0028938520D01*
X0029129321Y0028867092D01*
X0029034083Y0028724236D01*
X0029034083Y0028509950D01*
X0029129321Y0028367092D01*
X0029224559Y0028295664D01*
X0029415034Y0028224236D01*
X0029986464Y0028224236D01*
X0030176940Y0028295664D01*
X0030272177Y0028367092D01*
X0030367415Y0028509950D01*
X0030367415Y0028724236D01*
X0029034083Y0027581378D02*
X0030367415Y0027581378D01*
X0029224559Y0027581378D02*
X0029129321Y0027509950D01*
X0029034083Y0027367092D01*
X0029034083Y0027152806D01*
X0029129321Y0027009950D01*
X0029319796Y0026938520D01*
X0030367415Y0026938520D01*
D11*
X0007952380Y0036866667D02*
X0007952380Y0037400000D01*
X0008428571Y0037453334D01*
X0008380951Y0037400000D01*
X0008333332Y0037293334D01*
X0008333332Y0037026667D01*
X0008380951Y0036920000D01*
X0008428571Y0036866667D01*
X0008523809Y0036813334D01*
X0008761904Y0036813334D01*
X0008857141Y0036866667D01*
X0008904760Y0036920000D01*
X0008952380Y0037026667D01*
X0008952380Y0037293334D01*
X0008904760Y0037400000D01*
X0008857141Y0037453334D01*
X0007952380Y0036493334D02*
X0008952380Y0036120000D01*
X0007952380Y0035746667D01*
X0008952380Y0034519999D02*
X0007952380Y0034519999D01*
X0007952380Y0033773334D02*
X0007952380Y0033560000D01*
X0008000000Y0033453333D01*
X0008095237Y0033346666D01*
X0008285713Y0033293334D01*
X0008619046Y0033293334D01*
X0008809522Y0033346666D01*
X0008904760Y0033453333D01*
X0008952380Y0033560000D01*
X0008952380Y0033773334D01*
X0008904760Y0033879999D01*
X0008809522Y0033986667D01*
X0008619046Y0034040000D01*
X0008285713Y0034040000D01*
X0008095237Y0033986667D01*
X0008000000Y0033879999D01*
X0007952380Y0033773334D01*
X0008047618Y0032866667D02*
X0008000000Y0032813333D01*
X0007952380Y0032706666D01*
X0007952380Y0032439999D01*
X0008000000Y0032333333D01*
X0008047618Y0032280000D01*
X0008142857Y0032226667D01*
X0008238095Y0032226667D01*
X0008380951Y0032280000D01*
X0008952380Y0032920000D01*
X0008952380Y0032226667D01*
X0008000000Y0030306667D02*
X0007952380Y0030413334D01*
X0007952380Y0030573334D01*
X0008000000Y0030733334D01*
X0008095237Y0030840000D01*
X0008190476Y0030893333D01*
X0008380951Y0030946667D01*
X0008523809Y0030946667D01*
X0008714285Y0030893333D01*
X0008809522Y0030840000D01*
X0008904760Y0030733334D01*
X0008952380Y0030573334D01*
X0008952380Y0030466667D01*
X0008904760Y0030306667D01*
X0008857141Y0030253333D01*
X0008523809Y0030253333D01*
X0008523809Y0030466667D01*
X0008428571Y0028546667D02*
X0008476190Y0028386667D01*
X0008523809Y0028333333D01*
X0008619046Y0028280000D01*
X0008761904Y0028280000D01*
X0008857141Y0028333333D01*
X0008904760Y0028386667D01*
X0008952380Y0028493334D01*
X0008952380Y0028920000D01*
X0007952380Y0028920000D01*
X0007952380Y0028546667D01*
X0008000000Y0028439999D01*
X0008047618Y0028386667D01*
X0008142857Y0028333333D01*
X0008238095Y0028333333D01*
X0008333332Y0028386667D01*
X0008380951Y0028439999D01*
X0008428571Y0028546667D01*
X0008428571Y0028920000D01*
X0008666666Y0026146666D02*
X0008666666Y0025613333D01*
X0008952380Y0026253333D02*
X0007952380Y0025879999D01*
X0008952380Y0025506666D01*
X0008952380Y0024280000D02*
X0007952380Y0024280000D01*
X0007952380Y0023853334D01*
X0008000000Y0023746667D01*
X0008047618Y0023693333D01*
X0008142857Y0023640000D01*
X0008285713Y0023640000D01*
X0008380951Y0023693333D01*
X0008428571Y0023746667D01*
X0008476190Y0023853334D01*
X0008476190Y0024280000D01*
X0007952380Y0023266667D02*
X0007952380Y0022519999D01*
X0008952380Y0023000000D01*
X0008000000Y0020653334D02*
X0007952380Y0020760000D01*
X0007952380Y0020920000D01*
X0008000000Y0021080000D01*
X0008095237Y0021186667D01*
X0008190476Y0021239999D01*
X0008380951Y0021293334D01*
X0008523809Y0021293334D01*
X0008714285Y0021239999D01*
X0008809522Y0021186667D01*
X0008904760Y0021080000D01*
X0008952380Y0020920000D01*
X0008952380Y0020813333D01*
X0008904760Y0020653334D01*
X0008857141Y0020599999D01*
X0008523809Y0020599999D01*
X0008523809Y0020813333D01*
X0008952380Y0019266667D02*
X0007952380Y0019266667D01*
X0007952380Y0018840000D01*
X0008000000Y0018733334D01*
X0008047618Y0018680000D01*
X0008142857Y0018626666D01*
X0008285713Y0018626666D01*
X0008380951Y0018680000D01*
X0008428571Y0018733334D01*
X0008476190Y0018840000D01*
X0008476190Y0019266667D01*
X0007952380Y0017666667D02*
X0007952380Y0017879999D01*
X0008000000Y0017986666D01*
X0008047618Y0018040000D01*
X0008190476Y0018146666D01*
X0008380951Y0018200000D01*
X0008761904Y0018200000D01*
X0008857141Y0018146666D01*
X0008904760Y0018093334D01*
X0008952380Y0017986666D01*
X0008952380Y0017773334D01*
X0008904760Y0017666667D01*
X0008857141Y0017613333D01*
X0008761904Y0017560000D01*
X0008523809Y0017560000D01*
X0008428571Y0017613333D01*
X0008380951Y0017666667D01*
X0008333332Y0017773334D01*
X0008333332Y0017986666D01*
X0008380951Y0018093334D01*
X0008428571Y0018146666D01*
X0008523809Y0018200000D01*
X0008952380Y0016226667D02*
X0007952380Y0016226667D01*
X0007952380Y0015799999D01*
X0008000000Y0015693333D01*
X0008047618Y0015640000D01*
X0008142857Y0015586667D01*
X0008285713Y0015586667D01*
X0008380951Y0015640000D01*
X0008428571Y0015693333D01*
X0008476190Y0015799999D01*
X0008476190Y0016226667D01*
X0007952380Y0014573334D02*
X0007952380Y0015106667D01*
X0008428571Y0015159999D01*
X0008380951Y0015106667D01*
X0008333332Y0015000000D01*
X0008333332Y0014733334D01*
X0008380951Y0014626666D01*
X0008428571Y0014573334D01*
X0008523809Y0014519999D01*
X0008761904Y0014519999D01*
X0008857141Y0014573334D01*
X0008904760Y0014626666D01*
X0008952380Y0014733334D01*
X0008952380Y0015000000D01*
X0008904760Y0015106667D01*
X0008857141Y0015159999D01*
X0008000000Y0012599999D02*
X0007952380Y0012706666D01*
X0007952380Y0012866667D01*
X0008000000Y0013026667D01*
X0008095237Y0013133334D01*
X0008190476Y0013186667D01*
X0008380951Y0013239999D01*
X0008523809Y0013239999D01*
X0008714285Y0013186667D01*
X0008809522Y0013133334D01*
X0008904760Y0013026667D01*
X0008952380Y0012866667D01*
X0008952380Y0012760000D01*
X0008904760Y0012599999D01*
X0008857141Y0012546667D01*
X0008523809Y0012546667D01*
X0008523809Y0012760000D01*
D12*
X0045414285Y0010657143D02*
X0045414285Y0009685715D01*
X0045357142Y0009571428D01*
X0045300000Y0009514285D01*
X0045185713Y0009457143D01*
X0044957142Y0009457143D01*
X0044842857Y0009514285D01*
X0044785714Y0009571428D01*
X0044728570Y0009685715D01*
X0044728570Y0010657143D01*
X0044157141Y0010085714D02*
X0043757141Y0010085714D01*
X0043585713Y0009457143D02*
X0044157141Y0009457143D01*
X0044157141Y0010657143D01*
X0043585713Y0010657143D01*
X0043185713Y0010657143D02*
X0042385714Y0009457143D01*
X0042385714Y0010657143D02*
X0043185713Y0009457143D01*
X0042099999Y0010657143D02*
X0041414285Y0010657143D01*
X0041757141Y0009457143D02*
X0041757141Y0010657143D01*
X0036642856Y0006457143D02*
X0037214284Y0006457143D01*
X0037214284Y0007657143D01*
X0036242856Y0006457143D02*
X0036242856Y0007257142D01*
X0036242856Y0007657143D02*
X0036300000Y0007599999D01*
X0036242856Y0007542857D01*
X0036185713Y0007599999D01*
X0036242856Y0007657143D01*
X0036242856Y0007542857D01*
X0035671427Y0006457143D02*
X0035671427Y0007657143D01*
X0035214284Y0007657143D01*
X0035099999Y0007599999D01*
X0035042857Y0007542857D01*
X0034985714Y0007428572D01*
X0034985714Y0007257142D01*
X0035042857Y0007142858D01*
X0035099999Y0007085714D01*
X0035214284Y0007028571D01*
X0035671427Y0007028571D01*
X0034242856Y0007657143D02*
X0034014285Y0007657143D01*
X0033900000Y0007599999D01*
X0033785714Y0007485714D01*
X0033728570Y0007257142D01*
X0033728570Y0006857142D01*
X0033785714Y0006628572D01*
X0033900000Y0006514285D01*
X0034014285Y0006457143D01*
X0034242856Y0006457143D01*
X0034357142Y0006514285D01*
X0034471428Y0006628572D01*
X0034528571Y0006857142D01*
X0034528571Y0007257142D01*
X0034471428Y0007485714D01*
X0034357142Y0007599999D01*
X0034242856Y0007657143D01*
D11*
X0044250000Y0039564285D02*
X0044202380Y0039650000D01*
X0044202380Y0039778572D01*
X0044250000Y0039907143D01*
X0044345237Y0039992858D01*
X0044440475Y0040035714D01*
X0044630952Y0040078571D01*
X0044773809Y0040078571D01*
X0044964284Y0040035714D01*
X0045059523Y0039992858D01*
X0045154761Y0039907143D01*
X0045202380Y0039778572D01*
X0045202380Y0039692858D01*
X0045154761Y0039564285D01*
X0045107142Y0039521429D01*
X0044773809Y0039521429D01*
X0044773809Y0039692858D01*
X0044821428Y0037764286D02*
X0044821428Y0037078571D01*
X0045202380Y0035964286D02*
X0044202380Y0035964286D01*
X0044202380Y0035750000D01*
X0044250000Y0035621429D01*
X0044345237Y0035535714D01*
X0044440475Y0035492858D01*
X0044630952Y0035450000D01*
X0044773809Y0035450000D01*
X0044964284Y0035492858D01*
X0045059523Y0035535714D01*
X0045154761Y0035621429D01*
X0045202380Y0035750000D01*
X0045202380Y0035964286D01*
X0045202380Y0034592858D02*
X0045202380Y0035107142D01*
X0045202380Y0034849999D02*
X0044202380Y0034849999D01*
X0044345237Y0034935715D01*
X0044440475Y0035021429D01*
X0044488094Y0035107142D01*
X0044297619Y0034250000D02*
X0044250000Y0034207143D01*
X0044202380Y0034121429D01*
X0044202380Y0033907143D01*
X0044250000Y0033821428D01*
X0044297619Y0033778572D01*
X0044392856Y0033735715D01*
X0044488094Y0033735715D01*
X0044630952Y0033778572D01*
X0045202380Y0034292857D01*
X0045202380Y0033735715D01*
X0044202380Y0032750000D02*
X0044202380Y0032192858D01*
X0044583333Y0032492858D01*
X0044583333Y0032364286D01*
X0044630952Y0032278571D01*
X0044678571Y0032235715D01*
X0044773809Y0032192858D01*
X0045011903Y0032192858D01*
X0045107142Y0032235715D01*
X0045154761Y0032278571D01*
X0045202380Y0032364286D01*
X0045202380Y0032621429D01*
X0045154761Y0032707143D01*
X0045107142Y0032750000D01*
X0044202380Y0031935715D02*
X0045202380Y0031635715D01*
X0044202380Y0031335714D01*
D12*
X0011992953Y0000976546D02*
X0012659621Y0000976546D01*
X0011859621Y0000576547D02*
X0012326288Y0001976546D01*
X0012792953Y0000576547D01*
X0016926288Y0001309880D02*
X0017126288Y0001243213D01*
X0017192954Y0001176546D01*
X0017259620Y0001043214D01*
X0017259620Y0000843214D01*
X0017192954Y0000709879D01*
X0017126288Y0000643214D01*
X0016992953Y0000576547D01*
X0016459620Y0000576547D01*
X0016459620Y0001976546D01*
X0016926288Y0001976546D01*
X0017059621Y0001909880D01*
X0017126288Y0001843214D01*
X0017192954Y0001709879D01*
X0017192954Y0001576547D01*
X0017126288Y0001443213D01*
X0017059621Y0001376547D01*
X0016926288Y0001309880D01*
X0016459620Y0001309880D01*
X0031714284Y0006457143D02*
X0031714284Y0007657143D01*
X0031257141Y0007657143D01*
X0031142856Y0007599999D01*
X0031085713Y0007542857D01*
X0031028571Y0007428572D01*
X0031028571Y0007257142D01*
X0031085713Y0007142858D01*
X0031142856Y0007085714D01*
X0031257141Y0007028571D01*
X0031714284Y0007028571D01*
X0030628570Y0007657143D02*
X0030342857Y0006457143D01*
X0030114284Y0007314285D01*
X0029885714Y0006457143D01*
X0029599999Y0007657143D01*
X0028457142Y0006457143D02*
X0028857142Y0007028571D01*
X0029142856Y0006457143D02*
X0029142856Y0007657143D01*
X0028685713Y0007657143D01*
X0028571427Y0007599999D01*
X0028514285Y0007542857D01*
X0028457142Y0007428572D01*
X0028457142Y0007257142D01*
X0028514285Y0007142858D01*
X0028571427Y0007085714D01*
X0028685713Y0007028571D01*
X0029142856Y0007028571D01*
X0026457142Y0007657143D02*
X0027028571Y0007657143D01*
X0027085713Y0007085714D01*
X0027028571Y0007142858D01*
X0026914285Y0007200000D01*
X0026628570Y0007200000D01*
X0026514285Y0007142858D01*
X0026457142Y0007085714D01*
X0026400000Y0006971429D01*
X0026400000Y0006685715D01*
X0026457142Y0006571428D01*
X0026514285Y0006514285D01*
X0026628570Y0006457143D01*
X0026914285Y0006457143D01*
X0027028571Y0006514285D01*
X0027085713Y0006571428D01*
X0026057142Y0007657143D02*
X0025657141Y0006457143D01*
X0025257142Y0007657143D01*
X0023714285Y0007657143D02*
X0023485714Y0007657143D01*
X0023371427Y0007599999D01*
X0023257142Y0007485714D01*
X0023200000Y0007257142D01*
X0023200000Y0006857142D01*
X0023257142Y0006628572D01*
X0023371427Y0006514285D01*
X0023485714Y0006457143D01*
X0023714285Y0006457143D01*
X0023828570Y0006514285D01*
X0023942857Y0006628572D01*
X0024000000Y0006857142D01*
X0024000000Y0007257142D01*
X0023942857Y0007485714D01*
X0023828570Y0007599999D01*
X0023714285Y0007657143D01*
X0022685714Y0006457143D02*
X0022685714Y0007657143D01*
X0022000000Y0006457143D01*
X0022000000Y0007657143D01*
X0020857141Y0006457143D02*
X0021428571Y0006457143D01*
X0021428571Y0007657143D01*
X0020228571Y0007028571D02*
X0020228571Y0006457143D01*
X0020628570Y0007657143D02*
X0020228571Y0007028571D01*
X0019828570Y0007657143D01*
X0019428571Y0006571428D02*
X0019371427Y0006514285D01*
X0019428571Y0006457143D01*
X0019485714Y0006514285D01*
X0019428571Y0006571428D01*
X0019428571Y0006457143D01*
X0019428571Y0006914286D02*
X0019485714Y0007599999D01*
X0019428571Y0007657143D01*
X0019371427Y0007599999D01*
X0019428571Y0006914286D01*
X0019428571Y0007657143D01*
X0018857141Y0006571428D02*
X0018799999Y0006514285D01*
X0018857141Y0006457143D01*
X0018914285Y0006514285D01*
X0018857141Y0006571428D01*
X0018857141Y0006457143D01*
X0018857141Y0006914286D02*
X0018914285Y0007599999D01*
X0018857141Y0007657143D01*
X0018799999Y0007599999D01*
X0018857141Y0006914286D01*
X0018857141Y0007657143D01*
X0018285714Y0006571428D02*
X0018228571Y0006514285D01*
X0018285714Y0006457143D01*
X0018342856Y0006514285D01*
X0018285714Y0006571428D01*
X0018285714Y0006457143D01*
X0018285714Y0006914286D02*
X0018342856Y0007599999D01*
X0018285714Y0007657143D01*
X0018228571Y0007599999D01*
X0018285714Y0006914286D01*
X0018285714Y0007657143D01*
D11*
X0047297619Y0012250000D02*
X0047297619Y0012745238D01*
X0046916665Y0012478572D01*
X0046916665Y0012592858D01*
X0046869046Y0012669048D01*
X0046821428Y0012707143D01*
X0046726190Y0012745238D01*
X0046488094Y0012745238D01*
X0046392856Y0012707143D01*
X0046345237Y0012669048D01*
X0046297619Y0012592858D01*
X0046297619Y0012364286D01*
X0046345237Y0012288095D01*
X0046392856Y0012250000D01*
X0047297619Y0012973810D02*
X0046297619Y0013240476D01*
X0047297619Y0013507143D01*
X0047297619Y0014269047D02*
X0047297619Y0014726191D01*
X0046297619Y0014497619D02*
X0047297619Y0014497619D01*
X0047297619Y0014916667D02*
X0046297619Y0015450000D01*
X0047297619Y0015450000D02*
X0046297619Y0014916667D01*
X0046297619Y0016364286D02*
X0047297619Y0016364286D01*
X0047297619Y0016554761D01*
X0047250000Y0016669048D01*
X0047154761Y0016745238D01*
X0047059523Y0016783333D01*
X0046869046Y0016821428D01*
X0046726190Y0016821428D01*
X0046535714Y0016783333D01*
X0046440475Y0016745238D01*
X0046345237Y0016669048D01*
X0046297619Y0016554761D01*
X0046297619Y0016364286D01*
X0047297619Y0017316666D02*
X0047297619Y0017392858D01*
X0047250000Y0017469048D01*
X0047202380Y0017507143D01*
X0047107142Y0017545238D01*
X0046916665Y0017583333D01*
X0046678571Y0017583333D01*
X0046488094Y0017545238D01*
X0046392856Y0017507143D01*
X0046345237Y0017469048D01*
X0046297619Y0017392858D01*
X0046297619Y0017316666D01*
X0046345237Y0017240477D01*
X0046392856Y0017202381D01*
X0046488094Y0017164286D01*
X0046678571Y0017126191D01*
X0046916665Y0017126191D01*
X0047107142Y0017164286D01*
X0047202380Y0017202381D01*
X0047250000Y0017240477D01*
X0047297619Y0017316666D01*
X0047297619Y0018307142D02*
X0047297619Y0017926191D01*
X0046821428Y0017888096D01*
X0046869046Y0017926191D01*
X0046916665Y0018002381D01*
X0046916665Y0018192858D01*
X0046869046Y0018269047D01*
X0046821428Y0018307142D01*
X0046726190Y0018345239D01*
X0046488094Y0018345239D01*
X0046392856Y0018307142D01*
X0046345237Y0018269047D01*
X0046297619Y0018192858D01*
X0046297619Y0018002381D01*
X0046345237Y0017926191D01*
X0046392856Y0017888096D01*
X0046297619Y0019297619D02*
X0047297619Y0019297619D01*
X0047297619Y0019488096D01*
X0047250000Y0019602380D01*
X0047154761Y0019678572D01*
X0047059523Y0019716667D01*
X0046869046Y0019754762D01*
X0046726190Y0019754762D01*
X0046535714Y0019716667D01*
X0046440475Y0019678572D01*
X0046345237Y0019602380D01*
X0046297619Y0019488096D01*
X0046297619Y0019297619D01*
X0046297619Y0020516667D02*
X0046297619Y0020059523D01*
X0046297619Y0020288095D02*
X0047297619Y0020288095D01*
X0047154761Y0020211905D01*
X0047059523Y0020135715D01*
X0047011903Y0020059523D01*
X0047202380Y0020821428D02*
X0047250000Y0020859523D01*
X0047297619Y0020935715D01*
X0047297619Y0021126191D01*
X0047250000Y0021202381D01*
X0047202380Y0021240477D01*
X0047107142Y0021278571D01*
X0047011903Y0021278571D01*
X0046869046Y0021240477D01*
X0046297619Y0020783333D01*
X0046297619Y0021278571D01*
X0046297619Y0022230953D02*
X0047297619Y0022230953D01*
X0047297619Y0022421429D01*
X0047250000Y0022535714D01*
X0047154761Y0022611904D01*
X0047059523Y0022650000D01*
X0046869046Y0022688096D01*
X0046726190Y0022688096D01*
X0046535714Y0022650000D01*
X0046440475Y0022611904D01*
X0046345237Y0022535714D01*
X0046297619Y0022421429D01*
X0046297619Y0022230953D01*
X0046297619Y0023450000D02*
X0046297619Y0022992858D01*
X0046297619Y0023221429D02*
X0047297619Y0023221429D01*
X0047154761Y0023145239D01*
X0047059523Y0023069047D01*
X0047011903Y0022992858D01*
X0046964284Y0024135715D02*
X0046297619Y0024135715D01*
X0047345237Y0023945239D02*
X0046630952Y0023754762D01*
X0046630952Y0024250000D01*
D13*
X0002404760Y0032190477D02*
X0002452380Y0032047619D01*
X0002452380Y0031809523D01*
X0002404760Y0031714286D01*
X0002357141Y0031666667D01*
X0002261904Y0031619048D01*
X0002166666Y0031619048D01*
X0002071427Y0031666667D01*
X0002023809Y0031714286D01*
X0001976190Y0031809523D01*
X0001928571Y0032000000D01*
X0001880951Y0032095239D01*
X0001833332Y0032142858D01*
X0001738095Y0032190477D01*
X0001642857Y0032190477D01*
X0001547618Y0032142858D01*
X0001500000Y0032095239D01*
X0001452380Y0032000000D01*
X0001452380Y0031761905D01*
X0001500000Y0031619048D01*
X0002357141Y0030619048D02*
X0002404760Y0030666667D01*
X0002452380Y0030809523D01*
X0002452380Y0030904762D01*
X0002404760Y0031047619D01*
X0002309522Y0031142858D01*
X0002214285Y0031190477D01*
X0002023809Y0031238096D01*
X0001880951Y0031238096D01*
X0001690476Y0031190477D01*
X0001595237Y0031142858D01*
X0001500000Y0031047619D01*
X0001452380Y0030904762D01*
X0001452380Y0030809523D01*
X0001500000Y0030666667D01*
X0001547618Y0030619048D01*
X0002452380Y0029714286D02*
X0002452380Y0030190477D01*
X0001452380Y0030190477D01*
D11*
X0010232380Y0023154762D02*
X0011232380Y0022821428D01*
X0010232380Y0022488096D01*
X0010232380Y0021964286D02*
X0010232380Y0021773809D01*
X0010280000Y0021678572D01*
X0010375237Y0021583333D01*
X0010565714Y0021535714D01*
X0010899046Y0021535714D01*
X0011089523Y0021583333D01*
X0011184760Y0021678572D01*
X0011232380Y0021773809D01*
X0011232380Y0021964286D01*
X0011184760Y0022059523D01*
X0011089523Y0022154762D01*
X0010899046Y0022202381D01*
X0010565714Y0022202381D01*
X0010375237Y0022154762D01*
X0010280000Y0022059523D01*
X0010232380Y0021964286D01*
X0011232380Y0020630953D02*
X0011232380Y0021107142D01*
X0010232380Y0021107142D01*
X0010232380Y0020440477D02*
X0010232380Y0019869048D01*
X0011232380Y0020154762D02*
X0010232380Y0020154762D01*
X0011232380Y0018297619D02*
X0011232380Y0018773809D01*
X0010232380Y0018773809D01*
X0010708571Y0017964286D02*
X0010708571Y0017630953D01*
X0011232380Y0017488096D02*
X0011232380Y0017964286D01*
X0010232380Y0017964286D01*
X0010232380Y0017488096D01*
X0010232380Y0017202381D02*
X0011232380Y0016869048D01*
X0010232380Y0016535714D01*
X0010708571Y0016202381D02*
X0010708571Y0015869048D01*
X0011232380Y0015726191D02*
X0011232380Y0016202381D01*
X0010232380Y0016202381D01*
X0010232380Y0015726191D01*
X0011232380Y0014821428D02*
X0011232380Y0015297619D01*
X0010232380Y0015297619D01*
X0011137141Y0014488095D02*
X0011184760Y0014440477D01*
X0011232380Y0014488095D01*
X0011184760Y0014535714D01*
X0011137141Y0014488095D01*
X0011232380Y0014488095D01*
X0010613332Y0014488095D02*
X0010660951Y0014440477D01*
X0010708571Y0014488095D01*
X0010660951Y0014535714D01*
X0010613332Y0014488095D01*
X0010708571Y0014488095D01*
X0014785713Y0021416667D02*
X0013357141Y0021416667D01*
X0013452380Y0019750000D02*
X0013452380Y0019559523D01*
X0013500000Y0019464286D01*
X0013595237Y0019369048D01*
X0013785713Y0019321428D01*
X0014119046Y0019321428D01*
X0014309522Y0019369048D01*
X0014404760Y0019464286D01*
X0014452380Y0019559523D01*
X0014452380Y0019750000D01*
X0014404760Y0019845239D01*
X0014309522Y0019940477D01*
X0014119046Y0019988096D01*
X0013785713Y0019988096D01*
X0013595237Y0019940477D01*
X0013500000Y0019845239D01*
X0013452380Y0019750000D01*
X0013452380Y0018226191D02*
X0013452380Y0017607142D01*
X0013833332Y0017940477D01*
X0013833332Y0017797619D01*
X0013880951Y0017702381D01*
X0013928571Y0017654762D01*
X0014023809Y0017607142D01*
X0014261904Y0017607142D01*
X0014357141Y0017654762D01*
X0014404760Y0017702381D01*
X0014452380Y0017797619D01*
X0014452380Y0018083333D01*
X0014404760Y0018178572D01*
X0014357141Y0018226191D01*
X0013452380Y0017321428D02*
X0014452380Y0016988096D01*
X0013452380Y0016654762D01*
X0013452380Y0016416667D02*
X0013452380Y0015797619D01*
X0013833332Y0016130953D01*
X0013833332Y0015988095D01*
X0013880951Y0015892858D01*
X0013928571Y0015845239D01*
X0014023809Y0015797619D01*
X0014261904Y0015797619D01*
X0014357141Y0015845239D01*
X0014404760Y0015892858D01*
X0014452380Y0015988095D01*
X0014452380Y0016273809D01*
X0014404760Y0016369048D01*
X0014357141Y0016416667D01*
X0016395713Y0021416667D02*
X0014967141Y0021416667D01*
X0015062380Y0019750000D02*
X0015062380Y0019559523D01*
X0015110000Y0019464286D01*
X0015205237Y0019369048D01*
X0015395713Y0019321428D01*
X0015729046Y0019321428D01*
X0015919522Y0019369048D01*
X0016014760Y0019464286D01*
X0016062380Y0019559523D01*
X0016062380Y0019750000D01*
X0016014760Y0019845239D01*
X0015919522Y0019940477D01*
X0015729046Y0019988096D01*
X0015395713Y0019988096D01*
X0015205237Y0019940477D01*
X0015110000Y0019845239D01*
X0015062380Y0019750000D01*
X0015062380Y0018226191D02*
X0015062380Y0017607142D01*
X0015443332Y0017940477D01*
X0015443332Y0017797619D01*
X0015490951Y0017702381D01*
X0015538571Y0017654762D01*
X0015633809Y0017607142D01*
X0015871904Y0017607142D01*
X0015967141Y0017654762D01*
X0016014760Y0017702381D01*
X0016062380Y0017797619D01*
X0016062380Y0018083333D01*
X0016014760Y0018178572D01*
X0015967141Y0018226191D01*
X0015062380Y0017321428D02*
X0016062380Y0016988096D01*
X0015062380Y0016654762D01*
X0015062380Y0016130953D02*
X0015062380Y0016035714D01*
X0015110000Y0015940477D01*
X0015157618Y0015892858D01*
X0015252857Y0015845239D01*
X0015443332Y0015797619D01*
X0015681427Y0015797619D01*
X0015871904Y0015845239D01*
X0015967141Y0015892858D01*
X0016014760Y0015940477D01*
X0016062380Y0016035714D01*
X0016062380Y0016130953D01*
X0016014760Y0016226191D01*
X0015967141Y0016273809D01*
X0015871904Y0016321428D01*
X0015681427Y0016369048D01*
X0015443332Y0016369048D01*
X0015252857Y0016321428D01*
X0015157618Y0016273809D01*
X0015110000Y0016226191D01*
X0015062380Y0016130953D01*
X0018005713Y0021416667D02*
X0016577141Y0021416667D01*
X0016672380Y0019750000D02*
X0016672380Y0019559523D01*
X0016719999Y0019464286D01*
X0016815237Y0019369048D01*
X0017005713Y0019321428D01*
X0017339046Y0019321428D01*
X0017529522Y0019369048D01*
X0017624761Y0019464286D01*
X0017672380Y0019559523D01*
X0017672380Y0019750000D01*
X0017624761Y0019845239D01*
X0017529522Y0019940477D01*
X0017339046Y0019988096D01*
X0017005713Y0019988096D01*
X0016815237Y0019940477D01*
X0016719999Y0019845239D01*
X0016672380Y0019750000D01*
X0016767618Y0018178572D02*
X0016719999Y0018130953D01*
X0016672380Y0018035714D01*
X0016672380Y0017797619D01*
X0016719999Y0017702381D01*
X0016767618Y0017654762D01*
X0016862857Y0017607142D01*
X0016958095Y0017607142D01*
X0017100952Y0017654762D01*
X0017672380Y0018226191D01*
X0017672380Y0017607142D01*
X0016672380Y0017321428D02*
X0017672380Y0016988096D01*
X0016672380Y0016654762D01*
X0016672380Y0015845239D02*
X0016672380Y0016321428D01*
X0017148571Y0016369048D01*
X0017100952Y0016321428D01*
X0017053332Y0016226191D01*
X0017053332Y0015988095D01*
X0017100952Y0015892858D01*
X0017148571Y0015845239D01*
X0017243809Y0015797619D01*
X0017481904Y0015797619D01*
X0017577141Y0015845239D01*
X0017624761Y0015892858D01*
X0017672380Y0015988095D01*
X0017672380Y0016226191D01*
X0017624761Y0016321428D01*
X0017577141Y0016369048D01*
X0040038788Y0023711371D02*
X0039991167Y0023787561D01*
X0039991167Y0023901848D01*
X0040038788Y0024016133D01*
X0040134026Y0024092324D01*
X0040229264Y0024130420D01*
X0040419739Y0024168515D01*
X0040562597Y0024168515D01*
X0040753073Y0024130420D01*
X0040848310Y0024092324D01*
X0040943548Y0024016133D01*
X0040991167Y0023901848D01*
X0040991167Y0023825658D01*
X0040943548Y0023711371D01*
X0040895929Y0023673277D01*
X0040562597Y0023673277D01*
X0040562597Y0023825658D01*
X0040991167Y0022263752D02*
X0040514978Y0022530420D01*
X0040991167Y0022720895D02*
X0039991167Y0022720895D01*
X0039991167Y0022416134D01*
X0040038788Y0022339943D01*
X0040086407Y0022301848D01*
X0040181645Y0022263752D01*
X0040324501Y0022263752D01*
X0040419739Y0022301848D01*
X0040467358Y0022339943D01*
X0040514978Y0022416134D01*
X0040514978Y0022720895D01*
X0039991167Y0021997085D02*
X0040991167Y0021463752D01*
X0039991167Y0021463752D02*
X0040991167Y0021997085D01*
X0040991167Y0020549467D02*
X0039991167Y0020549467D01*
X0039991167Y0020358991D01*
X0040038788Y0020244704D01*
X0040134026Y0020168515D01*
X0040229264Y0020130420D01*
X0040419739Y0020092324D01*
X0040562597Y0020092324D01*
X0040753073Y0020130420D01*
X0040848310Y0020168515D01*
X0040943548Y0020244704D01*
X0040991167Y0020358991D01*
X0040991167Y0020549467D01*
X0039991167Y0019597086D02*
X0039991167Y0019520895D01*
X0040038788Y0019444705D01*
X0040086407Y0019406610D01*
X0040181645Y0019368515D01*
X0040372120Y0019330420D01*
X0040610216Y0019330420D01*
X0040800692Y0019368515D01*
X0040895929Y0019406610D01*
X0040943548Y0019444705D01*
X0040991167Y0019520895D01*
X0040991167Y0019597086D01*
X0040943548Y0019673277D01*
X0040895929Y0019711371D01*
X0040800692Y0019749466D01*
X0040610216Y0019787561D01*
X0040372120Y0019787561D01*
X0040181645Y0019749466D01*
X0040086407Y0019711371D01*
X0040038788Y0019673277D01*
X0039991167Y0019597086D01*
X0040324501Y0018644705D02*
X0040991167Y0018644705D01*
X0039943548Y0018835181D02*
X0040657835Y0019025658D01*
X0040657835Y0018530420D01*
X0040991167Y0017616134D02*
X0039991167Y0017616134D01*
X0039991167Y0017425658D01*
X0040038788Y0017311372D01*
X0040134026Y0017235180D01*
X0040229264Y0017197086D01*
X0040419739Y0017158991D01*
X0040562597Y0017158991D01*
X0040753073Y0017197086D01*
X0040848310Y0017235180D01*
X0040943548Y0017311372D01*
X0040991167Y0017425658D01*
X0040991167Y0017616134D01*
X0040991167Y0016397086D02*
X0040991167Y0016854229D01*
X0040991167Y0016625658D02*
X0039991167Y0016625658D01*
X0040134026Y0016701847D01*
X0040229264Y0016778039D01*
X0040276883Y0016854229D01*
X0039991167Y0016130420D02*
X0039991167Y0015635181D01*
X0040372120Y0015901848D01*
X0040372120Y0015787561D01*
X0040419739Y0015711371D01*
X0040467358Y0015673276D01*
X0040562597Y0015635181D01*
X0040800692Y0015635181D01*
X0040895929Y0015673276D01*
X0040943548Y0015711371D01*
X0040991167Y0015787561D01*
X0040991167Y0016016133D01*
X0040943548Y0016092324D01*
X0040895929Y0016130420D01*
X0040991167Y0014682800D02*
X0039991167Y0014682800D01*
X0039991167Y0014492323D01*
X0040038788Y0014378039D01*
X0040134026Y0014301848D01*
X0040229264Y0014263752D01*
X0040419739Y0014225657D01*
X0040562597Y0014225657D01*
X0040753073Y0014263752D01*
X0040848310Y0014301848D01*
X0040943548Y0014378039D01*
X0040991167Y0014492323D01*
X0040991167Y0014682800D01*
X0040991167Y0013463752D02*
X0040991167Y0013920895D01*
X0040991167Y0013692324D02*
X0039991167Y0013692324D01*
X0040134026Y0013768514D01*
X0040229264Y0013844705D01*
X0040276883Y0013920895D01*
X0039991167Y0012739942D02*
X0039991167Y0013120896D01*
X0040467358Y0013158991D01*
X0040419739Y0013120896D01*
X0040372120Y0013044704D01*
X0040372120Y0012854229D01*
X0040419739Y0012778039D01*
X0040467358Y0012739942D01*
X0040562597Y0012701847D01*
X0040800692Y0012701847D01*
X0040895929Y0012739942D01*
X0040943548Y0012778039D01*
X0040991167Y0012854229D01*
X0040991167Y0013044704D01*
X0040943548Y0013120896D01*
X0040895929Y0013158991D01*
X0039202380Y0039578571D02*
X0038202380Y0039578571D01*
X0038202380Y0039364286D01*
X0038250000Y0039235715D01*
X0038345237Y0039150000D01*
X0038440475Y0039107142D01*
X0038630952Y0039064285D01*
X0038773809Y0039064285D01*
X0038964284Y0039107142D01*
X0039059523Y0039150000D01*
X0039154761Y0039235715D01*
X0039202380Y0039364286D01*
X0039202380Y0039578571D01*
X0039154761Y0038721429D02*
X0039202380Y0038592858D01*
X0039202380Y0038378572D01*
X0039154761Y0038292857D01*
X0039107142Y0038250000D01*
X0039011903Y0038207143D01*
X0038916665Y0038207143D01*
X0038821428Y0038250000D01*
X0038773809Y0038292857D01*
X0038726190Y0038378572D01*
X0038678571Y0038550000D01*
X0038630952Y0038635715D01*
X0038583333Y0038678572D01*
X0038488094Y0038721429D01*
X0038392856Y0038721429D01*
X0038297619Y0038678572D01*
X0038250000Y0038635715D01*
X0038202380Y0038550000D01*
X0038202380Y0038335714D01*
X0038250000Y0038207143D01*
X0039202380Y0037349999D02*
X0039202380Y0037864286D01*
X0039202380Y0037607142D02*
X0038202380Y0037607142D01*
X0038345237Y0037692858D01*
X0038440475Y0037778572D01*
X0038488094Y0037864286D01*
X0038630952Y0036835714D02*
X0038583333Y0036921429D01*
X0038535714Y0036964286D01*
X0038440475Y0037007143D01*
X0038392856Y0037007143D01*
X0038297619Y0036964286D01*
X0038250000Y0036921429D01*
X0038202380Y0036835714D01*
X0038202380Y0036664286D01*
X0038250000Y0036578571D01*
X0038297619Y0036535714D01*
X0038392856Y0036492858D01*
X0038440475Y0036492858D01*
X0038535714Y0036535714D01*
X0038583333Y0036578571D01*
X0038630952Y0036664286D01*
X0038630952Y0036835714D01*
X0038678571Y0036921429D01*
X0038726190Y0036964286D01*
X0038821428Y0037007143D01*
X0039011903Y0037007143D01*
X0039107142Y0036964286D01*
X0039154761Y0036921429D01*
X0039202380Y0036835714D01*
X0039202380Y0036664286D01*
X0039154761Y0036578571D01*
X0039107142Y0036535714D01*
X0039011903Y0036492858D01*
X0038821428Y0036492858D01*
X0038726190Y0036535714D01*
X0038678571Y0036578571D01*
X0038630952Y0036664286D01*
X0038678571Y0035807143D02*
X0038726190Y0035678572D01*
X0038773809Y0035635715D01*
X0038869046Y0035592858D01*
X0039011903Y0035592858D01*
X0039107142Y0035635715D01*
X0039154761Y0035678572D01*
X0039202380Y0035764286D01*
X0039202380Y0036107142D01*
X0038202380Y0036107142D01*
X0038202380Y0035807143D01*
X0038250000Y0035721429D01*
X0038297619Y0035678572D01*
X0038392856Y0035635715D01*
X0038488094Y0035635715D01*
X0038583333Y0035678572D01*
X0038630952Y0035721429D01*
X0038678571Y0035807143D01*
X0038678571Y0036107142D01*
X0038297619Y0035250000D02*
X0038250000Y0035207143D01*
X0038202380Y0035121429D01*
X0038202380Y0034907143D01*
X0038250000Y0034821428D01*
X0038297619Y0034778572D01*
X0038392856Y0034735715D01*
X0038488094Y0034735715D01*
X0038630952Y0034778572D01*
X0039202380Y0035292857D01*
X0039202380Y0034735715D01*
X0038202380Y0034178572D02*
X0038202380Y0034092858D01*
X0038250000Y0034007143D01*
X0038297619Y0033964286D01*
X0038392856Y0033921429D01*
X0038583333Y0033878572D01*
X0038821428Y0033878572D01*
X0039011903Y0033921429D01*
X0039107142Y0033964286D01*
X0039154761Y0034007143D01*
X0039202380Y0034092858D01*
X0039202380Y0034178572D01*
X0039154761Y0034264286D01*
X0039107142Y0034307143D01*
X0039011903Y0034349999D01*
X0038821428Y0034392858D01*
X0038583333Y0034392858D01*
X0038392856Y0034349999D01*
X0038297619Y0034307143D01*
X0038250000Y0034264286D01*
X0038202380Y0034178572D01*
D12*
X0016387910Y0006457143D02*
X0016787909Y0007028571D01*
X0017073625Y0006457143D02*
X0017073625Y0007657143D01*
X0016616482Y0007657143D01*
X0016502195Y0007599999D01*
X0016445053Y0007542857D01*
X0016387910Y0007428572D01*
X0016387910Y0007257142D01*
X0016445053Y0007142858D01*
X0016502195Y0007085714D01*
X0016616482Y0007028571D01*
X0017073625Y0007028571D01*
X0015930767Y0006514285D02*
X0015759338Y0006457143D01*
X0015473624Y0006457143D01*
X0015359339Y0006514285D01*
X0015302195Y0006571428D01*
X0015245052Y0006685715D01*
X0015245052Y0006799999D01*
X0015302195Y0006914286D01*
X0015359339Y0006971429D01*
X0015473624Y0007028571D01*
X0015702196Y0007085714D01*
X0015816481Y0007142858D01*
X0015873625Y0007200000D01*
X0015930767Y0007314285D01*
X0015930767Y0007428572D01*
X0015873625Y0007542857D01*
X0015816481Y0007599999D01*
X0015702196Y0007657143D01*
X0015416482Y0007657143D01*
X0015245052Y0007599999D01*
X0014216482Y0007257142D02*
X0014216482Y0006457143D01*
X0014502195Y0007714286D02*
X0014787909Y0006857142D01*
X0014045052Y0006857142D01*
X0013416482Y0007142858D02*
X0013530766Y0007200000D01*
X0013587909Y0007257142D01*
X0013645053Y0007371429D01*
X0013645053Y0007428572D01*
X0013587909Y0007542857D01*
X0013530766Y0007599999D01*
X0013416482Y0007657143D01*
X0013187910Y0007657143D01*
X0013073625Y0007599999D01*
X0013016481Y0007542857D01*
X0012959339Y0007428572D01*
X0012959339Y0007371429D01*
X0013016481Y0007257142D01*
X0013073625Y0007200000D01*
X0013187910Y0007142858D01*
X0013416482Y0007142858D01*
X0013530766Y0007085714D01*
X0013587909Y0007028571D01*
X0013645053Y0006914286D01*
X0013645053Y0006685715D01*
X0013587909Y0006571428D01*
X0013530766Y0006514285D01*
X0013416482Y0006457143D01*
X0013187910Y0006457143D01*
X0013073625Y0006514285D01*
X0013016481Y0006571428D01*
X0012959339Y0006685715D01*
X0012959339Y0006914286D01*
X0013016481Y0007028571D01*
X0013073625Y0007085714D01*
X0013187910Y0007142858D01*
X0011873625Y0007657143D02*
X0012445053Y0007657143D01*
X0012502195Y0007085714D01*
X0012445053Y0007142858D01*
X0012330766Y0007200000D01*
X0012045052Y0007200000D01*
X0011930767Y0007142858D01*
X0011873625Y0007085714D01*
X0011816481Y0006971429D01*
X0011816481Y0006685715D01*
X0011873625Y0006571428D01*
X0011930767Y0006514285D01*
X0012045052Y0006457143D01*
X0012330766Y0006457143D01*
X0012445053Y0006514285D01*
X0012502195Y0006571428D01*
X0034186891Y0003860421D02*
X0035101177Y0003860421D01*
X0039329747Y0003860421D02*
X0040244034Y0003860421D01*
X0039786891Y0003403278D02*
X0039786891Y0004317564D01*
D11*
X0013900000Y0041198193D02*
X0013900000Y0042198193D01*
X0013685714Y0042198193D01*
X0013557141Y0042150572D01*
X0013471428Y0042055335D01*
X0013428571Y0041960097D01*
X0013385713Y0041769621D01*
X0013385713Y0041626763D01*
X0013428571Y0041436288D01*
X0013471428Y0041341049D01*
X0013557141Y0041245812D01*
X0013685714Y0041198193D01*
X0013900000Y0041198193D01*
X0013000000Y0041722002D02*
X0012700000Y0041722002D01*
X0012571427Y0041198193D02*
X0013000000Y0041198193D01*
X0013000000Y0042198193D01*
X0012571427Y0042198193D01*
X0012185714Y0041722002D02*
X0011885713Y0041722002D01*
X0011757142Y0041198193D02*
X0012185714Y0041198193D01*
X0012185714Y0042198193D01*
X0011757142Y0042198193D01*
X0011371427Y0041198193D02*
X0011371427Y0042198193D01*
X0011028571Y0042198193D01*
X0010942857Y0042150572D01*
X0010900000Y0042102954D01*
X0010857141Y0042007716D01*
X0010857141Y0041864858D01*
X0010900000Y0041769621D01*
X0010942857Y0041722002D01*
X0011028571Y0041674383D01*
X0011371427Y0041674383D01*
X0010685714Y0041102954D02*
X0010000000Y0041102954D01*
X0009828570Y0041245812D02*
X0009700000Y0041198193D01*
X0009485714Y0041198193D01*
X0009400000Y0041245812D01*
X0009357141Y0041293431D01*
X0009314284Y0041388668D01*
X0009314284Y0041483907D01*
X0009357141Y0041579145D01*
X0009400000Y0041626763D01*
X0009485714Y0041674383D01*
X0009657141Y0041722002D01*
X0009742857Y0041769621D01*
X0009785713Y0041817240D01*
X0009828570Y0041912477D01*
X0009828570Y0042007716D01*
X0009785713Y0042102954D01*
X0009742857Y0042150572D01*
X0009657141Y0042198193D01*
X0009442857Y0042198193D01*
X0009314284Y0042150572D01*
X0008500000Y0041198193D02*
X0008928571Y0041198193D01*
X0008928571Y0042198193D01*
X0008200000Y0041722002D02*
X0007900000Y0041722002D01*
X0007771428Y0041198193D02*
X0008200000Y0041198193D01*
X0008200000Y0042198193D01*
X0007771428Y0042198193D01*
X0007385713Y0041722002D02*
X0007085713Y0041722002D01*
X0006957142Y0041198193D02*
X0007385713Y0041198193D01*
X0007385713Y0042198193D01*
X0006957142Y0042198193D01*
X0006571427Y0041198193D02*
X0006571427Y0042198193D01*
X0006228571Y0042198193D01*
X0006142857Y0042150572D01*
X0006099999Y0042102954D01*
X0006057141Y0042007716D01*
X0006057141Y0041864858D01*
X0006099999Y0041769621D01*
X0006142857Y0041722002D01*
X0006228571Y0041674383D01*
X0006571427Y0041674383D01*
D12*
X0024019495Y0003860421D02*
X0024933780Y0003860421D01*
X0029162352Y0003860421D02*
X0030076638Y0003860421D01*
X0029619495Y0003403278D02*
X0029619495Y0004317564D01*
D11*
X0040000000Y0039607142D02*
X0039952380Y0039702381D01*
X0039952380Y0039845239D01*
X0040000000Y0039988096D01*
X0040095237Y0040083333D01*
X0040190475Y0040130953D01*
X0040380952Y0040178572D01*
X0040523809Y0040178572D01*
X0040714284Y0040130953D01*
X0040809523Y0040083333D01*
X0040904761Y0039988096D01*
X0040952380Y0039845239D01*
X0040952380Y0039750000D01*
X0040904761Y0039607142D01*
X0040857142Y0039559523D01*
X0040523809Y0039559523D01*
X0040523809Y0039750000D01*
X0040952380Y0038369048D02*
X0039952380Y0038369048D01*
X0039952380Y0038130953D01*
X0040000000Y0037988096D01*
X0040095237Y0037892858D01*
X0040190475Y0037845239D01*
X0040380952Y0037797619D01*
X0040523809Y0037797619D01*
X0040714284Y0037845239D01*
X0040809523Y0037892858D01*
X0040904761Y0037988096D01*
X0040952380Y0038130953D01*
X0040952380Y0038369048D01*
X0040952380Y0036845239D02*
X0040952380Y0037416667D01*
X0040952380Y0037130953D02*
X0039952380Y0037130953D01*
X0040095237Y0037226191D01*
X0040190475Y0037321428D01*
X0040238094Y0037416667D01*
X0040285714Y0035988096D02*
X0040952380Y0035988096D01*
X0039904761Y0036226191D02*
X0040619046Y0036464286D01*
X0040619046Y0035845239D01*
X0039952380Y0034797619D02*
X0039952380Y0034178572D01*
X0040333333Y0034511905D01*
X0040333333Y0034369048D01*
X0040380952Y0034273810D01*
X0040428571Y0034226191D01*
X0040523809Y0034178572D01*
X0040761903Y0034178572D01*
X0040857142Y0034226191D01*
X0040904761Y0034273810D01*
X0040952380Y0034369048D01*
X0040952380Y0034654762D01*
X0040904761Y0034750000D01*
X0040857142Y0034797619D01*
X0039952380Y0033892858D02*
X0040952380Y0033559523D01*
X0039952380Y0033226191D01*
X0001452380Y0037261905D02*
X0001452380Y0036642858D01*
X0001833332Y0036976191D01*
X0001833332Y0036833333D01*
X0001880951Y0036738096D01*
X0001928571Y0036690477D01*
X0002023809Y0036642858D01*
X0002261904Y0036642858D01*
X0002357141Y0036690477D01*
X0002404760Y0036738096D01*
X0002452380Y0036833333D01*
X0002452380Y0037119048D01*
X0002404760Y0037214286D01*
X0002357141Y0037261905D01*
X0001452380Y0036357142D02*
X0002452380Y0036023810D01*
X0001452380Y0035690477D01*
X0045333333Y0029952381D02*
X0045333333Y0028952381D01*
X0045571428Y0028952381D01*
X0045714284Y0029000000D01*
X0045809523Y0029095239D01*
X0045857142Y0029190477D01*
X0045904761Y0029380953D01*
X0045904761Y0029523809D01*
X0045857142Y0029714286D01*
X0045809523Y0029809523D01*
X0045714284Y0029904762D01*
X0045571428Y0029952381D01*
X0045333333Y0029952381D01*
X0046333333Y0029952381D02*
X0046333333Y0028952381D01*
X0046333333Y0029428572D02*
X0046904761Y0029428572D01*
X0046904761Y0029952381D02*
X0046904761Y0028952381D01*
X0047238094Y0028952381D02*
X0047809523Y0028952381D01*
X0047523809Y0029952381D02*
X0047523809Y0028952381D01*
X0011650000Y0038547619D02*
X0011650000Y0039547619D01*
X0011307141Y0039547619D01*
X0011221428Y0039500000D01*
X0011178571Y0039452381D01*
X0011135713Y0039357142D01*
X0011135713Y0039214286D01*
X0011178571Y0039119048D01*
X0011221428Y0039071428D01*
X0011307141Y0039023810D01*
X0011650000Y0039023810D01*
X0010235714Y0038642858D02*
X0010278571Y0038595239D01*
X0010407141Y0038547619D01*
X0010492857Y0038547619D01*
X0010621427Y0038595239D01*
X0010707142Y0038690477D01*
X0010750000Y0038785714D01*
X0010792856Y0038976191D01*
X0010792856Y0039119048D01*
X0010750000Y0039309523D01*
X0010707142Y0039404762D01*
X0010621427Y0039500000D01*
X0010492857Y0039547619D01*
X0010407141Y0039547619D01*
X0010278571Y0039500000D01*
X0010235714Y0039452381D01*
X0009549999Y0039071428D02*
X0009849999Y0039071428D01*
X0009849999Y0038547619D02*
X0009849999Y0039547619D01*
X0009421428Y0039547619D01*
X0008435714Y0038833333D02*
X0008007142Y0038833333D01*
X0008521428Y0038547619D02*
X0008221428Y0039547619D01*
X0007921428Y0038547619D01*
X0007621427Y0038547619D02*
X0007621427Y0039547619D01*
X0007407141Y0039547619D01*
X0007278570Y0039500000D01*
X0007192857Y0039404762D01*
X0007150000Y0039309523D01*
X0007107141Y0039119048D01*
X0007107141Y0038976191D01*
X0007150000Y0038785714D01*
X0007192857Y0038690477D01*
X0007278570Y0038595239D01*
X0007407141Y0038547619D01*
X0007621427Y0038547619D01*
X0006721428Y0038547619D02*
X0006721428Y0039547619D01*
X0006507142Y0039547619D01*
X0006378570Y0039500000D01*
X0006292856Y0039404762D01*
X0006250000Y0039309523D01*
X0006207142Y0039119048D01*
X0006207142Y0038976191D01*
X0006250000Y0038785714D01*
X0006292856Y0038690477D01*
X0006378570Y0038595239D01*
X0006507142Y0038547619D01*
X0006721428Y0038547619D01*
X0005307141Y0038547619D02*
X0005607141Y0039023810D01*
X0005821427Y0038547619D02*
X0005821427Y0039547619D01*
X0005478571Y0039547619D01*
X0005392857Y0039500000D01*
X0005349999Y0039452381D01*
X0005307141Y0039357142D01*
X0005307141Y0039214286D01*
X0005349999Y0039119048D01*
X0005392857Y0039071428D01*
X0005478571Y0039023810D01*
X0005821427Y0039023810D01*
D13*
X0002452380Y0028833333D02*
X0001452380Y0028833333D01*
X0001452380Y0028452381D01*
X0001500000Y0028357142D01*
X0001547618Y0028309523D01*
X0001642857Y0028261905D01*
X0001785713Y0028261905D01*
X0001880951Y0028309523D01*
X0001928571Y0028357142D01*
X0001976190Y0028452381D01*
X0001976190Y0028833333D01*
X0001452380Y0027642858D02*
X0001452380Y0027547619D01*
X0001500000Y0027452381D01*
X0001547618Y0027404762D01*
X0001642857Y0027357142D01*
X0001833332Y0027309523D01*
X0002071427Y0027309523D01*
X0002261904Y0027357142D01*
X0002357141Y0027404762D01*
X0002404760Y0027452381D01*
X0002452380Y0027547619D01*
X0002452380Y0027642858D01*
X0002404760Y0027738096D01*
X0002357141Y0027785714D01*
X0002261904Y0027833333D01*
X0002071427Y0027880953D01*
X0001833332Y0027880953D01*
X0001642857Y0027833333D01*
X0001547618Y0027785714D01*
X0001500000Y0027738096D01*
X0001452380Y0027642858D01*
X0001500000Y0025595239D02*
X0001452380Y0025690477D01*
X0001452380Y0025833333D01*
X0001500000Y0025976191D01*
X0001595237Y0026071428D01*
X0001690476Y0026119048D01*
X0001880951Y0026166667D01*
X0002023809Y0026166667D01*
X0002214285Y0026119048D01*
X0002309522Y0026071428D01*
X0002404760Y0025976191D01*
X0002452380Y0025833333D01*
X0002452380Y0025738096D01*
X0002404760Y0025595239D01*
X0002357141Y0025547619D01*
X0002023809Y0025547619D01*
X0002023809Y0025738096D01*
X0002452380Y0024357142D02*
X0001452380Y0024357142D01*
X0001452380Y0023976191D01*
X0001500000Y0023880953D01*
X0001547618Y0023833333D01*
X0001642857Y0023785714D01*
X0001785713Y0023785714D01*
X0001880951Y0023833333D01*
X0001928571Y0023880953D01*
X0001976190Y0023976191D01*
X0001976190Y0024357142D01*
X0002452380Y0022833333D02*
X0002452380Y0023404762D01*
X0002452380Y0023119048D02*
X0001452380Y0023119048D01*
X0001595237Y0023214286D01*
X0001690476Y0023309523D01*
X0001738095Y0023404762D01*
X0002452380Y0021642858D02*
X0001452380Y0021642858D01*
X0001452380Y0021261905D01*
X0001500000Y0021166667D01*
X0001547618Y0021119048D01*
X0001642857Y0021071428D01*
X0001785713Y0021071428D01*
X0001880951Y0021119048D01*
X0001928571Y0021166667D01*
X0001976190Y0021261905D01*
X0001976190Y0021642858D01*
X0001547618Y0020690477D02*
X0001500000Y0020642858D01*
X0001452380Y0020547619D01*
X0001452380Y0020309523D01*
X0001500000Y0020214286D01*
X0001547618Y0020166667D01*
X0001642857Y0020119048D01*
X0001738095Y0020119048D01*
X0001880951Y0020166667D01*
X0002452380Y0020738096D01*
X0002452380Y0020119048D01*
X0002452380Y0018928572D02*
X0001452380Y0018928572D01*
X0001452380Y0018547619D01*
X0001500000Y0018452381D01*
X0001547618Y0018404762D01*
X0001642857Y0018357142D01*
X0001785713Y0018357142D01*
X0001880951Y0018404762D01*
X0001928571Y0018452381D01*
X0001976190Y0018547619D01*
X0001976190Y0018928572D01*
X0001452380Y0018023809D02*
X0001452380Y0017404762D01*
X0001833332Y0017738096D01*
X0001833332Y0017595239D01*
X0001880951Y0017500000D01*
X0001928571Y0017452381D01*
X0002023809Y0017404762D01*
X0002261904Y0017404762D01*
X0002357141Y0017452381D01*
X0002404760Y0017500000D01*
X0002452380Y0017595239D01*
X0002452380Y0017880953D01*
X0002404760Y0017976191D01*
X0002357141Y0018023809D01*
X0001452380Y0016309523D02*
X0001452380Y0015690477D01*
X0001833332Y0016023809D01*
X0001833332Y0015880953D01*
X0001880951Y0015785714D01*
X0001928571Y0015738095D01*
X0002023809Y0015690477D01*
X0002261904Y0015690477D01*
X0002357141Y0015738095D01*
X0002404760Y0015785714D01*
X0002452380Y0015880953D01*
X0002452380Y0016166667D01*
X0002404760Y0016261904D01*
X0002357141Y0016309523D01*
X0001452380Y0015404762D02*
X0002452380Y0015071428D01*
X0001452380Y0014738095D01*
X0002452380Y0013642858D02*
X0001452380Y0013642858D01*
X0001452380Y0013261904D01*
X0001500000Y0013166667D01*
X0001547618Y0013119048D01*
X0001642857Y0013071428D01*
X0001785713Y0013071428D01*
X0001880951Y0013119048D01*
X0001928571Y0013166667D01*
X0001976190Y0013261904D01*
X0001976190Y0013642858D01*
X0001785713Y0012214286D02*
X0002452380Y0012214286D01*
X0001404760Y0012452381D02*
X0002119046Y0012690477D01*
X0002119046Y0012071428D01*
D11*
X0038199991Y0031118598D02*
X0038247610Y0030990026D01*
X0038295229Y0030947170D01*
X0038390467Y0030904313D01*
X0038533323Y0030904313D01*
X0038628561Y0030947170D01*
X0038676181Y0030990026D01*
X0038723800Y0031075740D01*
X0038723800Y0031418598D01*
X0037723800Y0031418598D01*
X0037723800Y0031118598D01*
X0037771420Y0031032883D01*
X0037819039Y0030990026D01*
X0037914277Y0030947170D01*
X0038009514Y0030947170D01*
X0038104752Y0030990026D01*
X0038152372Y0031032883D01*
X0038199991Y0031118598D01*
X0038199991Y0031418598D01*
X0038723800Y0030518597D02*
X0037723800Y0030518597D01*
X0038438086Y0030218598D01*
X0037723800Y0029918598D01*
X0038723800Y0029918598D01*
X0037723800Y0029575740D02*
X0038723800Y0028975741D01*
X0037723800Y0028975741D02*
X0038723800Y0029575740D01*
X0038438086Y0027990026D02*
X0038438086Y0027561454D01*
X0038723800Y0028075740D02*
X0037723800Y0027775740D01*
X0038723800Y0027475741D01*
X0038723800Y0027175741D02*
X0037723800Y0027175741D01*
X0037723800Y0026961455D01*
X0037771420Y0026832884D01*
X0037866658Y0026747169D01*
X0037961895Y0026704313D01*
X0038152372Y0026661455D01*
X0038295229Y0026661455D01*
X0038485704Y0026704313D01*
X0038580942Y0026747169D01*
X0038676181Y0026832884D01*
X0038723800Y0026961455D01*
X0038723800Y0027175741D01*
X0038723800Y0026275740D02*
X0037723800Y0026275740D01*
X0037723800Y0026061454D01*
X0037771420Y0025932884D01*
X0037866658Y0025847170D01*
X0037961895Y0025804312D01*
X0038152372Y0025761454D01*
X0038295229Y0025761454D01*
X0038485704Y0025804312D01*
X0038580942Y0025847170D01*
X0038676181Y0025932884D01*
X0038723800Y0026061454D01*
X0038723800Y0026275740D01*
X0038723800Y0024861455D02*
X0038247610Y0025161455D01*
X0038723800Y0025375741D02*
X0037723800Y0025375741D01*
X0037723800Y0025032883D01*
X0037771420Y0024947170D01*
X0037819039Y0024904313D01*
X0037914277Y0024861455D01*
X0038057133Y0024861455D01*
X0038152372Y0024904313D01*
X0038199991Y0024947170D01*
X0038247610Y0025032883D01*
X0038247610Y0025375741D01*
D12*
X0029070286Y0000772521D02*
X0029070286Y0001972521D01*
X0028613144Y0001972521D01*
X0028498858Y0001915379D01*
X0028441714Y0001858237D01*
X0028384571Y0001743950D01*
X0028384571Y0001572522D01*
X0028441714Y0001458236D01*
X0028498858Y0001401094D01*
X0028613144Y0001343951D01*
X0029070286Y0001343951D01*
X0027984571Y0001972521D02*
X0027698858Y0000772521D01*
X0027470285Y0001629665D01*
X0027241715Y0000772521D01*
X0026956001Y0001972521D01*
X0025813143Y0000772521D02*
X0026213144Y0001343951D01*
X0026498858Y0000772521D02*
X0026498858Y0001972521D01*
X0026041714Y0001972521D01*
X0025927429Y0001915379D01*
X0025870285Y0001858237D01*
X0025813143Y0001743950D01*
X0025813143Y0001572522D01*
X0025870285Y0001458236D01*
X0025927429Y0001401094D01*
X0026041714Y0001343951D01*
X0026498858Y0001343951D01*
X0023527428Y0002029664D02*
X0024556000Y0000486807D01*
X0022213144Y0000772521D02*
X0022213144Y0001972521D01*
X0021756000Y0001972521D01*
X0021641715Y0001915379D01*
X0021584571Y0001858237D01*
X0021527428Y0001743950D01*
X0021527428Y0001572522D01*
X0021584571Y0001458236D01*
X0021641715Y0001401094D01*
X0021756000Y0001343951D01*
X0022213144Y0001343951D01*
X0021184572Y0001972521D02*
X0020784571Y0000772521D01*
X0020384572Y0001972521D01*
D13*
X0002404760Y0035214286D02*
X0002452380Y0035071428D01*
X0002452380Y0034833333D01*
X0002404760Y0034738096D01*
X0002357141Y0034690477D01*
X0002261904Y0034642858D01*
X0002166666Y0034642858D01*
X0002071427Y0034690477D01*
X0002023809Y0034738096D01*
X0001976190Y0034833333D01*
X0001928571Y0035023810D01*
X0001880951Y0035119048D01*
X0001833332Y0035166667D01*
X0001738095Y0035214286D01*
X0001642857Y0035214286D01*
X0001547618Y0035166667D01*
X0001500000Y0035119048D01*
X0001452380Y0035023810D01*
X0001452380Y0034785714D01*
X0001500000Y0034642858D01*
X0002452380Y0034214286D02*
X0001452380Y0034214286D01*
X0001452380Y0033976191D01*
X0001500000Y0033833333D01*
X0001595237Y0033738096D01*
X0001690476Y0033690477D01*
X0001880951Y0033642858D01*
X0002023809Y0033642858D01*
X0002214285Y0033690477D01*
X0002309522Y0033738096D01*
X0002404760Y0033833333D01*
X0002452380Y0033976191D01*
X0002452380Y0034214286D01*
X0002166666Y0033261905D02*
X0002166666Y0032785714D01*
X0002452380Y0033357142D02*
X0001452380Y0033023809D01*
X0002452380Y0032690477D01*
D12*
X0034404761Y0041367917D02*
X0032404761Y0041117917D01*
X0033166665Y0041213155D02*
X0033071427Y0041058392D01*
X0033071427Y0040772679D01*
X0033166665Y0040641727D01*
X0033261903Y0040582203D01*
X0033452380Y0040534583D01*
X0034023809Y0040606012D01*
X0034214284Y0040701250D01*
X0034309523Y0040784583D01*
X0034404761Y0040939346D01*
X0034404761Y0041225060D01*
X0034309523Y0041356012D01*
X0033071427Y0039986965D02*
X0034404761Y0039796488D01*
X0033071427Y0039272679D02*
X0034404761Y0039796488D01*
X0034880952Y0039998870D01*
X0034976190Y0040082203D01*
X0035071428Y0040236965D01*
X0034214284Y0038844108D02*
X0034309523Y0038784583D01*
X0034404761Y0038867917D01*
X0034309523Y0038927441D01*
X0034214284Y0038844108D01*
X0034404761Y0038867917D01*
X0033166665Y0038713155D02*
X0033261903Y0038653631D01*
X0033357142Y0038736965D01*
X0033261903Y0038796488D01*
X0033166665Y0038713155D01*
X0033357142Y0038736965D01*
X0034404761Y0036153631D02*
X0033452380Y0036534583D01*
X0034404761Y0037010774D02*
X0032404761Y0036760774D01*
X0032404761Y0036189346D01*
X0032500000Y0036058392D01*
X0032595237Y0035998870D01*
X0032785714Y0035951250D01*
X0033071427Y0035986965D01*
X0033261903Y0036082203D01*
X0033357142Y0036165536D01*
X0033452380Y0036320297D01*
X0033452380Y0036891727D01*
X0032404761Y0034832203D02*
X0033833333Y0035010774D01*
X0034119046Y0035117917D01*
X0034309523Y0035284583D01*
X0034404761Y0035510774D01*
X0034404761Y0035653631D01*
X0034404761Y0033653631D02*
X0034404761Y0034367917D01*
X0032404761Y0034117917D01*
X0033833333Y0033153631D02*
X0033833333Y0032439346D01*
X0034404761Y0033367917D02*
X0032404761Y0032617917D01*
X0034404761Y0032367917D01*
X0033357142Y0031236964D02*
X0033452380Y0031034583D01*
X0033547618Y0030975060D01*
X0033738094Y0030927441D01*
X0034023809Y0030963155D01*
X0034214284Y0031058392D01*
X0034309523Y0031141727D01*
X0034404761Y0031296488D01*
X0034404761Y0031867917D01*
X0032404761Y0031617917D01*
X0032404761Y0031117917D01*
X0032500000Y0030986964D01*
X0032595237Y0030927441D01*
X0032785714Y0030879822D01*
X0032976190Y0030903631D01*
X0033166665Y0030998869D01*
X0033261903Y0031082203D01*
X0033357142Y0031236964D01*
X0033357142Y0031736964D01*
X0034309523Y0030427441D02*
X0034404761Y0030225060D01*
X0034404761Y0029867917D01*
X0034309523Y0029713155D01*
X0034214284Y0029629822D01*
X0034023809Y0029534583D01*
X0033833333Y0029510773D01*
X0033642856Y0029558392D01*
X0033547618Y0029617917D01*
X0033452380Y0029748869D01*
X0033357142Y0030022678D01*
X0033261903Y0030153631D01*
X0033166665Y0030213155D01*
X0032976190Y0030260773D01*
X0032785714Y0030236964D01*
X0032595237Y0030141727D01*
X0032500000Y0030058392D01*
X0032404761Y0029903631D01*
X0032404761Y0029546488D01*
X0032500000Y0029344108D01*
X0034214284Y0028915536D02*
X0034309523Y0028856012D01*
X0034404761Y0028939346D01*
X0034309523Y0028998869D01*
X0034214284Y0028915536D01*
X0034404761Y0028939346D01*
X0034404761Y0028225060D02*
X0032404761Y0027975060D01*
X0033833333Y0027653631D01*
X0032404761Y0026975060D01*
X0034404761Y0027225060D01*
X0033452380Y0026106012D02*
X0034404761Y0026225060D01*
X0032404761Y0026475060D02*
X0033452380Y0026106012D01*
X0032404761Y0025475060D01*
X0034214284Y0025201250D02*
X0034309523Y0025141727D01*
X0034404761Y0025225060D01*
X0034309523Y0025284583D01*
X0034214284Y0025201250D01*
X0034404761Y0025225060D01*
X0034404761Y0024510773D02*
X0032404761Y0024260773D01*
X0034404761Y0023796488D02*
X0032404761Y0023546488D01*
X0032404761Y0023189346D01*
X0032500000Y0022986964D01*
X0032690475Y0022867917D01*
X0032880952Y0022820297D01*
X0033261903Y0022796488D01*
X0033547618Y0022832203D01*
X0033928571Y0022951250D01*
X0034119046Y0023046488D01*
X0034309523Y0023213155D01*
X0034404761Y0023439346D01*
X0034404761Y0023796488D01*
D14*
X0026178571Y0045752381D02*
X0026369046Y0045842858D01*
X0026559523Y0046114286D01*
X0026559523Y0046295239D01*
X0026369046Y0046566667D01*
X0025988095Y0046747620D01*
X0025607141Y0046838096D01*
X0024845237Y0046928572D01*
X0024273809Y0046928572D01*
X0023511904Y0046838096D01*
X0023130951Y0046747620D01*
X0022750000Y0046566667D01*
X0022559523Y0046295239D01*
X0022559523Y0046114286D01*
X0022750000Y0045842858D01*
X0022940476Y0045752381D01*
X0026559523Y0044938096D02*
X0022559523Y0044938096D01*
X0022559523Y0044214286D01*
X0022750000Y0044033334D01*
X0022940476Y0043942858D01*
X0023321427Y0043852380D01*
X0023892857Y0043852380D01*
X0024273809Y0043942858D01*
X0024464285Y0044033334D01*
X0024654760Y0044214286D01*
X0024654760Y0044938096D01*
X0022559523Y0043038095D02*
X0025797618Y0043038095D01*
X0026178571Y0042947620D01*
X0026369046Y0042857142D01*
X0026559523Y0042676191D01*
X0026559523Y0042314285D01*
X0026369046Y0042133334D01*
X0026178571Y0042042857D01*
X0025797618Y0041952381D01*
X0022559523Y0041952381D01*
X0026940476Y0041500000D02*
X0026940476Y0040052381D01*
X0024464285Y0039599999D02*
X0024464285Y0038966667D01*
X0026559523Y0038695239D02*
X0026559523Y0039599999D01*
X0022559523Y0039599999D01*
X0022559523Y0038695239D01*
X0026559523Y0036885715D02*
X0026559523Y0037971429D01*
X0026559523Y0037428572D02*
X0022559523Y0037428572D01*
X0023130951Y0037609523D01*
X0023511904Y0037790476D01*
X0023702380Y0037971429D01*
X0022940476Y0036161905D02*
X0022750000Y0036071428D01*
X0022559523Y0035890477D01*
X0022559523Y0035438096D01*
X0022750000Y0035257143D01*
X0022940476Y0035166667D01*
X0023321427Y0035076190D01*
X0023702380Y0035076190D01*
X0024273809Y0035166667D01*
X0026559523Y0036252381D01*
X0026559523Y0035076190D01*
X0022559523Y0033085714D02*
X0026559523Y0032452381D01*
X0022559523Y0031819047D01*
X0026178571Y0031185715D02*
X0026369046Y0031095239D01*
X0026559523Y0031185715D01*
X0026369046Y0031276190D01*
X0026178571Y0031185715D01*
X0026559523Y0031185715D01*
X0026559523Y0029285714D02*
X0026559523Y0030371429D01*
X0026559523Y0029828571D02*
X0022559523Y0029828571D01*
X0023130951Y0030009524D01*
X0023511904Y0030190477D01*
X0023702380Y0030371429D01*
X0026178571Y0028471429D02*
X0026369046Y0028380953D01*
X0026559523Y0028471429D01*
X0026369046Y0028561904D01*
X0026178571Y0028471429D01*
X0026559523Y0028471429D01*
X0022559523Y0027204762D02*
X0022559523Y0027023809D01*
X0022750000Y0026842858D01*
X0022940476Y0026752381D01*
X0023321427Y0026661905D01*
X0024083332Y0026571428D01*
X0025035714Y0026571428D01*
X0025797618Y0026661905D01*
X0026178571Y0026752381D01*
X0026369046Y0026842858D01*
X0026559523Y0027023809D01*
X0026559523Y0027204762D01*
X0026369046Y0027385715D01*
X0026178571Y0027476191D01*
X0025797618Y0027566666D01*
X0025035714Y0027657143D01*
X0024083332Y0027657143D01*
X0023321427Y0027566666D01*
X0022940476Y0027476191D01*
X0022750000Y0027385715D01*
X0022559523Y0027204762D01*
D12*
X0038146096Y0001319736D02*
X0037974667Y0001262592D01*
X0037917525Y0001205449D01*
X0037860381Y0001091164D01*
X0037860381Y0000919736D01*
X0037917525Y0000805449D01*
X0037974667Y0000748306D01*
X0038088953Y0000691164D01*
X0038546096Y0000691164D01*
X0038546096Y0001891164D01*
X0038146096Y0001891164D01*
X0038031810Y0001834021D01*
X0037974667Y0001776878D01*
X0037917525Y0001662593D01*
X0037917525Y0001548306D01*
X0037974667Y0001434021D01*
X0038031810Y0001376879D01*
X0038146096Y0001319736D01*
X0038546096Y0001319736D01*
X0037403239Y0001034020D02*
X0036831809Y0001034020D01*
X0037517525Y0000691164D02*
X0037117525Y0001891164D01*
X0036717524Y0000691164D01*
X0036488953Y0001891164D02*
X0035803238Y0001891164D01*
X0036146096Y0000691164D02*
X0036146096Y0001891164D01*
X0035574667Y0001891164D02*
X0034888952Y0001891164D01*
X0035231809Y0000691164D02*
X0035231809Y0001891164D01*
X0033688953Y0001891164D02*
X0032946096Y0001891164D01*
X0033346095Y0001434021D01*
X0033174667Y0001434021D01*
X0033060382Y0001376879D01*
X0033003239Y0001319736D01*
X0032946096Y0001205449D01*
X0032946096Y0000919736D01*
X0033003239Y0000805449D01*
X0033060382Y0000748306D01*
X0033174667Y0000691164D01*
X0033517525Y0000691164D01*
X0033631810Y0000748306D01*
X0033688953Y0000805449D01*
X0032431810Y0000805449D02*
X0032374666Y0000748306D01*
X0032431810Y0000691164D01*
X0032488953Y0000748306D01*
X0032431810Y0000805449D01*
X0032431810Y0000691164D01*
X0031974667Y0001891164D02*
X0031174667Y0001891164D01*
X0031688952Y0000691164D01*
D13*
%TO.C,Q6*%
X0014547618Y0023845239D02*
X0014500000Y0023940477D01*
X0014404760Y0024035714D01*
X0014261904Y0024178572D01*
X0014214285Y0024273809D01*
X0014214285Y0024369048D01*
X0014452380Y0024321428D02*
X0014404760Y0024416667D01*
X0014309522Y0024511905D01*
X0014119046Y0024559523D01*
X0013785713Y0024559523D01*
X0013595237Y0024511905D01*
X0013500000Y0024416667D01*
X0013452380Y0024321428D01*
X0013452380Y0024130953D01*
X0013500000Y0024035714D01*
X0013595237Y0023940477D01*
X0013785713Y0023892858D01*
X0014119046Y0023892858D01*
X0014309522Y0023940477D01*
X0014404760Y0024035714D01*
X0014452380Y0024130953D01*
X0014452380Y0024321428D01*
X0013452380Y0023035714D02*
X0013452380Y0023226191D01*
X0013500000Y0023321428D01*
X0013547618Y0023369048D01*
X0013690476Y0023464286D01*
X0013880951Y0023511905D01*
X0014261904Y0023511905D01*
X0014357141Y0023464286D01*
X0014404760Y0023416667D01*
X0014452380Y0023321428D01*
X0014452380Y0023130953D01*
X0014404760Y0023035714D01*
X0014357141Y0022988096D01*
X0014261904Y0022940477D01*
X0014023809Y0022940477D01*
X0013928571Y0022988096D01*
X0013880951Y0023035714D01*
X0013833332Y0023130953D01*
X0013833332Y0023321428D01*
X0013880951Y0023416667D01*
X0013928571Y0023464286D01*
X0014023809Y0023511905D01*
%TO.C,JP3*%
X0014133332Y0036903620D02*
X0014133332Y0036189334D01*
X0014180952Y0036046476D01*
X0014276190Y0035951239D01*
X0014419047Y0035903620D01*
X0014514285Y0035903620D01*
X0013657141Y0035903620D02*
X0013657141Y0036903620D01*
X0013276190Y0036903620D01*
X0013180952Y0036855999D01*
X0013133332Y0036808381D01*
X0013085713Y0036713143D01*
X0013085713Y0036570285D01*
X0013133332Y0036475048D01*
X0013180952Y0036427429D01*
X0013276190Y0036379810D01*
X0013657141Y0036379810D01*
X0012752380Y0036903620D02*
X0012133332Y0036903620D01*
X0012466666Y0036522667D01*
X0012323808Y0036522667D01*
X0012228571Y0036475048D01*
X0012180952Y0036427429D01*
X0012133332Y0036332190D01*
X0012133332Y0036094095D01*
X0012180952Y0035998858D01*
X0012228571Y0035951239D01*
X0012323808Y0035903620D01*
X0012609522Y0035903620D01*
X0012704761Y0035951239D01*
X0012752380Y0035998858D01*
%TO.C,JP4*%
X0016843333Y0036967620D02*
X0016843333Y0036253333D01*
X0016890952Y0036110477D01*
X0016986189Y0036015238D01*
X0017129047Y0035967620D01*
X0017224284Y0035967620D01*
X0016367142Y0035967620D02*
X0016367142Y0036967620D01*
X0015986189Y0036967620D01*
X0015890951Y0036920000D01*
X0015843333Y0036872381D01*
X0015795714Y0036777142D01*
X0015795714Y0036634286D01*
X0015843333Y0036539047D01*
X0015890951Y0036491429D01*
X0015986189Y0036443810D01*
X0016367142Y0036443810D01*
X0014938570Y0036634286D02*
X0014938570Y0035967620D01*
X0015176665Y0037015238D02*
X0015414760Y0036300953D01*
X0014795714Y0036300953D01*
%TO.C,C11*%
X0026007142Y0022442858D02*
X0026054761Y0022490477D01*
X0026102379Y0022633334D01*
X0026102379Y0022728572D01*
X0026054761Y0022871429D01*
X0025959523Y0022966667D01*
X0025864284Y0023014286D01*
X0025673809Y0023061904D01*
X0025530952Y0023061904D01*
X0025340475Y0023014286D01*
X0025245238Y0022966667D01*
X0025150000Y0022871429D01*
X0025102379Y0022728572D01*
X0025102379Y0022633334D01*
X0025150000Y0022490477D01*
X0025197619Y0022442858D01*
X0026102379Y0021490477D02*
X0026102379Y0022061904D01*
X0026102379Y0021776190D02*
X0025102379Y0021776190D01*
X0025245238Y0021871429D01*
X0025340475Y0021966667D01*
X0025388095Y0022061904D01*
X0026102379Y0020538095D02*
X0026102379Y0021109523D01*
X0026102379Y0020823809D02*
X0025102379Y0020823809D01*
X0025245238Y0020919048D01*
X0025340475Y0021014286D01*
X0025388095Y0021109523D01*
%TO.C,JP2*%
X0042073332Y0029007620D02*
X0042073332Y0028293334D01*
X0042120951Y0028150476D01*
X0042216190Y0028055239D01*
X0042359047Y0028007620D01*
X0042454285Y0028007620D01*
X0041597141Y0028007620D02*
X0041597141Y0029007620D01*
X0041216190Y0029007620D01*
X0041120951Y0028959999D01*
X0041073332Y0028912380D01*
X0041025713Y0028817143D01*
X0041025713Y0028674285D01*
X0041073332Y0028579048D01*
X0041120951Y0028531429D01*
X0041216190Y0028483810D01*
X0041597141Y0028483810D01*
X0040644760Y0028912380D02*
X0040597141Y0028959999D01*
X0040501903Y0029007620D01*
X0040263809Y0029007620D01*
X0040168570Y0028959999D01*
X0040120951Y0028912380D01*
X0040073332Y0028817143D01*
X0040073332Y0028721905D01*
X0040120951Y0028579048D01*
X0040692380Y0028007620D01*
X0040073332Y0028007620D01*
%TO.C,R15*%
X0008902856Y0009037620D02*
X0009236189Y0009513810D01*
X0009474284Y0009037620D02*
X0009474284Y0010037620D01*
X0009093333Y0010037620D01*
X0008998095Y0009989999D01*
X0008950475Y0009942380D01*
X0008902856Y0009847143D01*
X0008902856Y0009704285D01*
X0008950475Y0009609048D01*
X0008998095Y0009561429D01*
X0009093333Y0009513810D01*
X0009474284Y0009513810D01*
X0007950475Y0009037620D02*
X0008521904Y0009037620D01*
X0008236189Y0009037620D02*
X0008236189Y0010037620D01*
X0008331428Y0009894762D01*
X0008426665Y0009799524D01*
X0008521904Y0009751904D01*
X0007045714Y0010037620D02*
X0007521904Y0010037620D01*
X0007569523Y0009561429D01*
X0007521904Y0009609048D01*
X0007426665Y0009656666D01*
X0007188570Y0009656666D01*
X0007093333Y0009609048D01*
X0007045714Y0009561429D01*
X0006998095Y0009466190D01*
X0006998095Y0009228095D01*
X0007045714Y0009132857D01*
X0007093333Y0009085239D01*
X0007188570Y0009037620D01*
X0007426665Y0009037620D01*
X0007521904Y0009085239D01*
X0007569523Y0009132857D01*
%TO.C,R11*%
X0040550379Y0027092858D02*
X0040074189Y0027426191D01*
X0040550379Y0027664286D02*
X0039550379Y0027664286D01*
X0039550379Y0027283333D01*
X0039598000Y0027188096D01*
X0039645619Y0027140477D01*
X0039740857Y0027092858D01*
X0039883714Y0027092858D01*
X0039978951Y0027140477D01*
X0040026570Y0027188096D01*
X0040074189Y0027283333D01*
X0040074189Y0027664286D01*
X0040550379Y0026140477D02*
X0040550379Y0026711905D01*
X0040550379Y0026426191D02*
X0039550379Y0026426191D01*
X0039693238Y0026521428D01*
X0039788476Y0026616667D01*
X0039836095Y0026711905D01*
X0040550379Y0025188096D02*
X0040550379Y0025759524D01*
X0040550379Y0025473810D02*
X0039550379Y0025473810D01*
X0039693238Y0025569047D01*
X0039788476Y0025664286D01*
X0039836095Y0025759524D01*
%TO.C,R31*%
X0012312380Y0034392858D02*
X0011836190Y0034726191D01*
X0012312380Y0034964286D02*
X0011312380Y0034964286D01*
X0011312380Y0034583333D01*
X0011360000Y0034488096D01*
X0011407618Y0034440477D01*
X0011502857Y0034392858D01*
X0011645713Y0034392858D01*
X0011740951Y0034440477D01*
X0011788571Y0034488096D01*
X0011836190Y0034583333D01*
X0011836190Y0034964286D01*
X0011312380Y0034059523D02*
X0011312380Y0033440477D01*
X0011693332Y0033773810D01*
X0011693332Y0033630953D01*
X0011740951Y0033535714D01*
X0011788571Y0033488096D01*
X0011883809Y0033440477D01*
X0012121904Y0033440477D01*
X0012217141Y0033488096D01*
X0012264760Y0033535714D01*
X0012312380Y0033630953D01*
X0012312380Y0033916667D01*
X0012264760Y0034011905D01*
X0012217141Y0034059523D01*
X0012312380Y0032488096D02*
X0012312380Y0033059523D01*
X0012312380Y0032773809D02*
X0011312380Y0032773809D01*
X0011455237Y0032869048D01*
X0011550476Y0032964286D01*
X0011598095Y0033059523D01*
%TO.C,Q5*%
X0018237618Y0030465238D02*
X0018189999Y0030560477D01*
X0018094761Y0030655715D01*
X0017951904Y0030798571D01*
X0017904285Y0030893810D01*
X0017904285Y0030989047D01*
X0018142380Y0030941429D02*
X0018094761Y0031036666D01*
X0017999522Y0031131905D01*
X0017809047Y0031179524D01*
X0017475713Y0031179524D01*
X0017285238Y0031131905D01*
X0017189999Y0031036666D01*
X0017142380Y0030941429D01*
X0017142380Y0030750952D01*
X0017189999Y0030655715D01*
X0017285238Y0030560477D01*
X0017475713Y0030512857D01*
X0017809047Y0030512857D01*
X0017999522Y0030560477D01*
X0018094761Y0030655715D01*
X0018142380Y0030750952D01*
X0018142380Y0030941429D01*
X0017142380Y0029608096D02*
X0017142380Y0030084286D01*
X0017618571Y0030131905D01*
X0017570952Y0030084286D01*
X0017523332Y0029989047D01*
X0017523332Y0029750952D01*
X0017570952Y0029655715D01*
X0017618571Y0029608096D01*
X0017713808Y0029560477D01*
X0017951904Y0029560477D01*
X0018047141Y0029608096D01*
X0018094761Y0029655715D01*
X0018142380Y0029750952D01*
X0018142380Y0029989047D01*
X0018094761Y0030084286D01*
X0018047141Y0030131905D01*
%TO.C,C9*%
X0020416666Y0011942858D02*
X0020464285Y0011895239D01*
X0020607141Y0011847620D01*
X0020702380Y0011847620D01*
X0020845237Y0011895239D01*
X0020940476Y0011990476D01*
X0020988095Y0012085714D01*
X0021035714Y0012276190D01*
X0021035714Y0012419048D01*
X0020988095Y0012609523D01*
X0020940476Y0012704762D01*
X0020845237Y0012799999D01*
X0020702380Y0012847620D01*
X0020607141Y0012847620D01*
X0020464285Y0012799999D01*
X0020416666Y0012752381D01*
X0019940476Y0011847620D02*
X0019750000Y0011847620D01*
X0019654760Y0011895239D01*
X0019607141Y0011942858D01*
X0019511904Y0012085714D01*
X0019464285Y0012276190D01*
X0019464285Y0012657143D01*
X0019511904Y0012752381D01*
X0019559523Y0012799999D01*
X0019654760Y0012847620D01*
X0019845237Y0012847620D01*
X0019940476Y0012799999D01*
X0019988095Y0012752381D01*
X0020035714Y0012657143D01*
X0020035714Y0012419048D01*
X0019988095Y0012323809D01*
X0019940476Y0012276190D01*
X0019845237Y0012228572D01*
X0019654760Y0012228572D01*
X0019559523Y0012276190D01*
X0019511904Y0012323809D01*
X0019464285Y0012419048D01*
%TO.C,R16*%
X0013862857Y0012947620D02*
X0014196190Y0013423810D01*
X0014434285Y0012947620D02*
X0014434285Y0013947620D01*
X0014053332Y0013947620D01*
X0013958095Y0013900000D01*
X0013910476Y0013852380D01*
X0013862857Y0013757143D01*
X0013862857Y0013614286D01*
X0013910476Y0013519047D01*
X0013958095Y0013471429D01*
X0014053332Y0013423810D01*
X0014434285Y0013423810D01*
X0012910476Y0012947620D02*
X0013481904Y0012947620D01*
X0013196190Y0012947620D02*
X0013196190Y0013947620D01*
X0013291427Y0013804761D01*
X0013386666Y0013709524D01*
X0013481904Y0013661905D01*
X0012053332Y0013947620D02*
X0012243808Y0013947620D01*
X0012339046Y0013900000D01*
X0012386666Y0013852380D01*
X0012481904Y0013709524D01*
X0012529522Y0013519047D01*
X0012529522Y0013138096D01*
X0012481904Y0013042857D01*
X0012434285Y0012995238D01*
X0012339046Y0012947620D01*
X0012148571Y0012947620D01*
X0012053332Y0012995238D01*
X0012005713Y0013042857D01*
X0011958095Y0013138096D01*
X0011958095Y0013376191D01*
X0012005713Y0013471429D01*
X0012053332Y0013519047D01*
X0012148571Y0013566666D01*
X0012339046Y0013566666D01*
X0012434285Y0013519047D01*
X0012481904Y0013471429D01*
X0012529522Y0013376191D01*
%TO.C,R17*%
X0018882857Y0008957620D02*
X0019216189Y0009433809D01*
X0019454285Y0008957620D02*
X0019454285Y0009957620D01*
X0019073333Y0009957620D01*
X0018978094Y0009909999D01*
X0018930476Y0009862381D01*
X0018882857Y0009767143D01*
X0018882857Y0009624285D01*
X0018930476Y0009529048D01*
X0018978094Y0009481429D01*
X0019073333Y0009433809D01*
X0019454285Y0009433809D01*
X0017930476Y0008957620D02*
X0018501903Y0008957620D01*
X0018216189Y0008957620D02*
X0018216189Y0009957620D01*
X0018311428Y0009814762D01*
X0018406666Y0009719524D01*
X0018501903Y0009671904D01*
X0017597142Y0009957620D02*
X0016930476Y0009957620D01*
X0017359047Y0008957620D01*
%TO.C,R18*%
X0048650260Y0026984611D02*
X0048174070Y0027317943D01*
X0048650260Y0027556039D02*
X0047650260Y0027556039D01*
X0047650260Y0027175087D01*
X0047697880Y0027079848D01*
X0047745498Y0027032230D01*
X0047840736Y0026984611D01*
X0047983594Y0026984611D01*
X0048078832Y0027032230D01*
X0048126451Y0027079848D01*
X0048174070Y0027175087D01*
X0048174070Y0027556039D01*
X0048650260Y0026032230D02*
X0048650260Y0026603657D01*
X0048650260Y0026317943D02*
X0047650260Y0026317943D01*
X0047793117Y0026413182D01*
X0047888355Y0026508420D01*
X0047935975Y0026603657D01*
X0048078832Y0025460801D02*
X0048031213Y0025556039D01*
X0047983594Y0025603657D01*
X0047888355Y0025651276D01*
X0047840736Y0025651276D01*
X0047745498Y0025603657D01*
X0047697880Y0025556039D01*
X0047650260Y0025460801D01*
X0047650260Y0025270325D01*
X0047697880Y0025175087D01*
X0047745498Y0025127467D01*
X0047840736Y0025079848D01*
X0047888355Y0025079848D01*
X0047983594Y0025127467D01*
X0048031213Y0025175087D01*
X0048078832Y0025270325D01*
X0048078832Y0025460801D01*
X0048126451Y0025556039D01*
X0048174070Y0025603657D01*
X0048269307Y0025651276D01*
X0048459784Y0025651276D01*
X0048555022Y0025603657D01*
X0048602641Y0025556039D01*
X0048650260Y0025460801D01*
X0048650260Y0025270325D01*
X0048602641Y0025175087D01*
X0048555022Y0025127467D01*
X0048459784Y0025079848D01*
X0048269307Y0025079848D01*
X0048174070Y0025127467D01*
X0048126451Y0025175087D01*
X0048078832Y0025270325D01*
%TO.C,JP1*%
X0019467332Y0042237620D02*
X0019467332Y0041523334D01*
X0019514951Y0041380477D01*
X0019610190Y0041285239D01*
X0019753046Y0041237620D01*
X0019848285Y0041237620D01*
X0018991141Y0041237620D02*
X0018991141Y0042237620D01*
X0018610190Y0042237620D01*
X0018514951Y0042190000D01*
X0018467332Y0042142381D01*
X0018419714Y0042047143D01*
X0018419714Y0041904286D01*
X0018467332Y0041809048D01*
X0018514951Y0041761429D01*
X0018610190Y0041713809D01*
X0018991141Y0041713809D01*
X0017467332Y0041237620D02*
X0018038760Y0041237620D01*
X0017753046Y0041237620D02*
X0017753046Y0042237620D01*
X0017848285Y0042094762D01*
X0017943523Y0041999523D01*
X0018038760Y0041951905D01*
%TO.C,JP5*%
X0019583332Y0036967620D02*
X0019583332Y0036253333D01*
X0019630951Y0036110477D01*
X0019726190Y0036015238D01*
X0019869046Y0035967620D01*
X0019964285Y0035967620D01*
X0019107141Y0035967620D02*
X0019107141Y0036967620D01*
X0018726190Y0036967620D01*
X0018630951Y0036920000D01*
X0018583332Y0036872381D01*
X0018535714Y0036777142D01*
X0018535714Y0036634286D01*
X0018583332Y0036539047D01*
X0018630951Y0036491429D01*
X0018726190Y0036443810D01*
X0019107141Y0036443810D01*
X0017630951Y0036967620D02*
X0018107141Y0036967620D01*
X0018154760Y0036491429D01*
X0018107141Y0036539047D01*
X0018011904Y0036586667D01*
X0017773809Y0036586667D01*
X0017678571Y0036539047D01*
X0017630951Y0036491429D01*
X0017583332Y0036396191D01*
X0017583332Y0036158096D01*
X0017630951Y0036062858D01*
X0017678571Y0036015238D01*
X0017773809Y0035967620D01*
X0018011904Y0035967620D01*
X0018107141Y0036015238D01*
X0018154760Y0036062858D01*
%TO.C,C15*%
X0011021216Y0045358646D02*
X0011068836Y0045406265D01*
X0011116455Y0045549122D01*
X0011116455Y0045644360D01*
X0011068836Y0045787217D01*
X0010973597Y0045882455D01*
X0010878360Y0045930074D01*
X0010687883Y0045977693D01*
X0010545027Y0045977693D01*
X0010354551Y0045930074D01*
X0010259313Y0045882455D01*
X0010164074Y0045787217D01*
X0010116455Y0045644360D01*
X0010116455Y0045549122D01*
X0010164074Y0045406265D01*
X0010211693Y0045358646D01*
X0011116455Y0044406265D02*
X0011116455Y0044977693D01*
X0011116455Y0044691979D02*
X0010116455Y0044691979D01*
X0010259313Y0044787217D01*
X0010354551Y0044882454D01*
X0010402169Y0044977693D01*
X0010116455Y0043501503D02*
X0010116455Y0043977693D01*
X0010592646Y0044025312D01*
X0010545027Y0043977693D01*
X0010497407Y0043882454D01*
X0010497407Y0043644360D01*
X0010545027Y0043549122D01*
X0010592646Y0043501503D01*
X0010687883Y0043453884D01*
X0010925978Y0043453884D01*
X0011021216Y0043501503D01*
X0011068836Y0043549122D01*
X0011116455Y0043644360D01*
X0011116455Y0043882454D01*
X0011068836Y0043977693D01*
X0011021216Y0044025312D01*
%TO.C,R19*%
X0044742987Y0030212560D02*
X0044266797Y0030545894D01*
X0044742987Y0030783989D02*
X0043742987Y0030783989D01*
X0043742987Y0030403036D01*
X0043790606Y0030307799D01*
X0043838225Y0030260180D01*
X0043933463Y0030212560D01*
X0044076321Y0030212560D01*
X0044171559Y0030260180D01*
X0044219178Y0030307799D01*
X0044266797Y0030403036D01*
X0044266797Y0030783989D01*
X0044742987Y0029260180D02*
X0044742987Y0029831608D01*
X0044742987Y0029545894D02*
X0043742987Y0029545894D01*
X0043885844Y0029641132D01*
X0043981083Y0029736369D01*
X0044028702Y0029831608D01*
X0044742987Y0028783989D02*
X0044742987Y0028593513D01*
X0044695368Y0028498275D01*
X0044647749Y0028450655D01*
X0044504892Y0028355418D01*
X0044314415Y0028307799D01*
X0043933463Y0028307799D01*
X0043838225Y0028355418D01*
X0043790606Y0028403036D01*
X0043742987Y0028498275D01*
X0043742987Y0028688750D01*
X0043790606Y0028783989D01*
X0043838225Y0028831608D01*
X0043933463Y0028879227D01*
X0044171559Y0028879227D01*
X0044266797Y0028831608D01*
X0044314415Y0028783989D01*
X0044362034Y0028688750D01*
X0044362034Y0028498275D01*
X0044314415Y0028403036D01*
X0044266797Y0028355418D01*
X0044171559Y0028307799D01*
%TO.C,JP6*%
X0030516333Y0021787220D02*
X0030516333Y0021072934D01*
X0030563952Y0020930076D01*
X0030659189Y0020834839D01*
X0030802046Y0020787220D01*
X0030897285Y0020787220D01*
X0030040142Y0020787220D02*
X0030040142Y0021787220D01*
X0029659189Y0021787220D01*
X0029563952Y0021739599D01*
X0029516333Y0021691981D01*
X0029468714Y0021596743D01*
X0029468714Y0021453885D01*
X0029516333Y0021358648D01*
X0029563952Y0021311029D01*
X0029659189Y0021263409D01*
X0030040142Y0021263409D01*
X0028611570Y0021787220D02*
X0028802046Y0021787220D01*
X0028897285Y0021739599D01*
X0028944904Y0021691981D01*
X0029040142Y0021549124D01*
X0029087761Y0021358648D01*
X0029087761Y0020977695D01*
X0029040142Y0020882458D01*
X0028992523Y0020834839D01*
X0028897285Y0020787220D01*
X0028706808Y0020787220D01*
X0028611570Y0020834839D01*
X0028563952Y0020882458D01*
X0028516333Y0020977695D01*
X0028516333Y0021215790D01*
X0028563952Y0021311029D01*
X0028611570Y0021358648D01*
X0028706808Y0021406267D01*
X0028897285Y0021406267D01*
X0028992523Y0021358648D01*
X0029040142Y0021311029D01*
X0029087761Y0021215790D01*
%TO.C,R32*%
X0010422380Y0034412858D02*
X0009946190Y0034746190D01*
X0010422380Y0034984286D02*
X0009422380Y0034984286D01*
X0009422380Y0034603334D01*
X0009469999Y0034508095D01*
X0009517618Y0034460477D01*
X0009612857Y0034412858D01*
X0009755713Y0034412858D01*
X0009850952Y0034460477D01*
X0009898571Y0034508095D01*
X0009946190Y0034603334D01*
X0009946190Y0034984286D01*
X0009422380Y0034079524D02*
X0009422380Y0033460476D01*
X0009803332Y0033793809D01*
X0009803332Y0033650953D01*
X0009850952Y0033555715D01*
X0009898571Y0033508095D01*
X0009993808Y0033460476D01*
X0010231904Y0033460476D01*
X0010327141Y0033508095D01*
X0010374761Y0033555715D01*
X0010422380Y0033650953D01*
X0010422380Y0033936667D01*
X0010374761Y0034031904D01*
X0010327141Y0034079524D01*
X0009517618Y0033079524D02*
X0009469999Y0033031904D01*
X0009422380Y0032936667D01*
X0009422380Y0032698572D01*
X0009469999Y0032603334D01*
X0009517618Y0032555715D01*
X0009612857Y0032508095D01*
X0009708095Y0032508095D01*
X0009850952Y0032555715D01*
X0010422380Y0033127143D01*
X0010422380Y0032508095D01*
%TO.C,U7*%
X0019742379Y0015741905D02*
X0020551903Y0015741905D01*
X0020647142Y0015694286D01*
X0020694761Y0015646666D01*
X0020742379Y0015551428D01*
X0020742379Y0015360952D01*
X0020694761Y0015265715D01*
X0020647142Y0015218096D01*
X0020551903Y0015170477D01*
X0019742379Y0015170477D01*
X0019742379Y0014789524D02*
X0019742379Y0014122857D01*
X0020742379Y0014551428D01*
%TO.C,R30*%
X0019784857Y0046063620D02*
X0020118190Y0046539810D01*
X0020356285Y0046063620D02*
X0020356285Y0047063620D01*
X0019975333Y0047063620D01*
X0019880094Y0047016000D01*
X0019832476Y0046968381D01*
X0019784857Y0046873143D01*
X0019784857Y0046730286D01*
X0019832476Y0046635048D01*
X0019880094Y0046587429D01*
X0019975333Y0046539810D01*
X0020356285Y0046539810D01*
X0019451522Y0047063620D02*
X0018832476Y0047063620D01*
X0019165808Y0046682667D01*
X0019022952Y0046682667D01*
X0018927713Y0046635048D01*
X0018880094Y0046587429D01*
X0018832476Y0046492191D01*
X0018832476Y0046254096D01*
X0018880094Y0046158858D01*
X0018927713Y0046111239D01*
X0019022952Y0046063620D01*
X0019308666Y0046063620D01*
X0019403903Y0046111239D01*
X0019451522Y0046158858D01*
X0018213427Y0047063620D02*
X0018118190Y0047063620D01*
X0018022952Y0047016000D01*
X0017975333Y0046968381D01*
X0017927713Y0046873143D01*
X0017880094Y0046682667D01*
X0017880094Y0046444572D01*
X0017927713Y0046254096D01*
X0017975333Y0046158858D01*
X0018022952Y0046111239D01*
X0018118190Y0046063620D01*
X0018213427Y0046063620D01*
X0018308666Y0046111239D01*
X0018356285Y0046158858D01*
X0018403903Y0046254096D01*
X0018451522Y0046444572D01*
X0018451522Y0046682667D01*
X0018403903Y0046873143D01*
X0018356285Y0046968381D01*
X0018308666Y0047016000D01*
X0018213427Y0047063620D01*
%TO.C,R26*%
X0028882380Y0015652857D02*
X0028406190Y0015986191D01*
X0028882380Y0016224286D02*
X0027882380Y0016224286D01*
X0027882380Y0015843333D01*
X0027930000Y0015748096D01*
X0027977619Y0015700477D01*
X0028072857Y0015652857D01*
X0028215713Y0015652857D01*
X0028310951Y0015700477D01*
X0028358571Y0015748096D01*
X0028406190Y0015843333D01*
X0028406190Y0016224286D01*
X0027977619Y0015271905D02*
X0027930000Y0015224286D01*
X0027882380Y0015129047D01*
X0027882380Y0014890952D01*
X0027930000Y0014795715D01*
X0027977619Y0014748096D01*
X0028072857Y0014700477D01*
X0028168094Y0014700477D01*
X0028310951Y0014748096D01*
X0028882380Y0015319524D01*
X0028882380Y0014700477D01*
X0027882380Y0013843333D02*
X0027882380Y0014033810D01*
X0027930000Y0014129047D01*
X0027977619Y0014176666D01*
X0028120475Y0014271905D01*
X0028310951Y0014319524D01*
X0028691903Y0014319524D01*
X0028787141Y0014271905D01*
X0028834760Y0014224286D01*
X0028882380Y0014129047D01*
X0028882380Y0013938571D01*
X0028834760Y0013843333D01*
X0028787141Y0013795715D01*
X0028691903Y0013748096D01*
X0028453809Y0013748096D01*
X0028358571Y0013795715D01*
X0028310951Y0013843333D01*
X0028263332Y0013938571D01*
X0028263332Y0014129047D01*
X0028310951Y0014224286D01*
X0028358571Y0014271905D01*
X0028453809Y0014319524D01*
%TO.C,R29*%
X0019784857Y0043777620D02*
X0020118190Y0044253810D01*
X0020356285Y0043777620D02*
X0020356285Y0044777620D01*
X0019975333Y0044777620D01*
X0019880094Y0044730000D01*
X0019832476Y0044682381D01*
X0019784857Y0044587143D01*
X0019784857Y0044444286D01*
X0019832476Y0044349047D01*
X0019880094Y0044301429D01*
X0019975333Y0044253810D01*
X0020356285Y0044253810D01*
X0019403903Y0044682381D02*
X0019356285Y0044730000D01*
X0019261047Y0044777620D01*
X0019022952Y0044777620D01*
X0018927713Y0044730000D01*
X0018880094Y0044682381D01*
X0018832476Y0044587143D01*
X0018832476Y0044491905D01*
X0018880094Y0044349047D01*
X0019451522Y0043777620D01*
X0018832476Y0043777620D01*
X0018356285Y0043777620D02*
X0018165808Y0043777620D01*
X0018070571Y0043825239D01*
X0018022952Y0043872857D01*
X0017927713Y0044015715D01*
X0017880094Y0044206191D01*
X0017880094Y0044587143D01*
X0017927713Y0044682381D01*
X0017975333Y0044730000D01*
X0018070571Y0044777620D01*
X0018261047Y0044777620D01*
X0018356285Y0044730000D01*
X0018403903Y0044682381D01*
X0018451522Y0044587143D01*
X0018451522Y0044349047D01*
X0018403903Y0044253810D01*
X0018356285Y0044206191D01*
X0018261047Y0044158572D01*
X0018070571Y0044158572D01*
X0017975333Y0044206191D01*
X0017927713Y0044253810D01*
X0017880094Y0044349047D01*
%TO.C,C13*%
X0022732856Y0023322857D02*
X0022780475Y0023275239D01*
X0022923333Y0023227620D01*
X0023018570Y0023227620D01*
X0023161428Y0023275239D01*
X0023256665Y0023370476D01*
X0023304284Y0023465715D01*
X0023351904Y0023656191D01*
X0023351904Y0023799048D01*
X0023304284Y0023989524D01*
X0023256665Y0024084761D01*
X0023161428Y0024180000D01*
X0023018570Y0024227620D01*
X0022923333Y0024227620D01*
X0022780475Y0024180000D01*
X0022732856Y0024132380D01*
X0021780475Y0023227620D02*
X0022351904Y0023227620D01*
X0022066190Y0023227620D02*
X0022066190Y0024227620D01*
X0022161428Y0024084761D01*
X0022256665Y0023989524D01*
X0022351904Y0023941905D01*
X0021447142Y0024227620D02*
X0020828095Y0024227620D01*
X0021161428Y0023846666D01*
X0021018570Y0023846666D01*
X0020923333Y0023799048D01*
X0020875714Y0023751429D01*
X0020828095Y0023656191D01*
X0020828095Y0023418096D01*
X0020875714Y0023322857D01*
X0020923333Y0023275239D01*
X0021018570Y0023227620D01*
X0021304284Y0023227620D01*
X0021399523Y0023275239D01*
X0021447142Y0023322857D01*
%TO.C,R10*%
X0015582857Y0034537620D02*
X0015916190Y0035013810D01*
X0016154285Y0034537620D02*
X0016154285Y0035537620D01*
X0015773332Y0035537620D01*
X0015678094Y0035489999D01*
X0015630476Y0035442381D01*
X0015582857Y0035347143D01*
X0015582857Y0035204285D01*
X0015630476Y0035109048D01*
X0015678094Y0035061429D01*
X0015773332Y0035013810D01*
X0016154285Y0035013810D01*
X0014630476Y0034537620D02*
X0015201903Y0034537620D01*
X0014916190Y0034537620D02*
X0014916190Y0035537620D01*
X0015011427Y0035394762D01*
X0015106666Y0035299524D01*
X0015201903Y0035251904D01*
X0014011427Y0035537620D02*
X0013916190Y0035537620D01*
X0013820952Y0035489999D01*
X0013773332Y0035442381D01*
X0013725713Y0035347143D01*
X0013678094Y0035156667D01*
X0013678094Y0034918572D01*
X0013725713Y0034728095D01*
X0013773332Y0034632858D01*
X0013820952Y0034585239D01*
X0013916190Y0034537620D01*
X0014011427Y0034537620D01*
X0014106666Y0034585239D01*
X0014154285Y0034632858D01*
X0014201903Y0034728095D01*
X0014249522Y0034918572D01*
X0014249522Y0035156667D01*
X0014201903Y0035347143D01*
X0014154285Y0035442381D01*
X0014106666Y0035489999D01*
X0014011427Y0035537620D01*
%TO.C,R22*%
X0017202380Y0027267858D02*
X0016726190Y0027601191D01*
X0017202380Y0027839286D02*
X0016202380Y0027839286D01*
X0016202380Y0027458333D01*
X0016250000Y0027363096D01*
X0016297618Y0027315477D01*
X0016392857Y0027267858D01*
X0016535713Y0027267858D01*
X0016630951Y0027315477D01*
X0016678571Y0027363096D01*
X0016726190Y0027458333D01*
X0016726190Y0027839286D01*
X0016297618Y0026886905D02*
X0016250000Y0026839286D01*
X0016202380Y0026744048D01*
X0016202380Y0026505953D01*
X0016250000Y0026410714D01*
X0016297618Y0026363096D01*
X0016392857Y0026315477D01*
X0016488095Y0026315477D01*
X0016630951Y0026363096D01*
X0017202380Y0026934523D01*
X0017202380Y0026315477D01*
X0016297618Y0025934523D02*
X0016250000Y0025886905D01*
X0016202380Y0025791667D01*
X0016202380Y0025553572D01*
X0016250000Y0025458333D01*
X0016297618Y0025410714D01*
X0016392857Y0025363096D01*
X0016488095Y0025363096D01*
X0016630951Y0025410714D01*
X0017202380Y0025982142D01*
X0017202380Y0025363096D01*
D15*
%TO.C,Q6*%
X0012049999Y0025040000D02*
X0011400000Y0025040000D01*
X0012049999Y0028159999D02*
X0011400000Y0028159999D01*
X0012049999Y0025040000D02*
X0012700000Y0025040000D01*
X0012049999Y0028159999D02*
X0013724999Y0028159999D01*
%TO.C,JP3*%
X0013590000Y0039920000D02*
X0012989999Y0039920000D01*
X0012290000Y0039220000D02*
X0012290000Y0037819999D01*
X0012989999Y0037120000D02*
X0013590000Y0037120000D01*
X0014290000Y0037819999D02*
X0014290000Y0039220000D01*
X0013590000Y0037120000D02*
G75*
G03*
X0014290000Y0037819999J0000700000D01*
G01*
X0012290000Y0037819999D02*
G75*
G03*
X0012989999Y0037120000I0000700000D01*
G01*
X0012989999Y0039920000D02*
G75*
G03*
X0012290000Y0039220000I-0000000001J-0000699999D01*
G01*
X0014290000Y0039220000D02*
G75*
G03*
X0013590000Y0039920000I-0000699999J0000000001D01*
G01*
%TO.C,JP4*%
X0015719999Y0037129999D02*
X0016319999Y0037129999D01*
X0017019999Y0037830000D02*
X0017019999Y0039230000D01*
X0015019999Y0039230000D02*
X0015019999Y0037830000D01*
X0016319999Y0039930000D02*
X0015719999Y0039930000D01*
X0016319999Y0037129999D02*
G75*
G03*
X0017019999Y0037830000J0000700000D01*
G01*
X0015719999Y0039930000D02*
G75*
G03*
X0015019999Y0039230000I-0000000001J-0000699999D01*
G01*
X0017019999Y0039230000D02*
G75*
G03*
X0016319999Y0039930000I-0000699999J0000000001D01*
G01*
X0015019999Y0037830000D02*
G75*
G03*
X0015719999Y0037129999I0000700000D01*
G01*
%TO.C,C11*%
X0026394999Y0018248748D02*
X0026394999Y0018771252D01*
X0024924999Y0018248748D02*
X0024924999Y0018771252D01*
%TO.C,JP2*%
X0039840000Y0029260000D02*
X0042639999Y0029260000D01*
X0039190000Y0030560000D02*
X0039190000Y0029959999D01*
X0039740000Y0031760000D02*
X0040340000Y0031760000D01*
X0042639999Y0031260000D02*
X0039840000Y0031260000D01*
X0040039999Y0031459999D02*
X0039740000Y0031760000D01*
X0040039999Y0031459999D02*
X0040340000Y0031760000D01*
X0043289999Y0029959999D02*
X0043289999Y0030560000D01*
X0039889999Y0031260000D02*
G75*
G03*
X0039190000Y0030560000I-0000000001J-0000699999D01*
G01*
X0039190000Y0029959999D02*
G75*
G03*
X0039889999Y0029260000I0000699999J-0000000001D01*
G01*
X0043289999Y0030560000D02*
G75*
G03*
X0042590000Y0031260000I-0000700000D01*
G01*
X0042590000Y0029260000D02*
G75*
G03*
X0043289999Y0029959999J0000700000D01*
G01*
%TO.C,R15*%
X0011262935Y0008735000D02*
X0011717063Y0008735000D01*
X0011262935Y0010204999D02*
X0011717063Y0010204999D01*
%TO.C,R11*%
X0041013000Y0026677064D02*
X0041013000Y0026222936D01*
X0042483000Y0026677064D02*
X0042483000Y0026222936D01*
%TO.C,R31*%
X0012659999Y0030097936D02*
X0012659999Y0030552064D01*
X0011189999Y0030097936D02*
X0011189999Y0030552064D01*
%TO.C,Q5*%
X0016530000Y0030379999D02*
X0016530000Y0031030000D01*
X0016530000Y0030379999D02*
X0016530000Y0029730000D01*
X0013409999Y0030379999D02*
X0013409999Y0032055000D01*
X0013409999Y0030379999D02*
X0013409999Y0029730000D01*
%TO.C,C9*%
X0022738748Y0011545000D02*
X0023261252Y0011545000D01*
X0022738748Y0013015000D02*
X0023261252Y0013015000D01*
%TO.C,R16*%
X0013042935Y0010885000D02*
X0013497063Y0010885000D01*
X0013042935Y0012355000D02*
X0013497063Y0012355000D01*
%TO.C,R17*%
X0014722936Y0010155000D02*
X0015177064Y0010155000D01*
X0014722936Y0008685000D02*
X0015177064Y0008685000D01*
%TO.C,R18*%
X0045839000Y0026677064D02*
X0045839000Y0026222936D01*
X0047309000Y0026677064D02*
X0047309000Y0026222936D01*
%TO.C,JP1*%
X0017239999Y0041390000D02*
X0017239999Y0041989999D01*
X0015140000Y0040690000D02*
X0016540000Y0040690000D01*
X0016540000Y0042690000D02*
X0015140000Y0042690000D01*
X0014439999Y0041989999D02*
X0014439999Y0041390000D01*
X0016540000Y0040690000D02*
G75*
G03*
X0017239999Y0041390000I0000000001J0000699999D01*
G01*
X0015140000Y0042690000D02*
G75*
G03*
X0014439999Y0041989999J-0000700000D01*
G01*
X0014439999Y0041390000D02*
G75*
G03*
X0015140000Y0040690000I0000700000D01*
G01*
X0017239999Y0041989999D02*
G75*
G03*
X0016540000Y0042690000I-0000699999J0000000001D01*
G01*
%TO.C,JP5*%
X0019720000Y0037860000D02*
X0019720000Y0039260000D01*
X0017720000Y0039260000D02*
X0017720000Y0037860000D01*
X0019019999Y0039959999D02*
X0018420000Y0039959999D01*
X0018420000Y0037160000D02*
X0019019999Y0037160000D01*
X0018420000Y0039959999D02*
G75*
G03*
X0017720000Y0039260000I-0000000001J-0000699999D01*
G01*
X0019720000Y0039260000D02*
G75*
G03*
X0019019999Y0039959999I-0000699999J0000000001D01*
G01*
X0019019999Y0037160000D02*
G75*
G03*
X0019720000Y0037860000J0000700000D01*
G01*
X0017720000Y0037860000D02*
G75*
G03*
X0018420000Y0037160000I0000700000D01*
G01*
%TO.C,C15*%
X0011609075Y0044977040D02*
X0011609075Y0044454536D01*
X0013079075Y0044977040D02*
X0013079075Y0044454536D01*
%TO.C,R19*%
X0043553000Y0026677064D02*
X0043553000Y0026222936D01*
X0045022999Y0026677064D02*
X0045022999Y0026222936D01*
%TO.C,JP6*%
X0028282999Y0019739599D02*
X0028282999Y0019139600D01*
X0031083000Y0019139600D02*
X0031083000Y0019739599D01*
X0028983000Y0018439600D02*
X0030383000Y0018439600D01*
X0030383000Y0020439600D02*
X0028983000Y0020439600D01*
X0028983000Y0020439600D02*
G75*
G03*
X0028282999Y0019739599J-0000700000D01*
G01*
X0031083000Y0019739599D02*
G75*
G03*
X0030383000Y0020439600I-0000699999J0000000001D01*
G01*
X0030383000Y0018439600D02*
G75*
G03*
X0031083000Y0019139600I0000000001J0000699999D01*
G01*
X0028282999Y0019139600D02*
G75*
G03*
X0028983000Y0018439600I0000700000D01*
G01*
%TO.C,R32*%
X0009215000Y0030122935D02*
X0009215000Y0030577063D01*
X0010685000Y0030122935D02*
X0010685000Y0030577063D01*
%TO.C,U7*%
X0023209999Y0016510000D02*
X0022409999Y0016510000D01*
X0023209999Y0013390000D02*
X0024010000Y0013390000D01*
X0023209999Y0013390000D02*
X0022409999Y0013390000D01*
X0023209999Y0016510000D02*
X0025010000Y0016510000D01*
%TO.C,R30*%
X0015612936Y0045781000D02*
X0016067064Y0045781000D01*
X0015612936Y0047251000D02*
X0016067064Y0047251000D01*
%TO.C,R26*%
X0025935000Y0015207064D02*
X0025935000Y0014752936D01*
X0027405000Y0015207064D02*
X0027405000Y0014752936D01*
%TO.C,R29*%
X0016067064Y0044965000D02*
X0015612936Y0044965000D01*
X0016067064Y0043495000D02*
X0015612936Y0043495000D01*
%TO.C,C13*%
X0020349999Y0018558747D02*
X0020349999Y0020881252D01*
X0023769999Y0018558747D02*
X0023769999Y0020881252D01*
%TO.C,R10*%
X0015167063Y0032605000D02*
X0014712936Y0032605000D01*
X0015167063Y0034075000D02*
X0014712936Y0034075000D01*
%TO.C,R22*%
X0015834999Y0026397936D02*
X0015834999Y0026852064D01*
X0014364999Y0026397936D02*
X0014364999Y0026852064D01*
%TD*%
M02*