G04 #@! TF.GenerationSoftware,KiCad,Pcbnew,(6.0.9)*
G04 #@! TF.CreationDate,2023-01-12T22:26:47+07:00*
G04 #@! TF.ProjectId,ESP12CORE_B_panel,45535031-3243-44f5-9245-5f425f70616e,rev?*
G04 #@! TF.SameCoordinates,Original*
G04 #@! TF.FileFunction,Soldermask,Bot*
G04 #@! TF.FilePolarity,Negative*
%FSLAX46Y46*%
G04 Gerber Fmt 4.6, Leading zero omitted, Abs format (unit mm)*
G04 Created by KiCad (PCBNEW (6.0.9)) date 2023-01-12 22:26:47*
%MOMM*%
%LPD*%
G01*
G04 APERTURE LIST*
G04 Aperture macros list*
%AMRoundRect*
0 Rectangle with rounded corners*
0 $1 Rounding radius*
0 $2 $3 $4 $5 $6 $7 $8 $9 X,Y pos of 4 corners*
0 Add a 4 corners polygon primitive as box body*
4,1,4,$2,$3,$4,$5,$6,$7,$8,$9,$2,$3,0*
0 Add four circle primitives for the rounded corners*
1,1,$1+$1,$2,$3*
1,1,$1+$1,$4,$5*
1,1,$1+$1,$6,$7*
1,1,$1+$1,$8,$9*
0 Add four rect primitives between the rounded corners*
20,1,$1+$1,$2,$3,$4,$5,0*
20,1,$1+$1,$4,$5,$6,$7,0*
20,1,$1+$1,$6,$7,$8,$9,0*
20,1,$1+$1,$8,$9,$2,$3,0*%
%AMFreePoly0*
4,1,37,0.535355,0.785355,0.550000,0.750000,0.550000,-0.750000,0.535355,-0.785355,0.500000,-0.800000,0.000000,-0.800000,-0.012524,-0.794812,-0.080857,-0.793560,-0.094851,-0.791293,-0.230166,-0.749018,-0.242962,-0.742915,-0.360972,-0.664360,-0.371540,-0.654911,-0.462760,-0.546392,-0.470252,-0.534356,-0.527347,-0.404597,-0.531159,-0.390943,-0.548742,-0.256483,-0.547388,-0.256306,-0.550000,-0.250000,
-0.550000,0.250000,-0.549522,0.251153,-0.549368,0.263802,-0.527557,0.403879,-0.523412,0.417435,-0.463164,0.545760,-0.455381,0.557609,-0.361537,0.663867,-0.350741,0.673055,-0.230846,0.748703,-0.217905,0.754492,-0.081598,0.793449,-0.067552,0.795373,-0.011991,0.795033,0.000000,0.800000,0.500000,0.800000,0.535355,0.785355,0.535355,0.785355,$1*%
%AMFreePoly1*
4,1,37,0.012350,0.794884,0.074210,0.794507,0.088231,0.792412,0.224052,0.751793,0.236921,0.745846,0.355883,0.668739,0.366566,0.659420,0.459104,0.552023,0.466742,0.540080,0.525419,0.411028,0.529398,0.397421,0.549495,0.257088,0.550000,0.250000,0.550000,-0.250000,0.549996,-0.250610,0.549847,-0.262826,0.549158,-0.270511,0.525638,-0.410312,0.521328,-0.423818,0.459516,-0.551397,
0.451589,-0.563150,0.356454,-0.668254,0.345546,-0.677309,0.224736,-0.751486,0.211726,-0.757116,0.074953,-0.794405,0.060885,-0.796158,0.011462,-0.795252,0.000000,-0.800000,-0.500000,-0.800000,-0.535355,-0.785355,-0.550000,-0.750000,-0.550000,0.750000,-0.535355,0.785355,-0.500000,0.800000,0.000000,0.800000,0.012350,0.794884,0.012350,0.794884,$1*%
%AMFreePoly2*
4,1,37,0.585355,0.785355,0.600000,0.750000,0.600000,-0.750000,0.585355,-0.785355,0.550000,-0.800000,0.000000,-0.800000,-0.012524,-0.794812,-0.080857,-0.793560,-0.094851,-0.791293,-0.230166,-0.749018,-0.242962,-0.742915,-0.360972,-0.664360,-0.371540,-0.654911,-0.462760,-0.546392,-0.470252,-0.534356,-0.527347,-0.404597,-0.531159,-0.390943,-0.548742,-0.256483,-0.547388,-0.256306,-0.550000,-0.250000,
-0.550000,0.250000,-0.549522,0.251153,-0.549368,0.263802,-0.527557,0.403879,-0.523412,0.417435,-0.463164,0.545760,-0.455381,0.557609,-0.361537,0.663867,-0.350741,0.673055,-0.230846,0.748703,-0.217905,0.754492,-0.081598,0.793449,-0.067552,0.795373,-0.011991,0.795033,0.000000,0.800000,0.550000,0.800000,0.585355,0.785355,0.585355,0.785355,$1*%
%AMFreePoly3*
4,1,37,0.012350,0.794884,0.074210,0.794507,0.088231,0.792412,0.224052,0.751793,0.236921,0.745846,0.355883,0.668739,0.366566,0.659420,0.459104,0.552023,0.466742,0.540080,0.525419,0.411028,0.529398,0.397421,0.549495,0.257088,0.550000,0.250000,0.550000,-0.250000,0.549996,-0.250610,0.549847,-0.262826,0.549158,-0.270511,0.525638,-0.410312,0.521328,-0.423818,0.459516,-0.551397,
0.451589,-0.563150,0.356454,-0.668254,0.345546,-0.677309,0.224736,-0.751486,0.211726,-0.757116,0.074953,-0.794405,0.060885,-0.796158,0.011462,-0.795252,0.000000,-0.800000,-0.550000,-0.800000,-0.585355,-0.785355,-0.600000,-0.750000,-0.600000,0.750000,-0.585355,0.785355,-0.550000,0.800000,0.000000,0.800000,0.012350,0.794884,0.012350,0.794884,$1*%
G04 Aperture macros list end*
%ADD10C,0.600000*%
%ADD11RoundRect,0.300000X0.600000X0.600000X-0.600000X0.600000X-0.600000X-0.600000X0.600000X-0.600000X0*%
%ADD12C,1.800000*%
%ADD13RoundRect,0.050000X-0.850000X0.850000X-0.850000X-0.850000X0.850000X-0.850000X0.850000X0.850000X0*%
%ADD14O,1.800000X1.800000*%
%ADD15C,0.900000*%
%ADD16C,6.500000*%
%ADD17RoundRect,0.300000X-0.600000X-0.600000X0.600000X-0.600000X0.600000X0.600000X-0.600000X0.600000X0*%
%ADD18RoundRect,0.050000X0.850000X0.850000X-0.850000X0.850000X-0.850000X-0.850000X0.850000X-0.850000X0*%
%ADD19O,0.900000X0.900000*%
%ADD20O,1.250000X1.900000*%
%ADD21O,1.550000X2.100000*%
%ADD22RoundRect,0.050000X-1.500000X-1.500000X1.500000X-1.500000X1.500000X1.500000X-1.500000X1.500000X0*%
%ADD23C,3.100000*%
%ADD24RoundRect,0.300000X0.262500X0.450000X-0.262500X0.450000X-0.262500X-0.450000X0.262500X-0.450000X0*%
%ADD25RoundRect,0.300000X-0.450000X0.262500X-0.450000X-0.262500X0.450000X-0.262500X0.450000X0.262500X0*%
%ADD26RoundRect,0.300000X0.450000X-0.262500X0.450000X0.262500X-0.450000X0.262500X-0.450000X-0.262500X0*%
%ADD27FreePoly0,180.000000*%
%ADD28FreePoly1,180.000000*%
%ADD29RoundRect,0.300000X-0.262500X-0.450000X0.262500X-0.450000X0.262500X0.450000X-0.262500X0.450000X0*%
%ADD30FreePoly0,270.000000*%
%ADD31FreePoly1,270.000000*%
%ADD32RoundRect,0.200000X0.587500X0.150000X-0.587500X0.150000X-0.587500X-0.150000X0.587500X-0.150000X0*%
%ADD33RoundRect,0.300000X0.475000X-0.250000X0.475000X0.250000X-0.475000X0.250000X-0.475000X-0.250000X0*%
%ADD34RoundRect,0.200000X0.512500X0.150000X-0.512500X0.150000X-0.512500X-0.150000X0.512500X-0.150000X0*%
%ADD35RoundRect,0.299999X1.450001X-0.450001X1.450001X0.450001X-1.450001X0.450001X-1.450001X-0.450001X0*%
%ADD36FreePoly2,0.000000*%
%ADD37RoundRect,0.050000X-0.500000X-0.750000X0.500000X-0.750000X0.500000X0.750000X-0.500000X0.750000X0*%
%ADD38FreePoly3,0.000000*%
%ADD39RoundRect,0.300000X-0.475000X0.250000X-0.475000X-0.250000X0.475000X-0.250000X0.475000X0.250000X0*%
%ADD40RoundRect,0.300000X-0.250000X-0.475000X0.250000X-0.475000X0.250000X0.475000X-0.250000X0.475000X0*%
%ADD41RoundRect,0.200000X-0.150000X0.587500X-0.150000X-0.587500X0.150000X-0.587500X0.150000X0.587500X0*%
G04 APERTURE END LIST*
D10*
X150250000Y-148250000D03*
X150250000Y-149750000D03*
X151750000Y-149750000D03*
X151750000Y-148250000D03*
X150250000Y-149000000D03*
X151750000Y-149000000D03*
D11*
X145843909Y-95758668D03*
D12*
X143303909Y-95758668D03*
X145843909Y-93218668D03*
X143303909Y-93218668D03*
X145843909Y-90678668D03*
X143303909Y-90678668D03*
X145843909Y-88138668D03*
X143303909Y-88138668D03*
X145843909Y-85598668D03*
X143303909Y-85598668D03*
D13*
X180480000Y-99133737D03*
D14*
X177940000Y-99133737D03*
X175400000Y-99133737D03*
X172860000Y-99133737D03*
D15*
X110200827Y-62587897D03*
X144352944Y-103302944D03*
X146050000Y-102600000D03*
D16*
X146050000Y-105000000D03*
D15*
X147747056Y-103302944D03*
X146050000Y-107400000D03*
X144352944Y-106697056D03*
X147747056Y-106697056D03*
X143650000Y-105000000D03*
X148450000Y-105000000D03*
X105000000Y-117150000D03*
X106697056Y-116447056D03*
X102600000Y-114750000D03*
X105000000Y-112350000D03*
X103302944Y-113052944D03*
D16*
X105000000Y-114750000D03*
D15*
X106697056Y-113052944D03*
X103302944Y-116447056D03*
X107400000Y-114750000D03*
D17*
X156204868Y-123917125D03*
D12*
X158744868Y-123917125D03*
X156204868Y-126457125D03*
X158744868Y-126457125D03*
X156204868Y-128997125D03*
X158744868Y-128997125D03*
X156204868Y-131537125D03*
X158744868Y-131537125D03*
X156204868Y-134077125D03*
X158744868Y-134077125D03*
X156204868Y-136617125D03*
X158744868Y-136617125D03*
X156204868Y-139157125D03*
X158744868Y-139157125D03*
X156204868Y-141697125D03*
X158744868Y-141697125D03*
X156204868Y-144237125D03*
X158744868Y-144237125D03*
X156204868Y-146777125D03*
X158744868Y-146777125D03*
D18*
X143606599Y-74422000D03*
D14*
X143606599Y-71882000D03*
X143606599Y-69342000D03*
D18*
X147500856Y-127995980D03*
D14*
X147500856Y-125455980D03*
X147500856Y-122915980D03*
X147500856Y-120375980D03*
D10*
X141750000Y-109250000D03*
X141750000Y-110750000D03*
X140250000Y-109250000D03*
X140250000Y-110750000D03*
X141000000Y-110750000D03*
X141000000Y-109250000D03*
D15*
X153600000Y-156000000D03*
X156000000Y-158400000D03*
D16*
X156000000Y-156000000D03*
D15*
X157697056Y-154302944D03*
X157697056Y-157697056D03*
X158400000Y-156000000D03*
X156000000Y-153600000D03*
X154302944Y-154302944D03*
X154302944Y-157697056D03*
D17*
X105204868Y-72917125D03*
D12*
X107744868Y-72917125D03*
X105204868Y-75457125D03*
X107744868Y-75457125D03*
X105204868Y-77997125D03*
X107744868Y-77997125D03*
X105204868Y-80537125D03*
X107744868Y-80537125D03*
X105204868Y-83077125D03*
X107744868Y-83077125D03*
X105204868Y-85617125D03*
X107744868Y-85617125D03*
X105204868Y-88157125D03*
X107744868Y-88157125D03*
X105204868Y-90697125D03*
X107744868Y-90697125D03*
X105204868Y-93237125D03*
X107744868Y-93237125D03*
X105204868Y-95777125D03*
X107744868Y-95777125D03*
D15*
X144352944Y-62052944D03*
X144352944Y-65447056D03*
X147747056Y-65447056D03*
X146050000Y-61350000D03*
X147747056Y-62052944D03*
X143650000Y-63750000D03*
X146050000Y-66150000D03*
D16*
X146050000Y-63750000D03*
D15*
X148450000Y-63750000D03*
D18*
X194606599Y-125422000D03*
D14*
X194606599Y-122882000D03*
X194606599Y-120342000D03*
D15*
X197050000Y-66150000D03*
X199450000Y-63750000D03*
X194650000Y-63750000D03*
X198747056Y-62052944D03*
X195352944Y-65447056D03*
X197050000Y-61350000D03*
X195352944Y-62052944D03*
D16*
X197050000Y-63750000D03*
D15*
X198747056Y-65447056D03*
X197050000Y-158400000D03*
X195352944Y-154302944D03*
X194650000Y-156000000D03*
X197050000Y-153600000D03*
X198747056Y-154302944D03*
X198747056Y-157697056D03*
D16*
X197050000Y-156000000D03*
D15*
X199450000Y-156000000D03*
X195352944Y-157697056D03*
D17*
X156204868Y-72917125D03*
D12*
X158744868Y-72917125D03*
X156204868Y-75457125D03*
X158744868Y-75457125D03*
X156204868Y-77997125D03*
X158744868Y-77997125D03*
X156204868Y-80537125D03*
X158744868Y-80537125D03*
X156204868Y-83077125D03*
X158744868Y-83077125D03*
X156204868Y-85617125D03*
X158744868Y-85617125D03*
X156204868Y-88157125D03*
X158744868Y-88157125D03*
X156204868Y-90697125D03*
X158744868Y-90697125D03*
X156204868Y-93237125D03*
X158744868Y-93237125D03*
X156204868Y-95777125D03*
X158744868Y-95777125D03*
D13*
X129480000Y-99133737D03*
D14*
X126940000Y-99133737D03*
X124400000Y-99133737D03*
X121860000Y-99133737D03*
D19*
X186041582Y-115190224D03*
X191041582Y-115190224D03*
D20*
X192416582Y-112440224D03*
D21*
X192266582Y-116240224D03*
X184816582Y-116240224D03*
D20*
X184666582Y-112440224D03*
D11*
X196843909Y-146758668D03*
D12*
X194303909Y-146758668D03*
X196843909Y-144218668D03*
X194303909Y-144218668D03*
X196843909Y-141678668D03*
X194303909Y-141678668D03*
X196843909Y-139138668D03*
X194303909Y-139138668D03*
X196843909Y-136598668D03*
X194303909Y-136598668D03*
D18*
X147500856Y-76995980D03*
D14*
X147500856Y-74455980D03*
X147500856Y-71915980D03*
X147500856Y-69375980D03*
D15*
X143650000Y-114750000D03*
D16*
X146050000Y-114750000D03*
D15*
X147747056Y-116447056D03*
X144352944Y-116447056D03*
X146050000Y-117150000D03*
X147747056Y-113052944D03*
X146050000Y-112350000D03*
X148450000Y-114750000D03*
X144352944Y-113052944D03*
X153600000Y-105000000D03*
X156000000Y-102600000D03*
D16*
X156000000Y-105000000D03*
D15*
X157697056Y-103302944D03*
X158400000Y-105000000D03*
X157697056Y-106697056D03*
X154302944Y-106697056D03*
X156000000Y-107400000D03*
X154302944Y-103302944D03*
X143650000Y-156000000D03*
X146050000Y-158400000D03*
X146050000Y-153600000D03*
X144352944Y-154302944D03*
X147747056Y-154302944D03*
X148450000Y-156000000D03*
X144352944Y-157697056D03*
X147747056Y-157697056D03*
D16*
X146050000Y-156000000D03*
D17*
X105204868Y-123917125D03*
D12*
X107744868Y-123917125D03*
X105204868Y-126457125D03*
X107744868Y-126457125D03*
X105204868Y-128997125D03*
X107744868Y-128997125D03*
X105204868Y-131537125D03*
X107744868Y-131537125D03*
X105204868Y-134077125D03*
X107744868Y-134077125D03*
X105204868Y-136617125D03*
X107744868Y-136617125D03*
X105204868Y-139157125D03*
X107744868Y-139157125D03*
X105204868Y-141697125D03*
X107744868Y-141697125D03*
X105204868Y-144237125D03*
X107744868Y-144237125D03*
X105204868Y-146777125D03*
X107744868Y-146777125D03*
D15*
X105000000Y-66150000D03*
X103302944Y-62052944D03*
X102600000Y-63750000D03*
D16*
X105000000Y-63750000D03*
D15*
X107400000Y-63750000D03*
X106697056Y-65447056D03*
X103302944Y-65447056D03*
X106697056Y-62052944D03*
X105000000Y-61350000D03*
D10*
X151750000Y-100000000D03*
X150250000Y-100000000D03*
X150250000Y-99250000D03*
X150250000Y-100750000D03*
X151750000Y-100750000D03*
X151750000Y-99250000D03*
X112750000Y-109250000D03*
X111250000Y-109250000D03*
X112000000Y-110750000D03*
X112000000Y-109250000D03*
X111250000Y-110750000D03*
X112750000Y-110750000D03*
D18*
X198500856Y-127995980D03*
D14*
X198500856Y-125455980D03*
X198500856Y-122915980D03*
X198500856Y-120375980D03*
D13*
X129480000Y-150133737D03*
D14*
X126940000Y-150133737D03*
X124400000Y-150133737D03*
X121860000Y-150133737D03*
D22*
X112773429Y-156050688D03*
D23*
X117853429Y-156050688D03*
X122933429Y-156050688D03*
X128013429Y-156050688D03*
X133093429Y-156050688D03*
X138173429Y-156050688D03*
D10*
X150250000Y-119250000D03*
X150250000Y-120000000D03*
X151750000Y-120000000D03*
X151750000Y-120750000D03*
X151750000Y-119250000D03*
X150250000Y-120750000D03*
D22*
X163773429Y-105050688D03*
D23*
X168853429Y-105050688D03*
X173933429Y-105050688D03*
X179013429Y-105050688D03*
X184093429Y-105050688D03*
X189173429Y-105050688D03*
D10*
X150250000Y-71750000D03*
X151750000Y-70250000D03*
X151750000Y-71000000D03*
X150250000Y-70250000D03*
X151750000Y-71750000D03*
X150250000Y-71000000D03*
D18*
X198500856Y-76995980D03*
D14*
X198500856Y-74455980D03*
X198500856Y-71915980D03*
X198500856Y-69375980D03*
D13*
X180480000Y-150133737D03*
D14*
X177940000Y-150133737D03*
X175400000Y-150133737D03*
X172860000Y-150133737D03*
D10*
X189250000Y-109250000D03*
X190750000Y-110750000D03*
X190000000Y-110750000D03*
X189250000Y-110750000D03*
X190000000Y-109250000D03*
X190750000Y-109250000D03*
X160250000Y-110750000D03*
X161750000Y-110750000D03*
X160250000Y-109250000D03*
X161000000Y-109250000D03*
X161750000Y-109250000D03*
X161000000Y-110750000D03*
D19*
X186041582Y-64190224D03*
X191041582Y-64190224D03*
D20*
X184666582Y-61440224D03*
D21*
X184816582Y-65240224D03*
X192266582Y-65240224D03*
D20*
X192416582Y-61440224D03*
D15*
X154302944Y-62052944D03*
D16*
X156000000Y-63750000D03*
D15*
X154302944Y-65447056D03*
X157697056Y-62052944D03*
X157697056Y-65447056D03*
X156000000Y-66150000D03*
X156000000Y-61350000D03*
X153600000Y-63750000D03*
X158400000Y-63750000D03*
X161200827Y-113587897D03*
X105000000Y-107400000D03*
X106697056Y-106697056D03*
X102600000Y-105000000D03*
D16*
X105000000Y-105000000D03*
D15*
X105000000Y-102600000D03*
X103302944Y-103302944D03*
X107400000Y-105000000D03*
X103302944Y-106697056D03*
X106697056Y-103302944D03*
X195352944Y-103302944D03*
X195352944Y-106697056D03*
X194650000Y-105000000D03*
X198747056Y-106697056D03*
X198747056Y-103302944D03*
X197050000Y-107400000D03*
X197050000Y-102600000D03*
D16*
X197050000Y-105000000D03*
D15*
X199450000Y-105000000D03*
D16*
X156000000Y-114750000D03*
D15*
X158400000Y-114750000D03*
X156000000Y-117150000D03*
X157697056Y-116447056D03*
X154302944Y-113052944D03*
X157697056Y-113052944D03*
X153600000Y-114750000D03*
X154302944Y-116447056D03*
X156000000Y-112350000D03*
X199450000Y-114750000D03*
D16*
X197050000Y-114750000D03*
D15*
X194650000Y-114750000D03*
X198747056Y-116447056D03*
X197050000Y-117150000D03*
X197050000Y-112350000D03*
X198747056Y-113052944D03*
X195352944Y-113052944D03*
X195352944Y-116447056D03*
X110200827Y-113587897D03*
X103302944Y-157697056D03*
X107400000Y-156000000D03*
D16*
X105000000Y-156000000D03*
D15*
X105000000Y-158400000D03*
X106697056Y-157697056D03*
X102600000Y-156000000D03*
X106697056Y-154302944D03*
X103302944Y-154302944D03*
X105000000Y-153600000D03*
D22*
X112773429Y-105050688D03*
D23*
X117853429Y-105050688D03*
X122933429Y-105050688D03*
X128013429Y-105050688D03*
X133093429Y-105050688D03*
X138173429Y-105050688D03*
D18*
X143606599Y-125422000D03*
D14*
X143606599Y-122882000D03*
X143606599Y-120342000D03*
D18*
X194606599Y-74422000D03*
D14*
X194606599Y-71882000D03*
X194606599Y-69342000D03*
D19*
X135041582Y-64190224D03*
X140041582Y-64190224D03*
D21*
X133816582Y-65240224D03*
D20*
X141416582Y-61440224D03*
D21*
X141266582Y-65240224D03*
D20*
X133666582Y-61440224D03*
D15*
X161200827Y-62587897D03*
D19*
X135041582Y-115190224D03*
X140041582Y-115190224D03*
D20*
X133666582Y-112440224D03*
D21*
X133816582Y-116240224D03*
X141266582Y-116240224D03*
D20*
X141416582Y-112440224D03*
D11*
X196843909Y-95758668D03*
D12*
X194303909Y-95758668D03*
X196843909Y-93218668D03*
X194303909Y-93218668D03*
X196843909Y-90678668D03*
X194303909Y-90678668D03*
X196843909Y-88138668D03*
X194303909Y-88138668D03*
X196843909Y-85598668D03*
X194303909Y-85598668D03*
D11*
X145843909Y-146758668D03*
D12*
X143303909Y-146758668D03*
X145843909Y-144218668D03*
X143303909Y-144218668D03*
X145843909Y-141678668D03*
X143303909Y-141678668D03*
X145843909Y-139138668D03*
X143303909Y-139138668D03*
X145843909Y-136598668D03*
X143303909Y-136598668D03*
D22*
X163773429Y-156050688D03*
D23*
X168853429Y-156050688D03*
X173933429Y-156050688D03*
X179013429Y-156050688D03*
X184093429Y-156050688D03*
X189173429Y-156050688D03*
D24*
X167852500Y-126660000D03*
X166027500Y-126660000D03*
D25*
X198574000Y-81637500D03*
X198574000Y-83462500D03*
D26*
X112925000Y-130587500D03*
X112925000Y-128762500D03*
D27*
X168490000Y-67310000D03*
D28*
X167190000Y-67310000D03*
D27*
X117490000Y-118310000D03*
D28*
X116190000Y-118310000D03*
D27*
X168490000Y-118310000D03*
D28*
X167190000Y-118310000D03*
D29*
X113357500Y-148380000D03*
X115182500Y-148380000D03*
D26*
X110950000Y-130562500D03*
X110950000Y-128737500D03*
D29*
X115037500Y-150580000D03*
X116862500Y-150580000D03*
D27*
X182333000Y-140560400D03*
D28*
X181033000Y-140560400D03*
D30*
X117020000Y-120820000D03*
D31*
X117020000Y-122120000D03*
D32*
X113987500Y-81450000D03*
X113987500Y-83350000D03*
X112112500Y-82400000D03*
D30*
X165290000Y-69830000D03*
D31*
X165290000Y-71130000D03*
D25*
X193748000Y-81637500D03*
X193748000Y-83462500D03*
D32*
X164987500Y-132450000D03*
X164987500Y-134350000D03*
X163112500Y-133400000D03*
D30*
X114290000Y-69830000D03*
D31*
X114290000Y-71130000D03*
D25*
X198574000Y-132637500D03*
X198574000Y-134462500D03*
D30*
X117020000Y-69820000D03*
D31*
X117020000Y-71120000D03*
D29*
X162577500Y-150530000D03*
X164402500Y-150530000D03*
D33*
X126660000Y-91440000D03*
X126660000Y-89540000D03*
D24*
X117752500Y-115770000D03*
X115927500Y-115770000D03*
D33*
X177660000Y-91440000D03*
X177660000Y-89540000D03*
D29*
X162577500Y-99530000D03*
X164402500Y-99530000D03*
D34*
X176347500Y-144100000D03*
X176347500Y-145050000D03*
X176347500Y-146000000D03*
X174072500Y-146000000D03*
X174072500Y-144100000D03*
D25*
X147574000Y-132637500D03*
X147574000Y-134462500D03*
D24*
X167852500Y-75660000D03*
X166027500Y-75660000D03*
X116852500Y-126660000D03*
X115027500Y-126660000D03*
D27*
X131333000Y-140560400D03*
D28*
X130033000Y-140560400D03*
D35*
X123060000Y-142330000D03*
X123060000Y-138230000D03*
D30*
X165290000Y-120830000D03*
D31*
X165290000Y-122130000D03*
D27*
X182333000Y-89560400D03*
D28*
X181033000Y-89560400D03*
D30*
X119720000Y-120790000D03*
D31*
X119720000Y-122090000D03*
D25*
X145288000Y-132637500D03*
X145288000Y-134462500D03*
D36*
X140940000Y-78740000D03*
D37*
X142240000Y-78740000D03*
D38*
X143540000Y-78740000D03*
D26*
X163925000Y-79587500D03*
X163925000Y-77762500D03*
D29*
X164357500Y-97380000D03*
X166182500Y-97380000D03*
X111577500Y-99530000D03*
X113402500Y-99530000D03*
D26*
X163925000Y-130587500D03*
X163925000Y-128762500D03*
D25*
X196288000Y-132637500D03*
X196288000Y-134462500D03*
D32*
X164987500Y-81450000D03*
X164987500Y-83350000D03*
X163112500Y-82400000D03*
D34*
X176347500Y-93100000D03*
X176347500Y-94050000D03*
X176347500Y-95000000D03*
X174072500Y-95000000D03*
X174072500Y-93100000D03*
D39*
X113344075Y-114334212D03*
X113344075Y-116234212D03*
D25*
X142748000Y-81637500D03*
X142748000Y-83462500D03*
D40*
X174050000Y-96720000D03*
X175950000Y-96720000D03*
D30*
X170720000Y-120790000D03*
D31*
X170720000Y-122090000D03*
D35*
X174060000Y-91330000D03*
X174060000Y-87230000D03*
D29*
X164357500Y-148380000D03*
X166182500Y-148380000D03*
D40*
X174050000Y-147720000D03*
X175950000Y-147720000D03*
D26*
X167100000Y-134287500D03*
X167100000Y-132462500D03*
D25*
X127670000Y-144107500D03*
X127670000Y-145932500D03*
D26*
X112925000Y-79587500D03*
X112925000Y-77762500D03*
D41*
X115020000Y-77682500D03*
X116920000Y-77682500D03*
X115970000Y-79557500D03*
D40*
X123050000Y-96720000D03*
X124950000Y-96720000D03*
D35*
X174060000Y-142330000D03*
X174060000Y-138230000D03*
D30*
X168020000Y-120820000D03*
D31*
X168020000Y-122120000D03*
D32*
X113987500Y-132450000D03*
X113987500Y-134350000D03*
X112112500Y-133400000D03*
D29*
X113357500Y-97380000D03*
X115182500Y-97380000D03*
D26*
X167100000Y-83287500D03*
X167100000Y-81462500D03*
D29*
X115037500Y-99580000D03*
X116862500Y-99580000D03*
D26*
X161950000Y-79562500D03*
X161950000Y-77737500D03*
D36*
X140940000Y-129740000D03*
D37*
X142240000Y-129740000D03*
D38*
X143540000Y-129740000D03*
D26*
X161950000Y-130562500D03*
X161950000Y-128737500D03*
D25*
X147574000Y-81637500D03*
X147574000Y-83462500D03*
D33*
X126660000Y-142440000D03*
X126660000Y-140540000D03*
D30*
X114290000Y-120830000D03*
D31*
X114290000Y-122130000D03*
D27*
X117490000Y-67310000D03*
D28*
X116190000Y-67310000D03*
D30*
X119720000Y-69790000D03*
D31*
X119720000Y-71090000D03*
D29*
X166037500Y-150580000D03*
X167862500Y-150580000D03*
D25*
X142748000Y-132637500D03*
X142748000Y-134462500D03*
D24*
X168752500Y-64770000D03*
X166927500Y-64770000D03*
D39*
X113344075Y-63334212D03*
X113344075Y-65234212D03*
D25*
X178670000Y-144107500D03*
X178670000Y-145932500D03*
X145288000Y-81637500D03*
X145288000Y-83462500D03*
D27*
X131333000Y-89560400D03*
D28*
X130033000Y-89560400D03*
D40*
X123050000Y-147720000D03*
X124950000Y-147720000D03*
D26*
X110950000Y-79562500D03*
X110950000Y-77737500D03*
D33*
X177660000Y-142440000D03*
X177660000Y-140540000D03*
D36*
X191940000Y-129740000D03*
D37*
X193240000Y-129740000D03*
D38*
X194540000Y-129740000D03*
D30*
X168020000Y-69820000D03*
D31*
X168020000Y-71120000D03*
D29*
X111577500Y-150530000D03*
X113402500Y-150530000D03*
D41*
X115020000Y-128682500D03*
X116920000Y-128682500D03*
X115970000Y-130557500D03*
D29*
X166927500Y-62484000D03*
X168752500Y-62484000D03*
D34*
X125347500Y-93100000D03*
X125347500Y-94050000D03*
X125347500Y-95000000D03*
X123072500Y-95000000D03*
X123072500Y-93100000D03*
D29*
X115927500Y-62484000D03*
X117752500Y-62484000D03*
D25*
X127670000Y-93107500D03*
X127670000Y-94932500D03*
D39*
X164344075Y-63334212D03*
X164344075Y-65234212D03*
D41*
X166020000Y-128682500D03*
X167920000Y-128682500D03*
X166970000Y-130557500D03*
D26*
X116100000Y-134287500D03*
X116100000Y-132462500D03*
D25*
X178670000Y-93107500D03*
X178670000Y-94932500D03*
X193748000Y-132637500D03*
X193748000Y-134462500D03*
D29*
X166927500Y-113484000D03*
X168752500Y-113484000D03*
D25*
X196288000Y-81637500D03*
X196288000Y-83462500D03*
D29*
X115927500Y-113484000D03*
X117752500Y-113484000D03*
D34*
X125347500Y-144100000D03*
X125347500Y-145050000D03*
X125347500Y-146000000D03*
X123072500Y-146000000D03*
X123072500Y-144100000D03*
D24*
X117752500Y-64770000D03*
X115927500Y-64770000D03*
D35*
X123060000Y-91330000D03*
X123060000Y-87230000D03*
D39*
X164344075Y-114334212D03*
X164344075Y-116234212D03*
D30*
X170720000Y-69790000D03*
D31*
X170720000Y-71090000D03*
D24*
X168752500Y-115770000D03*
X166927500Y-115770000D03*
X116852500Y-75660000D03*
X115027500Y-75660000D03*
D36*
X191940000Y-78740000D03*
D37*
X193240000Y-78740000D03*
D38*
X194540000Y-78740000D03*
D26*
X116100000Y-83287500D03*
X116100000Y-81462500D03*
D41*
X166020000Y-77682500D03*
X167920000Y-77682500D03*
X166970000Y-79557500D03*
D29*
X166037500Y-99580000D03*
X167862500Y-99580000D03*
G36*
X150366484Y-149270942D02*
G01*
X150367168Y-149272821D01*
X150366106Y-149274256D01*
X150340038Y-149287539D01*
X150297020Y-149330556D01*
X150287556Y-149390314D01*
X150315101Y-149444374D01*
X150339899Y-149462390D01*
X150366106Y-149475744D01*
X150367195Y-149477421D01*
X150366287Y-149479203D01*
X150364514Y-149479405D01*
X150301742Y-149456558D01*
X150198258Y-149456558D01*
X150135486Y-149479405D01*
X150133516Y-149479058D01*
X150132832Y-149477179D01*
X150133894Y-149475744D01*
X150159962Y-149462461D01*
X150202980Y-149419444D01*
X150212444Y-149359686D01*
X150184899Y-149305626D01*
X150160101Y-149287610D01*
X150133894Y-149274256D01*
X150132805Y-149272579D01*
X150133713Y-149270797D01*
X150135486Y-149270595D01*
X150198258Y-149293442D01*
X150301742Y-149293442D01*
X150364514Y-149270595D01*
X150366484Y-149270942D01*
G37*
G36*
X151866484Y-149270942D02*
G01*
X151867168Y-149272821D01*
X151866106Y-149274256D01*
X151840038Y-149287539D01*
X151797020Y-149330556D01*
X151787556Y-149390314D01*
X151815101Y-149444374D01*
X151839899Y-149462390D01*
X151866106Y-149475744D01*
X151867195Y-149477421D01*
X151866287Y-149479203D01*
X151864514Y-149479405D01*
X151801742Y-149456558D01*
X151698258Y-149456558D01*
X151635486Y-149479405D01*
X151633516Y-149479058D01*
X151632832Y-149477179D01*
X151633894Y-149475744D01*
X151659962Y-149462461D01*
X151702980Y-149419444D01*
X151712444Y-149359686D01*
X151684899Y-149305626D01*
X151660101Y-149287610D01*
X151633894Y-149274256D01*
X151632805Y-149272579D01*
X151633713Y-149270797D01*
X151635486Y-149270595D01*
X151698258Y-149293442D01*
X151801742Y-149293442D01*
X151864514Y-149270595D01*
X151866484Y-149270942D01*
G37*
G36*
X150366484Y-148520942D02*
G01*
X150367168Y-148522821D01*
X150366106Y-148524256D01*
X150340038Y-148537539D01*
X150297020Y-148580556D01*
X150287556Y-148640314D01*
X150315101Y-148694374D01*
X150339899Y-148712390D01*
X150366106Y-148725744D01*
X150367195Y-148727421D01*
X150366287Y-148729203D01*
X150364514Y-148729405D01*
X150301742Y-148706558D01*
X150198258Y-148706558D01*
X150135486Y-148729405D01*
X150133516Y-148729058D01*
X150132832Y-148727179D01*
X150133894Y-148725744D01*
X150159962Y-148712461D01*
X150202980Y-148669444D01*
X150212444Y-148609686D01*
X150184899Y-148555626D01*
X150160101Y-148537610D01*
X150133894Y-148524256D01*
X150132805Y-148522579D01*
X150133713Y-148520797D01*
X150135486Y-148520595D01*
X150198258Y-148543442D01*
X150301742Y-148543442D01*
X150364514Y-148520595D01*
X150366484Y-148520942D01*
G37*
G36*
X151866484Y-148520942D02*
G01*
X151867168Y-148522821D01*
X151866106Y-148524256D01*
X151840038Y-148537539D01*
X151797020Y-148580556D01*
X151787556Y-148640314D01*
X151815101Y-148694374D01*
X151839899Y-148712390D01*
X151866106Y-148725744D01*
X151867195Y-148727421D01*
X151866287Y-148729203D01*
X151864514Y-148729405D01*
X151801742Y-148706558D01*
X151698258Y-148706558D01*
X151635486Y-148729405D01*
X151633516Y-148729058D01*
X151632832Y-148727179D01*
X151633894Y-148725744D01*
X151659962Y-148712461D01*
X151702980Y-148669444D01*
X151712444Y-148609686D01*
X151684899Y-148555626D01*
X151660101Y-148537610D01*
X151633894Y-148524256D01*
X151632805Y-148522579D01*
X151633713Y-148520797D01*
X151635486Y-148520595D01*
X151698258Y-148543442D01*
X151801742Y-148543442D01*
X151864514Y-148520595D01*
X151866484Y-148520942D01*
G37*
G36*
X124503868Y-143078999D02*
G01*
X124503868Y-143080999D01*
X124502465Y-143081972D01*
X124502459Y-143081973D01*
X124502130Y-143082000D01*
X121617870Y-143082000D01*
X121616138Y-143081000D01*
X121616138Y-143079000D01*
X121617870Y-143078000D01*
X124502136Y-143077999D01*
X124503868Y-143078999D01*
G37*
G36*
X175503868Y-143078999D02*
G01*
X175503868Y-143080999D01*
X175502465Y-143081972D01*
X175502459Y-143081973D01*
X175502130Y-143082000D01*
X172617870Y-143082000D01*
X172616138Y-143081000D01*
X172616138Y-143079000D01*
X172617870Y-143078000D01*
X175502136Y-143077999D01*
X175503868Y-143078999D01*
G37*
G36*
X124503862Y-141579000D02*
G01*
X124503862Y-141581000D01*
X124502130Y-141582000D01*
X121617864Y-141582001D01*
X121616132Y-141581001D01*
X121616132Y-141579001D01*
X121617535Y-141578028D01*
X121617541Y-141578027D01*
X121617870Y-141578000D01*
X124502130Y-141578000D01*
X124503862Y-141579000D01*
G37*
G36*
X175503862Y-141579000D02*
G01*
X175503862Y-141581000D01*
X175502130Y-141582000D01*
X172617864Y-141582001D01*
X172616132Y-141581001D01*
X172616132Y-141579001D01*
X172617535Y-141578028D01*
X172617541Y-141578027D01*
X172617870Y-141578000D01*
X175502130Y-141578000D01*
X175503862Y-141579000D01*
G37*
G36*
X124503868Y-138978999D02*
G01*
X124503868Y-138980999D01*
X124502465Y-138981972D01*
X124502459Y-138981973D01*
X124502130Y-138982000D01*
X121617870Y-138982000D01*
X121616138Y-138981000D01*
X121616138Y-138979000D01*
X121617870Y-138978000D01*
X124502136Y-138977999D01*
X124503868Y-138978999D01*
G37*
G36*
X175503868Y-138978999D02*
G01*
X175503868Y-138980999D01*
X175502465Y-138981972D01*
X175502459Y-138981973D01*
X175502130Y-138982000D01*
X172617870Y-138982000D01*
X172616138Y-138981000D01*
X172616138Y-138979000D01*
X172617870Y-138978000D01*
X175502136Y-138977999D01*
X175503868Y-138978999D01*
G37*
G36*
X175503862Y-137479000D02*
G01*
X175503862Y-137481000D01*
X175502130Y-137482000D01*
X172617864Y-137482001D01*
X172616132Y-137481001D01*
X172616132Y-137479001D01*
X172617535Y-137478028D01*
X172617541Y-137478027D01*
X172617870Y-137478000D01*
X175502130Y-137478000D01*
X175503862Y-137479000D01*
G37*
G36*
X124503862Y-137479000D02*
G01*
X124503862Y-137481000D01*
X124502130Y-137482000D01*
X121617864Y-137482001D01*
X121616132Y-137481001D01*
X121616132Y-137479001D01*
X121617535Y-137478028D01*
X121617541Y-137478027D01*
X121617870Y-137478000D01*
X124502130Y-137478000D01*
X124503862Y-137479000D01*
G37*
G36*
X141537523Y-128969752D02*
G01*
X141581118Y-129004119D01*
X141641573Y-129006493D01*
X141691977Y-128972814D01*
X141693973Y-128972683D01*
X141695084Y-128974346D01*
X141695050Y-128974867D01*
X141692000Y-128990199D01*
X141692000Y-130489801D01*
X141695677Y-130508287D01*
X141695034Y-130510181D01*
X141693072Y-130510571D01*
X141692477Y-130510248D01*
X141648882Y-130475881D01*
X141588427Y-130473507D01*
X141538023Y-130507186D01*
X141536027Y-130507317D01*
X141534916Y-130505654D01*
X141534950Y-130505133D01*
X141538000Y-130489801D01*
X141538000Y-128990199D01*
X141534323Y-128971713D01*
X141534966Y-128969819D01*
X141536928Y-128969429D01*
X141537523Y-128969752D01*
G37*
G36*
X192537523Y-128969752D02*
G01*
X192581118Y-129004119D01*
X192641573Y-129006493D01*
X192691977Y-128972814D01*
X192693973Y-128972683D01*
X192695084Y-128974346D01*
X192695050Y-128974867D01*
X192692000Y-128990199D01*
X192692000Y-130489801D01*
X192695677Y-130508287D01*
X192695034Y-130510181D01*
X192693072Y-130510571D01*
X192692477Y-130510248D01*
X192648882Y-130475881D01*
X192588427Y-130473507D01*
X192538023Y-130507186D01*
X192536027Y-130507317D01*
X192534916Y-130505654D01*
X192534950Y-130505133D01*
X192538000Y-130489801D01*
X192538000Y-128990199D01*
X192534323Y-128971713D01*
X192534966Y-128969819D01*
X192536928Y-128969429D01*
X192537523Y-128969752D01*
G37*
G36*
X193787523Y-128969752D02*
G01*
X193831118Y-129004119D01*
X193891573Y-129006493D01*
X193941977Y-128972814D01*
X193943973Y-128972683D01*
X193945084Y-128974346D01*
X193945050Y-128974867D01*
X193942000Y-128990199D01*
X193942000Y-130489801D01*
X193945677Y-130508287D01*
X193945034Y-130510181D01*
X193943072Y-130510571D01*
X193942477Y-130510248D01*
X193898882Y-130475881D01*
X193838427Y-130473507D01*
X193788023Y-130507186D01*
X193786027Y-130507317D01*
X193784916Y-130505654D01*
X193784950Y-130505133D01*
X193788000Y-130489801D01*
X193788000Y-128990199D01*
X193784323Y-128971713D01*
X193784966Y-128969819D01*
X193786928Y-128969429D01*
X193787523Y-128969752D01*
G37*
G36*
X142787523Y-128969752D02*
G01*
X142831118Y-129004119D01*
X142891573Y-129006493D01*
X142941977Y-128972814D01*
X142943973Y-128972683D01*
X142945084Y-128974346D01*
X142945050Y-128974867D01*
X142942000Y-128990199D01*
X142942000Y-130489801D01*
X142945677Y-130508287D01*
X142945034Y-130510181D01*
X142943072Y-130510571D01*
X142942477Y-130510248D01*
X142898882Y-130475881D01*
X142838427Y-130473507D01*
X142788023Y-130507186D01*
X142786027Y-130507317D01*
X142784916Y-130505654D01*
X142784950Y-130505133D01*
X142788000Y-130489801D01*
X142788000Y-128990199D01*
X142784323Y-128971713D01*
X142784966Y-128969819D01*
X142786928Y-128969429D01*
X142787523Y-128969752D01*
G37*
G36*
X150366484Y-120270942D02*
G01*
X150367168Y-120272821D01*
X150366106Y-120274256D01*
X150340038Y-120287539D01*
X150297020Y-120330556D01*
X150287556Y-120390314D01*
X150315101Y-120444374D01*
X150339899Y-120462390D01*
X150366106Y-120475744D01*
X150367195Y-120477421D01*
X150366287Y-120479203D01*
X150364514Y-120479405D01*
X150301742Y-120456558D01*
X150198258Y-120456558D01*
X150135486Y-120479405D01*
X150133516Y-120479058D01*
X150132832Y-120477179D01*
X150133894Y-120475744D01*
X150159962Y-120462461D01*
X150202980Y-120419444D01*
X150212444Y-120359686D01*
X150184899Y-120305626D01*
X150160101Y-120287610D01*
X150133894Y-120274256D01*
X150132805Y-120272579D01*
X150133713Y-120270797D01*
X150135486Y-120270595D01*
X150198258Y-120293442D01*
X150301742Y-120293442D01*
X150364514Y-120270595D01*
X150366484Y-120270942D01*
G37*
G36*
X151866484Y-120270942D02*
G01*
X151867168Y-120272821D01*
X151866106Y-120274256D01*
X151840038Y-120287539D01*
X151797020Y-120330556D01*
X151787556Y-120390314D01*
X151815101Y-120444374D01*
X151839899Y-120462390D01*
X151866106Y-120475744D01*
X151867195Y-120477421D01*
X151866287Y-120479203D01*
X151864514Y-120479405D01*
X151801742Y-120456558D01*
X151698258Y-120456558D01*
X151635486Y-120479405D01*
X151633516Y-120479058D01*
X151632832Y-120477179D01*
X151633894Y-120475744D01*
X151659962Y-120462461D01*
X151702980Y-120419444D01*
X151712444Y-120359686D01*
X151684899Y-120305626D01*
X151660101Y-120287610D01*
X151633894Y-120274256D01*
X151632805Y-120272579D01*
X151633713Y-120270797D01*
X151635486Y-120270595D01*
X151698258Y-120293442D01*
X151801742Y-120293442D01*
X151864514Y-120270595D01*
X151866484Y-120270942D01*
G37*
G36*
X151866484Y-119520942D02*
G01*
X151867168Y-119522821D01*
X151866106Y-119524256D01*
X151840038Y-119537539D01*
X151797020Y-119580556D01*
X151787556Y-119640314D01*
X151815101Y-119694374D01*
X151839899Y-119712390D01*
X151866106Y-119725744D01*
X151867195Y-119727421D01*
X151866287Y-119729203D01*
X151864514Y-119729405D01*
X151801742Y-119706558D01*
X151698258Y-119706558D01*
X151635486Y-119729405D01*
X151633516Y-119729058D01*
X151632832Y-119727179D01*
X151633894Y-119725744D01*
X151659962Y-119712461D01*
X151702980Y-119669444D01*
X151712444Y-119609686D01*
X151684899Y-119555626D01*
X151660101Y-119537610D01*
X151633894Y-119524256D01*
X151632805Y-119522579D01*
X151633713Y-119520797D01*
X151635486Y-119520595D01*
X151698258Y-119543442D01*
X151801742Y-119543442D01*
X151864514Y-119520595D01*
X151866484Y-119520942D01*
G37*
G36*
X150366484Y-119520942D02*
G01*
X150367168Y-119522821D01*
X150366106Y-119524256D01*
X150340038Y-119537539D01*
X150297020Y-119580556D01*
X150287556Y-119640314D01*
X150315101Y-119694374D01*
X150339899Y-119712390D01*
X150366106Y-119725744D01*
X150367195Y-119727421D01*
X150366287Y-119729203D01*
X150364514Y-119729405D01*
X150301742Y-119706558D01*
X150198258Y-119706558D01*
X150135486Y-119729405D01*
X150133516Y-119729058D01*
X150132832Y-119727179D01*
X150133894Y-119725744D01*
X150159962Y-119712461D01*
X150202980Y-119669444D01*
X150212444Y-119609686D01*
X150184899Y-119555626D01*
X150160101Y-119537610D01*
X150133894Y-119524256D01*
X150132805Y-119522579D01*
X150133713Y-119520797D01*
X150135486Y-119520595D01*
X150198258Y-119543442D01*
X150301742Y-119543442D01*
X150364514Y-119520595D01*
X150366484Y-119520942D01*
G37*
G36*
X161468172Y-110655361D02*
G01*
X161468465Y-110656797D01*
X161452031Y-110750000D01*
X161468465Y-110843203D01*
X161467781Y-110845082D01*
X161465811Y-110845429D01*
X161464713Y-110844458D01*
X161462461Y-110840038D01*
X161419444Y-110797020D01*
X161359686Y-110787556D01*
X161305626Y-110815101D01*
X161287610Y-110839898D01*
X161285287Y-110844458D01*
X161283610Y-110845547D01*
X161281828Y-110844639D01*
X161281535Y-110843203D01*
X161297969Y-110750000D01*
X161281535Y-110656797D01*
X161282219Y-110654918D01*
X161284189Y-110654571D01*
X161285287Y-110655542D01*
X161287539Y-110659962D01*
X161330556Y-110702980D01*
X161390314Y-110712444D01*
X161444374Y-110684899D01*
X161462390Y-110660102D01*
X161464713Y-110655542D01*
X161466390Y-110654453D01*
X161468172Y-110655361D01*
G37*
G36*
X190468172Y-110655361D02*
G01*
X190468465Y-110656797D01*
X190452031Y-110750000D01*
X190468465Y-110843203D01*
X190467781Y-110845082D01*
X190465811Y-110845429D01*
X190464713Y-110844458D01*
X190462461Y-110840038D01*
X190419444Y-110797020D01*
X190359686Y-110787556D01*
X190305626Y-110815101D01*
X190287610Y-110839898D01*
X190285287Y-110844458D01*
X190283610Y-110845547D01*
X190281828Y-110844639D01*
X190281535Y-110843203D01*
X190297969Y-110750000D01*
X190281535Y-110656797D01*
X190282219Y-110654918D01*
X190284189Y-110654571D01*
X190285287Y-110655542D01*
X190287539Y-110659962D01*
X190330556Y-110702980D01*
X190390314Y-110712444D01*
X190444374Y-110684899D01*
X190462390Y-110660102D01*
X190464713Y-110655542D01*
X190466390Y-110654453D01*
X190468172Y-110655361D01*
G37*
G36*
X112468172Y-110655361D02*
G01*
X112468465Y-110656797D01*
X112452031Y-110750000D01*
X112468465Y-110843203D01*
X112467781Y-110845082D01*
X112465811Y-110845429D01*
X112464713Y-110844458D01*
X112462461Y-110840038D01*
X112419444Y-110797020D01*
X112359686Y-110787556D01*
X112305626Y-110815101D01*
X112287610Y-110839898D01*
X112285287Y-110844458D01*
X112283610Y-110845547D01*
X112281828Y-110844639D01*
X112281535Y-110843203D01*
X112297969Y-110750000D01*
X112281535Y-110656797D01*
X112282219Y-110654918D01*
X112284189Y-110654571D01*
X112285287Y-110655542D01*
X112287539Y-110659962D01*
X112330556Y-110702980D01*
X112390314Y-110712444D01*
X112444374Y-110684899D01*
X112462390Y-110660102D01*
X112464713Y-110655542D01*
X112466390Y-110654453D01*
X112468172Y-110655361D01*
G37*
G36*
X189718172Y-110655361D02*
G01*
X189718465Y-110656797D01*
X189702031Y-110750000D01*
X189718465Y-110843203D01*
X189717781Y-110845082D01*
X189715811Y-110845429D01*
X189714713Y-110844458D01*
X189712461Y-110840038D01*
X189669444Y-110797020D01*
X189609686Y-110787556D01*
X189555626Y-110815101D01*
X189537610Y-110839898D01*
X189535287Y-110844458D01*
X189533610Y-110845547D01*
X189531828Y-110844639D01*
X189531535Y-110843203D01*
X189547969Y-110750000D01*
X189531535Y-110656797D01*
X189532219Y-110654918D01*
X189534189Y-110654571D01*
X189535287Y-110655542D01*
X189537539Y-110659962D01*
X189580556Y-110702980D01*
X189640314Y-110712444D01*
X189694374Y-110684899D01*
X189712390Y-110660102D01*
X189714713Y-110655542D01*
X189716390Y-110654453D01*
X189718172Y-110655361D01*
G37*
G36*
X140718172Y-110655361D02*
G01*
X140718465Y-110656797D01*
X140702031Y-110750000D01*
X140718465Y-110843203D01*
X140717781Y-110845082D01*
X140715811Y-110845429D01*
X140714713Y-110844458D01*
X140712461Y-110840038D01*
X140669444Y-110797020D01*
X140609686Y-110787556D01*
X140555626Y-110815101D01*
X140537610Y-110839898D01*
X140535287Y-110844458D01*
X140533610Y-110845547D01*
X140531828Y-110844639D01*
X140531535Y-110843203D01*
X140547969Y-110750000D01*
X140531535Y-110656797D01*
X140532219Y-110654918D01*
X140534189Y-110654571D01*
X140535287Y-110655542D01*
X140537539Y-110659962D01*
X140580556Y-110702980D01*
X140640314Y-110712444D01*
X140694374Y-110684899D01*
X140712390Y-110660102D01*
X140714713Y-110655542D01*
X140716390Y-110654453D01*
X140718172Y-110655361D01*
G37*
G36*
X111718172Y-110655361D02*
G01*
X111718465Y-110656797D01*
X111702031Y-110750000D01*
X111718465Y-110843203D01*
X111717781Y-110845082D01*
X111715811Y-110845429D01*
X111714713Y-110844458D01*
X111712461Y-110840038D01*
X111669444Y-110797020D01*
X111609686Y-110787556D01*
X111555626Y-110815101D01*
X111537610Y-110839898D01*
X111535287Y-110844458D01*
X111533610Y-110845547D01*
X111531828Y-110844639D01*
X111531535Y-110843203D01*
X111547969Y-110750000D01*
X111531535Y-110656797D01*
X111532219Y-110654918D01*
X111534189Y-110654571D01*
X111535287Y-110655542D01*
X111537539Y-110659962D01*
X111580556Y-110702980D01*
X111640314Y-110712444D01*
X111694374Y-110684899D01*
X111712390Y-110660102D01*
X111714713Y-110655542D01*
X111716390Y-110654453D01*
X111718172Y-110655361D01*
G37*
G36*
X141468172Y-110655361D02*
G01*
X141468465Y-110656797D01*
X141452031Y-110750000D01*
X141468465Y-110843203D01*
X141467781Y-110845082D01*
X141465811Y-110845429D01*
X141464713Y-110844458D01*
X141462461Y-110840038D01*
X141419444Y-110797020D01*
X141359686Y-110787556D01*
X141305626Y-110815101D01*
X141287610Y-110839898D01*
X141285287Y-110844458D01*
X141283610Y-110845547D01*
X141281828Y-110844639D01*
X141281535Y-110843203D01*
X141297969Y-110750000D01*
X141281535Y-110656797D01*
X141282219Y-110654918D01*
X141284189Y-110654571D01*
X141285287Y-110655542D01*
X141287539Y-110659962D01*
X141330556Y-110702980D01*
X141390314Y-110712444D01*
X141444374Y-110684899D01*
X141462390Y-110660102D01*
X141464713Y-110655542D01*
X141466390Y-110654453D01*
X141468172Y-110655361D01*
G37*
G36*
X160718172Y-110655361D02*
G01*
X160718465Y-110656797D01*
X160702031Y-110750000D01*
X160718465Y-110843203D01*
X160717781Y-110845082D01*
X160715811Y-110845429D01*
X160714713Y-110844458D01*
X160712461Y-110840038D01*
X160669444Y-110797020D01*
X160609686Y-110787556D01*
X160555626Y-110815101D01*
X160537610Y-110839898D01*
X160535287Y-110844458D01*
X160533610Y-110845547D01*
X160531828Y-110844639D01*
X160531535Y-110843203D01*
X160547969Y-110750000D01*
X160531535Y-110656797D01*
X160532219Y-110654918D01*
X160534189Y-110654571D01*
X160535287Y-110655542D01*
X160537539Y-110659962D01*
X160580556Y-110702980D01*
X160640314Y-110712444D01*
X160694374Y-110684899D01*
X160712390Y-110660102D01*
X160714713Y-110655542D01*
X160716390Y-110654453D01*
X160718172Y-110655361D01*
G37*
G36*
X111718172Y-109155361D02*
G01*
X111718465Y-109156797D01*
X111702031Y-109250000D01*
X111718465Y-109343203D01*
X111717781Y-109345082D01*
X111715811Y-109345429D01*
X111714713Y-109344458D01*
X111712461Y-109340038D01*
X111669444Y-109297020D01*
X111609686Y-109287556D01*
X111555626Y-109315101D01*
X111537610Y-109339898D01*
X111535287Y-109344458D01*
X111533610Y-109345547D01*
X111531828Y-109344639D01*
X111531535Y-109343203D01*
X111547969Y-109250000D01*
X111531535Y-109156797D01*
X111532219Y-109154918D01*
X111534189Y-109154571D01*
X111535287Y-109155542D01*
X111537539Y-109159962D01*
X111580556Y-109202980D01*
X111640314Y-109212444D01*
X111694374Y-109184899D01*
X111712390Y-109160102D01*
X111714713Y-109155542D01*
X111716390Y-109154453D01*
X111718172Y-109155361D01*
G37*
G36*
X140718172Y-109155361D02*
G01*
X140718465Y-109156797D01*
X140702031Y-109250000D01*
X140718465Y-109343203D01*
X140717781Y-109345082D01*
X140715811Y-109345429D01*
X140714713Y-109344458D01*
X140712461Y-109340038D01*
X140669444Y-109297020D01*
X140609686Y-109287556D01*
X140555626Y-109315101D01*
X140537610Y-109339898D01*
X140535287Y-109344458D01*
X140533610Y-109345547D01*
X140531828Y-109344639D01*
X140531535Y-109343203D01*
X140547969Y-109250000D01*
X140531535Y-109156797D01*
X140532219Y-109154918D01*
X140534189Y-109154571D01*
X140535287Y-109155542D01*
X140537539Y-109159962D01*
X140580556Y-109202980D01*
X140640314Y-109212444D01*
X140694374Y-109184899D01*
X140712390Y-109160102D01*
X140714713Y-109155542D01*
X140716390Y-109154453D01*
X140718172Y-109155361D01*
G37*
G36*
X190468172Y-109155361D02*
G01*
X190468465Y-109156797D01*
X190452031Y-109250000D01*
X190468465Y-109343203D01*
X190467781Y-109345082D01*
X190465811Y-109345429D01*
X190464713Y-109344458D01*
X190462461Y-109340038D01*
X190419444Y-109297020D01*
X190359686Y-109287556D01*
X190305626Y-109315101D01*
X190287610Y-109339898D01*
X190285287Y-109344458D01*
X190283610Y-109345547D01*
X190281828Y-109344639D01*
X190281535Y-109343203D01*
X190297969Y-109250000D01*
X190281535Y-109156797D01*
X190282219Y-109154918D01*
X190284189Y-109154571D01*
X190285287Y-109155542D01*
X190287539Y-109159962D01*
X190330556Y-109202980D01*
X190390314Y-109212444D01*
X190444374Y-109184899D01*
X190462390Y-109160102D01*
X190464713Y-109155542D01*
X190466390Y-109154453D01*
X190468172Y-109155361D01*
G37*
G36*
X189718172Y-109155361D02*
G01*
X189718465Y-109156797D01*
X189702031Y-109250000D01*
X189718465Y-109343203D01*
X189717781Y-109345082D01*
X189715811Y-109345429D01*
X189714713Y-109344458D01*
X189712461Y-109340038D01*
X189669444Y-109297020D01*
X189609686Y-109287556D01*
X189555626Y-109315101D01*
X189537610Y-109339898D01*
X189535287Y-109344458D01*
X189533610Y-109345547D01*
X189531828Y-109344639D01*
X189531535Y-109343203D01*
X189547969Y-109250000D01*
X189531535Y-109156797D01*
X189532219Y-109154918D01*
X189534189Y-109154571D01*
X189535287Y-109155542D01*
X189537539Y-109159962D01*
X189580556Y-109202980D01*
X189640314Y-109212444D01*
X189694374Y-109184899D01*
X189712390Y-109160102D01*
X189714713Y-109155542D01*
X189716390Y-109154453D01*
X189718172Y-109155361D01*
G37*
G36*
X112468172Y-109155361D02*
G01*
X112468465Y-109156797D01*
X112452031Y-109250000D01*
X112468465Y-109343203D01*
X112467781Y-109345082D01*
X112465811Y-109345429D01*
X112464713Y-109344458D01*
X112462461Y-109340038D01*
X112419444Y-109297020D01*
X112359686Y-109287556D01*
X112305626Y-109315101D01*
X112287610Y-109339898D01*
X112285287Y-109344458D01*
X112283610Y-109345547D01*
X112281828Y-109344639D01*
X112281535Y-109343203D01*
X112297969Y-109250000D01*
X112281535Y-109156797D01*
X112282219Y-109154918D01*
X112284189Y-109154571D01*
X112285287Y-109155542D01*
X112287539Y-109159962D01*
X112330556Y-109202980D01*
X112390314Y-109212444D01*
X112444374Y-109184899D01*
X112462390Y-109160102D01*
X112464713Y-109155542D01*
X112466390Y-109154453D01*
X112468172Y-109155361D01*
G37*
G36*
X160718172Y-109155361D02*
G01*
X160718465Y-109156797D01*
X160702031Y-109250000D01*
X160718465Y-109343203D01*
X160717781Y-109345082D01*
X160715811Y-109345429D01*
X160714713Y-109344458D01*
X160712461Y-109340038D01*
X160669444Y-109297020D01*
X160609686Y-109287556D01*
X160555626Y-109315101D01*
X160537610Y-109339898D01*
X160535287Y-109344458D01*
X160533610Y-109345547D01*
X160531828Y-109344639D01*
X160531535Y-109343203D01*
X160547969Y-109250000D01*
X160531535Y-109156797D01*
X160532219Y-109154918D01*
X160534189Y-109154571D01*
X160535287Y-109155542D01*
X160537539Y-109159962D01*
X160580556Y-109202980D01*
X160640314Y-109212444D01*
X160694374Y-109184899D01*
X160712390Y-109160102D01*
X160714713Y-109155542D01*
X160716390Y-109154453D01*
X160718172Y-109155361D01*
G37*
G36*
X161468172Y-109155361D02*
G01*
X161468465Y-109156797D01*
X161452031Y-109250000D01*
X161468465Y-109343203D01*
X161467781Y-109345082D01*
X161465811Y-109345429D01*
X161464713Y-109344458D01*
X161462461Y-109340038D01*
X161419444Y-109297020D01*
X161359686Y-109287556D01*
X161305626Y-109315101D01*
X161287610Y-109339898D01*
X161285287Y-109344458D01*
X161283610Y-109345547D01*
X161281828Y-109344639D01*
X161281535Y-109343203D01*
X161297969Y-109250000D01*
X161281535Y-109156797D01*
X161282219Y-109154918D01*
X161284189Y-109154571D01*
X161285287Y-109155542D01*
X161287539Y-109159962D01*
X161330556Y-109202980D01*
X161390314Y-109212444D01*
X161444374Y-109184899D01*
X161462390Y-109160102D01*
X161464713Y-109155542D01*
X161466390Y-109154453D01*
X161468172Y-109155361D01*
G37*
G36*
X141468172Y-109155361D02*
G01*
X141468465Y-109156797D01*
X141452031Y-109250000D01*
X141468465Y-109343203D01*
X141467781Y-109345082D01*
X141465811Y-109345429D01*
X141464713Y-109344458D01*
X141462461Y-109340038D01*
X141419444Y-109297020D01*
X141359686Y-109287556D01*
X141305626Y-109315101D01*
X141287610Y-109339898D01*
X141285287Y-109344458D01*
X141283610Y-109345547D01*
X141281828Y-109344639D01*
X141281535Y-109343203D01*
X141297969Y-109250000D01*
X141281535Y-109156797D01*
X141282219Y-109154918D01*
X141284189Y-109154571D01*
X141285287Y-109155542D01*
X141287539Y-109159962D01*
X141330556Y-109202980D01*
X141390314Y-109212444D01*
X141444374Y-109184899D01*
X141462390Y-109160102D01*
X141464713Y-109155542D01*
X141466390Y-109154453D01*
X141468172Y-109155361D01*
G37*
G36*
X150366484Y-100270942D02*
G01*
X150367168Y-100272821D01*
X150366106Y-100274256D01*
X150340038Y-100287539D01*
X150297020Y-100330556D01*
X150287556Y-100390314D01*
X150315101Y-100444374D01*
X150339899Y-100462390D01*
X150366106Y-100475744D01*
X150367195Y-100477421D01*
X150366287Y-100479203D01*
X150364514Y-100479405D01*
X150301742Y-100456558D01*
X150198258Y-100456558D01*
X150135486Y-100479405D01*
X150133516Y-100479058D01*
X150132832Y-100477179D01*
X150133894Y-100475744D01*
X150159962Y-100462461D01*
X150202980Y-100419444D01*
X150212444Y-100359686D01*
X150184899Y-100305626D01*
X150160101Y-100287610D01*
X150133894Y-100274256D01*
X150132805Y-100272579D01*
X150133713Y-100270797D01*
X150135486Y-100270595D01*
X150198258Y-100293442D01*
X150301742Y-100293442D01*
X150364514Y-100270595D01*
X150366484Y-100270942D01*
G37*
G36*
X151866484Y-100270942D02*
G01*
X151867168Y-100272821D01*
X151866106Y-100274256D01*
X151840038Y-100287539D01*
X151797020Y-100330556D01*
X151787556Y-100390314D01*
X151815101Y-100444374D01*
X151839899Y-100462390D01*
X151866106Y-100475744D01*
X151867195Y-100477421D01*
X151866287Y-100479203D01*
X151864514Y-100479405D01*
X151801742Y-100456558D01*
X151698258Y-100456558D01*
X151635486Y-100479405D01*
X151633516Y-100479058D01*
X151632832Y-100477179D01*
X151633894Y-100475744D01*
X151659962Y-100462461D01*
X151702980Y-100419444D01*
X151712444Y-100359686D01*
X151684899Y-100305626D01*
X151660101Y-100287610D01*
X151633894Y-100274256D01*
X151632805Y-100272579D01*
X151633713Y-100270797D01*
X151635486Y-100270595D01*
X151698258Y-100293442D01*
X151801742Y-100293442D01*
X151864514Y-100270595D01*
X151866484Y-100270942D01*
G37*
G36*
X150366484Y-99520942D02*
G01*
X150367168Y-99522821D01*
X150366106Y-99524256D01*
X150340038Y-99537539D01*
X150297020Y-99580556D01*
X150287556Y-99640314D01*
X150315101Y-99694374D01*
X150339899Y-99712390D01*
X150366106Y-99725744D01*
X150367195Y-99727421D01*
X150366287Y-99729203D01*
X150364514Y-99729405D01*
X150301742Y-99706558D01*
X150198258Y-99706558D01*
X150135486Y-99729405D01*
X150133516Y-99729058D01*
X150132832Y-99727179D01*
X150133894Y-99725744D01*
X150159962Y-99712461D01*
X150202980Y-99669444D01*
X150212444Y-99609686D01*
X150184899Y-99555626D01*
X150160101Y-99537610D01*
X150133894Y-99524256D01*
X150132805Y-99522579D01*
X150133713Y-99520797D01*
X150135486Y-99520595D01*
X150198258Y-99543442D01*
X150301742Y-99543442D01*
X150364514Y-99520595D01*
X150366484Y-99520942D01*
G37*
G36*
X151866484Y-99520942D02*
G01*
X151867168Y-99522821D01*
X151866106Y-99524256D01*
X151840038Y-99537539D01*
X151797020Y-99580556D01*
X151787556Y-99640314D01*
X151815101Y-99694374D01*
X151839899Y-99712390D01*
X151866106Y-99725744D01*
X151867195Y-99727421D01*
X151866287Y-99729203D01*
X151864514Y-99729405D01*
X151801742Y-99706558D01*
X151698258Y-99706558D01*
X151635486Y-99729405D01*
X151633516Y-99729058D01*
X151632832Y-99727179D01*
X151633894Y-99725744D01*
X151659962Y-99712461D01*
X151702980Y-99669444D01*
X151712444Y-99609686D01*
X151684899Y-99555626D01*
X151660101Y-99537610D01*
X151633894Y-99524256D01*
X151632805Y-99522579D01*
X151633713Y-99520797D01*
X151635486Y-99520595D01*
X151698258Y-99543442D01*
X151801742Y-99543442D01*
X151864514Y-99520595D01*
X151866484Y-99520942D01*
G37*
G36*
X124503868Y-92078999D02*
G01*
X124503868Y-92080999D01*
X124502465Y-92081972D01*
X124502459Y-92081973D01*
X124502130Y-92082000D01*
X121617870Y-92082000D01*
X121616138Y-92081000D01*
X121616138Y-92079000D01*
X121617870Y-92078000D01*
X124502136Y-92077999D01*
X124503868Y-92078999D01*
G37*
G36*
X175503868Y-92078999D02*
G01*
X175503868Y-92080999D01*
X175502465Y-92081972D01*
X175502459Y-92081973D01*
X175502130Y-92082000D01*
X172617870Y-92082000D01*
X172616138Y-92081000D01*
X172616138Y-92079000D01*
X172617870Y-92078000D01*
X175502136Y-92077999D01*
X175503868Y-92078999D01*
G37*
G36*
X124503862Y-90579000D02*
G01*
X124503862Y-90581000D01*
X124502130Y-90582000D01*
X121617864Y-90582001D01*
X121616132Y-90581001D01*
X121616132Y-90579001D01*
X121617535Y-90578028D01*
X121617541Y-90578027D01*
X121617870Y-90578000D01*
X124502130Y-90578000D01*
X124503862Y-90579000D01*
G37*
G36*
X175503862Y-90579000D02*
G01*
X175503862Y-90581000D01*
X175502130Y-90582000D01*
X172617864Y-90582001D01*
X172616132Y-90581001D01*
X172616132Y-90579001D01*
X172617535Y-90578028D01*
X172617541Y-90578027D01*
X172617870Y-90578000D01*
X175502130Y-90578000D01*
X175503862Y-90579000D01*
G37*
G36*
X124503868Y-87978999D02*
G01*
X124503868Y-87980999D01*
X124502465Y-87981972D01*
X124502459Y-87981973D01*
X124502130Y-87982000D01*
X121617870Y-87982000D01*
X121616138Y-87981000D01*
X121616138Y-87979000D01*
X121617870Y-87978000D01*
X124502136Y-87977999D01*
X124503868Y-87978999D01*
G37*
G36*
X175503868Y-87978999D02*
G01*
X175503868Y-87980999D01*
X175502465Y-87981972D01*
X175502459Y-87981973D01*
X175502130Y-87982000D01*
X172617870Y-87982000D01*
X172616138Y-87981000D01*
X172616138Y-87979000D01*
X172617870Y-87978000D01*
X175502136Y-87977999D01*
X175503868Y-87978999D01*
G37*
G36*
X175503862Y-86479000D02*
G01*
X175503862Y-86481000D01*
X175502130Y-86482000D01*
X172617864Y-86482001D01*
X172616132Y-86481001D01*
X172616132Y-86479001D01*
X172617535Y-86478028D01*
X172617541Y-86478027D01*
X172617870Y-86478000D01*
X175502130Y-86478000D01*
X175503862Y-86479000D01*
G37*
G36*
X124503862Y-86479000D02*
G01*
X124503862Y-86481000D01*
X124502130Y-86482000D01*
X121617864Y-86482001D01*
X121616132Y-86481001D01*
X121616132Y-86479001D01*
X121617535Y-86478028D01*
X121617541Y-86478027D01*
X121617870Y-86478000D01*
X124502130Y-86478000D01*
X124503862Y-86479000D01*
G37*
G36*
X192537523Y-77969752D02*
G01*
X192581118Y-78004119D01*
X192641573Y-78006493D01*
X192691977Y-77972814D01*
X192693973Y-77972683D01*
X192695084Y-77974346D01*
X192695050Y-77974867D01*
X192692000Y-77990199D01*
X192692000Y-79489801D01*
X192695677Y-79508287D01*
X192695034Y-79510181D01*
X192693072Y-79510571D01*
X192692477Y-79510248D01*
X192648882Y-79475881D01*
X192588427Y-79473507D01*
X192538023Y-79507186D01*
X192536027Y-79507317D01*
X192534916Y-79505654D01*
X192534950Y-79505133D01*
X192538000Y-79489801D01*
X192538000Y-77990199D01*
X192534323Y-77971713D01*
X192534966Y-77969819D01*
X192536928Y-77969429D01*
X192537523Y-77969752D01*
G37*
G36*
X193787523Y-77969752D02*
G01*
X193831118Y-78004119D01*
X193891573Y-78006493D01*
X193941977Y-77972814D01*
X193943973Y-77972683D01*
X193945084Y-77974346D01*
X193945050Y-77974867D01*
X193942000Y-77990199D01*
X193942000Y-79489801D01*
X193945677Y-79508287D01*
X193945034Y-79510181D01*
X193943072Y-79510571D01*
X193942477Y-79510248D01*
X193898882Y-79475881D01*
X193838427Y-79473507D01*
X193788023Y-79507186D01*
X193786027Y-79507317D01*
X193784916Y-79505654D01*
X193784950Y-79505133D01*
X193788000Y-79489801D01*
X193788000Y-77990199D01*
X193784323Y-77971713D01*
X193784966Y-77969819D01*
X193786928Y-77969429D01*
X193787523Y-77969752D01*
G37*
G36*
X141537523Y-77969752D02*
G01*
X141581118Y-78004119D01*
X141641573Y-78006493D01*
X141691977Y-77972814D01*
X141693973Y-77972683D01*
X141695084Y-77974346D01*
X141695050Y-77974867D01*
X141692000Y-77990199D01*
X141692000Y-79489801D01*
X141695677Y-79508287D01*
X141695034Y-79510181D01*
X141693072Y-79510571D01*
X141692477Y-79510248D01*
X141648882Y-79475881D01*
X141588427Y-79473507D01*
X141538023Y-79507186D01*
X141536027Y-79507317D01*
X141534916Y-79505654D01*
X141534950Y-79505133D01*
X141538000Y-79489801D01*
X141538000Y-77990199D01*
X141534323Y-77971713D01*
X141534966Y-77969819D01*
X141536928Y-77969429D01*
X141537523Y-77969752D01*
G37*
G36*
X142787523Y-77969752D02*
G01*
X142831118Y-78004119D01*
X142891573Y-78006493D01*
X142941977Y-77972814D01*
X142943973Y-77972683D01*
X142945084Y-77974346D01*
X142945050Y-77974867D01*
X142942000Y-77990199D01*
X142942000Y-79489801D01*
X142945677Y-79508287D01*
X142945034Y-79510181D01*
X142943072Y-79510571D01*
X142942477Y-79510248D01*
X142898882Y-79475881D01*
X142838427Y-79473507D01*
X142788023Y-79507186D01*
X142786027Y-79507317D01*
X142784916Y-79505654D01*
X142784950Y-79505133D01*
X142788000Y-79489801D01*
X142788000Y-77990199D01*
X142784323Y-77971713D01*
X142784966Y-77969819D01*
X142786928Y-77969429D01*
X142787523Y-77969752D01*
G37*
G36*
X150366484Y-71270942D02*
G01*
X150367168Y-71272821D01*
X150366106Y-71274256D01*
X150340038Y-71287539D01*
X150297020Y-71330556D01*
X150287556Y-71390314D01*
X150315101Y-71444374D01*
X150339899Y-71462390D01*
X150366106Y-71475744D01*
X150367195Y-71477421D01*
X150366287Y-71479203D01*
X150364514Y-71479405D01*
X150301742Y-71456558D01*
X150198258Y-71456558D01*
X150135486Y-71479405D01*
X150133516Y-71479058D01*
X150132832Y-71477179D01*
X150133894Y-71475744D01*
X150159962Y-71462461D01*
X150202980Y-71419444D01*
X150212444Y-71359686D01*
X150184899Y-71305626D01*
X150160101Y-71287610D01*
X150133894Y-71274256D01*
X150132805Y-71272579D01*
X150133713Y-71270797D01*
X150135486Y-71270595D01*
X150198258Y-71293442D01*
X150301742Y-71293442D01*
X150364514Y-71270595D01*
X150366484Y-71270942D01*
G37*
G36*
X151866484Y-71270942D02*
G01*
X151867168Y-71272821D01*
X151866106Y-71274256D01*
X151840038Y-71287539D01*
X151797020Y-71330556D01*
X151787556Y-71390314D01*
X151815101Y-71444374D01*
X151839899Y-71462390D01*
X151866106Y-71475744D01*
X151867195Y-71477421D01*
X151866287Y-71479203D01*
X151864514Y-71479405D01*
X151801742Y-71456558D01*
X151698258Y-71456558D01*
X151635486Y-71479405D01*
X151633516Y-71479058D01*
X151632832Y-71477179D01*
X151633894Y-71475744D01*
X151659962Y-71462461D01*
X151702980Y-71419444D01*
X151712444Y-71359686D01*
X151684899Y-71305626D01*
X151660101Y-71287610D01*
X151633894Y-71274256D01*
X151632805Y-71272579D01*
X151633713Y-71270797D01*
X151635486Y-71270595D01*
X151698258Y-71293442D01*
X151801742Y-71293442D01*
X151864514Y-71270595D01*
X151866484Y-71270942D01*
G37*
G36*
X151866484Y-70520942D02*
G01*
X151867168Y-70522821D01*
X151866106Y-70524256D01*
X151840038Y-70537539D01*
X151797020Y-70580556D01*
X151787556Y-70640314D01*
X151815101Y-70694374D01*
X151839899Y-70712390D01*
X151866106Y-70725744D01*
X151867195Y-70727421D01*
X151866287Y-70729203D01*
X151864514Y-70729405D01*
X151801742Y-70706558D01*
X151698258Y-70706558D01*
X151635486Y-70729405D01*
X151633516Y-70729058D01*
X151632832Y-70727179D01*
X151633894Y-70725744D01*
X151659962Y-70712461D01*
X151702980Y-70669444D01*
X151712444Y-70609686D01*
X151684899Y-70555626D01*
X151660101Y-70537610D01*
X151633894Y-70524256D01*
X151632805Y-70522579D01*
X151633713Y-70520797D01*
X151635486Y-70520595D01*
X151698258Y-70543442D01*
X151801742Y-70543442D01*
X151864514Y-70520595D01*
X151866484Y-70520942D01*
G37*
G36*
X150366484Y-70520942D02*
G01*
X150367168Y-70522821D01*
X150366106Y-70524256D01*
X150340038Y-70537539D01*
X150297020Y-70580556D01*
X150287556Y-70640314D01*
X150315101Y-70694374D01*
X150339899Y-70712390D01*
X150366106Y-70725744D01*
X150367195Y-70727421D01*
X150366287Y-70729203D01*
X150364514Y-70729405D01*
X150301742Y-70706558D01*
X150198258Y-70706558D01*
X150135486Y-70729405D01*
X150133516Y-70729058D01*
X150132832Y-70727179D01*
X150133894Y-70725744D01*
X150159962Y-70712461D01*
X150202980Y-70669444D01*
X150212444Y-70609686D01*
X150184899Y-70555626D01*
X150160101Y-70537610D01*
X150133894Y-70524256D01*
X150132805Y-70522579D01*
X150133713Y-70520797D01*
X150135486Y-70520595D01*
X150198258Y-70543442D01*
X150301742Y-70543442D01*
X150364514Y-70520595D01*
X150366484Y-70520942D01*
G37*
M02*
