G04 #@! TF.GenerationSoftware,KiCad,Pcbnew,(6.0.9)*
G04 #@! TF.CreationDate,2023-01-12T22:26:48+07:00*
G04 #@! TF.ProjectId,ESP12CORE_B_panel,45535031-3243-44f5-9245-5f425f70616e,rev?*
G04 #@! TF.SameCoordinates,Original*
G04 #@! TF.FileFunction,Profile,NP*
%FSLAX46Y46*%
G04 Gerber Fmt 4.6, Leading zero omitted, Abs format (unit mm)*
G04 Created by KiCad (PCBNEW (6.0.9)) date 2023-01-12 22:26:48*
%MOMM*%
%LPD*%
G01*
G04 APERTURE LIST*
G04 #@! TA.AperFunction,Profile*
%ADD10C,0.020000*%
G04 #@! TD*
G04 #@! TA.AperFunction,Profile*
%ADD11C,0.100000*%
G04 #@! TD*
G04 APERTURE END LIST*
D10*
X154000000Y-160000000D02*
X199000000Y-160000000D01*
X152000000Y-158000000D02*
G75*
G03*
X154000000Y-160000000I2000000J0D01*
G01*
X154000000Y-109000000D02*
X159000000Y-109000000D01*
D11*
X159000000Y-111000000D02*
G75*
G03*
X159000000Y-109000000I0J1000000D01*
G01*
D10*
X103000000Y-160000000D02*
X148000000Y-160000000D01*
X101000000Y-113000000D02*
X101000000Y-158000000D01*
X103000000Y-111000000D02*
X110000000Y-111000000D01*
X150000000Y-113000000D02*
X150000000Y-118000000D01*
X152000000Y-118000000D02*
X152000000Y-113000000D01*
X159000000Y-111000000D02*
X154000000Y-111000000D01*
X192000000Y-109000000D02*
X199000000Y-109000000D01*
X192000000Y-111000000D02*
X199000000Y-111000000D01*
X201000000Y-158000000D02*
X201000000Y-113000000D01*
X154000000Y-60000000D02*
X199000000Y-60000000D01*
X201000000Y-68100000D02*
X201000000Y-62000000D01*
X103000000Y-111000000D02*
G75*
G03*
X101000000Y-113000000I0J-2000000D01*
G01*
X152000000Y-151000000D02*
X152000000Y-158000000D01*
X150000000Y-158000000D02*
X150000000Y-151000000D01*
X199000000Y-160000000D02*
G75*
G03*
X201000000Y-158000000I0J2000000D01*
G01*
D11*
X152000000Y-151000000D02*
G75*
G03*
X150000000Y-151000000I-1000000J0D01*
G01*
D10*
X139000000Y-109000000D02*
X114000000Y-109000000D01*
X114000000Y-111000000D02*
X139000000Y-111000000D01*
X108000000Y-109000000D02*
X110000000Y-109000000D01*
X152000000Y-147000000D02*
X152000000Y-122000000D01*
X150000000Y-122000000D02*
X150000000Y-147000000D01*
D11*
X188000000Y-111000000D02*
G75*
G03*
X188000000Y-109000000I0J1000000D01*
G01*
X150000000Y-147000000D02*
G75*
G03*
X152000000Y-147000000I1000000J0D01*
G01*
X152000000Y-122000000D02*
G75*
G03*
X150000000Y-122000000I-1000000J0D01*
G01*
D10*
X150000000Y-62000000D02*
G75*
G03*
X148000000Y-60000000I-2000000J0D01*
G01*
D11*
X150000000Y-98000000D02*
G75*
G03*
X152000000Y-98000000I1000000J0D01*
G01*
X152000000Y-73000000D02*
G75*
G03*
X150000000Y-73000000I-1000000J0D01*
G01*
D10*
X154000000Y-111000000D02*
G75*
G03*
X152000000Y-113000000I0J-2000000D01*
G01*
X201000000Y-72000000D02*
X201000000Y-68100000D01*
X103000000Y-109000000D02*
X108000000Y-109000000D01*
X201000000Y-113000000D02*
G75*
G03*
X199000000Y-111000000I-2000000J0D01*
G01*
X101000000Y-158000000D02*
G75*
G03*
X103000000Y-160000000I2000000J0D01*
G01*
X201000000Y-98000000D02*
X201000000Y-72000000D01*
X148000000Y-109000000D02*
G75*
G03*
X150000000Y-107000000I0J2000000D01*
G01*
X199000000Y-109000000D02*
G75*
G03*
X201000000Y-107000000I0J2000000D01*
G01*
X148000000Y-109000000D02*
X143000000Y-109000000D01*
X148000000Y-160000000D02*
G75*
G03*
X150000000Y-158000000I0J2000000D01*
G01*
D11*
X143000000Y-109000000D02*
G75*
G03*
X143000000Y-111000000I0J-1000000D01*
G01*
D10*
X103000000Y-60000000D02*
G75*
G03*
X101000000Y-62000000I0J-2000000D01*
G01*
X201000000Y-62000000D02*
G75*
G03*
X199000000Y-60000000I-2000000J0D01*
G01*
D11*
X110000000Y-111000000D02*
G75*
G03*
X110000000Y-109000000I0J1000000D01*
G01*
D10*
X152000000Y-107000000D02*
G75*
G03*
X154000000Y-109000000I2000000J0D01*
G01*
X101000000Y-107000000D02*
G75*
G03*
X103000000Y-109000000I2000000J0D01*
G01*
D11*
X150000000Y-69000000D02*
G75*
G03*
X152000000Y-69000000I1000000J0D01*
G01*
X152000000Y-102000000D02*
G75*
G03*
X150000000Y-102000000I-1000000J0D01*
G01*
D10*
X201000000Y-107000000D02*
X201000000Y-102000000D01*
D11*
X163000000Y-109000000D02*
G75*
G03*
X163000000Y-111000000I0J-1000000D01*
G01*
D10*
X188000000Y-109000000D02*
X163000000Y-109000000D01*
X150000000Y-113000000D02*
G75*
G03*
X148000000Y-111000000I-2000000J0D01*
G01*
X201000000Y-102000000D02*
X201000000Y-98000000D01*
X154000000Y-60000000D02*
G75*
G03*
X152000000Y-62000000I0J-2000000D01*
G01*
X152000000Y-69000000D02*
X152000000Y-62000000D01*
X152000000Y-102000000D02*
X152000000Y-107000000D01*
X103000000Y-60000000D02*
X148000000Y-60000000D01*
D11*
X114000000Y-109000000D02*
G75*
G03*
X114000000Y-111000000I0J-1000000D01*
G01*
D10*
X101000000Y-107000000D02*
X101000000Y-62000000D01*
X150000000Y-69000000D02*
X150000000Y-62000000D01*
X150000000Y-107000000D02*
X150000000Y-102000000D01*
D11*
X192000000Y-109000000D02*
G75*
G03*
X192000000Y-111000000I0J-1000000D01*
G01*
D10*
X163000000Y-111000000D02*
X188000000Y-111000000D01*
X143000000Y-111000000D02*
X148000000Y-111000000D01*
D11*
X139000000Y-111000000D02*
G75*
G03*
X139000000Y-109000000I0J1000000D01*
G01*
D10*
X150000000Y-98000000D02*
X150000000Y-73000000D01*
X152000000Y-98000000D02*
X152000000Y-73000000D01*
D11*
X150000000Y-118000000D02*
G75*
G03*
X152000000Y-118000000I1000000J0D01*
G01*
M02*
