G04 #@! TF.GenerationSoftware,KiCad,Pcbnew,(6.0.9)*
G04 #@! TF.CreationDate,2023-01-12T22:26:46+07:00*
G04 #@! TF.ProjectId,ESP12CORE_B_panel,45535031-3243-44f5-9245-5f425f70616e,rev?*
G04 #@! TF.SameCoordinates,Original*
G04 #@! TF.FileFunction,Soldermask,Top*
G04 #@! TF.FilePolarity,Negative*
%FSLAX46Y46*%
G04 Gerber Fmt 4.6, Leading zero omitted, Abs format (unit mm)*
G04 Created by KiCad (PCBNEW (6.0.9)) date 2023-01-12 22:26:46*
%MOMM*%
%LPD*%
G01*
G04 APERTURE LIST*
G04 Aperture macros list*
%AMRoundRect*
0 Rectangle with rounded corners*
0 $1 Rounding radius*
0 $2 $3 $4 $5 $6 $7 $8 $9 X,Y pos of 4 corners*
0 Add a 4 corners polygon primitive as box body*
4,1,4,$2,$3,$4,$5,$6,$7,$8,$9,$2,$3,0*
0 Add four circle primitives for the rounded corners*
1,1,$1+$1,$2,$3*
1,1,$1+$1,$4,$5*
1,1,$1+$1,$6,$7*
1,1,$1+$1,$8,$9*
0 Add four rect primitives between the rounded corners*
20,1,$1+$1,$2,$3,$4,$5,0*
20,1,$1+$1,$4,$5,$6,$7,0*
20,1,$1+$1,$6,$7,$8,$9,0*
20,1,$1+$1,$8,$9,$2,$3,0*%
G04 Aperture macros list end*
%ADD10RoundRect,0.050000X-1.250000X-0.500000X1.250000X-0.500000X1.250000X0.500000X-1.250000X0.500000X0*%
%ADD11RoundRect,0.050000X-0.500000X-0.900000X0.500000X-0.900000X0.500000X0.900000X-0.500000X0.900000X0*%
%ADD12C,0.600000*%
%ADD13RoundRect,0.300000X0.600000X0.600000X-0.600000X0.600000X-0.600000X-0.600000X0.600000X-0.600000X0*%
%ADD14C,1.800000*%
%ADD15RoundRect,0.050000X-0.850000X0.850000X-0.850000X-0.850000X0.850000X-0.850000X0.850000X0.850000X0*%
%ADD16O,1.800000X1.800000*%
%ADD17RoundRect,0.050000X0.600000X-0.450000X0.600000X0.450000X-0.600000X0.450000X-0.600000X-0.450000X0*%
%ADD18RoundRect,0.050000X-0.175000X0.250000X-0.175000X-0.250000X0.175000X-0.250000X0.175000X0.250000X0*%
%ADD19C,0.900000*%
%ADD20RoundRect,0.050000X-0.850000X0.450000X-0.850000X-0.450000X0.850000X-0.450000X0.850000X0.450000X0*%
%ADD21RoundRect,0.200000X-0.150000X0.587500X-0.150000X-0.587500X0.150000X-0.587500X0.150000X0.587500X0*%
%ADD22RoundRect,0.050000X-0.600000X0.450000X-0.600000X-0.450000X0.600000X-0.450000X0.600000X0.450000X0*%
%ADD23RoundRect,0.300000X-0.262500X-0.450000X0.262500X-0.450000X0.262500X0.450000X-0.262500X0.450000X0*%
%ADD24RoundRect,0.300000X0.262500X0.450000X-0.262500X0.450000X-0.262500X-0.450000X0.262500X-0.450000X0*%
%ADD25RoundRect,0.300000X-1.250000X-0.550000X1.250000X-0.550000X1.250000X0.550000X-1.250000X0.550000X0*%
%ADD26RoundRect,0.200000X-0.875000X-0.150000X0.875000X-0.150000X0.875000X0.150000X-0.875000X0.150000X0*%
%ADD27C,6.500000*%
%ADD28RoundRect,0.300000X-0.250000X-0.475000X0.250000X-0.475000X0.250000X0.475000X-0.250000X0.475000X0*%
%ADD29RoundRect,0.200000X-0.825000X-0.150000X0.825000X-0.150000X0.825000X0.150000X-0.825000X0.150000X0*%
%ADD30C,1.500000*%
%ADD31RoundRect,0.300000X-0.600000X-0.600000X0.600000X-0.600000X0.600000X0.600000X-0.600000X0.600000X0*%
%ADD32RoundRect,0.200000X0.150000X-0.587500X0.150000X0.587500X-0.150000X0.587500X-0.150000X-0.587500X0*%
%ADD33RoundRect,0.200000X-0.512500X-0.150000X0.512500X-0.150000X0.512500X0.150000X-0.512500X0.150000X0*%
%ADD34RoundRect,0.050000X0.850000X0.850000X-0.850000X0.850000X-0.850000X-0.850000X0.850000X-0.850000X0*%
%ADD35RoundRect,0.050000X-1.250000X-1.150000X1.250000X-1.150000X1.250000X1.150000X-1.250000X1.150000X0*%
%ADD36RoundRect,0.300000X-0.650000X0.325000X-0.650000X-0.325000X0.650000X-0.325000X0.650000X0.325000X0*%
%ADD37RoundRect,0.300000X0.450000X-0.262500X0.450000X0.262500X-0.450000X0.262500X-0.450000X-0.262500X0*%
%ADD38RoundRect,0.300000X0.475000X-0.250000X0.475000X0.250000X-0.475000X0.250000X-0.475000X-0.250000X0*%
%ADD39RoundRect,0.200000X-0.150000X0.825000X-0.150000X-0.825000X0.150000X-0.825000X0.150000X0.825000X0*%
%ADD40RoundRect,0.200000X-0.150000X0.512500X-0.150000X-0.512500X0.150000X-0.512500X0.150000X0.512500X0*%
%ADD41RoundRect,0.293750X-0.456250X0.243750X-0.456250X-0.243750X0.456250X-0.243750X0.456250X0.243750X0*%
%ADD42RoundRect,0.293750X0.456250X-0.243750X0.456250X0.243750X-0.456250X0.243750X-0.456250X-0.243750X0*%
%ADD43O,0.900000X0.900000*%
%ADD44RoundRect,0.050000X0.225000X0.650000X-0.225000X0.650000X-0.225000X-0.650000X0.225000X-0.650000X0*%
%ADD45O,1.250000X1.900000*%
%ADD46O,1.550000X2.100000*%
%ADD47RoundRect,0.300000X0.375000X1.075000X-0.375000X1.075000X-0.375000X-1.075000X0.375000X-1.075000X0*%
%ADD48RoundRect,0.050000X0.200000X0.950000X-0.200000X0.950000X-0.200000X-0.950000X0.200000X-0.950000X0*%
%ADD49RoundRect,0.050000X-1.500000X-1.500000X1.500000X-1.500000X1.500000X1.500000X-1.500000X1.500000X0*%
%ADD50C,3.100000*%
%ADD51RoundRect,0.300000X-0.450000X0.262500X-0.450000X-0.262500X0.450000X-0.262500X0.450000X0.262500X0*%
G04 APERTURE END LIST*
D10*
X164400000Y-112328000D03*
X164400000Y-114328000D03*
X164400000Y-116328000D03*
X164400000Y-118328000D03*
X164400000Y-120328000D03*
X164400000Y-122328000D03*
X164400000Y-124328000D03*
X164400000Y-126328000D03*
D11*
X167000000Y-127828000D03*
X169000000Y-127828000D03*
X171000000Y-127828000D03*
X173000000Y-127828000D03*
X175000000Y-127828000D03*
X177000000Y-127828000D03*
D10*
X179600000Y-126328000D03*
X179600000Y-124328000D03*
X179600000Y-122328000D03*
X179600000Y-120328000D03*
X179600000Y-118328000D03*
X179600000Y-116328000D03*
X179600000Y-114328000D03*
X179600000Y-112328000D03*
X113400000Y-112328000D03*
X113400000Y-114328000D03*
X113400000Y-116328000D03*
X113400000Y-118328000D03*
X113400000Y-120328000D03*
X113400000Y-122328000D03*
X113400000Y-124328000D03*
X113400000Y-126328000D03*
D11*
X116000000Y-127828000D03*
X118000000Y-127828000D03*
X120000000Y-127828000D03*
X122000000Y-127828000D03*
X124000000Y-127828000D03*
X126000000Y-127828000D03*
D10*
X128600000Y-126328000D03*
X128600000Y-124328000D03*
X128600000Y-122328000D03*
X128600000Y-120328000D03*
X128600000Y-118328000D03*
X128600000Y-116328000D03*
X128600000Y-114328000D03*
X128600000Y-112328000D03*
D12*
X150250000Y-148250000D03*
X150250000Y-149750000D03*
X151750000Y-149750000D03*
X151750000Y-148250000D03*
X150250000Y-149000000D03*
X151750000Y-149000000D03*
D13*
X145843909Y-95758668D03*
D14*
X143303909Y-95758668D03*
X145843909Y-93218668D03*
X143303909Y-93218668D03*
X145843909Y-90678668D03*
X143303909Y-90678668D03*
X145843909Y-88138668D03*
X143303909Y-88138668D03*
X145843909Y-85598668D03*
X143303909Y-85598668D03*
D15*
X180480000Y-99133737D03*
D16*
X177940000Y-99133737D03*
X175400000Y-99133737D03*
X172860000Y-99133737D03*
D17*
X179350000Y-147525000D03*
X179350000Y-144225000D03*
D18*
X195572362Y-78726687D03*
X194922362Y-78726687D03*
X194272362Y-78726687D03*
X193622362Y-78726687D03*
X193622362Y-77126687D03*
X194272362Y-77126687D03*
X194922362Y-77126687D03*
X195572362Y-77126687D03*
D19*
X110200827Y-62587897D03*
D20*
X110200827Y-60887897D03*
X110200827Y-64287897D03*
D21*
X165197348Y-90358224D03*
X163297348Y-90358224D03*
X164247348Y-92233224D03*
D22*
X176852177Y-144199169D03*
X176852177Y-147499169D03*
D23*
X182105336Y-121104000D03*
X183930336Y-121104000D03*
D24*
X177316594Y-79561634D03*
X175491594Y-79561634D03*
D23*
X175476200Y-87630000D03*
X177301200Y-87630000D03*
D25*
X184182000Y-140154000D03*
X188582000Y-140154000D03*
D22*
X130825000Y-93250000D03*
X130825000Y-96550000D03*
D26*
X163825000Y-130230000D03*
X163825000Y-131500000D03*
X163825000Y-132770000D03*
X163825000Y-134040000D03*
X163825000Y-135310000D03*
X163825000Y-136580000D03*
X163825000Y-137850000D03*
X163825000Y-139120000D03*
X173125000Y-139120000D03*
X173125000Y-137850000D03*
X173125000Y-136580000D03*
X173125000Y-135310000D03*
X173125000Y-134040000D03*
X173125000Y-132770000D03*
X173125000Y-131500000D03*
X173125000Y-130230000D03*
D23*
X124510809Y-136598000D03*
X126335809Y-136598000D03*
X131105336Y-121104000D03*
X132930336Y-121104000D03*
D19*
X144352944Y-103302944D03*
X146050000Y-102600000D03*
D27*
X146050000Y-105000000D03*
D19*
X147747056Y-103302944D03*
X146050000Y-107400000D03*
X144352944Y-106697056D03*
X147747056Y-106697056D03*
X143650000Y-105000000D03*
X148450000Y-105000000D03*
D24*
X168752500Y-143235934D03*
X166927500Y-143235934D03*
D21*
X129973541Y-82670793D03*
X128073541Y-82670793D03*
X129023541Y-84545793D03*
D24*
X177333864Y-83566000D03*
X175508864Y-83566000D03*
D23*
X175510809Y-136598000D03*
X177335809Y-136598000D03*
D22*
X181825000Y-93250000D03*
X181825000Y-96550000D03*
D24*
X131915699Y-80238384D03*
X130090699Y-80238384D03*
X183933550Y-72136000D03*
X182108550Y-72136000D03*
D28*
X189938000Y-129740000D03*
X191838000Y-129740000D03*
D24*
X183932840Y-68072000D03*
X182107840Y-68072000D03*
X181452500Y-86868000D03*
X179627500Y-86868000D03*
D29*
X135203064Y-118647726D03*
X135203064Y-119917726D03*
X135203064Y-121187726D03*
X135203064Y-122457726D03*
X135203064Y-123727726D03*
X135203064Y-124997726D03*
X135203064Y-126267726D03*
X135203064Y-127537726D03*
X140153064Y-127537726D03*
X140153064Y-126267726D03*
X140153064Y-124997726D03*
X140153064Y-123727726D03*
X140153064Y-122457726D03*
X140153064Y-121187726D03*
X140153064Y-119917726D03*
X140153064Y-118647726D03*
D24*
X168752500Y-92235934D03*
X166927500Y-92235934D03*
D19*
X105000000Y-117150000D03*
X106697056Y-116447056D03*
X102600000Y-114750000D03*
X105000000Y-112350000D03*
X103302944Y-113052944D03*
D27*
X105000000Y-114750000D03*
D19*
X106697056Y-113052944D03*
X103302944Y-116447056D03*
X107400000Y-114750000D03*
D30*
X142240000Y-153616000D03*
D25*
X133186648Y-134263189D03*
X137586648Y-134263189D03*
D31*
X156204868Y-123917125D03*
D14*
X158744868Y-123917125D03*
X156204868Y-126457125D03*
X158744868Y-126457125D03*
X156204868Y-128997125D03*
X158744868Y-128997125D03*
X156204868Y-131537125D03*
X158744868Y-131537125D03*
X156204868Y-134077125D03*
X158744868Y-134077125D03*
X156204868Y-136617125D03*
X158744868Y-136617125D03*
X156204868Y-139157125D03*
X158744868Y-139157125D03*
X156204868Y-141697125D03*
X158744868Y-141697125D03*
X156204868Y-144237125D03*
X158744868Y-144237125D03*
X156204868Y-146777125D03*
X158744868Y-146777125D03*
D32*
X131063050Y-129153500D03*
X132963050Y-129153500D03*
X132013050Y-127278500D03*
D33*
X172392500Y-145180000D03*
X172392500Y-146130000D03*
X172392500Y-147080000D03*
X174667500Y-147080000D03*
X174667500Y-145180000D03*
D24*
X117752500Y-141170000D03*
X115927500Y-141170000D03*
D28*
X189938000Y-78740000D03*
X191838000Y-78740000D03*
D30*
X102616000Y-118818000D03*
D17*
X179350000Y-96525000D03*
X179350000Y-93225000D03*
D23*
X182105336Y-70104000D03*
X183930336Y-70104000D03*
D30*
X108966000Y-102870000D03*
D34*
X143606599Y-74422000D03*
D16*
X143606599Y-71882000D03*
X143606599Y-69342000D03*
D22*
X181825000Y-144250000D03*
X181825000Y-147550000D03*
D34*
X147500856Y-127995980D03*
D16*
X147500856Y-125455980D03*
X147500856Y-122915980D03*
X147500856Y-120375980D03*
D35*
X184622000Y-94488000D03*
X188922000Y-94488000D03*
D33*
X121392500Y-94180000D03*
X121392500Y-95130000D03*
X121392500Y-96080000D03*
X123667500Y-96080000D03*
X123667500Y-94180000D03*
D36*
X118480000Y-97075000D03*
X118480000Y-100025000D03*
D37*
X122174000Y-92352500D03*
X122174000Y-90527500D03*
D12*
X141750000Y-109250000D03*
X141750000Y-110750000D03*
X140250000Y-109250000D03*
X140250000Y-110750000D03*
X141000000Y-110750000D03*
X141000000Y-109250000D03*
D25*
X184186648Y-134263189D03*
X188586648Y-134263189D03*
D17*
X128350000Y-96525000D03*
X128350000Y-93225000D03*
D19*
X153600000Y-156000000D03*
X156000000Y-158400000D03*
D27*
X156000000Y-156000000D03*
D19*
X157697056Y-154302944D03*
X157697056Y-157697056D03*
X158400000Y-156000000D03*
X156000000Y-153600000D03*
X154302944Y-154302944D03*
X154302944Y-157697056D03*
D31*
X105204868Y-72917125D03*
D14*
X107744868Y-72917125D03*
X105204868Y-75457125D03*
X107744868Y-75457125D03*
X105204868Y-77997125D03*
X107744868Y-77997125D03*
X105204868Y-80537125D03*
X107744868Y-80537125D03*
X105204868Y-83077125D03*
X107744868Y-83077125D03*
X105204868Y-85617125D03*
X107744868Y-85617125D03*
X105204868Y-88157125D03*
X107744868Y-88157125D03*
X105204868Y-90697125D03*
X107744868Y-90697125D03*
X105204868Y-93237125D03*
X107744868Y-93237125D03*
X105204868Y-95777125D03*
X107744868Y-95777125D03*
D35*
X133622000Y-94488000D03*
X137922000Y-94488000D03*
D24*
X132933550Y-72136000D03*
X131108550Y-72136000D03*
D38*
X177618095Y-91440000D03*
X177618095Y-89540000D03*
D36*
X169480000Y-148075000D03*
X169480000Y-151025000D03*
D37*
X173174000Y-143352500D03*
X173174000Y-141527500D03*
D30*
X193240000Y-102616000D03*
D22*
X125852177Y-93199169D03*
X125852177Y-96499169D03*
D24*
X132933550Y-123136000D03*
X131108550Y-123136000D03*
X126333864Y-83566000D03*
X124508864Y-83566000D03*
D17*
X128350000Y-147525000D03*
X128350000Y-144225000D03*
D19*
X144352944Y-62052944D03*
X144352944Y-65447056D03*
X147747056Y-65447056D03*
X146050000Y-61350000D03*
X147747056Y-62052944D03*
X143650000Y-63750000D03*
X146050000Y-66150000D03*
D27*
X146050000Y-63750000D03*
D19*
X148450000Y-63750000D03*
D23*
X124476200Y-138630000D03*
X126301200Y-138630000D03*
D24*
X132932840Y-68072000D03*
X131107840Y-68072000D03*
D23*
X124510809Y-85598000D03*
X126335809Y-85598000D03*
D21*
X138663636Y-97959082D03*
X136763636Y-97959082D03*
X137713636Y-99834082D03*
D30*
X108966000Y-153870000D03*
D24*
X131915699Y-131238384D03*
X130090699Y-131238384D03*
D39*
X167130000Y-94675000D03*
X165860000Y-94675000D03*
X164590000Y-94675000D03*
X163320000Y-94675000D03*
X163320000Y-99625000D03*
X164590000Y-99625000D03*
X165860000Y-99625000D03*
X167130000Y-99625000D03*
D23*
X182098906Y-125168000D03*
X183923906Y-125168000D03*
D25*
X133186648Y-83263189D03*
X137586648Y-83263189D03*
D37*
X182508320Y-117268384D03*
X182508320Y-115443384D03*
D21*
X189663636Y-148959082D03*
X187763636Y-148959082D03*
X188713636Y-150834082D03*
D37*
X179270000Y-80819000D03*
X179270000Y-78994000D03*
D24*
X183933550Y-123136000D03*
X182108550Y-123136000D03*
D34*
X194606599Y-125422000D03*
D16*
X194606599Y-122882000D03*
X194606599Y-120342000D03*
D24*
X119588725Y-145234000D03*
X117763725Y-145234000D03*
D19*
X197050000Y-66150000D03*
X199450000Y-63750000D03*
X194650000Y-63750000D03*
X198747056Y-62052944D03*
X195352944Y-65447056D03*
X197050000Y-61350000D03*
X195352944Y-62052944D03*
D27*
X197050000Y-63750000D03*
D19*
X198747056Y-65447056D03*
D26*
X163825000Y-79230000D03*
X163825000Y-80500000D03*
X163825000Y-81770000D03*
X163825000Y-83040000D03*
X163825000Y-84310000D03*
X163825000Y-85580000D03*
X163825000Y-86850000D03*
X163825000Y-88120000D03*
X173125000Y-88120000D03*
X173125000Y-86850000D03*
X173125000Y-85580000D03*
X173125000Y-84310000D03*
X173125000Y-83040000D03*
X173125000Y-81770000D03*
X173125000Y-80500000D03*
X173125000Y-79230000D03*
D25*
X184186648Y-83263189D03*
X188586648Y-83263189D03*
D19*
X197050000Y-158400000D03*
X195352944Y-154302944D03*
X194650000Y-156000000D03*
X197050000Y-153600000D03*
X198747056Y-154302944D03*
X198747056Y-157697056D03*
D27*
X197050000Y-156000000D03*
D19*
X199450000Y-156000000D03*
X195352944Y-157697056D03*
D24*
X110890107Y-117206359D03*
X109065107Y-117206359D03*
D37*
X131508320Y-117268384D03*
X131508320Y-115443384D03*
D24*
X117752500Y-90170000D03*
X115927500Y-90170000D03*
D40*
X181490000Y-89032500D03*
X180540000Y-89032500D03*
X179590000Y-89032500D03*
X179590000Y-91307500D03*
X181490000Y-91307500D03*
D41*
X124538237Y-89565000D03*
X124538237Y-91440000D03*
D40*
X130490000Y-140032500D03*
X129540000Y-140032500D03*
X128590000Y-140032500D03*
X128590000Y-142307500D03*
X130490000Y-142307500D03*
D21*
X114197348Y-90358224D03*
X112297348Y-90358224D03*
X113247348Y-92233224D03*
D24*
X126316594Y-130561634D03*
X124491594Y-130561634D03*
D36*
X118480000Y-148075000D03*
X118480000Y-151025000D03*
D24*
X126342608Y-132564676D03*
X124517608Y-132564676D03*
D41*
X175538237Y-89565000D03*
X175538237Y-91440000D03*
D42*
X170888000Y-143377500D03*
X170888000Y-141502500D03*
D25*
X133182000Y-89154000D03*
X137582000Y-89154000D03*
D21*
X129973541Y-133670793D03*
X128073541Y-133670793D03*
X129023541Y-135545793D03*
D23*
X131098906Y-74168000D03*
X132923906Y-74168000D03*
D31*
X156204868Y-72917125D03*
D14*
X158744868Y-72917125D03*
X156204868Y-75457125D03*
X158744868Y-75457125D03*
X156204868Y-77997125D03*
X158744868Y-77997125D03*
X156204868Y-80537125D03*
X158744868Y-80537125D03*
X156204868Y-83077125D03*
X158744868Y-83077125D03*
X156204868Y-85617125D03*
X158744868Y-85617125D03*
X156204868Y-88157125D03*
X158744868Y-88157125D03*
X156204868Y-90697125D03*
X158744868Y-90697125D03*
X156204868Y-93237125D03*
X158744868Y-93237125D03*
X156204868Y-95777125D03*
X158744868Y-95777125D03*
D15*
X129480000Y-99133737D03*
D16*
X126940000Y-99133737D03*
X124400000Y-99133737D03*
X121860000Y-99133737D03*
D43*
X186041582Y-115190224D03*
X191041582Y-115190224D03*
D44*
X189841582Y-116290224D03*
X189191582Y-116290224D03*
X188541582Y-116290224D03*
X187891582Y-116290224D03*
X187241582Y-116290224D03*
D45*
X192416582Y-112440224D03*
D46*
X192266582Y-116240224D03*
X184816582Y-116240224D03*
D45*
X184666582Y-112440224D03*
D42*
X170888000Y-92377500D03*
X170888000Y-90502500D03*
D25*
X133182000Y-140154000D03*
X137582000Y-140154000D03*
D13*
X196843909Y-146758668D03*
D14*
X194303909Y-146758668D03*
X196843909Y-144218668D03*
X194303909Y-144218668D03*
X196843909Y-141678668D03*
X194303909Y-141678668D03*
X196843909Y-139138668D03*
X194303909Y-139138668D03*
X196843909Y-136598668D03*
X194303909Y-136598668D03*
D34*
X147500856Y-76995980D03*
D16*
X147500856Y-74455980D03*
X147500856Y-71915980D03*
X147500856Y-69375980D03*
D23*
X131105336Y-70104000D03*
X132930336Y-70104000D03*
D19*
X143650000Y-114750000D03*
D27*
X146050000Y-114750000D03*
D19*
X147747056Y-116447056D03*
X144352944Y-116447056D03*
X146050000Y-117150000D03*
X147747056Y-113052944D03*
X146050000Y-112350000D03*
X148450000Y-114750000D03*
X144352944Y-113052944D03*
X153600000Y-105000000D03*
X156000000Y-102600000D03*
D27*
X156000000Y-105000000D03*
D19*
X157697056Y-103302944D03*
X158400000Y-105000000D03*
X157697056Y-106697056D03*
X154302944Y-106697056D03*
X156000000Y-107400000D03*
X154302944Y-103302944D03*
D24*
X177342608Y-81564676D03*
X175517608Y-81564676D03*
D21*
X165197348Y-141358224D03*
X163297348Y-141358224D03*
X164247348Y-143233224D03*
D25*
X184182000Y-89154000D03*
X188582000Y-89154000D03*
D30*
X153616000Y-67818000D03*
D41*
X175538237Y-140565000D03*
X175538237Y-142440000D03*
D24*
X117752500Y-143235934D03*
X115927500Y-143235934D03*
X170588725Y-145234000D03*
X168763725Y-145234000D03*
D47*
X135004000Y-150060000D03*
X132204000Y-150060000D03*
D24*
X170588725Y-94234000D03*
X168763725Y-94234000D03*
D29*
X186203064Y-67647726D03*
X186203064Y-68917726D03*
X186203064Y-70187726D03*
X186203064Y-71457726D03*
X186203064Y-72727726D03*
X186203064Y-73997726D03*
X186203064Y-75267726D03*
X186203064Y-76537726D03*
X191153064Y-76537726D03*
X191153064Y-75267726D03*
X191153064Y-73997726D03*
X191153064Y-72727726D03*
X191153064Y-71457726D03*
X191153064Y-70187726D03*
X191153064Y-68917726D03*
X191153064Y-67647726D03*
D26*
X112825000Y-130230000D03*
X112825000Y-131500000D03*
X112825000Y-132770000D03*
X112825000Y-134040000D03*
X112825000Y-135310000D03*
X112825000Y-136580000D03*
X112825000Y-137850000D03*
X112825000Y-139120000D03*
X122125000Y-139120000D03*
X122125000Y-137850000D03*
X122125000Y-136580000D03*
X122125000Y-135310000D03*
X122125000Y-134040000D03*
X122125000Y-132770000D03*
X122125000Y-131500000D03*
X122125000Y-130230000D03*
D19*
X143650000Y-156000000D03*
X146050000Y-158400000D03*
X146050000Y-153600000D03*
X144352944Y-154302944D03*
X147747056Y-154302944D03*
X148450000Y-156000000D03*
X144352944Y-157697056D03*
X147747056Y-157697056D03*
D27*
X146050000Y-156000000D03*
D37*
X182508320Y-66268384D03*
X182508320Y-64443384D03*
D33*
X172392500Y-94180000D03*
X172392500Y-95130000D03*
X172392500Y-96080000D03*
X174667500Y-96080000D03*
X174667500Y-94180000D03*
D31*
X105204868Y-123917125D03*
D14*
X107744868Y-123917125D03*
X105204868Y-126457125D03*
X107744868Y-126457125D03*
X105204868Y-128997125D03*
X107744868Y-128997125D03*
X105204868Y-131537125D03*
X107744868Y-131537125D03*
X105204868Y-134077125D03*
X107744868Y-134077125D03*
X105204868Y-136617125D03*
X107744868Y-136617125D03*
X105204868Y-139157125D03*
X107744868Y-139157125D03*
X105204868Y-141697125D03*
X107744868Y-141697125D03*
X105204868Y-144237125D03*
X107744868Y-144237125D03*
X105204868Y-146777125D03*
X107744868Y-146777125D03*
D18*
X195572362Y-129726687D03*
X194922362Y-129726687D03*
X194272362Y-129726687D03*
X193622362Y-129726687D03*
X193622362Y-128126687D03*
X194272362Y-128126687D03*
X194922362Y-128126687D03*
X195572362Y-128126687D03*
D40*
X181490000Y-140032500D03*
X180540000Y-140032500D03*
X179590000Y-140032500D03*
X179590000Y-142307500D03*
X181490000Y-142307500D03*
D30*
X159966000Y-102870000D03*
X142240000Y-102616000D03*
D19*
X105000000Y-66150000D03*
X103302944Y-62052944D03*
X102600000Y-63750000D03*
D27*
X105000000Y-63750000D03*
D19*
X107400000Y-63750000D03*
X106697056Y-65447056D03*
X103302944Y-65447056D03*
X106697056Y-62052944D03*
X105000000Y-61350000D03*
D40*
X130490000Y-89032500D03*
X129540000Y-89032500D03*
X128590000Y-89032500D03*
X128590000Y-91307500D03*
X130490000Y-91307500D03*
D37*
X128270000Y-80819000D03*
X128270000Y-78994000D03*
D24*
X177333864Y-134566000D03*
X175508864Y-134566000D03*
D22*
X125852177Y-144199169D03*
X125852177Y-147499169D03*
D12*
X151750000Y-100000000D03*
X150250000Y-100000000D03*
X150250000Y-99250000D03*
X150250000Y-100750000D03*
X151750000Y-100750000D03*
X151750000Y-99250000D03*
D38*
X177618095Y-142440000D03*
X177618095Y-140540000D03*
D24*
X161890107Y-117206359D03*
X160065107Y-117206359D03*
D12*
X112750000Y-109250000D03*
X111250000Y-109250000D03*
X112000000Y-110750000D03*
X112000000Y-109250000D03*
X111250000Y-110750000D03*
X112750000Y-110750000D03*
D48*
X188090000Y-129994000D03*
X186890000Y-129994000D03*
X185690000Y-129994000D03*
D34*
X198500856Y-127995980D03*
D16*
X198500856Y-125455980D03*
X198500856Y-122915980D03*
X198500856Y-120375980D03*
D15*
X129480000Y-150133737D03*
D16*
X126940000Y-150133737D03*
X124400000Y-150133737D03*
X121860000Y-150133737D03*
D24*
X132932840Y-119072000D03*
X131107840Y-119072000D03*
D37*
X179270000Y-131819000D03*
X179270000Y-129994000D03*
D33*
X121392500Y-145180000D03*
X121392500Y-146130000D03*
X121392500Y-147080000D03*
X123667500Y-147080000D03*
X123667500Y-145180000D03*
D49*
X112773429Y-156050688D03*
D50*
X117853429Y-156050688D03*
X122933429Y-156050688D03*
X128013429Y-156050688D03*
X133093429Y-156050688D03*
X138173429Y-156050688D03*
D18*
X144572362Y-78726687D03*
X143922362Y-78726687D03*
X143272362Y-78726687D03*
X142622362Y-78726687D03*
X142622362Y-77126687D03*
X143272362Y-77126687D03*
X143922362Y-77126687D03*
X144572362Y-77126687D03*
D24*
X126316594Y-79561634D03*
X124491594Y-79561634D03*
X168752500Y-90170000D03*
X166927500Y-90170000D03*
D12*
X150250000Y-119250000D03*
X150250000Y-120000000D03*
X151750000Y-120000000D03*
X151750000Y-120750000D03*
X151750000Y-119250000D03*
X150250000Y-120750000D03*
D37*
X128270000Y-131819000D03*
X128270000Y-129994000D03*
D48*
X137090000Y-129994000D03*
X135890000Y-129994000D03*
X134690000Y-129994000D03*
D49*
X163773429Y-105050688D03*
D50*
X168853429Y-105050688D03*
X173933429Y-105050688D03*
X179013429Y-105050688D03*
X184093429Y-105050688D03*
X189173429Y-105050688D03*
D12*
X150250000Y-71750000D03*
X151750000Y-70250000D03*
X151750000Y-71000000D03*
X150250000Y-70250000D03*
X151750000Y-71750000D03*
X150250000Y-71000000D03*
D47*
X186004000Y-99060000D03*
X183204000Y-99060000D03*
X186004000Y-150060000D03*
X183204000Y-150060000D03*
D24*
X126333864Y-134566000D03*
X124508864Y-134566000D03*
X168752500Y-141170000D03*
X166927500Y-141170000D03*
X117752500Y-92235934D03*
X115927500Y-92235934D03*
D30*
X102616000Y-67818000D03*
D24*
X161890107Y-66206359D03*
X160065107Y-66206359D03*
D37*
X173174000Y-92352500D03*
X173174000Y-90527500D03*
D23*
X175476200Y-138630000D03*
X177301200Y-138630000D03*
D32*
X182063050Y-78153500D03*
X183963050Y-78153500D03*
X183013050Y-76278500D03*
D37*
X131508320Y-66268384D03*
X131508320Y-64443384D03*
D23*
X175510809Y-85598000D03*
X177335809Y-85598000D03*
D24*
X181452500Y-137868000D03*
X179627500Y-137868000D03*
D21*
X180973541Y-133670793D03*
X179073541Y-133670793D03*
X180023541Y-135545793D03*
X138663636Y-148959082D03*
X136763636Y-148959082D03*
X137713636Y-150834082D03*
D24*
X119588725Y-94234000D03*
X117763725Y-94234000D03*
D34*
X198500856Y-76995980D03*
D16*
X198500856Y-74455980D03*
X198500856Y-71915980D03*
X198500856Y-69375980D03*
D30*
X153616000Y-118818000D03*
D15*
X180480000Y-150133737D03*
D16*
X177940000Y-150133737D03*
X175400000Y-150133737D03*
X172860000Y-150133737D03*
D51*
X182521512Y-112002915D03*
X182521512Y-113827915D03*
D24*
X130452500Y-137868000D03*
X128627500Y-137868000D03*
D38*
X126618095Y-142440000D03*
X126618095Y-140540000D03*
D24*
X183932840Y-119072000D03*
X182107840Y-119072000D03*
D12*
X189250000Y-109250000D03*
X190750000Y-110750000D03*
X190000000Y-110750000D03*
X189250000Y-110750000D03*
X190000000Y-109250000D03*
X190750000Y-109250000D03*
D30*
X159966000Y-153870000D03*
D39*
X167130000Y-145675000D03*
X165860000Y-145675000D03*
X164590000Y-145675000D03*
X163320000Y-145675000D03*
X163320000Y-150625000D03*
X164590000Y-150625000D03*
X165860000Y-150625000D03*
X167130000Y-150625000D03*
D35*
X133622000Y-145488000D03*
X137922000Y-145488000D03*
D21*
X180973541Y-82670793D03*
X179073541Y-82670793D03*
X180023541Y-84545793D03*
D39*
X116130000Y-94675000D03*
X114860000Y-94675000D03*
X113590000Y-94675000D03*
X112320000Y-94675000D03*
X112320000Y-99625000D03*
X113590000Y-99625000D03*
X114860000Y-99625000D03*
X116130000Y-99625000D03*
D29*
X135203064Y-67647726D03*
X135203064Y-68917726D03*
X135203064Y-70187726D03*
X135203064Y-71457726D03*
X135203064Y-72727726D03*
X135203064Y-73997726D03*
X135203064Y-75267726D03*
X135203064Y-76537726D03*
X140153064Y-76537726D03*
X140153064Y-75267726D03*
X140153064Y-73997726D03*
X140153064Y-72727726D03*
X140153064Y-71457726D03*
X140153064Y-70187726D03*
X140153064Y-68917726D03*
X140153064Y-67647726D03*
D38*
X126618095Y-91440000D03*
X126618095Y-89540000D03*
D12*
X160250000Y-110750000D03*
X161750000Y-110750000D03*
X160250000Y-109250000D03*
X161000000Y-109250000D03*
X161750000Y-109250000D03*
X161000000Y-110750000D03*
D23*
X124476200Y-87630000D03*
X126301200Y-87630000D03*
D48*
X188090000Y-78994000D03*
X186890000Y-78994000D03*
X185690000Y-78994000D03*
D24*
X182915699Y-131238384D03*
X181090699Y-131238384D03*
D10*
X164400000Y-61328000D03*
X164400000Y-63328000D03*
X164400000Y-65328000D03*
X164400000Y-67328000D03*
X164400000Y-69328000D03*
X164400000Y-71328000D03*
X164400000Y-73328000D03*
X164400000Y-75328000D03*
D11*
X167000000Y-76828000D03*
X169000000Y-76828000D03*
X171000000Y-76828000D03*
X173000000Y-76828000D03*
X175000000Y-76828000D03*
X177000000Y-76828000D03*
D10*
X179600000Y-75328000D03*
X179600000Y-73328000D03*
X179600000Y-71328000D03*
X179600000Y-69328000D03*
X179600000Y-67328000D03*
X179600000Y-65328000D03*
X179600000Y-63328000D03*
X179600000Y-61328000D03*
D51*
X131521512Y-61002915D03*
X131521512Y-62827915D03*
D21*
X114197348Y-141358224D03*
X112297348Y-141358224D03*
X113247348Y-143233224D03*
D39*
X116130000Y-145675000D03*
X114860000Y-145675000D03*
X113590000Y-145675000D03*
X112320000Y-145675000D03*
X112320000Y-150625000D03*
X113590000Y-150625000D03*
X114860000Y-150625000D03*
X116130000Y-150625000D03*
D43*
X186041582Y-64190224D03*
X191041582Y-64190224D03*
D44*
X189841582Y-65290224D03*
X189191582Y-65290224D03*
X188541582Y-65290224D03*
X187891582Y-65290224D03*
X187241582Y-65290224D03*
D45*
X184666582Y-61440224D03*
D46*
X184816582Y-65240224D03*
X192266582Y-65240224D03*
D45*
X192416582Y-61440224D03*
D19*
X154302944Y-62052944D03*
D27*
X156000000Y-63750000D03*
D19*
X154302944Y-65447056D03*
X157697056Y-62052944D03*
X157697056Y-65447056D03*
X156000000Y-66150000D03*
X156000000Y-61350000D03*
X153600000Y-63750000D03*
X158400000Y-63750000D03*
D26*
X112825000Y-79230000D03*
X112825000Y-80500000D03*
X112825000Y-81770000D03*
X112825000Y-83040000D03*
X112825000Y-84310000D03*
X112825000Y-85580000D03*
X112825000Y-86850000D03*
X112825000Y-88120000D03*
X122125000Y-88120000D03*
X122125000Y-86850000D03*
X122125000Y-85580000D03*
X122125000Y-84310000D03*
X122125000Y-83040000D03*
X122125000Y-81770000D03*
X122125000Y-80500000D03*
X122125000Y-79230000D03*
D19*
X161200827Y-113587897D03*
D20*
X161200827Y-111887897D03*
X161200827Y-115287897D03*
D19*
X105000000Y-107400000D03*
X106697056Y-106697056D03*
X102600000Y-105000000D03*
D27*
X105000000Y-105000000D03*
D19*
X105000000Y-102600000D03*
X103302944Y-103302944D03*
X107400000Y-105000000D03*
X103302944Y-106697056D03*
X106697056Y-103302944D03*
D24*
X126342608Y-81564676D03*
X124517608Y-81564676D03*
D19*
X195352944Y-103302944D03*
X195352944Y-106697056D03*
X194650000Y-105000000D03*
X198747056Y-106697056D03*
X198747056Y-103302944D03*
X197050000Y-107400000D03*
X197050000Y-102600000D03*
D27*
X197050000Y-105000000D03*
D19*
X199450000Y-105000000D03*
D22*
X176852177Y-93199169D03*
X176852177Y-96499169D03*
D27*
X156000000Y-114750000D03*
D19*
X158400000Y-114750000D03*
X156000000Y-117150000D03*
X157697056Y-116447056D03*
X154302944Y-113052944D03*
X157697056Y-113052944D03*
X153600000Y-114750000D03*
X154302944Y-116447056D03*
X156000000Y-112350000D03*
D32*
X182063050Y-129153500D03*
X183963050Y-129153500D03*
X183013050Y-127278500D03*
D10*
X113400000Y-61328000D03*
X113400000Y-63328000D03*
X113400000Y-65328000D03*
X113400000Y-67328000D03*
X113400000Y-69328000D03*
X113400000Y-71328000D03*
X113400000Y-73328000D03*
X113400000Y-75328000D03*
D11*
X116000000Y-76828000D03*
X118000000Y-76828000D03*
X120000000Y-76828000D03*
X122000000Y-76828000D03*
X124000000Y-76828000D03*
X126000000Y-76828000D03*
D10*
X128600000Y-75328000D03*
X128600000Y-73328000D03*
X128600000Y-71328000D03*
X128600000Y-69328000D03*
X128600000Y-67328000D03*
X128600000Y-65328000D03*
X128600000Y-63328000D03*
X128600000Y-61328000D03*
D28*
X138938000Y-129740000D03*
X140838000Y-129740000D03*
D19*
X199450000Y-114750000D03*
D27*
X197050000Y-114750000D03*
D19*
X194650000Y-114750000D03*
X198747056Y-116447056D03*
X197050000Y-117150000D03*
X197050000Y-112350000D03*
X198747056Y-113052944D03*
X195352944Y-113052944D03*
X195352944Y-116447056D03*
D29*
X186203064Y-118647726D03*
X186203064Y-119917726D03*
X186203064Y-121187726D03*
X186203064Y-122457726D03*
X186203064Y-123727726D03*
X186203064Y-124997726D03*
X186203064Y-126267726D03*
X186203064Y-127537726D03*
X191153064Y-127537726D03*
X191153064Y-126267726D03*
X191153064Y-124997726D03*
X191153064Y-123727726D03*
X191153064Y-122457726D03*
X191153064Y-121187726D03*
X191153064Y-119917726D03*
X191153064Y-118647726D03*
D24*
X182915699Y-80238384D03*
X181090699Y-80238384D03*
X177342608Y-132564676D03*
X175517608Y-132564676D03*
D28*
X138938000Y-78740000D03*
X140838000Y-78740000D03*
D19*
X110200827Y-113587897D03*
D20*
X110200827Y-111887897D03*
X110200827Y-115287897D03*
D22*
X130825000Y-144250000D03*
X130825000Y-147550000D03*
D19*
X103302944Y-157697056D03*
X107400000Y-156000000D03*
D27*
X105000000Y-156000000D03*
D19*
X105000000Y-158400000D03*
X106697056Y-157697056D03*
X102600000Y-156000000D03*
X106697056Y-154302944D03*
X103302944Y-154302944D03*
X105000000Y-153600000D03*
D49*
X112773429Y-105050688D03*
D50*
X117853429Y-105050688D03*
X122933429Y-105050688D03*
X128013429Y-105050688D03*
X133093429Y-105050688D03*
X138173429Y-105050688D03*
D34*
X143606599Y-125422000D03*
D16*
X143606599Y-122882000D03*
X143606599Y-120342000D03*
D24*
X130452500Y-86868000D03*
X128627500Y-86868000D03*
D41*
X124538237Y-140565000D03*
X124538237Y-142440000D03*
D21*
X189663636Y-97959082D03*
X187763636Y-97959082D03*
X188713636Y-99834082D03*
D30*
X193240000Y-153616000D03*
D51*
X131521512Y-112002915D03*
X131521512Y-113827915D03*
D48*
X137090000Y-78994000D03*
X135890000Y-78994000D03*
X134690000Y-78994000D03*
D35*
X184622000Y-145488000D03*
X188922000Y-145488000D03*
D34*
X194606599Y-74422000D03*
D16*
X194606599Y-71882000D03*
X194606599Y-69342000D03*
D32*
X131063050Y-78153500D03*
X132963050Y-78153500D03*
X132013050Y-76278500D03*
D18*
X144572362Y-129726687D03*
X143922362Y-129726687D03*
X143272362Y-129726687D03*
X142622362Y-129726687D03*
X142622362Y-128126687D03*
X143272362Y-128126687D03*
X143922362Y-128126687D03*
X144572362Y-128126687D03*
D23*
X131098906Y-125168000D03*
X132923906Y-125168000D03*
D47*
X135004000Y-99060000D03*
X132204000Y-99060000D03*
D37*
X122174000Y-143352500D03*
X122174000Y-141527500D03*
D43*
X135041582Y-64190224D03*
X140041582Y-64190224D03*
D44*
X138841582Y-65290224D03*
X138191582Y-65290224D03*
X137541582Y-65290224D03*
X136891582Y-65290224D03*
X136241582Y-65290224D03*
D46*
X133816582Y-65240224D03*
D45*
X141416582Y-61440224D03*
D46*
X141266582Y-65240224D03*
D45*
X133666582Y-61440224D03*
D19*
X161200827Y-62587897D03*
D20*
X161200827Y-60887897D03*
X161200827Y-64287897D03*
D51*
X182521512Y-61002915D03*
X182521512Y-62827915D03*
D23*
X182098906Y-74168000D03*
X183923906Y-74168000D03*
D24*
X177316594Y-130561634D03*
X175491594Y-130561634D03*
D43*
X135041582Y-115190224D03*
X140041582Y-115190224D03*
D44*
X138841582Y-116290224D03*
X138191582Y-116290224D03*
X137541582Y-116290224D03*
X136891582Y-116290224D03*
X136241582Y-116290224D03*
D45*
X133666582Y-112440224D03*
D46*
X133816582Y-116240224D03*
X141266582Y-116240224D03*
D45*
X141416582Y-112440224D03*
D24*
X110890107Y-66206359D03*
X109065107Y-66206359D03*
D42*
X119888000Y-143377500D03*
X119888000Y-141502500D03*
D13*
X196843909Y-95758668D03*
D14*
X194303909Y-95758668D03*
X196843909Y-93218668D03*
X194303909Y-93218668D03*
X196843909Y-90678668D03*
X194303909Y-90678668D03*
X196843909Y-88138668D03*
X194303909Y-88138668D03*
X196843909Y-85598668D03*
X194303909Y-85598668D03*
D36*
X169480000Y-97075000D03*
X169480000Y-100025000D03*
D42*
X119888000Y-92377500D03*
X119888000Y-90502500D03*
D13*
X145843909Y-146758668D03*
D14*
X143303909Y-146758668D03*
X145843909Y-144218668D03*
X143303909Y-144218668D03*
X145843909Y-141678668D03*
X143303909Y-141678668D03*
X145843909Y-139138668D03*
X143303909Y-139138668D03*
X145843909Y-136598668D03*
X143303909Y-136598668D03*
D49*
X163773429Y-156050688D03*
D50*
X168853429Y-156050688D03*
X173933429Y-156050688D03*
X179013429Y-156050688D03*
X184093429Y-156050688D03*
X189173429Y-156050688D03*
G36*
X150366484Y-149270942D02*
G01*
X150367168Y-149272821D01*
X150366106Y-149274256D01*
X150340038Y-149287539D01*
X150297020Y-149330556D01*
X150287556Y-149390314D01*
X150315101Y-149444374D01*
X150339899Y-149462390D01*
X150366106Y-149475744D01*
X150367195Y-149477421D01*
X150366287Y-149479203D01*
X150364514Y-149479405D01*
X150301742Y-149456558D01*
X150198258Y-149456558D01*
X150135486Y-149479405D01*
X150133516Y-149479058D01*
X150132832Y-149477179D01*
X150133894Y-149475744D01*
X150159962Y-149462461D01*
X150202980Y-149419444D01*
X150212444Y-149359686D01*
X150184899Y-149305626D01*
X150160101Y-149287610D01*
X150133894Y-149274256D01*
X150132805Y-149272579D01*
X150133713Y-149270797D01*
X150135486Y-149270595D01*
X150198258Y-149293442D01*
X150301742Y-149293442D01*
X150364514Y-149270595D01*
X150366484Y-149270942D01*
G37*
G36*
X151866484Y-149270942D02*
G01*
X151867168Y-149272821D01*
X151866106Y-149274256D01*
X151840038Y-149287539D01*
X151797020Y-149330556D01*
X151787556Y-149390314D01*
X151815101Y-149444374D01*
X151839899Y-149462390D01*
X151866106Y-149475744D01*
X151867195Y-149477421D01*
X151866287Y-149479203D01*
X151864514Y-149479405D01*
X151801742Y-149456558D01*
X151698258Y-149456558D01*
X151635486Y-149479405D01*
X151633516Y-149479058D01*
X151632832Y-149477179D01*
X151633894Y-149475744D01*
X151659962Y-149462461D01*
X151702980Y-149419444D01*
X151712444Y-149359686D01*
X151684899Y-149305626D01*
X151660101Y-149287610D01*
X151633894Y-149274256D01*
X151632805Y-149272579D01*
X151633713Y-149270797D01*
X151635486Y-149270595D01*
X151698258Y-149293442D01*
X151801742Y-149293442D01*
X151864514Y-149270595D01*
X151866484Y-149270942D01*
G37*
G36*
X150366484Y-148520942D02*
G01*
X150367168Y-148522821D01*
X150366106Y-148524256D01*
X150340038Y-148537539D01*
X150297020Y-148580556D01*
X150287556Y-148640314D01*
X150315101Y-148694374D01*
X150339899Y-148712390D01*
X150366106Y-148725744D01*
X150367195Y-148727421D01*
X150366287Y-148729203D01*
X150364514Y-148729405D01*
X150301742Y-148706558D01*
X150198258Y-148706558D01*
X150135486Y-148729405D01*
X150133516Y-148729058D01*
X150132832Y-148727179D01*
X150133894Y-148725744D01*
X150159962Y-148712461D01*
X150202980Y-148669444D01*
X150212444Y-148609686D01*
X150184899Y-148555626D01*
X150160101Y-148537610D01*
X150133894Y-148524256D01*
X150132805Y-148522579D01*
X150133713Y-148520797D01*
X150135486Y-148520595D01*
X150198258Y-148543442D01*
X150301742Y-148543442D01*
X150364514Y-148520595D01*
X150366484Y-148520942D01*
G37*
G36*
X151866484Y-148520942D02*
G01*
X151867168Y-148522821D01*
X151866106Y-148524256D01*
X151840038Y-148537539D01*
X151797020Y-148580556D01*
X151787556Y-148640314D01*
X151815101Y-148694374D01*
X151839899Y-148712390D01*
X151866106Y-148725744D01*
X151867195Y-148727421D01*
X151866287Y-148729203D01*
X151864514Y-148729405D01*
X151801742Y-148706558D01*
X151698258Y-148706558D01*
X151635486Y-148729405D01*
X151633516Y-148729058D01*
X151632832Y-148727179D01*
X151633894Y-148725744D01*
X151659962Y-148712461D01*
X151702980Y-148669444D01*
X151712444Y-148609686D01*
X151684899Y-148555626D01*
X151660101Y-148537610D01*
X151633894Y-148524256D01*
X151632805Y-148522579D01*
X151633713Y-148520797D01*
X151635486Y-148520595D01*
X151698258Y-148543442D01*
X151801742Y-148543442D01*
X151864514Y-148520595D01*
X151866484Y-148520942D01*
G37*
G36*
X150366484Y-120270942D02*
G01*
X150367168Y-120272821D01*
X150366106Y-120274256D01*
X150340038Y-120287539D01*
X150297020Y-120330556D01*
X150287556Y-120390314D01*
X150315101Y-120444374D01*
X150339899Y-120462390D01*
X150366106Y-120475744D01*
X150367195Y-120477421D01*
X150366287Y-120479203D01*
X150364514Y-120479405D01*
X150301742Y-120456558D01*
X150198258Y-120456558D01*
X150135486Y-120479405D01*
X150133516Y-120479058D01*
X150132832Y-120477179D01*
X150133894Y-120475744D01*
X150159962Y-120462461D01*
X150202980Y-120419444D01*
X150212444Y-120359686D01*
X150184899Y-120305626D01*
X150160101Y-120287610D01*
X150133894Y-120274256D01*
X150132805Y-120272579D01*
X150133713Y-120270797D01*
X150135486Y-120270595D01*
X150198258Y-120293442D01*
X150301742Y-120293442D01*
X150364514Y-120270595D01*
X150366484Y-120270942D01*
G37*
G36*
X151866484Y-120270942D02*
G01*
X151867168Y-120272821D01*
X151866106Y-120274256D01*
X151840038Y-120287539D01*
X151797020Y-120330556D01*
X151787556Y-120390314D01*
X151815101Y-120444374D01*
X151839899Y-120462390D01*
X151866106Y-120475744D01*
X151867195Y-120477421D01*
X151866287Y-120479203D01*
X151864514Y-120479405D01*
X151801742Y-120456558D01*
X151698258Y-120456558D01*
X151635486Y-120479405D01*
X151633516Y-120479058D01*
X151632832Y-120477179D01*
X151633894Y-120475744D01*
X151659962Y-120462461D01*
X151702980Y-120419444D01*
X151712444Y-120359686D01*
X151684899Y-120305626D01*
X151660101Y-120287610D01*
X151633894Y-120274256D01*
X151632805Y-120272579D01*
X151633713Y-120270797D01*
X151635486Y-120270595D01*
X151698258Y-120293442D01*
X151801742Y-120293442D01*
X151864514Y-120270595D01*
X151866484Y-120270942D01*
G37*
G36*
X150366484Y-119520942D02*
G01*
X150367168Y-119522821D01*
X150366106Y-119524256D01*
X150340038Y-119537539D01*
X150297020Y-119580556D01*
X150287556Y-119640314D01*
X150315101Y-119694374D01*
X150339899Y-119712390D01*
X150366106Y-119725744D01*
X150367195Y-119727421D01*
X150366287Y-119729203D01*
X150364514Y-119729405D01*
X150301742Y-119706558D01*
X150198258Y-119706558D01*
X150135486Y-119729405D01*
X150133516Y-119729058D01*
X150132832Y-119727179D01*
X150133894Y-119725744D01*
X150159962Y-119712461D01*
X150202980Y-119669444D01*
X150212444Y-119609686D01*
X150184899Y-119555626D01*
X150160101Y-119537610D01*
X150133894Y-119524256D01*
X150132805Y-119522579D01*
X150133713Y-119520797D01*
X150135486Y-119520595D01*
X150198258Y-119543442D01*
X150301742Y-119543442D01*
X150364514Y-119520595D01*
X150366484Y-119520942D01*
G37*
G36*
X151866484Y-119520942D02*
G01*
X151867168Y-119522821D01*
X151866106Y-119524256D01*
X151840038Y-119537539D01*
X151797020Y-119580556D01*
X151787556Y-119640314D01*
X151815101Y-119694374D01*
X151839899Y-119712390D01*
X151866106Y-119725744D01*
X151867195Y-119727421D01*
X151866287Y-119729203D01*
X151864514Y-119729405D01*
X151801742Y-119706558D01*
X151698258Y-119706558D01*
X151635486Y-119729405D01*
X151633516Y-119729058D01*
X151632832Y-119727179D01*
X151633894Y-119725744D01*
X151659962Y-119712461D01*
X151702980Y-119669444D01*
X151712444Y-119609686D01*
X151684899Y-119555626D01*
X151660101Y-119537610D01*
X151633894Y-119524256D01*
X151632805Y-119522579D01*
X151633713Y-119520797D01*
X151635486Y-119520595D01*
X151698258Y-119543442D01*
X151801742Y-119543442D01*
X151864514Y-119520595D01*
X151866484Y-119520942D01*
G37*
G36*
X137155837Y-115607379D02*
G01*
X137161873Y-115611413D01*
X137220467Y-115627938D01*
X137271257Y-115611436D01*
X137277327Y-115607379D01*
X137279322Y-115607248D01*
X137280434Y-115608911D01*
X137280101Y-115610153D01*
X137272273Y-115621869D01*
X137268582Y-115640423D01*
X137268582Y-116940025D01*
X137272273Y-116958579D01*
X137280101Y-116970295D01*
X137280232Y-116972291D01*
X137278569Y-116973402D01*
X137277327Y-116973069D01*
X137271291Y-116969035D01*
X137212697Y-116952510D01*
X137161907Y-116969012D01*
X137155837Y-116973069D01*
X137153842Y-116973200D01*
X137152730Y-116971537D01*
X137153063Y-116970295D01*
X137160891Y-116958579D01*
X137164582Y-116940025D01*
X137164582Y-115640423D01*
X137160891Y-115621869D01*
X137153063Y-115610153D01*
X137152932Y-115608157D01*
X137154595Y-115607046D01*
X137155837Y-115607379D01*
G37*
G36*
X187505837Y-115607379D02*
G01*
X187511873Y-115611413D01*
X187570467Y-115627938D01*
X187621257Y-115611436D01*
X187627327Y-115607379D01*
X187629322Y-115607248D01*
X187630434Y-115608911D01*
X187630101Y-115610153D01*
X187622273Y-115621869D01*
X187618582Y-115640423D01*
X187618582Y-116940025D01*
X187622273Y-116958579D01*
X187630101Y-116970295D01*
X187630232Y-116972291D01*
X187628569Y-116973402D01*
X187627327Y-116973069D01*
X187621291Y-116969035D01*
X187562697Y-116952510D01*
X187511907Y-116969012D01*
X187505837Y-116973069D01*
X187503842Y-116973200D01*
X187502730Y-116971537D01*
X187503063Y-116970295D01*
X187510891Y-116958579D01*
X187514582Y-116940025D01*
X187514582Y-115640423D01*
X187510891Y-115621869D01*
X187503063Y-115610153D01*
X187502932Y-115608157D01*
X187504595Y-115607046D01*
X187505837Y-115607379D01*
G37*
G36*
X137805837Y-115607379D02*
G01*
X137811873Y-115611413D01*
X137870467Y-115627938D01*
X137921257Y-115611436D01*
X137927327Y-115607379D01*
X137929322Y-115607248D01*
X137930434Y-115608911D01*
X137930101Y-115610153D01*
X137922273Y-115621869D01*
X137918582Y-115640423D01*
X137918582Y-116940025D01*
X137922273Y-116958579D01*
X137930101Y-116970295D01*
X137930232Y-116972291D01*
X137928569Y-116973402D01*
X137927327Y-116973069D01*
X137921291Y-116969035D01*
X137862697Y-116952510D01*
X137811907Y-116969012D01*
X137805837Y-116973069D01*
X137803842Y-116973200D01*
X137802730Y-116971537D01*
X137803063Y-116970295D01*
X137810891Y-116958579D01*
X137814582Y-116940025D01*
X137814582Y-115640423D01*
X137810891Y-115621869D01*
X137803063Y-115610153D01*
X137802932Y-115608157D01*
X137804595Y-115607046D01*
X137805837Y-115607379D01*
G37*
G36*
X189455837Y-115607379D02*
G01*
X189461873Y-115611413D01*
X189520467Y-115627938D01*
X189571257Y-115611436D01*
X189577327Y-115607379D01*
X189579322Y-115607248D01*
X189580434Y-115608911D01*
X189580101Y-115610153D01*
X189572273Y-115621869D01*
X189568582Y-115640423D01*
X189568582Y-116940025D01*
X189572273Y-116958579D01*
X189580101Y-116970295D01*
X189580232Y-116972291D01*
X189578569Y-116973402D01*
X189577327Y-116973069D01*
X189571291Y-116969035D01*
X189512697Y-116952510D01*
X189461907Y-116969012D01*
X189455837Y-116973069D01*
X189453842Y-116973200D01*
X189452730Y-116971537D01*
X189453063Y-116970295D01*
X189460891Y-116958579D01*
X189464582Y-116940025D01*
X189464582Y-115640423D01*
X189460891Y-115621869D01*
X189453063Y-115610153D01*
X189452932Y-115608157D01*
X189454595Y-115607046D01*
X189455837Y-115607379D01*
G37*
G36*
X188805837Y-115607379D02*
G01*
X188811873Y-115611413D01*
X188870467Y-115627938D01*
X188921257Y-115611436D01*
X188927327Y-115607379D01*
X188929322Y-115607248D01*
X188930434Y-115608911D01*
X188930101Y-115610153D01*
X188922273Y-115621869D01*
X188918582Y-115640423D01*
X188918582Y-116940025D01*
X188922273Y-116958579D01*
X188930101Y-116970295D01*
X188930232Y-116972291D01*
X188928569Y-116973402D01*
X188927327Y-116973069D01*
X188921291Y-116969035D01*
X188862697Y-116952510D01*
X188811907Y-116969012D01*
X188805837Y-116973069D01*
X188803842Y-116973200D01*
X188802730Y-116971537D01*
X188803063Y-116970295D01*
X188810891Y-116958579D01*
X188814582Y-116940025D01*
X188814582Y-115640423D01*
X188810891Y-115621869D01*
X188803063Y-115610153D01*
X188802932Y-115608157D01*
X188804595Y-115607046D01*
X188805837Y-115607379D01*
G37*
G36*
X136505837Y-115607379D02*
G01*
X136511873Y-115611413D01*
X136570467Y-115627938D01*
X136621257Y-115611436D01*
X136627327Y-115607379D01*
X136629322Y-115607248D01*
X136630434Y-115608911D01*
X136630101Y-115610153D01*
X136622273Y-115621869D01*
X136618582Y-115640423D01*
X136618582Y-116940025D01*
X136622273Y-116958579D01*
X136630101Y-116970295D01*
X136630232Y-116972291D01*
X136628569Y-116973402D01*
X136627327Y-116973069D01*
X136621291Y-116969035D01*
X136562697Y-116952510D01*
X136511907Y-116969012D01*
X136505837Y-116973069D01*
X136503842Y-116973200D01*
X136502730Y-116971537D01*
X136503063Y-116970295D01*
X136510891Y-116958579D01*
X136514582Y-116940025D01*
X136514582Y-115640423D01*
X136510891Y-115621869D01*
X136503063Y-115610153D01*
X136502932Y-115608157D01*
X136504595Y-115607046D01*
X136505837Y-115607379D01*
G37*
G36*
X138455837Y-115607379D02*
G01*
X138461873Y-115611413D01*
X138520467Y-115627938D01*
X138571257Y-115611436D01*
X138577327Y-115607379D01*
X138579322Y-115607248D01*
X138580434Y-115608911D01*
X138580101Y-115610153D01*
X138572273Y-115621869D01*
X138568582Y-115640423D01*
X138568582Y-116940025D01*
X138572273Y-116958579D01*
X138580101Y-116970295D01*
X138580232Y-116972291D01*
X138578569Y-116973402D01*
X138577327Y-116973069D01*
X138571291Y-116969035D01*
X138512697Y-116952510D01*
X138461907Y-116969012D01*
X138455837Y-116973069D01*
X138453842Y-116973200D01*
X138452730Y-116971537D01*
X138453063Y-116970295D01*
X138460891Y-116958579D01*
X138464582Y-116940025D01*
X138464582Y-115640423D01*
X138460891Y-115621869D01*
X138453063Y-115610153D01*
X138452932Y-115608157D01*
X138454595Y-115607046D01*
X138455837Y-115607379D01*
G37*
G36*
X188155837Y-115607379D02*
G01*
X188161873Y-115611413D01*
X188220467Y-115627938D01*
X188271257Y-115611436D01*
X188277327Y-115607379D01*
X188279322Y-115607248D01*
X188280434Y-115608911D01*
X188280101Y-115610153D01*
X188272273Y-115621869D01*
X188268582Y-115640423D01*
X188268582Y-116940025D01*
X188272273Y-116958579D01*
X188280101Y-116970295D01*
X188280232Y-116972291D01*
X188278569Y-116973402D01*
X188277327Y-116973069D01*
X188271291Y-116969035D01*
X188212697Y-116952510D01*
X188161907Y-116969012D01*
X188155837Y-116973069D01*
X188153842Y-116973200D01*
X188152730Y-116971537D01*
X188153063Y-116970295D01*
X188160891Y-116958579D01*
X188164582Y-116940025D01*
X188164582Y-115640423D01*
X188160891Y-115621869D01*
X188153063Y-115610153D01*
X188152932Y-115608157D01*
X188154595Y-115607046D01*
X188155837Y-115607379D01*
G37*
G36*
X161468172Y-110655361D02*
G01*
X161468465Y-110656797D01*
X161452031Y-110750000D01*
X161468465Y-110843203D01*
X161467781Y-110845082D01*
X161465811Y-110845429D01*
X161464713Y-110844458D01*
X161462461Y-110840038D01*
X161419444Y-110797020D01*
X161359686Y-110787556D01*
X161305626Y-110815101D01*
X161287610Y-110839898D01*
X161285287Y-110844458D01*
X161283610Y-110845547D01*
X161281828Y-110844639D01*
X161281535Y-110843203D01*
X161297969Y-110750000D01*
X161281535Y-110656797D01*
X161282219Y-110654918D01*
X161284189Y-110654571D01*
X161285287Y-110655542D01*
X161287539Y-110659962D01*
X161330556Y-110702980D01*
X161390314Y-110712444D01*
X161444374Y-110684899D01*
X161462390Y-110660102D01*
X161464713Y-110655542D01*
X161466390Y-110654453D01*
X161468172Y-110655361D01*
G37*
G36*
X140718172Y-110655361D02*
G01*
X140718465Y-110656797D01*
X140702031Y-110750000D01*
X140718465Y-110843203D01*
X140717781Y-110845082D01*
X140715811Y-110845429D01*
X140714713Y-110844458D01*
X140712461Y-110840038D01*
X140669444Y-110797020D01*
X140609686Y-110787556D01*
X140555626Y-110815101D01*
X140537610Y-110839898D01*
X140535287Y-110844458D01*
X140533610Y-110845547D01*
X140531828Y-110844639D01*
X140531535Y-110843203D01*
X140547969Y-110750000D01*
X140531535Y-110656797D01*
X140532219Y-110654918D01*
X140534189Y-110654571D01*
X140535287Y-110655542D01*
X140537539Y-110659962D01*
X140580556Y-110702980D01*
X140640314Y-110712444D01*
X140694374Y-110684899D01*
X140712390Y-110660102D01*
X140714713Y-110655542D01*
X140716390Y-110654453D01*
X140718172Y-110655361D01*
G37*
G36*
X111718172Y-110655361D02*
G01*
X111718465Y-110656797D01*
X111702031Y-110750000D01*
X111718465Y-110843203D01*
X111717781Y-110845082D01*
X111715811Y-110845429D01*
X111714713Y-110844458D01*
X111712461Y-110840038D01*
X111669444Y-110797020D01*
X111609686Y-110787556D01*
X111555626Y-110815101D01*
X111537610Y-110839898D01*
X111535287Y-110844458D01*
X111533610Y-110845547D01*
X111531828Y-110844639D01*
X111531535Y-110843203D01*
X111547969Y-110750000D01*
X111531535Y-110656797D01*
X111532219Y-110654918D01*
X111534189Y-110654571D01*
X111535287Y-110655542D01*
X111537539Y-110659962D01*
X111580556Y-110702980D01*
X111640314Y-110712444D01*
X111694374Y-110684899D01*
X111712390Y-110660102D01*
X111714713Y-110655542D01*
X111716390Y-110654453D01*
X111718172Y-110655361D01*
G37*
G36*
X112468172Y-110655361D02*
G01*
X112468465Y-110656797D01*
X112452031Y-110750000D01*
X112468465Y-110843203D01*
X112467781Y-110845082D01*
X112465811Y-110845429D01*
X112464713Y-110844458D01*
X112462461Y-110840038D01*
X112419444Y-110797020D01*
X112359686Y-110787556D01*
X112305626Y-110815101D01*
X112287610Y-110839898D01*
X112285287Y-110844458D01*
X112283610Y-110845547D01*
X112281828Y-110844639D01*
X112281535Y-110843203D01*
X112297969Y-110750000D01*
X112281535Y-110656797D01*
X112282219Y-110654918D01*
X112284189Y-110654571D01*
X112285287Y-110655542D01*
X112287539Y-110659962D01*
X112330556Y-110702980D01*
X112390314Y-110712444D01*
X112444374Y-110684899D01*
X112462390Y-110660102D01*
X112464713Y-110655542D01*
X112466390Y-110654453D01*
X112468172Y-110655361D01*
G37*
G36*
X160718172Y-110655361D02*
G01*
X160718465Y-110656797D01*
X160702031Y-110750000D01*
X160718465Y-110843203D01*
X160717781Y-110845082D01*
X160715811Y-110845429D01*
X160714713Y-110844458D01*
X160712461Y-110840038D01*
X160669444Y-110797020D01*
X160609686Y-110787556D01*
X160555626Y-110815101D01*
X160537610Y-110839898D01*
X160535287Y-110844458D01*
X160533610Y-110845547D01*
X160531828Y-110844639D01*
X160531535Y-110843203D01*
X160547969Y-110750000D01*
X160531535Y-110656797D01*
X160532219Y-110654918D01*
X160534189Y-110654571D01*
X160535287Y-110655542D01*
X160537539Y-110659962D01*
X160580556Y-110702980D01*
X160640314Y-110712444D01*
X160694374Y-110684899D01*
X160712390Y-110660102D01*
X160714713Y-110655542D01*
X160716390Y-110654453D01*
X160718172Y-110655361D01*
G37*
G36*
X189718172Y-110655361D02*
G01*
X189718465Y-110656797D01*
X189702031Y-110750000D01*
X189718465Y-110843203D01*
X189717781Y-110845082D01*
X189715811Y-110845429D01*
X189714713Y-110844458D01*
X189712461Y-110840038D01*
X189669444Y-110797020D01*
X189609686Y-110787556D01*
X189555626Y-110815101D01*
X189537610Y-110839898D01*
X189535287Y-110844458D01*
X189533610Y-110845547D01*
X189531828Y-110844639D01*
X189531535Y-110843203D01*
X189547969Y-110750000D01*
X189531535Y-110656797D01*
X189532219Y-110654918D01*
X189534189Y-110654571D01*
X189535287Y-110655542D01*
X189537539Y-110659962D01*
X189580556Y-110702980D01*
X189640314Y-110712444D01*
X189694374Y-110684899D01*
X189712390Y-110660102D01*
X189714713Y-110655542D01*
X189716390Y-110654453D01*
X189718172Y-110655361D01*
G37*
G36*
X190468172Y-110655361D02*
G01*
X190468465Y-110656797D01*
X190452031Y-110750000D01*
X190468465Y-110843203D01*
X190467781Y-110845082D01*
X190465811Y-110845429D01*
X190464713Y-110844458D01*
X190462461Y-110840038D01*
X190419444Y-110797020D01*
X190359686Y-110787556D01*
X190305626Y-110815101D01*
X190287610Y-110839898D01*
X190285287Y-110844458D01*
X190283610Y-110845547D01*
X190281828Y-110844639D01*
X190281535Y-110843203D01*
X190297969Y-110750000D01*
X190281535Y-110656797D01*
X190282219Y-110654918D01*
X190284189Y-110654571D01*
X190285287Y-110655542D01*
X190287539Y-110659962D01*
X190330556Y-110702980D01*
X190390314Y-110712444D01*
X190444374Y-110684899D01*
X190462390Y-110660102D01*
X190464713Y-110655542D01*
X190466390Y-110654453D01*
X190468172Y-110655361D01*
G37*
G36*
X141468172Y-110655361D02*
G01*
X141468465Y-110656797D01*
X141452031Y-110750000D01*
X141468465Y-110843203D01*
X141467781Y-110845082D01*
X141465811Y-110845429D01*
X141464713Y-110844458D01*
X141462461Y-110840038D01*
X141419444Y-110797020D01*
X141359686Y-110787556D01*
X141305626Y-110815101D01*
X141287610Y-110839898D01*
X141285287Y-110844458D01*
X141283610Y-110845547D01*
X141281828Y-110844639D01*
X141281535Y-110843203D01*
X141297969Y-110750000D01*
X141281535Y-110656797D01*
X141282219Y-110654918D01*
X141284189Y-110654571D01*
X141285287Y-110655542D01*
X141287539Y-110659962D01*
X141330556Y-110702980D01*
X141390314Y-110712444D01*
X141444374Y-110684899D01*
X141462390Y-110660102D01*
X141464713Y-110655542D01*
X141466390Y-110654453D01*
X141468172Y-110655361D01*
G37*
G36*
X190468172Y-109155361D02*
G01*
X190468465Y-109156797D01*
X190452031Y-109250000D01*
X190468465Y-109343203D01*
X190467781Y-109345082D01*
X190465811Y-109345429D01*
X190464713Y-109344458D01*
X190462461Y-109340038D01*
X190419444Y-109297020D01*
X190359686Y-109287556D01*
X190305626Y-109315101D01*
X190287610Y-109339898D01*
X190285287Y-109344458D01*
X190283610Y-109345547D01*
X190281828Y-109344639D01*
X190281535Y-109343203D01*
X190297969Y-109250000D01*
X190281535Y-109156797D01*
X190282219Y-109154918D01*
X190284189Y-109154571D01*
X190285287Y-109155542D01*
X190287539Y-109159962D01*
X190330556Y-109202980D01*
X190390314Y-109212444D01*
X190444374Y-109184899D01*
X190462390Y-109160102D01*
X190464713Y-109155542D01*
X190466390Y-109154453D01*
X190468172Y-109155361D01*
G37*
G36*
X160718172Y-109155361D02*
G01*
X160718465Y-109156797D01*
X160702031Y-109250000D01*
X160718465Y-109343203D01*
X160717781Y-109345082D01*
X160715811Y-109345429D01*
X160714713Y-109344458D01*
X160712461Y-109340038D01*
X160669444Y-109297020D01*
X160609686Y-109287556D01*
X160555626Y-109315101D01*
X160537610Y-109339898D01*
X160535287Y-109344458D01*
X160533610Y-109345547D01*
X160531828Y-109344639D01*
X160531535Y-109343203D01*
X160547969Y-109250000D01*
X160531535Y-109156797D01*
X160532219Y-109154918D01*
X160534189Y-109154571D01*
X160535287Y-109155542D01*
X160537539Y-109159962D01*
X160580556Y-109202980D01*
X160640314Y-109212444D01*
X160694374Y-109184899D01*
X160712390Y-109160102D01*
X160714713Y-109155542D01*
X160716390Y-109154453D01*
X160718172Y-109155361D01*
G37*
G36*
X161468172Y-109155361D02*
G01*
X161468465Y-109156797D01*
X161452031Y-109250000D01*
X161468465Y-109343203D01*
X161467781Y-109345082D01*
X161465811Y-109345429D01*
X161464713Y-109344458D01*
X161462461Y-109340038D01*
X161419444Y-109297020D01*
X161359686Y-109287556D01*
X161305626Y-109315101D01*
X161287610Y-109339898D01*
X161285287Y-109344458D01*
X161283610Y-109345547D01*
X161281828Y-109344639D01*
X161281535Y-109343203D01*
X161297969Y-109250000D01*
X161281535Y-109156797D01*
X161282219Y-109154918D01*
X161284189Y-109154571D01*
X161285287Y-109155542D01*
X161287539Y-109159962D01*
X161330556Y-109202980D01*
X161390314Y-109212444D01*
X161444374Y-109184899D01*
X161462390Y-109160102D01*
X161464713Y-109155542D01*
X161466390Y-109154453D01*
X161468172Y-109155361D01*
G37*
G36*
X141468172Y-109155361D02*
G01*
X141468465Y-109156797D01*
X141452031Y-109250000D01*
X141468465Y-109343203D01*
X141467781Y-109345082D01*
X141465811Y-109345429D01*
X141464713Y-109344458D01*
X141462461Y-109340038D01*
X141419444Y-109297020D01*
X141359686Y-109287556D01*
X141305626Y-109315101D01*
X141287610Y-109339898D01*
X141285287Y-109344458D01*
X141283610Y-109345547D01*
X141281828Y-109344639D01*
X141281535Y-109343203D01*
X141297969Y-109250000D01*
X141281535Y-109156797D01*
X141282219Y-109154918D01*
X141284189Y-109154571D01*
X141285287Y-109155542D01*
X141287539Y-109159962D01*
X141330556Y-109202980D01*
X141390314Y-109212444D01*
X141444374Y-109184899D01*
X141462390Y-109160102D01*
X141464713Y-109155542D01*
X141466390Y-109154453D01*
X141468172Y-109155361D01*
G37*
G36*
X112468172Y-109155361D02*
G01*
X112468465Y-109156797D01*
X112452031Y-109250000D01*
X112468465Y-109343203D01*
X112467781Y-109345082D01*
X112465811Y-109345429D01*
X112464713Y-109344458D01*
X112462461Y-109340038D01*
X112419444Y-109297020D01*
X112359686Y-109287556D01*
X112305626Y-109315101D01*
X112287610Y-109339898D01*
X112285287Y-109344458D01*
X112283610Y-109345547D01*
X112281828Y-109344639D01*
X112281535Y-109343203D01*
X112297969Y-109250000D01*
X112281535Y-109156797D01*
X112282219Y-109154918D01*
X112284189Y-109154571D01*
X112285287Y-109155542D01*
X112287539Y-109159962D01*
X112330556Y-109202980D01*
X112390314Y-109212444D01*
X112444374Y-109184899D01*
X112462390Y-109160102D01*
X112464713Y-109155542D01*
X112466390Y-109154453D01*
X112468172Y-109155361D01*
G37*
G36*
X189718172Y-109155361D02*
G01*
X189718465Y-109156797D01*
X189702031Y-109250000D01*
X189718465Y-109343203D01*
X189717781Y-109345082D01*
X189715811Y-109345429D01*
X189714713Y-109344458D01*
X189712461Y-109340038D01*
X189669444Y-109297020D01*
X189609686Y-109287556D01*
X189555626Y-109315101D01*
X189537610Y-109339898D01*
X189535287Y-109344458D01*
X189533610Y-109345547D01*
X189531828Y-109344639D01*
X189531535Y-109343203D01*
X189547969Y-109250000D01*
X189531535Y-109156797D01*
X189532219Y-109154918D01*
X189534189Y-109154571D01*
X189535287Y-109155542D01*
X189537539Y-109159962D01*
X189580556Y-109202980D01*
X189640314Y-109212444D01*
X189694374Y-109184899D01*
X189712390Y-109160102D01*
X189714713Y-109155542D01*
X189716390Y-109154453D01*
X189718172Y-109155361D01*
G37*
G36*
X140718172Y-109155361D02*
G01*
X140718465Y-109156797D01*
X140702031Y-109250000D01*
X140718465Y-109343203D01*
X140717781Y-109345082D01*
X140715811Y-109345429D01*
X140714713Y-109344458D01*
X140712461Y-109340038D01*
X140669444Y-109297020D01*
X140609686Y-109287556D01*
X140555626Y-109315101D01*
X140537610Y-109339898D01*
X140535287Y-109344458D01*
X140533610Y-109345547D01*
X140531828Y-109344639D01*
X140531535Y-109343203D01*
X140547969Y-109250000D01*
X140531535Y-109156797D01*
X140532219Y-109154918D01*
X140534189Y-109154571D01*
X140535287Y-109155542D01*
X140537539Y-109159962D01*
X140580556Y-109202980D01*
X140640314Y-109212444D01*
X140694374Y-109184899D01*
X140712390Y-109160102D01*
X140714713Y-109155542D01*
X140716390Y-109154453D01*
X140718172Y-109155361D01*
G37*
G36*
X111718172Y-109155361D02*
G01*
X111718465Y-109156797D01*
X111702031Y-109250000D01*
X111718465Y-109343203D01*
X111717781Y-109345082D01*
X111715811Y-109345429D01*
X111714713Y-109344458D01*
X111712461Y-109340038D01*
X111669444Y-109297020D01*
X111609686Y-109287556D01*
X111555626Y-109315101D01*
X111537610Y-109339898D01*
X111535287Y-109344458D01*
X111533610Y-109345547D01*
X111531828Y-109344639D01*
X111531535Y-109343203D01*
X111547969Y-109250000D01*
X111531535Y-109156797D01*
X111532219Y-109154918D01*
X111534189Y-109154571D01*
X111535287Y-109155542D01*
X111537539Y-109159962D01*
X111580556Y-109202980D01*
X111640314Y-109212444D01*
X111694374Y-109184899D01*
X111712390Y-109160102D01*
X111714713Y-109155542D01*
X111716390Y-109154453D01*
X111718172Y-109155361D01*
G37*
G36*
X150366484Y-100270942D02*
G01*
X150367168Y-100272821D01*
X150366106Y-100274256D01*
X150340038Y-100287539D01*
X150297020Y-100330556D01*
X150287556Y-100390314D01*
X150315101Y-100444374D01*
X150339899Y-100462390D01*
X150366106Y-100475744D01*
X150367195Y-100477421D01*
X150366287Y-100479203D01*
X150364514Y-100479405D01*
X150301742Y-100456558D01*
X150198258Y-100456558D01*
X150135486Y-100479405D01*
X150133516Y-100479058D01*
X150132832Y-100477179D01*
X150133894Y-100475744D01*
X150159962Y-100462461D01*
X150202980Y-100419444D01*
X150212444Y-100359686D01*
X150184899Y-100305626D01*
X150160101Y-100287610D01*
X150133894Y-100274256D01*
X150132805Y-100272579D01*
X150133713Y-100270797D01*
X150135486Y-100270595D01*
X150198258Y-100293442D01*
X150301742Y-100293442D01*
X150364514Y-100270595D01*
X150366484Y-100270942D01*
G37*
G36*
X151866484Y-100270942D02*
G01*
X151867168Y-100272821D01*
X151866106Y-100274256D01*
X151840038Y-100287539D01*
X151797020Y-100330556D01*
X151787556Y-100390314D01*
X151815101Y-100444374D01*
X151839899Y-100462390D01*
X151866106Y-100475744D01*
X151867195Y-100477421D01*
X151866287Y-100479203D01*
X151864514Y-100479405D01*
X151801742Y-100456558D01*
X151698258Y-100456558D01*
X151635486Y-100479405D01*
X151633516Y-100479058D01*
X151632832Y-100477179D01*
X151633894Y-100475744D01*
X151659962Y-100462461D01*
X151702980Y-100419444D01*
X151712444Y-100359686D01*
X151684899Y-100305626D01*
X151660101Y-100287610D01*
X151633894Y-100274256D01*
X151632805Y-100272579D01*
X151633713Y-100270797D01*
X151635486Y-100270595D01*
X151698258Y-100293442D01*
X151801742Y-100293442D01*
X151864514Y-100270595D01*
X151866484Y-100270942D01*
G37*
G36*
X151866484Y-99520942D02*
G01*
X151867168Y-99522821D01*
X151866106Y-99524256D01*
X151840038Y-99537539D01*
X151797020Y-99580556D01*
X151787556Y-99640314D01*
X151815101Y-99694374D01*
X151839899Y-99712390D01*
X151866106Y-99725744D01*
X151867195Y-99727421D01*
X151866287Y-99729203D01*
X151864514Y-99729405D01*
X151801742Y-99706558D01*
X151698258Y-99706558D01*
X151635486Y-99729405D01*
X151633516Y-99729058D01*
X151632832Y-99727179D01*
X151633894Y-99725744D01*
X151659962Y-99712461D01*
X151702980Y-99669444D01*
X151712444Y-99609686D01*
X151684899Y-99555626D01*
X151660101Y-99537610D01*
X151633894Y-99524256D01*
X151632805Y-99522579D01*
X151633713Y-99520797D01*
X151635486Y-99520595D01*
X151698258Y-99543442D01*
X151801742Y-99543442D01*
X151864514Y-99520595D01*
X151866484Y-99520942D01*
G37*
G36*
X150366484Y-99520942D02*
G01*
X150367168Y-99522821D01*
X150366106Y-99524256D01*
X150340038Y-99537539D01*
X150297020Y-99580556D01*
X150287556Y-99640314D01*
X150315101Y-99694374D01*
X150339899Y-99712390D01*
X150366106Y-99725744D01*
X150367195Y-99727421D01*
X150366287Y-99729203D01*
X150364514Y-99729405D01*
X150301742Y-99706558D01*
X150198258Y-99706558D01*
X150135486Y-99729405D01*
X150133516Y-99729058D01*
X150132832Y-99727179D01*
X150133894Y-99725744D01*
X150159962Y-99712461D01*
X150202980Y-99669444D01*
X150212444Y-99609686D01*
X150184899Y-99555626D01*
X150160101Y-99537610D01*
X150133894Y-99524256D01*
X150132805Y-99522579D01*
X150133713Y-99520797D01*
X150135486Y-99520595D01*
X150198258Y-99543442D01*
X150301742Y-99543442D01*
X150364514Y-99520595D01*
X150366484Y-99520942D01*
G37*
G36*
X151866484Y-71270942D02*
G01*
X151867168Y-71272821D01*
X151866106Y-71274256D01*
X151840038Y-71287539D01*
X151797020Y-71330556D01*
X151787556Y-71390314D01*
X151815101Y-71444374D01*
X151839899Y-71462390D01*
X151866106Y-71475744D01*
X151867195Y-71477421D01*
X151866287Y-71479203D01*
X151864514Y-71479405D01*
X151801742Y-71456558D01*
X151698258Y-71456558D01*
X151635486Y-71479405D01*
X151633516Y-71479058D01*
X151632832Y-71477179D01*
X151633894Y-71475744D01*
X151659962Y-71462461D01*
X151702980Y-71419444D01*
X151712444Y-71359686D01*
X151684899Y-71305626D01*
X151660101Y-71287610D01*
X151633894Y-71274256D01*
X151632805Y-71272579D01*
X151633713Y-71270797D01*
X151635486Y-71270595D01*
X151698258Y-71293442D01*
X151801742Y-71293442D01*
X151864514Y-71270595D01*
X151866484Y-71270942D01*
G37*
G36*
X150366484Y-71270942D02*
G01*
X150367168Y-71272821D01*
X150366106Y-71274256D01*
X150340038Y-71287539D01*
X150297020Y-71330556D01*
X150287556Y-71390314D01*
X150315101Y-71444374D01*
X150339899Y-71462390D01*
X150366106Y-71475744D01*
X150367195Y-71477421D01*
X150366287Y-71479203D01*
X150364514Y-71479405D01*
X150301742Y-71456558D01*
X150198258Y-71456558D01*
X150135486Y-71479405D01*
X150133516Y-71479058D01*
X150132832Y-71477179D01*
X150133894Y-71475744D01*
X150159962Y-71462461D01*
X150202980Y-71419444D01*
X150212444Y-71359686D01*
X150184899Y-71305626D01*
X150160101Y-71287610D01*
X150133894Y-71274256D01*
X150132805Y-71272579D01*
X150133713Y-71270797D01*
X150135486Y-71270595D01*
X150198258Y-71293442D01*
X150301742Y-71293442D01*
X150364514Y-71270595D01*
X150366484Y-71270942D01*
G37*
G36*
X150366484Y-70520942D02*
G01*
X150367168Y-70522821D01*
X150366106Y-70524256D01*
X150340038Y-70537539D01*
X150297020Y-70580556D01*
X150287556Y-70640314D01*
X150315101Y-70694374D01*
X150339899Y-70712390D01*
X150366106Y-70725744D01*
X150367195Y-70727421D01*
X150366287Y-70729203D01*
X150364514Y-70729405D01*
X150301742Y-70706558D01*
X150198258Y-70706558D01*
X150135486Y-70729405D01*
X150133516Y-70729058D01*
X150132832Y-70727179D01*
X150133894Y-70725744D01*
X150159962Y-70712461D01*
X150202980Y-70669444D01*
X150212444Y-70609686D01*
X150184899Y-70555626D01*
X150160101Y-70537610D01*
X150133894Y-70524256D01*
X150132805Y-70522579D01*
X150133713Y-70520797D01*
X150135486Y-70520595D01*
X150198258Y-70543442D01*
X150301742Y-70543442D01*
X150364514Y-70520595D01*
X150366484Y-70520942D01*
G37*
G36*
X151866484Y-70520942D02*
G01*
X151867168Y-70522821D01*
X151866106Y-70524256D01*
X151840038Y-70537539D01*
X151797020Y-70580556D01*
X151787556Y-70640314D01*
X151815101Y-70694374D01*
X151839899Y-70712390D01*
X151866106Y-70725744D01*
X151867195Y-70727421D01*
X151866287Y-70729203D01*
X151864514Y-70729405D01*
X151801742Y-70706558D01*
X151698258Y-70706558D01*
X151635486Y-70729405D01*
X151633516Y-70729058D01*
X151632832Y-70727179D01*
X151633894Y-70725744D01*
X151659962Y-70712461D01*
X151702980Y-70669444D01*
X151712444Y-70609686D01*
X151684899Y-70555626D01*
X151660101Y-70537610D01*
X151633894Y-70524256D01*
X151632805Y-70522579D01*
X151633713Y-70520797D01*
X151635486Y-70520595D01*
X151698258Y-70543442D01*
X151801742Y-70543442D01*
X151864514Y-70520595D01*
X151866484Y-70520942D01*
G37*
G36*
X137155837Y-64607379D02*
G01*
X137161873Y-64611413D01*
X137220467Y-64627938D01*
X137271257Y-64611436D01*
X137277327Y-64607379D01*
X137279322Y-64607248D01*
X137280434Y-64608911D01*
X137280101Y-64610153D01*
X137272273Y-64621869D01*
X137268582Y-64640423D01*
X137268582Y-65940025D01*
X137272273Y-65958579D01*
X137280101Y-65970295D01*
X137280232Y-65972291D01*
X137278569Y-65973402D01*
X137277327Y-65973069D01*
X137271291Y-65969035D01*
X137212697Y-65952510D01*
X137161907Y-65969012D01*
X137155837Y-65973069D01*
X137153842Y-65973200D01*
X137152730Y-65971537D01*
X137153063Y-65970295D01*
X137160891Y-65958579D01*
X137164582Y-65940025D01*
X137164582Y-64640423D01*
X137160891Y-64621869D01*
X137153063Y-64610153D01*
X137152932Y-64608157D01*
X137154595Y-64607046D01*
X137155837Y-64607379D01*
G37*
G36*
X137805837Y-64607379D02*
G01*
X137811873Y-64611413D01*
X137870467Y-64627938D01*
X137921257Y-64611436D01*
X137927327Y-64607379D01*
X137929322Y-64607248D01*
X137930434Y-64608911D01*
X137930101Y-64610153D01*
X137922273Y-64621869D01*
X137918582Y-64640423D01*
X137918582Y-65940025D01*
X137922273Y-65958579D01*
X137930101Y-65970295D01*
X137930232Y-65972291D01*
X137928569Y-65973402D01*
X137927327Y-65973069D01*
X137921291Y-65969035D01*
X137862697Y-65952510D01*
X137811907Y-65969012D01*
X137805837Y-65973069D01*
X137803842Y-65973200D01*
X137802730Y-65971537D01*
X137803063Y-65970295D01*
X137810891Y-65958579D01*
X137814582Y-65940025D01*
X137814582Y-64640423D01*
X137810891Y-64621869D01*
X137803063Y-64610153D01*
X137802932Y-64608157D01*
X137804595Y-64607046D01*
X137805837Y-64607379D01*
G37*
G36*
X188155837Y-64607379D02*
G01*
X188161873Y-64611413D01*
X188220467Y-64627938D01*
X188271257Y-64611436D01*
X188277327Y-64607379D01*
X188279322Y-64607248D01*
X188280434Y-64608911D01*
X188280101Y-64610153D01*
X188272273Y-64621869D01*
X188268582Y-64640423D01*
X188268582Y-65940025D01*
X188272273Y-65958579D01*
X188280101Y-65970295D01*
X188280232Y-65972291D01*
X188278569Y-65973402D01*
X188277327Y-65973069D01*
X188271291Y-65969035D01*
X188212697Y-65952510D01*
X188161907Y-65969012D01*
X188155837Y-65973069D01*
X188153842Y-65973200D01*
X188152730Y-65971537D01*
X188153063Y-65970295D01*
X188160891Y-65958579D01*
X188164582Y-65940025D01*
X188164582Y-64640423D01*
X188160891Y-64621869D01*
X188153063Y-64610153D01*
X188152932Y-64608157D01*
X188154595Y-64607046D01*
X188155837Y-64607379D01*
G37*
G36*
X188805837Y-64607379D02*
G01*
X188811873Y-64611413D01*
X188870467Y-64627938D01*
X188921257Y-64611436D01*
X188927327Y-64607379D01*
X188929322Y-64607248D01*
X188930434Y-64608911D01*
X188930101Y-64610153D01*
X188922273Y-64621869D01*
X188918582Y-64640423D01*
X188918582Y-65940025D01*
X188922273Y-65958579D01*
X188930101Y-65970295D01*
X188930232Y-65972291D01*
X188928569Y-65973402D01*
X188927327Y-65973069D01*
X188921291Y-65969035D01*
X188862697Y-65952510D01*
X188811907Y-65969012D01*
X188805837Y-65973069D01*
X188803842Y-65973200D01*
X188802730Y-65971537D01*
X188803063Y-65970295D01*
X188810891Y-65958579D01*
X188814582Y-65940025D01*
X188814582Y-64640423D01*
X188810891Y-64621869D01*
X188803063Y-64610153D01*
X188802932Y-64608157D01*
X188804595Y-64607046D01*
X188805837Y-64607379D01*
G37*
G36*
X138455837Y-64607379D02*
G01*
X138461873Y-64611413D01*
X138520467Y-64627938D01*
X138571257Y-64611436D01*
X138577327Y-64607379D01*
X138579322Y-64607248D01*
X138580434Y-64608911D01*
X138580101Y-64610153D01*
X138572273Y-64621869D01*
X138568582Y-64640423D01*
X138568582Y-65940025D01*
X138572273Y-65958579D01*
X138580101Y-65970295D01*
X138580232Y-65972291D01*
X138578569Y-65973402D01*
X138577327Y-65973069D01*
X138571291Y-65969035D01*
X138512697Y-65952510D01*
X138461907Y-65969012D01*
X138455837Y-65973069D01*
X138453842Y-65973200D01*
X138452730Y-65971537D01*
X138453063Y-65970295D01*
X138460891Y-65958579D01*
X138464582Y-65940025D01*
X138464582Y-64640423D01*
X138460891Y-64621869D01*
X138453063Y-64610153D01*
X138452932Y-64608157D01*
X138454595Y-64607046D01*
X138455837Y-64607379D01*
G37*
G36*
X187505837Y-64607379D02*
G01*
X187511873Y-64611413D01*
X187570467Y-64627938D01*
X187621257Y-64611436D01*
X187627327Y-64607379D01*
X187629322Y-64607248D01*
X187630434Y-64608911D01*
X187630101Y-64610153D01*
X187622273Y-64621869D01*
X187618582Y-64640423D01*
X187618582Y-65940025D01*
X187622273Y-65958579D01*
X187630101Y-65970295D01*
X187630232Y-65972291D01*
X187628569Y-65973402D01*
X187627327Y-65973069D01*
X187621291Y-65969035D01*
X187562697Y-65952510D01*
X187511907Y-65969012D01*
X187505837Y-65973069D01*
X187503842Y-65973200D01*
X187502730Y-65971537D01*
X187503063Y-65970295D01*
X187510891Y-65958579D01*
X187514582Y-65940025D01*
X187514582Y-64640423D01*
X187510891Y-64621869D01*
X187503063Y-64610153D01*
X187502932Y-64608157D01*
X187504595Y-64607046D01*
X187505837Y-64607379D01*
G37*
G36*
X189455837Y-64607379D02*
G01*
X189461873Y-64611413D01*
X189520467Y-64627938D01*
X189571257Y-64611436D01*
X189577327Y-64607379D01*
X189579322Y-64607248D01*
X189580434Y-64608911D01*
X189580101Y-64610153D01*
X189572273Y-64621869D01*
X189568582Y-64640423D01*
X189568582Y-65940025D01*
X189572273Y-65958579D01*
X189580101Y-65970295D01*
X189580232Y-65972291D01*
X189578569Y-65973402D01*
X189577327Y-65973069D01*
X189571291Y-65969035D01*
X189512697Y-65952510D01*
X189461907Y-65969012D01*
X189455837Y-65973069D01*
X189453842Y-65973200D01*
X189452730Y-65971537D01*
X189453063Y-65970295D01*
X189460891Y-65958579D01*
X189464582Y-65940025D01*
X189464582Y-64640423D01*
X189460891Y-64621869D01*
X189453063Y-64610153D01*
X189452932Y-64608157D01*
X189454595Y-64607046D01*
X189455837Y-64607379D01*
G37*
G36*
X136505837Y-64607379D02*
G01*
X136511873Y-64611413D01*
X136570467Y-64627938D01*
X136621257Y-64611436D01*
X136627327Y-64607379D01*
X136629322Y-64607248D01*
X136630434Y-64608911D01*
X136630101Y-64610153D01*
X136622273Y-64621869D01*
X136618582Y-64640423D01*
X136618582Y-65940025D01*
X136622273Y-65958579D01*
X136630101Y-65970295D01*
X136630232Y-65972291D01*
X136628569Y-65973402D01*
X136627327Y-65973069D01*
X136621291Y-65969035D01*
X136562697Y-65952510D01*
X136511907Y-65969012D01*
X136505837Y-65973069D01*
X136503842Y-65973200D01*
X136502730Y-65971537D01*
X136503063Y-65970295D01*
X136510891Y-65958579D01*
X136514582Y-65940025D01*
X136514582Y-64640423D01*
X136510891Y-64621869D01*
X136503063Y-64610153D01*
X136502932Y-64608157D01*
X136504595Y-64607046D01*
X136505837Y-64607379D01*
G37*
M02*
