M48
; DRILL file {KiCad (6.0.9)} date Thu Jan 12 22:27:40 2023
; FORMAT={-:-/ absolute / metric / decimal}
; #@! TF.CreationDate,2023-01-12T22:27:40+07:00
; #@! TF.GenerationSoftware,Kicad,Pcbnew,(6.0.9)
; #@! TF.FileFunction,Plated,1,2,PTH
FMAT,2
METRIC
; #@! TA.AperFunction,Plated,PTH,ViaDrill
T1C0.200
; #@! TA.AperFunction,Plated,PTH,ComponentDrill
T2C0.500
; #@! TA.AperFunction,Plated,PTH,ComponentDrill
T3C0.550
; #@! TA.AperFunction,Plated,PTH,ComponentDrill
T4C0.850
; #@! TA.AperFunction,Plated,PTH,ComponentDrill
T5C1.000
; #@! TA.AperFunction,Plated,PTH,ComponentDrill
T6C1.520
; #@! TA.AperFunction,Plated,PTH,ComponentDrill
T7C3.200
%
G90
G05
T1
X110.975Y-77.763
X110.975Y-128.762
X113.372Y-63.356
X113.372Y-114.356
X113.57Y-101.0
X113.57Y-152.0
X114.86Y-101.0
X114.86Y-152.0
X115.35Y-74.29
X115.35Y-125.29
X116.078Y-67.31
X116.078Y-118.31
X116.1Y-83.287
X116.1Y-134.287
X116.13Y-102.3
X116.13Y-153.3
X116.66Y-96.66
X116.66Y-147.66
X117.348Y-67.31
X117.348Y-118.31
X117.58Y-79.93
X117.58Y-130.93
X117.752Y-92.236
X117.752Y-143.236
X118.24Y-81.06
X118.24Y-132.06
X118.39Y-82.51
X118.39Y-133.51
X118.48Y-97.075
X118.48Y-148.075
X118.65Y-85.81
X118.65Y-136.81
X118.661Y-86.614
X118.661Y-137.614
X118.67Y-83.91
X118.67Y-134.91
X118.675Y-87.375
X118.675Y-88.125
X118.675Y-138.375
X118.675Y-139.125
X118.93Y-81.49
X118.93Y-132.49
X120.78Y-74.95
X120.78Y-125.95
X120.85Y-65.3
X120.85Y-116.3
X121.41Y-73.328
X121.41Y-124.328
X122.21Y-89.32
X122.21Y-140.32
X124.46Y-79.502
X124.46Y-130.502
X124.518Y-81.565
X124.518Y-132.565
X125.25Y-68.45
X125.25Y-119.45
X125.55Y-70.75
X125.55Y-121.75
X126.325Y-83.0
X126.325Y-83.55
X126.325Y-134.0
X126.325Y-134.55
X126.4Y-69.3
X126.4Y-120.3
X126.474Y-67.328
X126.474Y-118.328
X126.5Y-71.25
X126.5Y-122.25
X126.55Y-65.275
X126.55Y-116.275
X126.63Y-89.56
X126.63Y-140.56
X127.775Y-84.501
X127.775Y-135.5
X128.27Y-80.772
X128.27Y-131.772
X128.32Y-96.51
X128.32Y-147.51
X128.775Y-73.425
X128.775Y-124.425
X128.778Y-69.342
X128.778Y-120.342
X129.25Y-97.44
X129.25Y-148.44
X129.47Y-102.3
X129.47Y-153.3
X130.82Y-96.55
X130.82Y-147.55
X130.875Y-93.25
X130.875Y-144.25
X131.288Y-96.55
X131.288Y-147.55
X131.394Y-91.313
X131.394Y-142.313
X131.505Y-62.819
X131.505Y-113.819
X131.508Y-64.443
X131.508Y-115.443
X131.526Y-66.28
X131.526Y-117.28
X131.926Y-80.198
X131.926Y-131.198
X132.366Y-83.272
X132.366Y-134.272
X132.486Y-87.198
X132.486Y-138.198
X132.93Y-70.104
X132.93Y-121.104
X132.934Y-72.136
X132.934Y-123.136
X133.096Y-75.946
X133.096Y-126.946
X133.187Y-83.263
X133.187Y-134.263
X133.604Y-94.479
X133.604Y-145.479
X133.858Y-70.866
X133.858Y-121.866
X134.65Y-99.03
X134.65Y-150.03
X134.99Y-99.03
X134.99Y-150.03
X136.368Y-96.55
X136.368Y-147.55
X136.8Y-96.55
X136.8Y-147.55
X138.43Y-68.326
X138.43Y-70.358
X138.43Y-71.628
X138.43Y-119.326
X138.43Y-121.358
X138.43Y-122.628
X138.938Y-66.548
X138.938Y-117.548
X139.192Y-66.294
X139.192Y-117.294
X139.46Y-102.85
X139.46Y-153.85
X139.9Y-97.7
X139.9Y-148.7
X140.226Y-81.516
X140.226Y-132.516
X140.51Y-81.8
X140.51Y-132.8
X141.225Y-89.825
X141.225Y-140.825
X142.748Y-76.2
X142.748Y-127.2
X143.607Y-76.357
X143.607Y-127.357
X161.975Y-77.763
X161.975Y-128.762
X164.372Y-63.356
X164.372Y-114.356
X164.57Y-101.0
X164.57Y-152.0
X165.86Y-101.0
X165.86Y-152.0
X166.35Y-74.29
X166.35Y-125.29
X167.078Y-67.31
X167.078Y-118.31
X167.1Y-83.287
X167.1Y-134.287
X167.13Y-102.3
X167.13Y-153.3
X167.66Y-96.66
X167.66Y-147.66
X168.348Y-67.31
X168.348Y-118.31
X168.58Y-79.93
X168.58Y-130.93
X168.752Y-92.236
X168.752Y-143.236
X169.24Y-81.06
X169.24Y-132.06
X169.39Y-82.51
X169.39Y-133.51
X169.48Y-97.075
X169.48Y-148.075
X169.65Y-85.81
X169.65Y-136.81
X169.661Y-86.614
X169.661Y-137.614
X169.67Y-83.91
X169.67Y-134.91
X169.675Y-87.375
X169.675Y-88.125
X169.675Y-138.375
X169.675Y-139.125
X169.93Y-81.49
X169.93Y-132.49
X171.78Y-74.95
X171.78Y-125.95
X171.85Y-65.3
X171.85Y-116.3
X172.41Y-73.328
X172.41Y-124.328
X173.21Y-89.32
X173.21Y-140.32
X175.46Y-79.502
X175.46Y-130.502
X175.518Y-81.565
X175.518Y-132.565
X176.25Y-68.45
X176.25Y-119.45
X176.55Y-70.75
X176.55Y-121.75
X177.325Y-83.0
X177.325Y-83.55
X177.325Y-134.0
X177.325Y-134.55
X177.4Y-69.3
X177.4Y-120.3
X177.474Y-67.328
X177.474Y-118.328
X177.5Y-71.25
X177.5Y-122.25
X177.55Y-65.275
X177.55Y-116.275
X177.63Y-89.56
X177.63Y-140.56
X178.775Y-84.501
X178.775Y-135.5
X179.27Y-80.772
X179.27Y-131.772
X179.32Y-96.51
X179.32Y-147.51
X179.775Y-73.425
X179.775Y-124.425
X179.778Y-69.342
X179.778Y-120.342
X180.25Y-97.44
X180.25Y-148.44
X180.47Y-102.3
X180.47Y-153.3
X181.82Y-96.55
X181.82Y-147.55
X181.875Y-93.25
X181.875Y-144.25
X182.288Y-96.55
X182.288Y-147.55
X182.394Y-91.313
X182.394Y-142.313
X182.505Y-62.819
X182.505Y-113.819
X182.508Y-64.443
X182.508Y-115.443
X182.526Y-66.28
X182.526Y-117.28
X182.926Y-80.198
X182.926Y-131.198
X183.366Y-83.272
X183.366Y-134.272
X183.486Y-87.198
X183.486Y-138.198
X183.93Y-70.104
X183.93Y-121.104
X183.934Y-72.136
X183.934Y-123.136
X184.096Y-75.946
X184.096Y-126.946
X184.187Y-83.263
X184.187Y-134.263
X184.604Y-94.479
X184.604Y-145.479
X184.858Y-70.866
X184.858Y-121.866
X185.65Y-99.03
X185.65Y-150.03
X185.99Y-99.03
X185.99Y-150.03
X187.368Y-96.55
X187.368Y-147.55
X187.8Y-96.55
X187.8Y-147.55
X189.43Y-68.326
X189.43Y-70.358
X189.43Y-71.628
X189.43Y-119.326
X189.43Y-121.358
X189.43Y-122.628
X189.938Y-66.548
X189.938Y-117.548
X190.192Y-66.294
X190.192Y-117.294
X190.46Y-102.85
X190.46Y-153.85
X190.9Y-97.7
X190.9Y-148.7
X191.226Y-81.516
X191.226Y-132.516
X191.51Y-81.8
X191.51Y-132.8
X192.225Y-89.825
X192.225Y-140.825
X193.748Y-76.2
X193.748Y-127.2
X194.607Y-76.357
X194.607Y-127.357
T2
X102.6Y-63.75
X102.6Y-105.0
X102.6Y-114.75
X102.6Y-156.0
X103.303Y-62.053
X103.303Y-65.447
X103.303Y-103.303
X103.303Y-106.697
X103.303Y-113.053
X103.303Y-116.447
X103.303Y-154.303
X103.303Y-157.697
X105.0Y-61.35
X105.0Y-66.15
X105.0Y-102.6
X105.0Y-107.4
X105.0Y-112.35
X105.0Y-117.15
X105.0Y-153.6
X105.0Y-158.4
X106.697Y-62.053
X106.697Y-65.447
X106.697Y-103.303
X106.697Y-106.697
X106.697Y-113.053
X106.697Y-116.447
X106.697Y-154.303
X106.697Y-157.697
X107.4Y-63.75
X107.4Y-105.0
X107.4Y-114.75
X107.4Y-156.0
X143.65Y-63.75
X143.65Y-105.0
X143.65Y-114.75
X143.65Y-156.0
X144.353Y-62.053
X144.353Y-65.447
X144.353Y-103.303
X144.353Y-106.697
X144.353Y-113.053
X144.353Y-116.447
X144.353Y-154.303
X144.353Y-157.697
X146.05Y-61.35
X146.05Y-66.15
X146.05Y-102.6
X146.05Y-107.4
X146.05Y-112.35
X146.05Y-117.15
X146.05Y-153.6
X146.05Y-158.4
X147.747Y-62.053
X147.747Y-65.447
X147.747Y-103.303
X147.747Y-106.697
X147.747Y-113.053
X147.747Y-116.447
X147.747Y-154.303
X147.747Y-157.697
X148.45Y-63.75
X148.45Y-105.0
X148.45Y-114.75
X148.45Y-156.0
X153.6Y-63.75
X153.6Y-105.0
X153.6Y-114.75
X153.6Y-156.0
X154.303Y-62.053
X154.303Y-65.447
X154.303Y-103.303
X154.303Y-106.697
X154.303Y-113.053
X154.303Y-116.447
X154.303Y-154.303
X154.303Y-157.697
X156.0Y-61.35
X156.0Y-66.15
X156.0Y-102.6
X156.0Y-107.4
X156.0Y-112.35
X156.0Y-117.15
X156.0Y-153.6
X156.0Y-158.4
X157.697Y-62.053
X157.697Y-65.447
X157.697Y-103.303
X157.697Y-106.697
X157.697Y-113.053
X157.697Y-116.447
X157.697Y-154.303
X157.697Y-157.697
X158.4Y-63.75
X158.4Y-105.0
X158.4Y-114.75
X158.4Y-156.0
X194.65Y-63.75
X194.65Y-105.0
X194.65Y-114.75
X194.65Y-156.0
X195.353Y-62.053
X195.353Y-65.447
X195.353Y-103.303
X195.353Y-106.697
X195.353Y-113.053
X195.353Y-116.447
X195.353Y-154.303
X195.353Y-157.697
X197.05Y-61.35
X197.05Y-66.15
X197.05Y-102.6
X197.05Y-107.4
X197.05Y-112.35
X197.05Y-117.15
X197.05Y-153.6
X197.05Y-158.4
X198.747Y-62.053
X198.747Y-65.447
X198.747Y-103.303
X198.747Y-106.697
X198.747Y-113.053
X198.747Y-116.447
X198.747Y-154.303
X198.747Y-157.697
X199.45Y-63.75
X199.45Y-105.0
X199.45Y-114.75
X199.45Y-156.0
T5
X105.205Y-72.917
X105.205Y-75.457
X105.205Y-77.997
X105.205Y-80.537
X105.205Y-83.077
X105.205Y-85.617
X105.205Y-88.157
X105.205Y-90.697
X105.205Y-93.237
X105.205Y-95.777
X105.205Y-123.917
X105.205Y-126.457
X105.205Y-128.997
X105.205Y-131.537
X105.205Y-134.077
X105.205Y-136.617
X105.205Y-139.157
X105.205Y-141.697
X105.205Y-144.237
X105.205Y-146.777
X107.745Y-72.917
X107.745Y-75.457
X107.745Y-77.997
X107.745Y-80.537
X107.745Y-83.077
X107.745Y-85.617
X107.745Y-88.157
X107.745Y-90.697
X107.745Y-93.237
X107.745Y-95.777
X107.745Y-123.917
X107.745Y-126.457
X107.745Y-128.997
X107.745Y-131.537
X107.745Y-134.077
X107.745Y-136.617
X107.745Y-139.157
X107.745Y-141.697
X107.745Y-144.237
X107.745Y-146.777
X121.86Y-99.134
X121.86Y-150.134
X124.4Y-99.134
X124.4Y-150.134
X126.94Y-99.134
X126.94Y-150.134
X129.48Y-99.134
X129.48Y-150.134
X143.304Y-85.599
X143.304Y-88.139
X143.304Y-90.679
X143.304Y-93.219
X143.304Y-95.759
X143.304Y-136.599
X143.304Y-139.139
X143.304Y-141.679
X143.304Y-144.219
X143.304Y-146.759
X143.607Y-69.342
X143.607Y-71.882
X143.607Y-74.422
X143.607Y-120.342
X143.607Y-122.882
X143.607Y-125.422
X145.844Y-85.599
X145.844Y-88.139
X145.844Y-90.679
X145.844Y-93.219
X145.844Y-95.759
X145.844Y-136.599
X145.844Y-139.139
X145.844Y-141.679
X145.844Y-144.219
X145.844Y-146.759
X147.501Y-69.376
X147.501Y-71.916
X147.501Y-74.456
X147.501Y-76.996
X147.501Y-120.376
X147.501Y-122.916
X147.501Y-125.456
X147.501Y-127.996
X156.205Y-72.917
X156.205Y-75.457
X156.205Y-77.997
X156.205Y-80.537
X156.205Y-83.077
X156.205Y-85.617
X156.205Y-88.157
X156.205Y-90.697
X156.205Y-93.237
X156.205Y-95.777
X156.205Y-123.917
X156.205Y-126.457
X156.205Y-128.997
X156.205Y-131.537
X156.205Y-134.077
X156.205Y-136.617
X156.205Y-139.157
X156.205Y-141.697
X156.205Y-144.237
X156.205Y-146.777
X158.745Y-72.917
X158.745Y-75.457
X158.745Y-77.997
X158.745Y-80.537
X158.745Y-83.077
X158.745Y-85.617
X158.745Y-88.157
X158.745Y-90.697
X158.745Y-93.237
X158.745Y-95.777
X158.745Y-123.917
X158.745Y-126.457
X158.745Y-128.997
X158.745Y-131.537
X158.745Y-134.077
X158.745Y-136.617
X158.745Y-139.157
X158.745Y-141.697
X158.745Y-144.237
X158.745Y-146.777
X172.86Y-99.134
X172.86Y-150.134
X175.4Y-99.134
X175.4Y-150.134
X177.94Y-99.134
X177.94Y-150.134
X180.48Y-99.134
X180.48Y-150.134
X194.304Y-85.599
X194.304Y-88.139
X194.304Y-90.679
X194.304Y-93.219
X194.304Y-95.759
X194.304Y-136.599
X194.304Y-139.139
X194.304Y-141.679
X194.304Y-144.219
X194.304Y-146.759
X194.607Y-69.342
X194.607Y-71.882
X194.607Y-74.422
X194.607Y-120.342
X194.607Y-122.882
X194.607Y-125.422
X196.844Y-85.599
X196.844Y-88.139
X196.844Y-90.679
X196.844Y-93.219
X196.844Y-95.759
X196.844Y-136.599
X196.844Y-139.139
X196.844Y-141.679
X196.844Y-144.219
X196.844Y-146.759
X198.501Y-69.376
X198.501Y-71.916
X198.501Y-74.456
X198.501Y-76.996
X198.501Y-120.376
X198.501Y-122.916
X198.501Y-125.456
X198.501Y-127.996
T6
X112.773Y-105.051
X112.773Y-156.051
X117.853Y-105.051
X117.853Y-156.051
X122.933Y-105.051
X122.933Y-156.051
X128.013Y-105.051
X128.013Y-156.051
X133.093Y-105.051
X133.093Y-156.051
X138.173Y-105.051
X138.173Y-156.051
X163.773Y-105.051
X163.773Y-156.051
X168.853Y-105.051
X168.853Y-156.051
X173.933Y-105.051
X173.933Y-156.051
X179.013Y-105.051
X179.013Y-156.051
X184.093Y-105.051
X184.093Y-156.051
X189.173Y-105.051
X189.173Y-156.051
T7
X105.0Y-63.75
X105.0Y-105.0
X105.0Y-114.75
X105.0Y-156.0
X146.05Y-63.75
X146.05Y-105.0
X146.05Y-114.75
X146.05Y-156.0
X156.0Y-63.75
X156.0Y-105.0
X156.0Y-114.75
X156.0Y-156.0
X197.05Y-63.75
X197.05Y-105.0
X197.05Y-114.75
X197.05Y-156.0
T3
X133.667Y-61.765G85X133.667Y-61.115
G05
X133.667Y-112.765G85X133.667Y-112.115
G05
X141.417Y-61.765G85X141.417Y-61.115
G05
X141.417Y-112.765G85X141.417Y-112.115
G05
X184.667Y-61.765G85X184.667Y-61.115
G05
X184.667Y-112.765G85X184.667Y-112.115
G05
X192.417Y-61.765G85X192.417Y-61.115
G05
X192.417Y-112.765G85X192.417Y-112.115
G05
T4
X133.817Y-65.515G85X133.817Y-64.965
G05
X133.817Y-116.515G85X133.817Y-115.965
G05
X141.267Y-65.515G85X141.267Y-64.965
G05
X141.267Y-116.515G85X141.267Y-115.965
G05
X184.817Y-65.515G85X184.817Y-64.965
G05
X184.817Y-116.515G85X184.817Y-115.965
G05
X192.267Y-65.515G85X192.267Y-64.965
G05
X192.267Y-116.515G85X192.267Y-115.965
G05
T0
M30
