M48
; DRILL file {KiCad (6.0.9)} date Thu Jan 12 22:27:40 2023
; FORMAT={-:-/ absolute / metric / decimal}
; #@! TF.CreationDate,2023-01-12T22:27:40+07:00
; #@! TF.GenerationSoftware,Kicad,Pcbnew,(6.0.9)
; #@! TF.FileFunction,NonPlated,1,2,NPTH
FMAT,2
METRIC
; #@! TA.AperFunction,NonPlated,NPTH,ComponentDrill
T1C0.500
; #@! TA.AperFunction,NonPlated,NPTH,ComponentDrill
T2C0.800
%
G90
G05
T1
X111.25Y-109.25
X111.25Y-110.75
X112.0Y-109.25
X112.0Y-110.75
X112.75Y-109.25
X112.75Y-110.75
X140.25Y-109.25
X140.25Y-110.75
X141.0Y-109.25
X141.0Y-110.75
X141.75Y-109.25
X141.75Y-110.75
X150.25Y-70.25
X150.25Y-71.0
X150.25Y-71.75
X150.25Y-99.25
X150.25Y-100.0
X150.25Y-100.75
X150.25Y-119.25
X150.25Y-120.0
X150.25Y-120.75
X150.25Y-148.25
X150.25Y-149.0
X150.25Y-149.75
X151.75Y-70.25
X151.75Y-71.0
X151.75Y-71.75
X151.75Y-99.25
X151.75Y-100.0
X151.75Y-100.75
X151.75Y-119.25
X151.75Y-120.0
X151.75Y-120.75
X151.75Y-148.25
X151.75Y-149.0
X151.75Y-149.75
X160.25Y-109.25
X160.25Y-110.75
X161.0Y-109.25
X161.0Y-110.75
X161.75Y-109.25
X161.75Y-110.75
X189.25Y-109.25
X189.25Y-110.75
X190.0Y-109.25
X190.0Y-110.75
X190.75Y-109.25
X190.75Y-110.75
T2
X110.201Y-62.588
X110.201Y-113.588
X135.042Y-64.19
X135.042Y-115.19
X140.042Y-64.19
X140.042Y-115.19
X161.201Y-62.588
X161.201Y-113.588
X186.042Y-64.19
X186.042Y-115.19
X191.042Y-64.19
X191.042Y-115.19
T0
M30
