G04 #@! TF.GenerationSoftware,KiCad,Pcbnew,(6.0.9)*
G04 #@! TF.CreationDate,2023-01-12T22:26:46+07:00*
G04 #@! TF.ProjectId,ESP12CORE_B_panel,45535031-3243-44f5-9245-5f425f70616e,rev?*
G04 #@! TF.SameCoordinates,Original*
G04 #@! TF.FileFunction,Paste,Top*
G04 #@! TF.FilePolarity,Positive*
%FSLAX46Y46*%
G04 Gerber Fmt 4.6, Leading zero omitted, Abs format (unit mm)*
G04 Created by KiCad (PCBNEW (6.0.9)) date 2023-01-12 22:26:46*
%MOMM*%
%LPD*%
G01*
G04 APERTURE LIST*
G04 Aperture macros list*
%AMRoundRect*
0 Rectangle with rounded corners*
0 $1 Rounding radius*
0 $2 $3 $4 $5 $6 $7 $8 $9 X,Y pos of 4 corners*
0 Add a 4 corners polygon primitive as box body*
4,1,4,$2,$3,$4,$5,$6,$7,$8,$9,$2,$3,0*
0 Add four circle primitives for the rounded corners*
1,1,$1+$1,$2,$3*
1,1,$1+$1,$4,$5*
1,1,$1+$1,$6,$7*
1,1,$1+$1,$8,$9*
0 Add four rect primitives between the rounded corners*
20,1,$1+$1,$2,$3,$4,$5,0*
20,1,$1+$1,$4,$5,$6,$7,0*
20,1,$1+$1,$6,$7,$8,$9,0*
20,1,$1+$1,$8,$9,$2,$3,0*%
G04 Aperture macros list end*
%ADD10R,2.500000X1.000000*%
%ADD11R,1.000000X1.800000*%
%ADD12R,1.200000X0.900000*%
%ADD13R,0.350000X0.500000*%
%ADD14R,1.700000X0.900000*%
%ADD15RoundRect,0.150000X-0.150000X0.587500X-0.150000X-0.587500X0.150000X-0.587500X0.150000X0.587500X0*%
%ADD16RoundRect,0.250000X-0.262500X-0.450000X0.262500X-0.450000X0.262500X0.450000X-0.262500X0.450000X0*%
%ADD17RoundRect,0.250000X0.262500X0.450000X-0.262500X0.450000X-0.262500X-0.450000X0.262500X-0.450000X0*%
%ADD18RoundRect,0.250000X-1.250000X-0.550000X1.250000X-0.550000X1.250000X0.550000X-1.250000X0.550000X0*%
%ADD19RoundRect,0.150000X-0.875000X-0.150000X0.875000X-0.150000X0.875000X0.150000X-0.875000X0.150000X0*%
%ADD20RoundRect,0.250000X-0.250000X-0.475000X0.250000X-0.475000X0.250000X0.475000X-0.250000X0.475000X0*%
%ADD21RoundRect,0.150000X-0.825000X-0.150000X0.825000X-0.150000X0.825000X0.150000X-0.825000X0.150000X0*%
%ADD22RoundRect,0.150000X0.150000X-0.587500X0.150000X0.587500X-0.150000X0.587500X-0.150000X-0.587500X0*%
%ADD23RoundRect,0.150000X-0.512500X-0.150000X0.512500X-0.150000X0.512500X0.150000X-0.512500X0.150000X0*%
%ADD24R,2.500000X2.300000*%
%ADD25RoundRect,0.250000X-0.650000X0.325000X-0.650000X-0.325000X0.650000X-0.325000X0.650000X0.325000X0*%
%ADD26RoundRect,0.250000X0.450000X-0.262500X0.450000X0.262500X-0.450000X0.262500X-0.450000X-0.262500X0*%
%ADD27RoundRect,0.250000X0.475000X-0.250000X0.475000X0.250000X-0.475000X0.250000X-0.475000X-0.250000X0*%
%ADD28RoundRect,0.150000X-0.150000X0.825000X-0.150000X-0.825000X0.150000X-0.825000X0.150000X0.825000X0*%
%ADD29RoundRect,0.150000X-0.150000X0.512500X-0.150000X-0.512500X0.150000X-0.512500X0.150000X0.512500X0*%
%ADD30RoundRect,0.243750X-0.456250X0.243750X-0.456250X-0.243750X0.456250X-0.243750X0.456250X0.243750X0*%
%ADD31RoundRect,0.243750X0.456250X-0.243750X0.456250X0.243750X-0.456250X0.243750X-0.456250X-0.243750X0*%
%ADD32R,0.450000X1.300000*%
%ADD33RoundRect,0.250000X0.375000X1.075000X-0.375000X1.075000X-0.375000X-1.075000X0.375000X-1.075000X0*%
%ADD34R,0.400000X1.900000*%
%ADD35RoundRect,0.250000X-0.450000X0.262500X-0.450000X-0.262500X0.450000X-0.262500X0.450000X0.262500X0*%
G04 APERTURE END LIST*
D10*
X164400000Y-112328000D03*
X164400000Y-114328000D03*
X164400000Y-116328000D03*
X164400000Y-118328000D03*
X164400000Y-120328000D03*
X164400000Y-122328000D03*
X164400000Y-124328000D03*
X164400000Y-126328000D03*
D11*
X167000000Y-127828000D03*
X169000000Y-127828000D03*
X171000000Y-127828000D03*
X173000000Y-127828000D03*
X175000000Y-127828000D03*
X177000000Y-127828000D03*
D10*
X179600000Y-126328000D03*
X179600000Y-124328000D03*
X179600000Y-122328000D03*
X179600000Y-120328000D03*
X179600000Y-118328000D03*
X179600000Y-116328000D03*
X179600000Y-114328000D03*
X179600000Y-112328000D03*
X113400000Y-112328000D03*
X113400000Y-114328000D03*
X113400000Y-116328000D03*
X113400000Y-118328000D03*
X113400000Y-120328000D03*
X113400000Y-122328000D03*
X113400000Y-124328000D03*
X113400000Y-126328000D03*
D11*
X116000000Y-127828000D03*
X118000000Y-127828000D03*
X120000000Y-127828000D03*
X122000000Y-127828000D03*
X124000000Y-127828000D03*
X126000000Y-127828000D03*
D10*
X128600000Y-126328000D03*
X128600000Y-124328000D03*
X128600000Y-122328000D03*
X128600000Y-120328000D03*
X128600000Y-118328000D03*
X128600000Y-116328000D03*
X128600000Y-114328000D03*
X128600000Y-112328000D03*
D12*
X179350000Y-147525000D03*
X179350000Y-144225000D03*
D13*
X195572362Y-78726687D03*
X194922362Y-78726687D03*
X194272362Y-78726687D03*
X193622362Y-78726687D03*
X193622362Y-77126687D03*
X194272362Y-77126687D03*
X194922362Y-77126687D03*
X195572362Y-77126687D03*
D14*
X110200827Y-60887897D03*
X110200827Y-64287897D03*
D15*
X165197348Y-90358224D03*
X163297348Y-90358224D03*
X164247348Y-92233224D03*
D12*
X176852177Y-144199169D03*
X176852177Y-147499169D03*
D16*
X182105336Y-121104000D03*
X183930336Y-121104000D03*
D17*
X177316594Y-79561634D03*
X175491594Y-79561634D03*
D16*
X175476200Y-87630000D03*
X177301200Y-87630000D03*
D18*
X184182000Y-140154000D03*
X188582000Y-140154000D03*
D12*
X130825000Y-93250000D03*
X130825000Y-96550000D03*
D19*
X163825000Y-130230000D03*
X163825000Y-131500000D03*
X163825000Y-132770000D03*
X163825000Y-134040000D03*
X163825000Y-135310000D03*
X163825000Y-136580000D03*
X163825000Y-137850000D03*
X163825000Y-139120000D03*
X173125000Y-139120000D03*
X173125000Y-137850000D03*
X173125000Y-136580000D03*
X173125000Y-135310000D03*
X173125000Y-134040000D03*
X173125000Y-132770000D03*
X173125000Y-131500000D03*
X173125000Y-130230000D03*
D16*
X124510809Y-136598000D03*
X126335809Y-136598000D03*
X131105336Y-121104000D03*
X132930336Y-121104000D03*
D17*
X168752500Y-143235934D03*
X166927500Y-143235934D03*
D15*
X129973541Y-82670793D03*
X128073541Y-82670793D03*
X129023541Y-84545793D03*
D17*
X177333864Y-83566000D03*
X175508864Y-83566000D03*
D16*
X175510809Y-136598000D03*
X177335809Y-136598000D03*
D12*
X181825000Y-93250000D03*
X181825000Y-96550000D03*
D17*
X131915699Y-80238384D03*
X130090699Y-80238384D03*
X183933550Y-72136000D03*
X182108550Y-72136000D03*
D20*
X189938000Y-129740000D03*
X191838000Y-129740000D03*
D17*
X183932840Y-68072000D03*
X182107840Y-68072000D03*
X181452500Y-86868000D03*
X179627500Y-86868000D03*
D21*
X135203064Y-118647726D03*
X135203064Y-119917726D03*
X135203064Y-121187726D03*
X135203064Y-122457726D03*
X135203064Y-123727726D03*
X135203064Y-124997726D03*
X135203064Y-126267726D03*
X135203064Y-127537726D03*
X140153064Y-127537726D03*
X140153064Y-126267726D03*
X140153064Y-124997726D03*
X140153064Y-123727726D03*
X140153064Y-122457726D03*
X140153064Y-121187726D03*
X140153064Y-119917726D03*
X140153064Y-118647726D03*
D17*
X168752500Y-92235934D03*
X166927500Y-92235934D03*
D18*
X133186648Y-134263189D03*
X137586648Y-134263189D03*
D22*
X131063050Y-129153500D03*
X132963050Y-129153500D03*
X132013050Y-127278500D03*
D23*
X172392500Y-145180000D03*
X172392500Y-146130000D03*
X172392500Y-147080000D03*
X174667500Y-147080000D03*
X174667500Y-145180000D03*
D17*
X117752500Y-141170000D03*
X115927500Y-141170000D03*
D20*
X189938000Y-78740000D03*
X191838000Y-78740000D03*
D12*
X179350000Y-96525000D03*
X179350000Y-93225000D03*
D16*
X182105336Y-70104000D03*
X183930336Y-70104000D03*
D12*
X181825000Y-144250000D03*
X181825000Y-147550000D03*
D24*
X184622000Y-94488000D03*
X188922000Y-94488000D03*
D23*
X121392500Y-94180000D03*
X121392500Y-95130000D03*
X121392500Y-96080000D03*
X123667500Y-96080000D03*
X123667500Y-94180000D03*
D25*
X118480000Y-97075000D03*
X118480000Y-100025000D03*
D26*
X122174000Y-92352500D03*
X122174000Y-90527500D03*
D18*
X184186648Y-134263189D03*
X188586648Y-134263189D03*
D12*
X128350000Y-96525000D03*
X128350000Y-93225000D03*
D24*
X133622000Y-94488000D03*
X137922000Y-94488000D03*
D17*
X132933550Y-72136000D03*
X131108550Y-72136000D03*
D27*
X177618095Y-91440000D03*
X177618095Y-89540000D03*
D25*
X169480000Y-148075000D03*
X169480000Y-151025000D03*
D26*
X173174000Y-143352500D03*
X173174000Y-141527500D03*
D12*
X125852177Y-93199169D03*
X125852177Y-96499169D03*
D17*
X132933550Y-123136000D03*
X131108550Y-123136000D03*
X126333864Y-83566000D03*
X124508864Y-83566000D03*
D12*
X128350000Y-147525000D03*
X128350000Y-144225000D03*
D16*
X124476200Y-138630000D03*
X126301200Y-138630000D03*
D17*
X132932840Y-68072000D03*
X131107840Y-68072000D03*
D16*
X124510809Y-85598000D03*
X126335809Y-85598000D03*
D15*
X138663636Y-97959082D03*
X136763636Y-97959082D03*
X137713636Y-99834082D03*
D17*
X131915699Y-131238384D03*
X130090699Y-131238384D03*
D28*
X167130000Y-94675000D03*
X165860000Y-94675000D03*
X164590000Y-94675000D03*
X163320000Y-94675000D03*
X163320000Y-99625000D03*
X164590000Y-99625000D03*
X165860000Y-99625000D03*
X167130000Y-99625000D03*
D16*
X182098906Y-125168000D03*
X183923906Y-125168000D03*
D18*
X133186648Y-83263189D03*
X137586648Y-83263189D03*
D26*
X182508320Y-117268384D03*
X182508320Y-115443384D03*
D15*
X189663636Y-148959082D03*
X187763636Y-148959082D03*
X188713636Y-150834082D03*
D26*
X179270000Y-80819000D03*
X179270000Y-78994000D03*
D17*
X183933550Y-123136000D03*
X182108550Y-123136000D03*
X119588725Y-145234000D03*
X117763725Y-145234000D03*
D19*
X163825000Y-79230000D03*
X163825000Y-80500000D03*
X163825000Y-81770000D03*
X163825000Y-83040000D03*
X163825000Y-84310000D03*
X163825000Y-85580000D03*
X163825000Y-86850000D03*
X163825000Y-88120000D03*
X173125000Y-88120000D03*
X173125000Y-86850000D03*
X173125000Y-85580000D03*
X173125000Y-84310000D03*
X173125000Y-83040000D03*
X173125000Y-81770000D03*
X173125000Y-80500000D03*
X173125000Y-79230000D03*
D18*
X184186648Y-83263189D03*
X188586648Y-83263189D03*
D17*
X110890107Y-117206359D03*
X109065107Y-117206359D03*
D26*
X131508320Y-117268384D03*
X131508320Y-115443384D03*
D17*
X117752500Y-90170000D03*
X115927500Y-90170000D03*
D29*
X181490000Y-89032500D03*
X180540000Y-89032500D03*
X179590000Y-89032500D03*
X179590000Y-91307500D03*
X181490000Y-91307500D03*
D30*
X124538237Y-89565000D03*
X124538237Y-91440000D03*
D29*
X130490000Y-140032500D03*
X129540000Y-140032500D03*
X128590000Y-140032500D03*
X128590000Y-142307500D03*
X130490000Y-142307500D03*
D15*
X114197348Y-90358224D03*
X112297348Y-90358224D03*
X113247348Y-92233224D03*
D17*
X126316594Y-130561634D03*
X124491594Y-130561634D03*
D25*
X118480000Y-148075000D03*
X118480000Y-151025000D03*
D17*
X126342608Y-132564676D03*
X124517608Y-132564676D03*
D30*
X175538237Y-89565000D03*
X175538237Y-91440000D03*
D31*
X170888000Y-143377500D03*
X170888000Y-141502500D03*
D18*
X133182000Y-89154000D03*
X137582000Y-89154000D03*
D15*
X129973541Y-133670793D03*
X128073541Y-133670793D03*
X129023541Y-135545793D03*
D16*
X131098906Y-74168000D03*
X132923906Y-74168000D03*
D32*
X189841582Y-116290224D03*
X189191582Y-116290224D03*
X188541582Y-116290224D03*
X187891582Y-116290224D03*
X187241582Y-116290224D03*
D31*
X170888000Y-92377500D03*
X170888000Y-90502500D03*
D18*
X133182000Y-140154000D03*
X137582000Y-140154000D03*
D16*
X131105336Y-70104000D03*
X132930336Y-70104000D03*
D17*
X177342608Y-81564676D03*
X175517608Y-81564676D03*
D15*
X165197348Y-141358224D03*
X163297348Y-141358224D03*
X164247348Y-143233224D03*
D18*
X184182000Y-89154000D03*
X188582000Y-89154000D03*
D30*
X175538237Y-140565000D03*
X175538237Y-142440000D03*
D17*
X117752500Y-143235934D03*
X115927500Y-143235934D03*
X170588725Y-145234000D03*
X168763725Y-145234000D03*
D33*
X135004000Y-150060000D03*
X132204000Y-150060000D03*
D17*
X170588725Y-94234000D03*
X168763725Y-94234000D03*
D21*
X186203064Y-67647726D03*
X186203064Y-68917726D03*
X186203064Y-70187726D03*
X186203064Y-71457726D03*
X186203064Y-72727726D03*
X186203064Y-73997726D03*
X186203064Y-75267726D03*
X186203064Y-76537726D03*
X191153064Y-76537726D03*
X191153064Y-75267726D03*
X191153064Y-73997726D03*
X191153064Y-72727726D03*
X191153064Y-71457726D03*
X191153064Y-70187726D03*
X191153064Y-68917726D03*
X191153064Y-67647726D03*
D19*
X112825000Y-130230000D03*
X112825000Y-131500000D03*
X112825000Y-132770000D03*
X112825000Y-134040000D03*
X112825000Y-135310000D03*
X112825000Y-136580000D03*
X112825000Y-137850000D03*
X112825000Y-139120000D03*
X122125000Y-139120000D03*
X122125000Y-137850000D03*
X122125000Y-136580000D03*
X122125000Y-135310000D03*
X122125000Y-134040000D03*
X122125000Y-132770000D03*
X122125000Y-131500000D03*
X122125000Y-130230000D03*
D26*
X182508320Y-66268384D03*
X182508320Y-64443384D03*
D23*
X172392500Y-94180000D03*
X172392500Y-95130000D03*
X172392500Y-96080000D03*
X174667500Y-96080000D03*
X174667500Y-94180000D03*
D13*
X195572362Y-129726687D03*
X194922362Y-129726687D03*
X194272362Y-129726687D03*
X193622362Y-129726687D03*
X193622362Y-128126687D03*
X194272362Y-128126687D03*
X194922362Y-128126687D03*
X195572362Y-128126687D03*
D29*
X181490000Y-140032500D03*
X180540000Y-140032500D03*
X179590000Y-140032500D03*
X179590000Y-142307500D03*
X181490000Y-142307500D03*
X130490000Y-89032500D03*
X129540000Y-89032500D03*
X128590000Y-89032500D03*
X128590000Y-91307500D03*
X130490000Y-91307500D03*
D26*
X128270000Y-80819000D03*
X128270000Y-78994000D03*
D17*
X177333864Y-134566000D03*
X175508864Y-134566000D03*
D12*
X125852177Y-144199169D03*
X125852177Y-147499169D03*
D27*
X177618095Y-142440000D03*
X177618095Y-140540000D03*
D17*
X161890107Y-117206359D03*
X160065107Y-117206359D03*
D34*
X188090000Y-129994000D03*
X186890000Y-129994000D03*
X185690000Y-129994000D03*
D17*
X132932840Y-119072000D03*
X131107840Y-119072000D03*
D26*
X179270000Y-131819000D03*
X179270000Y-129994000D03*
D23*
X121392500Y-145180000D03*
X121392500Y-146130000D03*
X121392500Y-147080000D03*
X123667500Y-147080000D03*
X123667500Y-145180000D03*
D13*
X144572362Y-78726687D03*
X143922362Y-78726687D03*
X143272362Y-78726687D03*
X142622362Y-78726687D03*
X142622362Y-77126687D03*
X143272362Y-77126687D03*
X143922362Y-77126687D03*
X144572362Y-77126687D03*
D17*
X126316594Y-79561634D03*
X124491594Y-79561634D03*
X168752500Y-90170000D03*
X166927500Y-90170000D03*
D26*
X128270000Y-131819000D03*
X128270000Y-129994000D03*
D34*
X137090000Y-129994000D03*
X135890000Y-129994000D03*
X134690000Y-129994000D03*
D33*
X186004000Y-99060000D03*
X183204000Y-99060000D03*
X186004000Y-150060000D03*
X183204000Y-150060000D03*
D17*
X126333864Y-134566000D03*
X124508864Y-134566000D03*
X168752500Y-141170000D03*
X166927500Y-141170000D03*
X117752500Y-92235934D03*
X115927500Y-92235934D03*
X161890107Y-66206359D03*
X160065107Y-66206359D03*
D26*
X173174000Y-92352500D03*
X173174000Y-90527500D03*
D16*
X175476200Y-138630000D03*
X177301200Y-138630000D03*
D22*
X182063050Y-78153500D03*
X183963050Y-78153500D03*
X183013050Y-76278500D03*
D26*
X131508320Y-66268384D03*
X131508320Y-64443384D03*
D16*
X175510809Y-85598000D03*
X177335809Y-85598000D03*
D17*
X181452500Y-137868000D03*
X179627500Y-137868000D03*
D15*
X180973541Y-133670793D03*
X179073541Y-133670793D03*
X180023541Y-135545793D03*
X138663636Y-148959082D03*
X136763636Y-148959082D03*
X137713636Y-150834082D03*
D17*
X119588725Y-94234000D03*
X117763725Y-94234000D03*
D35*
X182521512Y-112002915D03*
X182521512Y-113827915D03*
D17*
X130452500Y-137868000D03*
X128627500Y-137868000D03*
D27*
X126618095Y-142440000D03*
X126618095Y-140540000D03*
D17*
X183932840Y-119072000D03*
X182107840Y-119072000D03*
D28*
X167130000Y-145675000D03*
X165860000Y-145675000D03*
X164590000Y-145675000D03*
X163320000Y-145675000D03*
X163320000Y-150625000D03*
X164590000Y-150625000D03*
X165860000Y-150625000D03*
X167130000Y-150625000D03*
D24*
X133622000Y-145488000D03*
X137922000Y-145488000D03*
D15*
X180973541Y-82670793D03*
X179073541Y-82670793D03*
X180023541Y-84545793D03*
D28*
X116130000Y-94675000D03*
X114860000Y-94675000D03*
X113590000Y-94675000D03*
X112320000Y-94675000D03*
X112320000Y-99625000D03*
X113590000Y-99625000D03*
X114860000Y-99625000D03*
X116130000Y-99625000D03*
D21*
X135203064Y-67647726D03*
X135203064Y-68917726D03*
X135203064Y-70187726D03*
X135203064Y-71457726D03*
X135203064Y-72727726D03*
X135203064Y-73997726D03*
X135203064Y-75267726D03*
X135203064Y-76537726D03*
X140153064Y-76537726D03*
X140153064Y-75267726D03*
X140153064Y-73997726D03*
X140153064Y-72727726D03*
X140153064Y-71457726D03*
X140153064Y-70187726D03*
X140153064Y-68917726D03*
X140153064Y-67647726D03*
D27*
X126618095Y-91440000D03*
X126618095Y-89540000D03*
D16*
X124476200Y-87630000D03*
X126301200Y-87630000D03*
D34*
X188090000Y-78994000D03*
X186890000Y-78994000D03*
X185690000Y-78994000D03*
D17*
X182915699Y-131238384D03*
X181090699Y-131238384D03*
D10*
X164400000Y-61328000D03*
X164400000Y-63328000D03*
X164400000Y-65328000D03*
X164400000Y-67328000D03*
X164400000Y-69328000D03*
X164400000Y-71328000D03*
X164400000Y-73328000D03*
X164400000Y-75328000D03*
D11*
X167000000Y-76828000D03*
X169000000Y-76828000D03*
X171000000Y-76828000D03*
X173000000Y-76828000D03*
X175000000Y-76828000D03*
X177000000Y-76828000D03*
D10*
X179600000Y-75328000D03*
X179600000Y-73328000D03*
X179600000Y-71328000D03*
X179600000Y-69328000D03*
X179600000Y-67328000D03*
X179600000Y-65328000D03*
X179600000Y-63328000D03*
X179600000Y-61328000D03*
D35*
X131521512Y-61002915D03*
X131521512Y-62827915D03*
D15*
X114197348Y-141358224D03*
X112297348Y-141358224D03*
X113247348Y-143233224D03*
D28*
X116130000Y-145675000D03*
X114860000Y-145675000D03*
X113590000Y-145675000D03*
X112320000Y-145675000D03*
X112320000Y-150625000D03*
X113590000Y-150625000D03*
X114860000Y-150625000D03*
X116130000Y-150625000D03*
D32*
X189841582Y-65290224D03*
X189191582Y-65290224D03*
X188541582Y-65290224D03*
X187891582Y-65290224D03*
X187241582Y-65290224D03*
D19*
X112825000Y-79230000D03*
X112825000Y-80500000D03*
X112825000Y-81770000D03*
X112825000Y-83040000D03*
X112825000Y-84310000D03*
X112825000Y-85580000D03*
X112825000Y-86850000D03*
X112825000Y-88120000D03*
X122125000Y-88120000D03*
X122125000Y-86850000D03*
X122125000Y-85580000D03*
X122125000Y-84310000D03*
X122125000Y-83040000D03*
X122125000Y-81770000D03*
X122125000Y-80500000D03*
X122125000Y-79230000D03*
D14*
X161200827Y-111887897D03*
X161200827Y-115287897D03*
D17*
X126342608Y-81564676D03*
X124517608Y-81564676D03*
D12*
X176852177Y-93199169D03*
X176852177Y-96499169D03*
D22*
X182063050Y-129153500D03*
X183963050Y-129153500D03*
X183013050Y-127278500D03*
D10*
X113400000Y-61328000D03*
X113400000Y-63328000D03*
X113400000Y-65328000D03*
X113400000Y-67328000D03*
X113400000Y-69328000D03*
X113400000Y-71328000D03*
X113400000Y-73328000D03*
X113400000Y-75328000D03*
D11*
X116000000Y-76828000D03*
X118000000Y-76828000D03*
X120000000Y-76828000D03*
X122000000Y-76828000D03*
X124000000Y-76828000D03*
X126000000Y-76828000D03*
D10*
X128600000Y-75328000D03*
X128600000Y-73328000D03*
X128600000Y-71328000D03*
X128600000Y-69328000D03*
X128600000Y-67328000D03*
X128600000Y-65328000D03*
X128600000Y-63328000D03*
X128600000Y-61328000D03*
D20*
X138938000Y-129740000D03*
X140838000Y-129740000D03*
D21*
X186203064Y-118647726D03*
X186203064Y-119917726D03*
X186203064Y-121187726D03*
X186203064Y-122457726D03*
X186203064Y-123727726D03*
X186203064Y-124997726D03*
X186203064Y-126267726D03*
X186203064Y-127537726D03*
X191153064Y-127537726D03*
X191153064Y-126267726D03*
X191153064Y-124997726D03*
X191153064Y-123727726D03*
X191153064Y-122457726D03*
X191153064Y-121187726D03*
X191153064Y-119917726D03*
X191153064Y-118647726D03*
D17*
X182915699Y-80238384D03*
X181090699Y-80238384D03*
X177342608Y-132564676D03*
X175517608Y-132564676D03*
D20*
X138938000Y-78740000D03*
X140838000Y-78740000D03*
D14*
X110200827Y-111887897D03*
X110200827Y-115287897D03*
D12*
X130825000Y-144250000D03*
X130825000Y-147550000D03*
D17*
X130452500Y-86868000D03*
X128627500Y-86868000D03*
D30*
X124538237Y-140565000D03*
X124538237Y-142440000D03*
D15*
X189663636Y-97959082D03*
X187763636Y-97959082D03*
X188713636Y-99834082D03*
D35*
X131521512Y-112002915D03*
X131521512Y-113827915D03*
D34*
X137090000Y-78994000D03*
X135890000Y-78994000D03*
X134690000Y-78994000D03*
D24*
X184622000Y-145488000D03*
X188922000Y-145488000D03*
D22*
X131063050Y-78153500D03*
X132963050Y-78153500D03*
X132013050Y-76278500D03*
D13*
X144572362Y-129726687D03*
X143922362Y-129726687D03*
X143272362Y-129726687D03*
X142622362Y-129726687D03*
X142622362Y-128126687D03*
X143272362Y-128126687D03*
X143922362Y-128126687D03*
X144572362Y-128126687D03*
D16*
X131098906Y-125168000D03*
X132923906Y-125168000D03*
D33*
X135004000Y-99060000D03*
X132204000Y-99060000D03*
D26*
X122174000Y-143352500D03*
X122174000Y-141527500D03*
D32*
X138841582Y-65290224D03*
X138191582Y-65290224D03*
X137541582Y-65290224D03*
X136891582Y-65290224D03*
X136241582Y-65290224D03*
D14*
X161200827Y-60887897D03*
X161200827Y-64287897D03*
D35*
X182521512Y-61002915D03*
X182521512Y-62827915D03*
D16*
X182098906Y-74168000D03*
X183923906Y-74168000D03*
D17*
X177316594Y-130561634D03*
X175491594Y-130561634D03*
D32*
X138841582Y-116290224D03*
X138191582Y-116290224D03*
X137541582Y-116290224D03*
X136891582Y-116290224D03*
X136241582Y-116290224D03*
D17*
X110890107Y-66206359D03*
X109065107Y-66206359D03*
D31*
X119888000Y-143377500D03*
X119888000Y-141502500D03*
D25*
X169480000Y-97075000D03*
X169480000Y-100025000D03*
D31*
X119888000Y-92377500D03*
X119888000Y-90502500D03*
M02*
